<svg width="2805" height="2805" viewBox="0 0 2805 2805" fill="none" xmlns="http://www.w3.org/2000/svg">
<path d="M2641.86 1571.14C2559.28 1792.34 2390.53 2031.77 2153.06 2102.63C1794.02 2209.78 1751.39 2499.03 1108.7 2472.21C1014.86 2468.71 921.676 2455.04 830.785 2431.43C786.342 2419.76 742.699 2405.24 700.128 2387.95C324.651 2235.92 129.03 1901.23 112.536 1551C91.0502 1090.42 412.447 870.897 621.307 742.315C830.168 613.734 1081.89 115.678 1713.91 137.109C1810.42 139.961 1906.27 153.948 1999.57 178.791C2212.25 236.349 2428.4 363.921 2554.01 549.78C2563.43 563.73 2572.45 578.017 2581.05 592.641C2749.18 877.853 2754.51 1269.54 2641.86 1571.14Z" fill="#EB5757"/>
<path opacity="0.7" d="M2641.86 1571.14C2559.28 1792.34 2390.53 2031.77 2153.06 2102.63C1794.02 2209.78 1751.39 2499.03 1108.7 2472.21C1014.86 2468.71 921.676 2455.04 830.785 2431.43C786.342 2419.76 742.699 2405.24 700.128 2387.95C324.651 2235.92 129.03 1901.23 112.536 1551C91.0502 1090.42 412.447 870.897 621.307 742.315C830.168 613.734 1081.89 115.678 1713.91 137.109C1810.42 139.961 1906.27 153.948 1999.57 178.791C2212.25 236.349 2428.4 363.921 2554.01 549.78C2563.43 563.73 2572.45 578.017 2581.05 592.641C2749.18 877.853 2754.51 1269.54 2641.86 1571.14Z" fill="white"/>
<path d="M1405.31 1771.19C1340.06 1623.09 1349.71 1380.51 1379.95 1360.31C1413.22 1338.15 1465.89 1451.87 1518.63 1418.6C1571.36 1385.33 1607.38 1313.19 1563 1199.47C1518.63 1085.76 1460.4 1160.65 1418.77 1188.25C1377.14 1215.86 1343.88 1191.06 1352.23 1091.2C1358.35 1017.54 1387.07 882.172 1401.77 816.311C1408.39 819.172 1415.01 821.921 1421.52 825.119C1291.2 764.082 1146.96 744.671 1085.98 764.082C1025 783.493 1036.05 789.046 1066.52 861.135C1130.19 1011.54 889.129 1063.09 819.677 947.248C778.107 877.909 839.256 838.975 822.594 789.046C805.933 739.117 498.112 797.349 459.291 819.565C459.291 819.565 534.128 1043.96 523.077 1124.64C512.025 1205.31 473.148 1241.16 414.916 1182.87C356.684 1124.58 281.79 1177.26 278.985 1274.42C276.18 1371.59 292.842 1449.12 359.433 1426.96C426.024 1404.8 478.701 1324.35 500.861 1426.96C523.02 1529.57 484.031 1662.58 462.04 1757C462.04 1757 636.791 1831.89 717.183 1826.34C797.574 1820.78 847.559 1818.03 822.594 1768.1C797.63 1718.17 756.004 1684.91 786.522 1629.42C817.041 1573.94 939.058 1579.5 1002.84 1593.35C1066.63 1607.21 1094.4 1654.39 1074.99 1707.07C1055.58 1759.74 1022.25 1812.48 1083.29 1823.53C1140.79 1834.02 1287.05 1809.95 1431.11 1763.05C1422.58 1765.8 1413.72 1768.5 1405.31 1771.19Z" stroke="#263238" stroke-miterlimit="10"/>
<path d="M1457.59 1754.19C1449.06 1757.11 1440.48 1759.8 1431.95 1762.77C1440.48 1759.97 1449.06 1757.11 1457.59 1754.19Z" stroke="#263238" stroke-miterlimit="10"/>
<path d="M2469.91 1157.85C2417.24 1157.85 2414.43 1199.47 2358.95 1191.17C2303.47 1182.87 2297.97 1055.24 2356.2 830.616C2356.2 830.616 2292.41 877.74 2148.18 880.545C2003.95 883.35 1945.72 866.633 1981.79 813.955C2017.86 761.277 2045.57 719.651 2015.06 678.081C1984.54 636.51 1837.56 642.008 1790.66 678.081C1743.76 714.153 1776.8 755.723 1810.07 802.847C1843.33 849.971 1804.46 877.74 1749.03 880.545C1693.6 883.35 1552.12 886.155 1421.74 825.063C1415.23 821.977 1408.61 819.116 1402 816.255C1387.3 882.285 1358.57 1017.65 1352.46 1091.14C1344.1 1191 1377.37 1215.97 1418.99 1188.2C1460.62 1160.43 1518.85 1085.59 1563.23 1199.42C1607.6 1313.24 1571.53 1385.22 1518.85 1418.54C1466.17 1451.87 1413.22 1338.15 1380.06 1360.31C1349.82 1380.51 1340.17 1623.09 1405.42 1771.19C1422.86 1765.58 1440.31 1759.97 1457.7 1754.36C1610.24 1701.63 1762.77 1676.66 1790.54 1712.73C1818.31 1748.81 1807.37 1743.25 1771.13 1798.73C1734.89 1854.22 1737.81 1901.34 1798.85 1929.05C1859.88 1956.77 2009.61 1951.49 2023.25 1887.48C2036.88 1823.47 1959.46 1787.63 1995.53 1726.59C2031.61 1665.55 2350.59 1754.19 2350.59 1754.19C2350.59 1754.19 2278.5 1510.1 2306.21 1429.65C2333.93 1349.2 2356.2 1368.84 2400.58 1399.13C2444.95 1429.43 2503.18 1426.9 2525.4 1338.15C2547.61 1249.4 2522.59 1157.85 2469.91 1157.85Z" stroke="#263238" stroke-miterlimit="10"/>
<path d="M2305 569.616C2375.61 536.285 2405.83 452.028 2372.5 381.422C2339.17 310.816 2254.91 280.598 2184.3 313.928C2113.7 347.258 2083.48 431.515 2116.81 502.121C2150.14 572.727 2234.4 602.946 2305 569.616Z" fill="#EB5757" stroke="#263238" stroke-miterlimit="10"/>
<path d="M2256.55 557.626C2320.41 551.072 2366.87 493.988 2360.31 430.127C2353.76 366.265 2296.67 319.808 2232.81 326.363C2168.95 332.917 2122.49 390.001 2129.05 453.862C2135.6 517.724 2192.69 564.181 2256.55 557.626Z" fill="white" stroke="#263238" stroke-miterlimit="10"/>
<path d="M2281.03 518.426C2323.25 498.343 2341.2 447.835 2321.12 405.615C2301.03 363.395 2250.52 345.45 2208.3 365.534C2166.08 385.617 2148.14 436.125 2168.22 478.345C2188.31 520.565 2238.81 538.51 2281.03 518.426Z" fill="#EB5757" stroke="#263238" stroke-miterlimit="10"/>
<path d="M2298.08 441.9C2298.08 431.326 2294.94 420.989 2289.07 412.197C2283.2 403.405 2274.85 396.553 2265.08 392.506C2255.31 388.46 2244.56 387.401 2234.19 389.464C2223.82 391.527 2214.29 396.619 2206.81 404.096C2199.34 411.573 2194.24 421.099 2192.18 431.47C2190.12 441.841 2191.18 452.59 2195.22 462.359C2199.27 472.128 2206.12 480.478 2214.91 486.353C2223.71 492.228 2234.04 495.363 2244.62 495.363C2251.64 495.371 2258.6 493.993 2265.08 491.309C2271.57 488.624 2277.47 484.687 2282.44 479.721C2287.4 474.755 2291.34 468.858 2294.03 462.368C2296.71 455.878 2298.09 448.923 2298.08 441.9Z" fill="white" stroke="#263238" stroke-miterlimit="10"/>
<path d="M2269.41 441.9C2269.42 436.993 2267.98 432.193 2265.26 428.108C2262.54 424.023 2258.67 420.836 2254.14 418.951C2249.61 417.066 2244.63 416.567 2239.81 417.517C2235 418.467 2230.58 420.825 2227.1 424.29C2223.63 427.756 2221.26 432.174 2220.3 436.985C2219.34 441.797 2219.83 446.785 2221.7 451.32C2223.58 455.854 2226.76 459.73 2230.83 462.457C2234.91 465.184 2239.71 466.64 2244.62 466.64C2251.18 466.64 2257.48 464.035 2262.13 459.397C2266.78 454.759 2269.4 448.466 2269.41 441.9Z" fill="#EB5757" stroke="#263238" stroke-miterlimit="10"/>
<path d="M2254.88 403.135L2244.67 441.9L2281.25 449.922L2254.88 403.135Z" fill="#263238" stroke="#263238" stroke-miterlimit="10"/>
<path d="M2270.48 424.733L2431.32 337.105" stroke="#263238" stroke-width="2" stroke-miterlimit="10"/>
<path d="M2379.71 365.94L2382.12 323.921L2457.68 280.724V328.69L2379.71 365.94Z" fill="#263238" stroke="#263238" stroke-miterlimit="10"/>
<path d="M2490.11 351.523L2457.01 327.119L2379.37 367.904L2416.79 389.558L2490.11 351.523Z" fill="#263238" stroke="#263238" stroke-miterlimit="10"/>
<path d="M1503.54 450.483H1447.32V584.338H1503.54V450.483Z" fill="#EB5757" stroke="#263238" stroke-miterlimit="10"/>
<path d="M1586.4 409.922H1530.18V584.337H1586.4V409.922Z" fill="#EB5757" stroke="#263238" stroke-miterlimit="10"/>
<path d="M1669.26 450.483H1613.04V584.338H1669.26V450.483Z" fill="#EB5757" stroke="#263238" stroke-miterlimit="10"/>
<path d="M1752.17 401.115H1695.96V584.337H1752.17V401.115Z" fill="#EB5757" stroke="#263238" stroke-miterlimit="10"/>
<path d="M1835.03 334.075H1778.82V584.337H1835.03V334.075Z" fill="#EB5757" stroke="#263238" stroke-miterlimit="10"/>
<path d="M1760.42 228.046L1782.35 237.415L1633.18 380.582L1561.94 341.705L1449.06 410.315V431.016L1562.39 362.125L1636.1 402.349L1794.58 250.206L1803.05 272.478L1834.41 199.716L1760.42 228.046Z" fill="#263238" stroke="#263238" stroke-linecap="round" stroke-linejoin="round"/>
<path d="M1105.96 578.719C1181.97 560.877 1229.13 484.793 1211.29 408.781C1193.44 332.77 1117.36 285.614 1041.35 303.457C965.336 321.299 918.18 397.383 936.023 473.394C953.865 549.406 1029.95 596.561 1105.96 578.719Z" fill="white" stroke="#263238" stroke-miterlimit="10"/>
<path d="M1101.6 563.641C1169.26 548.194 1211.59 480.821 1196.14 413.16C1180.7 345.498 1113.32 303.17 1045.66 318.617C978 334.064 935.672 401.436 951.118 469.098C966.565 536.759 1033.94 579.088 1101.6 563.641Z" fill="#EB5757" stroke="#263238" stroke-miterlimit="10"/>
<path d="M1090.93 553.841C1152.81 544.25 1195.2 486.314 1185.61 424.435C1176.02 362.557 1118.08 320.169 1056.2 329.76C994.323 339.35 951.936 397.287 961.526 459.165C971.116 521.043 1029.05 563.431 1090.93 553.841Z" fill="white" stroke="#263238" stroke-miterlimit="10"/>
<path d="M1024.15 373H1045.25C1045.48 373.013 1045.7 373.081 1045.89 373.199C1046.09 373.317 1046.26 373.481 1046.38 373.677L1074.49 420.718H1102.91V374.423C1102.91 374.238 1102.94 374.055 1103.01 373.883C1103.07 373.712 1103.17 373.555 1103.3 373.423C1103.43 373.29 1103.58 373.185 1103.75 373.112C1103.92 373.04 1104.11 373.001 1104.29 373H1123.8C1124.17 373 1124.52 373.146 1124.78 373.407C1125.04 373.667 1125.19 374.021 1125.19 374.389V420.684H1137.61C1137.98 420.684 1138.33 420.831 1138.59 421.091C1138.85 421.352 1139 421.705 1139 422.073V434.596C1139 434.964 1138.85 435.317 1138.59 435.578C1138.33 435.838 1137.98 435.984 1137.61 435.984H1125.19V446.61H1137.61C1137.98 446.61 1138.33 446.755 1138.59 447.013C1138.85 447.271 1139 447.621 1139 447.987V460.487C1139 460.854 1138.85 461.204 1138.59 461.462C1138.33 461.72 1137.98 461.865 1137.61 461.865H1125.19V510.419C1125.19 510.787 1125.04 511.14 1124.78 511.401C1124.52 511.661 1124.17 511.807 1123.8 511.807H1104.29C1104.06 511.795 1103.84 511.726 1103.64 511.608C1103.44 511.49 1103.28 511.326 1103.16 511.13L1074.49 461.865H1046.56V510.419C1046.54 510.783 1046.38 511.127 1046.12 511.376C1045.85 511.626 1045.5 511.76 1045.13 511.751H1024.15C1023.78 511.751 1023.43 511.605 1023.17 511.344C1022.91 511.084 1022.76 510.73 1022.76 510.362V461.865H1010.34C1009.99 461.853 1009.65 461.703 1009.39 461.446C1009.14 461.19 1009 460.846 1009 460.487V447.987C1009 447.621 1009.15 447.271 1009.41 447.013C1009.67 446.755 1010.02 446.61 1010.39 446.61H1022.81V435.984H1010.39C1010.21 435.984 1010.03 435.949 1009.86 435.879C1009.69 435.809 1009.54 435.707 1009.41 435.578C1009.15 435.317 1009 434.964 1009 434.596V422.107C1009 421.739 1009.15 421.385 1009.41 421.125C1009.67 420.865 1010.02 420.718 1010.39 420.718H1022.81V374.423C1022.8 374.056 1022.94 373.701 1023.19 373.435C1023.44 373.168 1023.79 373.012 1024.15 373V373ZM1046.56 435.984V446.61H1065.75L1060.78 435.984H1046.56ZM1088.04 446.61H1102.91V435.984H1083.16L1088.04 446.61ZM1102.91 461.865H1096.94L1102.91 474.285V461.865ZM1046.56 409.991V420.718H1051.72L1046.56 409.991Z" fill="#263238"/>
<path d="M615.473 331.663H352.981V578.447H615.473V331.663Z" fill="white" stroke="#263238" stroke-miterlimit="10"/>
<path d="M615.473 331.663H352.981V395.112H615.473V331.663Z" fill="#EB5757" stroke="#263238" stroke-linecap="round" stroke-linejoin="round"/>
<path d="M405.715 430.343H374.299V461.759H405.715V430.343Z" fill="#EB5757" stroke="#263238" stroke-linecap="round" stroke-linejoin="round"/>
<path d="M452.839 430.343H421.423V461.759H452.839V430.343Z" fill="#EB5757" stroke="#263238" stroke-linecap="round" stroke-linejoin="round"/>
<path d="M499.907 430.343H468.491V461.759H499.907V430.343Z" fill="#EB5757" stroke="#263238" stroke-linecap="round" stroke-linejoin="round"/>
<path d="M547.031 430.343H515.615V461.759H547.031V430.343Z" fill="#EB5757" stroke="#263238" stroke-linecap="round" stroke-linejoin="round"/>
<path d="M594.155 430.343H562.739V461.759H594.155V430.343Z" fill="#EB5757" stroke="#263238" stroke-linecap="round" stroke-linejoin="round"/>
<path d="M405.715 479.711H374.299V511.127H405.715V479.711Z" fill="#EB5757" stroke="#263238" stroke-linecap="round" stroke-linejoin="round"/>
<path d="M452.839 479.711H421.423V511.127H452.839V479.711Z" fill="#EB5757" stroke="#263238" stroke-linecap="round" stroke-linejoin="round"/>
<path d="M499.907 479.711H468.491V511.127H499.907V479.711Z" fill="#EB5757" stroke="#263238" stroke-linecap="round" stroke-linejoin="round"/>
<path d="M547.031 479.711H515.615V511.127H547.031V479.711Z" fill="#EB5757" stroke="#263238" stroke-linecap="round" stroke-linejoin="round"/>
<path d="M594.155 479.711H562.739V511.127H594.155V479.711Z" fill="#EB5757" stroke="#263238" stroke-linecap="round" stroke-linejoin="round"/>
<path d="M405.715 529.079H374.299V560.495H405.715V529.079Z" fill="#EB5757" stroke="#263238" stroke-linecap="round" stroke-linejoin="round"/>
<path d="M452.839 529.079H421.423V560.495H452.839V529.079Z" fill="#EB5757" stroke="#263238" stroke-linecap="round" stroke-linejoin="round"/>
<path d="M499.907 529.079H468.491V560.495H499.907V529.079Z" fill="#EB5757" stroke="#263238" stroke-linecap="round" stroke-linejoin="round"/>
<path d="M547.031 529.079H515.615V560.495H547.031V529.079Z" fill="#EB5757" stroke="#263238" stroke-linecap="round" stroke-linejoin="round"/>
<path d="M594.155 529.079H562.739V560.495H594.155V529.079Z" fill="#EB5757" stroke="#263238" stroke-linecap="round" stroke-linejoin="round"/>
<path d="M411.325 291.271H388.885V351.859H411.325V291.271Z" fill="#263238"/>
<path d="M467.425 291.271H444.985V351.859H467.425V291.271Z" fill="#263238"/>
<path d="M523.469 291.271H501.029V351.859H523.469V291.271Z" fill="#263238"/>
<path d="M579.569 291.271H557.129V351.859H579.569V291.271Z" fill="#263238"/>
<path d="M124.71 2175.11C136.884 2180.44 166.673 2179.77 166.673 2179.77C166.673 2179.77 160.278 2160.3 159.717 2159.12C153.153 2145.43 132.508 2122.88 115.678 2125.12C112.895 2125.58 110.24 2126.62 107.884 2128.17C105.529 2129.72 103.527 2131.75 102.008 2134.13C100.489 2136.5 99.4876 2139.17 99.0688 2141.96C98.6501 2144.75 98.8234 2147.6 99.5774 2150.31C102.382 2161.93 114.332 2170.62 124.71 2175.11Z" fill="#EB5757"/>
<path d="M134.977 2261.45C147.599 2263.24 174.247 2255.56 176.322 2254.94C180.681 2270.15 186.061 2285.05 192.423 2299.54C196.07 2308.01 200.053 2316.37 204.092 2324.84C201.68 2321.25 199.492 2318.11 199.099 2317.72C189.225 2306.22 163.307 2289.67 147.711 2296.57C145.145 2297.73 142.853 2299.42 140.986 2301.54C139.119 2303.65 137.719 2306.13 136.877 2308.82C136.035 2311.51 135.77 2314.35 136.1 2317.15C136.43 2319.95 137.347 2322.64 138.791 2325.06C144.401 2335.56 158.37 2340.77 169.59 2342.4C180.81 2344.03 203.755 2337.97 209.758 2336.23C211.329 2339.43 212.9 2342.68 214.526 2345.88C222.212 2361.19 229.954 2376.45 236.966 2391.66C239.491 2396.98 241.791 2402.37 244.091 2407.76C241.903 2404.56 240.108 2402.15 239.771 2401.59C229.842 2390.37 203.924 2373.82 188.328 2380.44C185.775 2381.62 183.5 2383.33 181.649 2385.46C179.798 2387.58 178.413 2390.07 177.583 2392.76C176.753 2395.45 176.497 2398.28 176.831 2401.08C177.164 2403.88 178.08 2406.57 179.52 2408.99C185.13 2419.48 199.155 2424.64 210.319 2426.27C221.483 2427.9 242.296 2422.4 249.589 2420.66C251.777 2426.27 253.965 2431.88 255.872 2437.49C257.05 2441.25 258.509 2444.84 259.463 2448.71C260.416 2452.58 261.594 2456.23 262.604 2459.93C264.343 2467.17 266.195 2474.63 267.709 2481.75C268.831 2486.69 269.785 2491.46 270.739 2496.17C268.27 2490.84 263.277 2480.46 262.772 2479.62C254.694 2466.77 231.581 2446.75 215.144 2450.9C212.477 2451.68 210 2453 207.869 2454.78C205.738 2456.56 203.999 2458.77 202.76 2461.25C201.522 2463.74 200.812 2466.46 200.674 2469.23C200.536 2472.01 200.974 2474.78 201.96 2477.38C206.055 2488.6 218.79 2495.89 230.01 2499.2C241.903 2502.79 268.27 2499.48 271.58 2499.2C273.151 2507.11 274.61 2514.79 275.9 2522.03C278.705 2538.13 280.837 2552.49 282.464 2564.67H293.684C291.72 2552.05 289.196 2537.07 285.83 2520.24C284.259 2512.21 282.407 2503.69 280.22 2494.94C288.172 2491.75 295.928 2488.1 303.445 2484C312.14 2493.42 334.356 2504.42 337.105 2505.82C334.076 2513.28 331.046 2520.52 328.073 2527.25C321.902 2541.44 316.067 2554.01 310.906 2564.67H322.968C327.4 2554.79 332.28 2543.57 337.329 2531.01C340.471 2523.43 343.613 2515.3 346.81 2506.94C350.008 2507.61 376.094 2512.89 388.268 2510.14C399.488 2507.67 412.672 2501.44 417.665 2490.5C418.904 2487.97 419.596 2485.2 419.696 2482.37C419.795 2479.55 419.3 2476.74 418.242 2474.12C417.184 2471.5 415.586 2469.13 413.554 2467.17C411.522 2465.21 409.099 2463.7 406.445 2462.73C390.344 2457.12 365.828 2475.64 356.796 2487.81C356.291 2488.54 351.186 2496.96 348.381 2502.34C349.671 2498.92 350.962 2495.61 352.196 2492.07C354.776 2485.06 357.133 2477.99 359.713 2470.42L363.079 2459.2C364.257 2455.44 365.043 2451.4 366.109 2447.42C368.297 2438.27 370.036 2428.85 371.719 2419.37C377.89 2421.61 399.769 2429.24 410.989 2428.4C422.209 2427.56 436.458 2423.46 442.966 2413.42C444.593 2411.12 445.716 2408.5 446.259 2405.73C446.803 2402.96 446.755 2400.11 446.12 2397.36C445.484 2394.61 444.275 2392.02 442.571 2389.78C440.867 2387.53 438.708 2385.66 436.234 2384.31C421.143 2376.56 394.103 2390.87 383.387 2401.59C382.714 2402.26 375.87 2410.79 372.167 2415.55C373.065 2409.94 374.019 2404.33 374.748 2398.28C376.824 2381.45 378.395 2364.33 380.358 2347.28C380.863 2342.06 381.424 2336.85 381.985 2331.63C384.173 2332.47 410.035 2342.06 422.714 2341.22C433.934 2340.38 448.127 2336.28 454.691 2326.24C456.31 2323.94 457.425 2321.31 457.963 2318.55C458.502 2315.78 458.452 2312.93 457.817 2310.18C457.182 2307.44 455.976 2304.86 454.278 2302.61C452.579 2300.36 450.426 2298.49 447.959 2297.13C432.868 2289.33 405.827 2303.63 395.056 2314.35C394.271 2315.14 384.453 2327.48 382.097 2330.73C383.275 2319.23 384.622 2307.84 386.361 2296.62C388.668 2281.47 391.929 2266.48 396.122 2251.74C397.132 2252.13 424.172 2262.29 437.075 2261.39C448.295 2260.61 462.545 2256.45 469.052 2246.41C470.671 2244.1 471.786 2241.48 472.325 2238.72C472.863 2235.95 472.814 2233.1 472.179 2230.35C471.544 2227.61 470.338 2225.03 468.639 2222.78C466.941 2220.53 464.788 2218.66 462.32 2217.3C447.229 2209.5 420.189 2223.86 409.474 2234.52C408.632 2235.36 398.254 2248.6 396.29 2251.35C396.29 2250.51 396.739 2249.61 396.964 2248.77C401.61 2234.13 407.562 2219.93 414.747 2206.36C418.562 2198.78 422.714 2191.77 426.865 2185.1C431.69 2187.51 453.793 2198.22 465.63 2198.73C477.467 2199.23 491.436 2196.6 499.29 2187.51C501.159 2185.39 502.559 2182.91 503.4 2180.21C504.241 2177.52 504.503 2174.68 504.169 2171.88C503.836 2169.08 502.914 2166.38 501.464 2163.95C500.014 2161.53 498.069 2159.45 495.756 2157.83C481.619 2148.41 453.176 2159.74 441.339 2169.05C440.666 2169.56 434.719 2175.5 430.455 2179.88C432.363 2176.9 434.27 2173.76 436.065 2170.9C443.134 2160.24 450.315 2150.87 456.71 2142.85C460.413 2138.2 463.835 2134.1 467.089 2130.23C473.035 2130.23 497.046 2129.39 507.537 2124.62C518.027 2119.85 529.528 2110.87 531.996 2099.15C532.676 2096.41 532.77 2093.56 532.272 2090.78C531.775 2088 530.697 2085.35 529.109 2083.02C527.521 2080.69 525.458 2078.71 523.056 2077.23C520.653 2075.74 517.965 2074.78 515.166 2074.41C498.336 2072.61 478.253 2095.73 472.082 2109.58C471.577 2110.76 465.406 2130.45 465.686 2130.45H465.63C462.432 2134.1 459.01 2138.03 455.42 2142.4C448.8 2150.48 441.451 2159.74 434.102 2170.45C425.916 2181.75 418.422 2193.54 411.662 2205.74C404.104 2219.32 397.777 2233.55 392.756 2248.26V2248.82C392.756 2243.83 392.756 2229.92 392.756 2228.85C390.793 2213.82 378.17 2185.94 361.509 2182.85C358.721 2182.41 355.873 2182.57 353.15 2183.31C350.427 2184.05 347.89 2185.35 345.704 2187.13C343.518 2188.92 341.732 2191.14 340.463 2193.66C339.195 2196.18 338.471 2198.94 338.339 2201.76C337.385 2213.71 346.025 2225.66 354.44 2233.17C363.977 2241.7 390.4 2250 392.532 2250.56C387.766 2265.67 384.018 2281.07 381.312 2296.68C379.685 2305.77 378.339 2314.97 377.104 2324.17C377.104 2319.9 377.104 2316.03 377.104 2315.53C375.141 2300.49 362.518 2272.61 345.857 2269.53C343.074 2269.09 340.23 2269.24 337.511 2269.98C334.791 2270.71 332.257 2272.01 330.072 2273.79C327.887 2275.57 326.1 2277.78 324.828 2280.3C323.556 2282.81 322.826 2285.56 322.687 2288.38C321.734 2300.32 330.373 2312.27 338.788 2319.85C347.203 2327.42 369.755 2334.94 375.702 2336.68L374.355 2347.34C372.336 2364.17 370.372 2381.33 367.96 2397.83C367.118 2403.44 366.053 2409.38 364.987 2415.16C364.987 2411.35 364.987 2408.09 364.987 2407.64C363.023 2392.61 350.457 2364.67 333.739 2361.59C330.953 2361.16 328.108 2361.32 325.389 2362.06C322.669 2362.8 320.136 2364.11 317.952 2365.89C315.768 2367.67 313.983 2369.89 312.711 2372.41C311.439 2374.92 310.71 2377.68 310.57 2380.49C309.616 2392.44 318.255 2404.39 326.727 2411.91C335.198 2419.42 355.45 2426.33 362.518 2428.74C361.284 2434.35 360.05 2440.41 358.591 2446.07C357.525 2449.83 356.74 2453.59 355.45 2457.29C354.159 2460.99 353.037 2464.81 351.859 2468.51C349.279 2475.52 346.698 2482.76 344.061 2489.55L338.451 2503.24C339.349 2497.63 340.92 2486.02 340.92 2485.01C340.714 2471.68 337.124 2458.63 330.485 2447.08C330.597 2445.61 330.597 2444.13 330.485 2442.65C330.099 2439.87 329.138 2437.21 327.663 2434.82C326.187 2432.44 324.231 2430.39 321.918 2428.81C319.605 2427.22 316.987 2426.14 314.231 2425.62C311.475 2425.11 308.642 2425.18 305.913 2425.82C289.532 2430.2 279.098 2458.98 278.312 2474.12C278.312 2475.02 278.873 2484.78 279.322 2490.95C278.537 2487.36 277.751 2483.94 276.854 2480.24C275.114 2473 273.207 2465.82 271.244 2458.08C270.122 2454.38 268.943 2450.62 267.821 2446.86C266.699 2443.1 265.185 2439.23 263.838 2435.36C260.641 2426.49 256.882 2417.69 252.955 2408.88C259.294 2407.36 281.79 2401.64 290.766 2394.68C299.742 2387.73 309.279 2376.51 309.223 2364.56C309.295 2361.74 308.773 2358.94 307.692 2356.33C306.611 2353.73 304.995 2351.38 302.948 2349.43C300.902 2347.49 298.47 2346 295.811 2345.06C293.152 2344.12 290.325 2343.75 287.513 2343.97C270.683 2345.82 255.984 2372.69 252.955 2387.56C252.955 2388.46 251.777 2399.34 251.328 2405.34C248.916 2400.07 246.503 2394.8 243.923 2389.52C236.349 2374.38 228.271 2359.23 220.249 2344.08L212.956 2330.17C215.256 2329.61 242.072 2323.38 252.226 2315.64C261.258 2308.74 270.739 2297.46 270.683 2285.51C270.754 2282.69 270.232 2279.89 269.152 2277.29C268.071 2274.68 266.454 2272.33 264.408 2270.39C262.361 2268.45 259.929 2266.96 257.27 2266.02C254.611 2265.08 251.784 2264.7 248.972 2264.93C232.142 2266.78 217.444 2293.65 214.414 2308.52C214.414 2309.64 212.731 2325.35 212.619 2329.33C207.009 2319.06 202.072 2308.85 197.36 2298.53C190.808 2284.65 185.185 2270.35 180.53 2255.73C181.596 2255.73 209.646 2249.11 219.8 2241.2C228.776 2234.29 238.313 2223.02 238.201 2211.07C238.28 2208.25 237.766 2205.45 236.691 2202.84C235.617 2200.24 234.006 2197.89 231.964 2195.95C229.921 2194.01 227.493 2192.52 224.837 2191.57C222.18 2190.63 219.356 2190.26 216.546 2190.48C199.716 2192.33 185.018 2219.2 181.932 2234.01C181.932 2235.19 180.193 2252.08 180.137 2255.16L179.24 2252.58C175.069 2237.81 172.197 2222.7 170.656 2207.42C169.703 2199.01 169.31 2190.87 169.029 2183.02C174.639 2182.35 198.818 2179.09 208.916 2172.98C219.014 2166.86 229.281 2156.93 230.515 2144.93C230.902 2142.13 230.697 2139.29 229.912 2136.58C229.127 2133.87 227.781 2131.36 225.96 2129.21C224.14 2127.05 221.886 2125.31 219.346 2124.08C216.805 2122.85 214.036 2122.18 211.217 2122.09C194.387 2122.09 176.771 2147.17 171.947 2161.36C171.947 2162.15 169.983 2170.4 168.861 2176.46C168.861 2172.87 168.861 2169.22 168.861 2165.8C168.861 2152.95 169.703 2141.17 170.488 2130.79C170.993 2125.18 171.554 2119.57 172.171 2114.58C177.052 2111.21 196.687 2097.35 202.745 2087.43C208.804 2077.5 213.461 2063.81 209.029 2052.7C208.076 2050.06 206.577 2047.64 204.631 2045.62C202.684 2043.59 200.333 2041.99 197.729 2040.94C195.126 2039.88 192.329 2039.38 189.521 2039.47C186.712 2039.57 183.955 2040.25 181.427 2041.48C166.337 2049.28 162.353 2079.63 164.597 2094.55C164.597 2095.84 170.544 2115.7 170.768 2115.53H171.105C170.432 2120.3 169.759 2125.46 169.198 2131.07C168.132 2141.51 167.066 2153.23 166.785 2166.13C166.31 2180.02 166.629 2193.91 167.739 2207.76C168.969 2223.25 171.56 2238.61 175.481 2253.65V2254.21C172.788 2250 164.934 2238.56 164.261 2237.72C154.331 2226.5 128.413 2209.95 112.817 2216.57C110.425 2217.78 108.298 2219.45 106.563 2221.49C104.828 2223.54 103.519 2225.91 102.714 2228.46C101.908 2231.02 101.623 2233.71 101.875 2236.38C102.126 2239.05 102.909 2241.64 104.178 2244C109.956 2254.6 123.757 2259.76 134.977 2261.45Z" fill="#EB5757"/>
<path d="M426.023 2181.67C426.023 2181.67 431.633 2161.87 431.633 2160.58C433.765 2145.6 428.941 2115.36 413.681 2107.96C411.11 2106.79 408.323 2106.19 405.501 2106.18C402.679 2106.17 399.887 2106.75 397.307 2107.9C394.728 2109.04 392.419 2110.72 390.533 2112.82C388.646 2114.92 387.224 2117.39 386.361 2120.08C382.265 2131.3 387.427 2145.15 393.598 2154.63C400.778 2165.8 425.967 2181.67 426.023 2181.67Z" fill="#EB5757"/>
<path d="M2195.42 2175.11C2207.59 2180.44 2237.38 2179.77 2237.38 2179.77C2237.38 2179.77 2230.98 2160.3 2230.42 2159.12C2223.86 2145.43 2203.21 2122.88 2186.38 2125.12C2183.6 2125.58 2180.95 2126.62 2178.59 2128.17C2176.24 2129.72 2174.23 2131.75 2172.71 2134.13C2171.2 2136.5 2170.19 2139.17 2169.78 2141.96C2169.36 2144.75 2169.53 2147.6 2170.28 2150.31C2173.09 2161.93 2185.04 2170.62 2195.42 2175.11Z" fill="#EB5757"/>
<path d="M2205.68 2261.45C2218.31 2263.24 2244.95 2255.56 2247.03 2254.94C2251.41 2270.14 2256.79 2285.04 2263.13 2299.54C2266.78 2308.01 2270.76 2316.37 2274.8 2324.84C2272.39 2321.25 2270.2 2318.11 2269.81 2317.72C2259.93 2306.22 2234.01 2289.67 2218.42 2296.57C2215.85 2297.73 2213.56 2299.42 2211.69 2301.54C2209.83 2303.65 2208.43 2306.13 2207.58 2308.82C2206.74 2311.51 2206.48 2314.35 2206.81 2317.15C2207.14 2319.95 2208.05 2322.64 2209.5 2325.06C2215.11 2335.56 2229.08 2340.77 2240.3 2342.4C2251.52 2344.03 2274.46 2337.97 2280.46 2336.23C2282.04 2339.43 2283.61 2342.68 2285.23 2345.88C2292.92 2361.19 2300.66 2376.45 2307.67 2391.66C2310.2 2396.98 2312.5 2402.37 2314.8 2407.76C2312.61 2404.56 2310.82 2402.15 2310.48 2401.58C2300.55 2390.36 2274.69 2373.82 2259.03 2380.44C2256.47 2381.61 2254.19 2383.32 2252.32 2385.43C2250.46 2387.55 2249.06 2390.04 2248.22 2392.73C2247.38 2395.42 2247.12 2398.26 2247.44 2401.06C2247.77 2403.86 2248.68 2406.56 2250.11 2408.99C2255.72 2419.48 2269.75 2424.64 2280.91 2426.27C2292.08 2427.9 2312.89 2422.4 2320.18 2420.66C2322.37 2426.27 2324.62 2431.88 2326.47 2437.49C2327.65 2441.25 2329.1 2444.84 2330.06 2448.71C2331.01 2452.58 2332.19 2456.23 2333.2 2459.93C2334.94 2467.17 2336.79 2474.63 2338.3 2481.75C2339.43 2486.69 2340.38 2491.46 2341.33 2496.17C2338.87 2490.84 2333.87 2480.46 2333.37 2479.62C2325.29 2466.77 2302.18 2446.75 2285.74 2450.9C2283.03 2451.67 2280.51 2453.01 2278.35 2454.82C2276.19 2456.64 2274.44 2458.88 2273.2 2461.41C2271.96 2463.95 2271.27 2466.71 2271.17 2469.53C2271.07 2472.35 2271.56 2475.15 2272.61 2477.77C2276.71 2488.99 2289.44 2496.28 2300.66 2499.59C2312.55 2503.18 2338.92 2499.87 2342.23 2499.59C2343.8 2507.5 2345.26 2515.19 2346.55 2522.42C2349.36 2538.53 2351.49 2552.89 2353.11 2565.06H2364.33C2362.37 2552.44 2359.85 2537.46 2356.48 2520.63C2354.91 2512.61 2353.06 2504.08 2350.87 2495.33C2358.82 2492.15 2366.58 2488.49 2374.1 2484.39C2382.79 2493.81 2405.01 2504.81 2407.76 2506.21C2404.73 2513.67 2401.7 2520.91 2398.72 2527.64C2392.55 2541.83 2386.72 2554.4 2381.56 2565.06H2393.62C2398.05 2555.19 2402.93 2543.97 2407.98 2531.4C2411.12 2523.83 2414.26 2515.69 2417.46 2507.33C2420.66 2508.01 2446.75 2513.28 2458.92 2510.53C2470.14 2508.06 2483.32 2501.84 2488.32 2490.9C2489.56 2488.36 2490.25 2485.59 2490.35 2482.77C2490.45 2479.94 2489.95 2477.13 2488.89 2474.51C2487.83 2471.89 2486.24 2469.53 2484.2 2467.56C2482.17 2465.6 2479.75 2464.09 2477.1 2463.13C2460.99 2457.52 2436.48 2476.03 2427.45 2488.2C2426.94 2488.93 2421.84 2497.35 2419.03 2502.73C2420.32 2499.31 2421.61 2496 2422.9 2492.47C2425.43 2485.45 2427.78 2478.39 2430.36 2470.81L2433.73 2459.59C2434.91 2455.83 2435.69 2451.79 2436.76 2447.81C2438.95 2438.67 2440.69 2429.24 2442.37 2419.76C2448.54 2422.01 2470.42 2429.63 2481.64 2428.79C2492.86 2427.95 2507.11 2423.86 2513.62 2413.81C2515.24 2411.51 2516.37 2408.89 2516.91 2406.12C2517.45 2403.35 2517.41 2400.5 2516.77 2397.75C2516.13 2395 2514.93 2392.42 2513.22 2390.17C2511.52 2387.92 2509.36 2386.06 2506.88 2384.7C2491.79 2376.96 2464.75 2391.26 2454.04 2401.98C2453.37 2402.65 2446.52 2411.18 2442.82 2415.95C2443.72 2410.34 2444.67 2404.73 2445.4 2398.67C2447.47 2381.84 2449.05 2364.73 2450.73 2347.67C2451.23 2342.46 2451.79 2337.24 2452.36 2332.02C2454.54 2332.86 2480.41 2342.46 2493.08 2341.61C2504.3 2340.77 2518.5 2336.68 2525.06 2326.64C2526.68 2324.33 2527.79 2321.71 2528.33 2318.94C2528.87 2316.17 2528.82 2313.32 2528.19 2310.58C2527.55 2307.83 2526.35 2305.25 2524.65 2303C2522.95 2300.75 2520.8 2298.88 2518.33 2297.52C2503.24 2289.72 2476.2 2304.03 2465.43 2314.74C2464.64 2315.53 2454.82 2327.87 2452.47 2331.12C2453.65 2319.62 2454.99 2308.23 2456.73 2297.01C2459.04 2281.86 2462.3 2266.87 2466.49 2252.13C2467.5 2252.53 2494.54 2262.68 2507.45 2261.78C2518.67 2261 2532.91 2256.85 2539.42 2246.81C2541.04 2244.5 2542.16 2241.88 2542.7 2239.11C2543.23 2236.34 2543.18 2233.49 2542.55 2230.75C2541.91 2228 2540.71 2225.42 2539.01 2223.17C2537.31 2220.92 2535.16 2219.05 2532.69 2217.69C2517.6 2209.89 2490.56 2224.25 2479.84 2234.91C2479 2235.75 2468.62 2248.99 2466.66 2251.74C2466.66 2250.9 2467.11 2250 2467.33 2249.16C2471.98 2234.52 2477.93 2220.33 2485.12 2206.75C2488.93 2199.18 2493.08 2192.16 2497.24 2185.49C2502.06 2187.9 2524.16 2198.62 2536 2199.12C2547.84 2199.62 2561.81 2196.99 2569.66 2187.9C2571.53 2185.79 2572.93 2183.3 2573.77 2180.61C2574.61 2177.91 2574.87 2175.07 2574.54 2172.27C2574.21 2169.47 2573.28 2166.77 2571.83 2164.35C2570.38 2161.93 2568.44 2159.84 2566.13 2158.22C2551.99 2148.8 2523.55 2160.13 2511.71 2169.44C2511.09 2169.95 2505.09 2175.89 2500.83 2180.27C2502.73 2177.3 2504.64 2174.16 2506.44 2171.29C2513.56 2160.64 2520.68 2151.27 2527.08 2143.24C2530.78 2138.59 2534.21 2134.49 2537.46 2130.62C2543.41 2130.62 2567.42 2129.78 2577.91 2125.01C2588.4 2120.24 2599.9 2111.27 2602.37 2099.54C2603.05 2096.8 2603.14 2093.95 2602.64 2091.17C2602.15 2088.39 2601.07 2085.75 2599.48 2083.41C2597.89 2081.08 2595.83 2079.1 2593.43 2077.62C2591.02 2076.14 2588.34 2075.18 2585.54 2074.8C2568.71 2073.01 2548.57 2096.12 2542.4 2109.98C2541.89 2111.16 2535.72 2130.85 2536 2130.85H2536.39C2533.2 2134.49 2529.77 2138.42 2526.18 2142.8C2519.56 2150.87 2512.21 2160.13 2504.86 2170.85C2496.77 2182.15 2489.37 2193.94 2482.71 2206.13C2475.15 2219.71 2468.82 2233.95 2463.8 2248.66C2463.82 2248.84 2463.82 2249.03 2463.8 2249.22C2463.8 2244.22 2463.8 2230.31 2463.8 2229.25C2461.84 2214.21 2449.21 2186.33 2432.55 2183.24C2429.76 2182.81 2426.92 2182.96 2424.19 2183.7C2421.47 2184.44 2418.93 2185.74 2416.75 2187.52C2414.56 2189.31 2412.78 2191.53 2411.51 2194.05C2410.24 2196.57 2409.51 2199.33 2409.38 2202.15C2408.43 2214.1 2417.07 2226.05 2425.48 2233.57C2435.02 2242.09 2461.44 2250.4 2463.58 2250.96C2458.81 2266.06 2455.06 2281.47 2452.36 2297.07C2450.73 2306.16 2449.38 2315.36 2448.15 2324.56C2448.15 2320.3 2448.15 2316.43 2448.15 2315.92C2446.18 2300.89 2433.56 2273 2416.9 2269.92C2414.12 2269.48 2411.27 2269.64 2408.55 2270.37C2405.84 2271.1 2403.3 2272.4 2401.12 2274.18C2398.93 2275.96 2397.14 2278.18 2395.87 2280.69C2394.6 2283.2 2393.87 2285.95 2393.73 2288.77C2392.78 2300.72 2401.42 2312.67 2409.83 2320.24C2418.25 2327.81 2440.8 2335.33 2446.75 2337.07C2446.35 2340.6 2445.85 2344.14 2445.4 2347.73C2443.38 2364.56 2441.42 2381.73 2439 2398.22C2438.16 2403.83 2437.1 2409.78 2436.03 2415.55C2436.03 2411.74 2436.03 2408.49 2436.03 2408.04C2434.07 2393 2421.5 2365.06 2404.78 2361.98C2402 2361.55 2399.15 2361.71 2396.43 2362.45C2393.71 2363.2 2391.18 2364.5 2389 2366.28C2386.81 2368.06 2385.03 2370.28 2383.75 2372.8C2382.48 2375.31 2381.75 2378.07 2381.61 2380.88C2380.66 2392.83 2389.3 2404.78 2397.77 2412.3C2406.24 2419.82 2426.55 2426.72 2433.56 2429.13C2432.33 2434.74 2431.09 2440.8 2429.63 2446.46C2428.57 2450.22 2427.78 2453.98 2426.49 2457.68C2425.2 2461.39 2424.08 2465.2 2422.9 2468.9C2420.32 2475.92 2417.74 2483.15 2415.1 2489.94L2409.49 2503.63C2410.39 2498.02 2411.96 2486.41 2411.96 2485.4C2411.79 2472.07 2408.19 2459.02 2401.53 2447.47C2401.55 2445.99 2401.45 2444.51 2401.25 2443.04C2400.86 2440.27 2399.9 2437.6 2398.43 2435.22C2396.95 2432.83 2394.99 2430.78 2392.68 2429.2C2390.37 2427.61 2387.75 2426.53 2384.99 2426.02C2382.24 2425.5 2379.4 2425.57 2376.68 2426.21C2360.3 2430.59 2349.86 2459.37 2349.08 2474.51C2349.08 2475.41 2349.64 2485.17 2350.08 2491.34C2349.3 2487.75 2348.51 2484.33 2347.62 2480.63C2345.88 2473.39 2343.97 2466.21 2342.01 2458.47C2340.88 2454.77 2339.71 2451.01 2338.58 2447.25C2337.46 2443.49 2335.95 2439.62 2334.6 2435.75C2331.4 2426.89 2327.64 2418.08 2323.72 2409.27C2330.06 2407.76 2352.55 2402.03 2361.53 2395.08C2370.51 2388.12 2380.04 2376.9 2379.99 2364.95C2380.06 2362.13 2379.54 2359.33 2378.46 2356.72C2377.37 2354.12 2375.76 2351.77 2373.71 2349.83C2371.66 2347.89 2369.23 2346.4 2366.57 2345.46C2363.91 2344.51 2361.09 2344.14 2358.28 2344.36C2341.45 2346.21 2326.75 2373.09 2323.72 2387.95C2323.72 2388.85 2322.54 2399.73 2322.09 2405.74C2319.68 2400.46 2317.27 2395.19 2314.69 2389.92C2307.11 2374.77 2299.03 2359.62 2291.01 2344.48L2283.72 2330.56C2286.02 2330 2312.83 2323.77 2322.99 2316.03C2332.02 2309.13 2341.5 2297.86 2341.45 2285.91C2341.52 2283.09 2341 2280.28 2339.91 2277.68C2338.83 2275.07 2337.22 2272.72 2335.17 2270.78C2333.12 2268.84 2330.69 2267.35 2328.03 2266.41C2325.37 2265.47 2322.55 2265.1 2319.73 2265.32C2302.9 2267.17 2288.21 2294.04 2285.18 2308.91C2285.18 2310.03 2283.49 2325.74 2283.38 2329.72C2278.05 2319.45 2272.84 2309.24 2268.12 2298.92C2261.67 2285.04 2256.14 2270.74 2251.57 2256.12C2252.64 2256.12 2280.69 2249.5 2290.84 2241.59C2299.82 2234.69 2309.36 2223.41 2309.24 2211.46C2309.32 2208.64 2308.81 2205.84 2307.73 2203.24C2306.66 2200.63 2305.05 2198.28 2303.01 2196.34C2300.96 2194.4 2298.54 2192.91 2295.88 2191.97C2293.22 2191.02 2290.4 2190.65 2287.59 2190.87C2270.76 2192.72 2256.06 2219.6 2252.98 2234.41C2252.98 2235.59 2251.24 2252.47 2251.18 2255.56L2250.28 2252.98C2246.11 2238.2 2243.24 2223.09 2241.7 2207.82C2240.8 2199.4 2240.35 2191.27 2240.07 2183.41C2245.68 2182.74 2269.86 2179.49 2279.96 2173.37C2290.06 2167.26 2300.32 2157.33 2301.56 2145.32C2301.95 2142.53 2301.74 2139.68 2300.96 2136.97C2300.17 2134.27 2298.82 2131.75 2297 2129.6C2295.18 2127.44 2292.93 2125.7 2290.39 2124.47C2287.85 2123.25 2285.08 2122.57 2282.26 2122.49C2265.43 2122.49 2247.81 2147.56 2242.99 2161.76C2242.99 2162.54 2241.03 2170.79 2239.9 2176.85C2239.9 2173.26 2239.9 2169.61 2239.9 2166.19C2239.9 2153.34 2240.75 2141.56 2241.53 2131.18C2242.04 2125.57 2242.6 2119.96 2243.21 2114.97C2248.1 2111.6 2267.73 2097.75 2273.79 2087.82C2279.85 2077.89 2284.5 2064.2 2280.07 2053.09C2279.12 2050.45 2277.62 2048.03 2275.67 2046.01C2273.73 2043.98 2271.38 2042.39 2268.77 2041.33C2266.17 2040.27 2263.37 2039.77 2260.56 2039.87C2257.76 2039.96 2255 2040.64 2252.47 2041.87C2237.38 2049.67 2233.4 2080.02 2235.92 2094.94C2235.92 2096.23 2241.53 2116.09 2242.09 2115.92H2242.37C2241.7 2120.69 2241.03 2125.85 2240.47 2131.46C2239.4 2141.9 2238.33 2153.62 2238.05 2166.53C2237.58 2180.41 2237.9 2194.31 2239.01 2208.15C2240.24 2223.65 2242.83 2239 2246.75 2254.04V2254.6C2244.06 2250.4 2236.2 2238.95 2235.53 2238.11C2225.6 2226.89 2199.68 2210.34 2184.09 2216.96C2181.52 2218.13 2179.22 2219.83 2177.36 2221.95C2175.49 2224.06 2174.09 2226.55 2173.25 2229.25C2172.41 2231.94 2172.14 2234.78 2172.47 2237.58C2172.8 2240.39 2173.72 2243.09 2175.17 2245.51C2180.66 2254.6 2194.46 2259.76 2205.68 2261.45Z" fill="#EB5757"/>
<path d="M2496.73 2181.67C2496.73 2181.67 2502.34 2161.87 2502.34 2160.58C2504.47 2145.6 2499.65 2115.36 2484.39 2107.96C2481.82 2106.79 2479.03 2106.19 2476.21 2106.18C2473.39 2106.17 2470.59 2106.75 2468.01 2107.9C2465.44 2109.04 2463.13 2110.72 2461.24 2112.82C2459.35 2114.92 2457.93 2117.39 2457.07 2120.08C2452.97 2131.3 2458.13 2145.15 2464.31 2154.63C2471.49 2165.8 2496.45 2181.67 2496.73 2181.67Z" fill="#EB5757"/>
<path d="M740.44 1007.39C740.44 1007.39 738.7 944.049 702.179 926.097C665.658 908.145 663.583 967.442 663.583 967.442C663.583 967.442 580.05 914.372 561.929 954.595C543.809 994.819 569.11 1014.29 569.11 1014.29C569.11 1014.29 494.946 1011.71 489.785 1052.38C484.623 1093.05 522.94 1112.97 522.94 1112.97C522.94 1112.97 477.106 1150.38 493.207 1167.66C509.308 1184.94 544.538 1186.18 544.538 1186.18C544.538 1186.18 524.567 1226.29 559.405 1240.54C594.243 1254.79 634.074 1228.25 634.074 1228.25C634.074 1228.25 627.903 1246.65 654.045 1242C680.188 1237.34 706.611 1225.17 722.824 1186.79C739.037 1148.42 759.962 1039.76 740.44 1007.39Z" fill="#263238" stroke="#263238" stroke-linecap="round" stroke-linejoin="round"/>
<path d="M1126.07 2230.65C1126.07 2230.65 1146.88 2310.08 1146.55 2318.89C1146.21 2327.7 1153.45 2347.67 1147.33 2353.34C1135.89 2362.67 1123.75 2371.13 1111.04 2378.64C1105.85 2378.57 1100.8 2377.03 1096.45 2374.21C1095.05 2372.94 1093.92 2371.41 1093.13 2369.69C1092.35 2367.97 1091.93 2366.11 1091.91 2364.22C1091.91 2361.25 1100.27 2348.79 1101.39 2345.87C1102.51 2342.96 1086.07 2304.98 1079.85 2286.07C1075.18 2269.19 1071.84 2251.97 1069.86 2234.57L1126.07 2230.65Z" fill="#BDBDBD" stroke="#263238" stroke-miterlimit="10"/>
<path d="M1103.46 2285.96C1103.46 2285.96 1115.3 2314.01 1116.09 2318.83C1116.87 2323.66 1132.92 2337.12 1130.78 2347.89C1128.65 2358.67 1104.98 2355.8 1093.31 2323.94" fill="#BDBDBD"/>
<path d="M1103.46 2285.96C1103.46 2285.96 1115.3 2314.01 1116.09 2318.83C1116.87 2323.66 1132.92 2337.12 1130.78 2347.89C1128.65 2358.67 1104.98 2355.8 1093.31 2323.94" stroke="#263238" stroke-miterlimit="10"/>
<path d="M1050.45 1799.12C1050.45 1799.12 1060.38 1961.14 1064.14 1975.45C1067.9 1989.75 1113 2120.41 1122.93 2160.58C1129.02 2185.45 1133.35 2210.72 1135.89 2236.2L1075.36 2248.93L1041.36 2099.6C1041.36 2099.6 996.929 1963.5 1005.96 1899.71C1010.59 1862.54 1026.06 1827.56 1050.45 1799.12Z" fill="#EB5757" stroke="#263238" stroke-miterlimit="10"/>
<path d="M735.11 2564.5C734.381 2529.27 732.923 2481.75 729.5 2454.54C723.89 2407.53 703.807 2378.47 683.162 2319.9C662.517 2261.33 660.722 2184.36 660.722 2184.36L1030.42 2197.27C1030.42 2197.27 1073.28 2356.2 1099.26 2473.11C1106.31 2503.1 1110.42 2533.71 1111.54 2564.5" fill="#EB5757"/>
<path d="M735.11 2564.5C734.381 2529.27 732.923 2481.75 729.5 2454.54C723.89 2407.53 703.807 2378.47 683.162 2319.9C662.517 2261.33 660.722 2184.36 660.722 2184.36L1030.42 2197.27C1030.42 2197.27 1073.28 2356.2 1099.26 2473.11C1106.31 2503.1 1110.42 2533.71 1111.54 2564.5" stroke="#263238" stroke-miterlimit="10"/>
<path d="M982.006 2256.84L674.41 2265.48L667.902 2241.7L982.006 2256.84Z" fill="#263238" stroke="#263238" stroke-linecap="round" stroke-linejoin="round"/>
<path d="M997.546 2558.89C997.546 2558.89 1003.6 2366.52 1003.77 2262.12L997.546 2558.89Z" fill="white"/>
<path d="M997.546 2558.89C997.546 2558.89 1003.6 2366.52 1003.77 2262.12" stroke="#263238" stroke-miterlimit="10"/>
<path d="M761.758 1392.18L716.878 1422.36C716.878 1422.36 663.751 1469.82 650.68 1509.09C637.609 1548.36 647.089 1781.57 660.273 1856.91C673.456 1932.25 640.526 2026.11 628.801 2079.06C617.076 2132.02 611.971 2230.53 611.971 2230.53C611.971 2230.53 603.668 2242.09 747.733 2247.08C891.798 2252.08 992.273 2259.59 1004.05 2261.95C1011.17 2263.41 1018.39 2264.33 1025.65 2264.7L1031.26 2213.54L1045.23 2255.67L1075.13 2248.82C1075.13 2248.82 1056.56 2157.27 1051.91 2121.59C1047.25 2085.91 1017.85 1964.51 1017.46 1918.84C1017.07 1873.18 1055.22 1799.69 1062.68 1754.47C1070.14 1709.25 1055.1 1631.72 1017.8 1573.15C980.492 1514.59 955.471 1491.92 882.541 1432.12C809.611 1372.32 761.758 1392.18 761.758 1392.18Z" fill="#EB5757" stroke="#263238" stroke-miterlimit="10"/>
<path d="M878.67 2075.75L728.154 2092.81L736.625 2053.43L830.536 2045.35" stroke="#263238" stroke-miterlimit="10"/>
<path d="M931.292 2043.16L938.921 2068.97L901.166 2073.23" stroke="#263238" stroke-miterlimit="10"/>
<path d="M874.799 1785.27C881.874 1778.72 888.368 1771.56 894.21 1763.89" stroke="#263238" stroke-miterlimit="10"/>
<path d="M822.458 1829.47C822.458 1829.47 838.335 1817.47 855.726 1802.55" stroke="#263238" stroke-miterlimit="10"/>
<path d="M761.758 1392.18C761.758 1392.18 809.611 1372.26 882.541 1432.12C955.471 1491.98 980.436 1514.7 1017.91 1573.15C1040.3 1609.29 1055.18 1649.57 1061.67 1691.58C1060.77 1695.96 1059.82 1700.39 1058.75 1704.93C1037.88 1793.12 1014.66 1835.76 1014.66 1835.76C1014.66 1835.76 974.265 1634.81 903.971 1553.35C833.678 1471.89 716.934 1422.36 716.934 1422.36L761.758 1392.18Z" fill="#EB5757" stroke="#263238" stroke-miterlimit="10"/>
<path d="M937.182 1000.2C937.182 1000.2 989.86 1049.4 993.787 1088.17C997.714 1126.93 1001.81 1160.37 1008.37 1172.88C1014.94 1185.39 1048.04 1193.58 1036.82 1212.49C1025.6 1231.39 1015.11 1231 1015.11 1231C1015.11 1231 998.275 1314.65 985.484 1326.37C972.694 1338.09 927.421 1331.36 927.421 1331.36L913.396 1432.79C913.396 1432.79 1007.59 1516.32 1025.93 1632.73C1044.28 1749.14 1023.3 1815.56 1023.3 1815.56C1023.3 1815.56 1011.01 1632.17 968.598 1563.5C926.187 1494.84 827.675 1429.82 813.145 1418.09C798.615 1406.37 761.758 1392.06 761.758 1392.06C761.758 1392.06 779.261 1352.79 781.617 1335.07C783.973 1317.34 783.188 1291.25 779.878 1284.13C776.568 1277 717.719 1255.63 695.728 1188.2C673.737 1120.76 706.107 1041.16 740.608 1007.27C775.11 973.389 893.088 956.559 937.182 1000.2Z" fill="#BDBDBD" stroke="#263238" stroke-miterlimit="10"/>
<path d="M695.504 1188.31C673.064 1120.99 705.882 1041.27 740.384 1007.39C774.885 973.501 893.032 956.559 937.126 1000.2C937.126 1000.2 939.931 1002.84 944.307 1007.39C927.547 1003.19 910.087 1002.62 893.088 1005.7C857.801 1011.31 858.586 1039.36 868.179 1066.23C877.772 1093.11 870.536 1097.87 852.527 1111.11C834.519 1124.35 852.976 1149.77 840.298 1159.86C827.619 1169.96 817.297 1114.98 789.808 1154.59C762.319 1194.2 780.776 1212.15 797.942 1223.26C807.556 1229.68 817.991 1234.77 828.966 1238.4C828.966 1238.4 802.991 1268.87 777.353 1281.43C765.068 1272.29 715.475 1248.9 695.504 1188.31Z" fill="#263238" stroke="#263238" stroke-linecap="round" stroke-linejoin="round"/>
<path d="M986.551 1245.81C986.551 1245.81 949.805 1242.78 932.807 1226.4" stroke="#263238" stroke-miterlimit="10"/>
<path d="M963.213 1159.02C962.933 1167.72 966.243 1174.9 970.562 1175.07C974.882 1175.24 978.697 1168.28 979.033 1159.58C979.37 1150.89 976.004 1143.71 971.684 1143.54C967.365 1143.37 963.55 1150.33 963.213 1159.02Z" fill="#263238"/>
<path d="M979.033 1123.51C979.033 1123.51 967.196 1107.58 950.254 1126.37" stroke="#263238" stroke-miterlimit="10"/>
<path d="M927.421 1331.47L883.607 1314.98L914.125 1369.79L927.421 1331.47Z" fill="#263238" stroke="#263238" stroke-miterlimit="10"/>
<path d="M1053.59 2136.68L1111.04 2378.64L1059.48 2390.64L1031.09 2213.7L1053.59 2136.68Z" fill="white" stroke="#263238" stroke-miterlimit="10"/>
<path d="M1002.82 1557.39C1013.85 1581.4 1021.62 1606.78 1025.93 1632.84C1044.28 1749.2 1023.3 1815.67 1023.3 1815.67C1023.3 1815.67 1011.12 1634.75 969.44 1565.08C980.822 1563.79 992.021 1561.21 1002.82 1557.39Z" fill="white" stroke="#263238" stroke-miterlimit="10"/>
<path d="M825.319 1632.9L829.246 1838.23L1188.57 1897.47L1180.71 1994.24C1180.71 1994.24 981.277 1998.17 888.488 1990.26C795.698 1982.35 714.578 1976.46 702.909 1966.58C691.24 1956.71 657.412 1765.86 643.611 1631.61C629.811 1497.36 657.412 1452.09 712.67 1459.83" fill="#EB5757"/>
<path d="M825.319 1632.9L829.246 1838.23L1188.57 1897.47L1180.71 1994.24C1180.71 1994.24 981.277 1998.17 888.488 1990.26C795.698 1982.35 714.578 1976.46 702.909 1966.58C691.24 1956.71 657.412 1765.86 643.611 1631.61C629.811 1497.36 657.412 1452.09 712.67 1459.83" stroke="#263238" stroke-miterlimit="10"/>
<path d="M1403.54 1888.77L1432.32 1976.06L1404.27 1991.32C1404.27 1991.32 1368.65 2018.92 1349.12 2033.85C1329.6 2048.77 1314.62 2048.77 1304.24 2044.17C1293.87 2039.57 1246.8 1972.92 1241.08 1960.3C1235.35 1947.68 1262.9 1909.81 1290.44 1893.65C1317.99 1877.5 1340.93 1877.61 1357.09 1882.43C1372.38 1885.76 1387.92 1887.88 1403.54 1888.77Z" fill="white" stroke="#263238" stroke-miterlimit="10"/>
<path d="M1188.57 1897.47L1234.01 1893.54C1248.26 1889.82 1262.78 1887.18 1277.43 1885.63C1289.27 1885.63 1305.09 1897.47 1313 1903.41C1320.91 1909.36 1407.75 2004.11 1407.75 2004.11C1407.75 2004.11 1399.84 2019.88 1388 2015.95C1376.16 2012.02 1354.34 2002.09 1354.34 2002.09C1354.34 2002.09 1378.02 2025.82 1366.18 2037.66C1354.34 2049.5 1334.59 2049.5 1334.59 2049.5L1320.74 2041.59C1314.91 2046.18 1308.21 2049.54 1301.05 2051.46C1291.17 2053.43 1275.35 2049.5 1261.78 2041.59C1248.2 2033.68 1212.91 1992.5 1212.91 1992.5L1182.62 1980.78L1188.57 1897.47Z" fill="#BDBDBD" stroke="#263238" stroke-miterlimit="10"/>
<path d="M1387.89 1892.53C1387.89 1892.53 1330.44 1859.21 1305.2 1868.41C1279.95 1877.61 1246.57 1933.88 1255.77 1941.96C1264.97 1950.03 1279.9 1946.5 1287.92 1938.48C1294.63 1932.38 1301.94 1926.99 1309.74 1922.38C1324.87 1930.87 1341.82 1935.61 1359.17 1936.18" fill="white"/>
<path d="M1387.89 1892.53C1387.89 1892.53 1330.44 1859.21 1305.2 1868.41C1279.95 1877.61 1246.57 1933.88 1255.77 1941.96C1264.97 1950.03 1279.9 1946.5 1287.92 1938.48C1294.63 1932.38 1301.94 1926.99 1309.74 1922.38C1324.87 1930.87 1341.82 1935.61 1359.17 1936.18" stroke="#263238" stroke-miterlimit="10"/>
<path d="M1216.56 2022.96L1234.79 2013.2C1236.26 2012.42 1237.56 2011.36 1238.62 2010.08C1239.68 2008.8 1240.47 2007.32 1240.96 2005.73C1241.44 2004.14 1241.61 2002.47 1241.44 2000.82C1241.28 1999.16 1240.79 1997.56 1240.01 1996.09C1239.23 1994.63 1238.16 1993.33 1236.88 1992.28C1235.59 1991.23 1234.11 1990.44 1232.53 1989.96C1230.94 1989.48 1229.27 1989.32 1227.62 1989.49C1225.96 1989.65 1224.36 1990.14 1222.9 1990.93L1204.67 2000.64C1201.71 2002.22 1199.5 2004.91 1198.53 2008.11C1197.55 2011.32 1197.88 2014.78 1199.45 2017.75C1201.03 2020.7 1203.72 2022.91 1206.93 2023.89C1210.13 2024.86 1213.6 2024.53 1216.56 2022.96Z" fill="white" stroke="#263238" stroke-miterlimit="10"/>
<path d="M1232.66 2042.49L1250.89 2032.73C1253.78 2031.14 1255.93 2028.5 1256.9 2025.36C1257.88 2022.22 1257.59 2018.83 1256.11 2015.9C1254.52 2013.02 1251.88 2010.88 1248.74 2009.92C1245.6 2008.95 1242.21 2009.25 1239.28 2010.73L1221.05 2020.44C1218.16 2022.01 1215.99 2024.65 1215.02 2027.79C1214.04 2030.94 1214.33 2034.34 1215.83 2037.27C1217.4 2040.16 1220.04 2042.33 1223.19 2043.3C1226.33 2044.27 1229.73 2043.98 1232.66 2042.49Z" fill="white" stroke="#263238" stroke-miterlimit="10"/>
<path d="M1251.06 2059.71L1269.29 2049.95C1270.76 2049.17 1272.06 2048.11 1273.12 2046.83C1274.18 2045.54 1274.97 2044.06 1275.45 2042.47C1275.93 2040.88 1276.09 2039.21 1275.92 2037.55C1275.75 2035.9 1275.25 2034.3 1274.46 2032.84C1273.67 2031.37 1272.61 2030.08 1271.32 2029.03C1270.04 2027.97 1268.56 2027.19 1266.97 2026.71C1265.38 2026.23 1263.71 2026.07 1262.06 2026.23C1260.41 2026.4 1258.81 2026.89 1257.34 2027.68L1239.11 2037.44C1237.65 2038.22 1236.35 2039.28 1235.3 2040.57C1234.25 2041.85 1233.46 2043.33 1232.98 2044.92C1232.5 2046.51 1232.34 2048.18 1232.51 2049.83C1232.67 2051.48 1233.16 2053.09 1233.95 2054.55C1234.73 2056.01 1235.8 2057.31 1237.08 2058.36C1238.37 2059.41 1239.85 2060.2 1241.44 2060.68C1243.03 2061.16 1244.69 2061.32 1246.35 2061.15C1248 2060.99 1249.6 2060.5 1251.06 2059.71Z" fill="white" stroke="#263238" stroke-miterlimit="10"/>
<path d="M1289.77 2060.55L1294.54 2058.03C1296.01 2057.25 1297.31 2056.19 1298.37 2054.9C1299.42 2053.62 1300.22 2052.14 1300.7 2050.55C1301.19 2048.96 1301.35 2047.29 1301.19 2045.64C1301.03 2043.99 1300.54 2042.38 1299.76 2040.92C1298.17 2037.96 1295.48 2035.75 1292.28 2034.77C1289.07 2033.8 1285.61 2034.13 1282.65 2035.7L1277.88 2038.28C1276.41 2039.06 1275.11 2040.12 1274.05 2041.4C1272.99 2042.68 1272.2 2044.16 1271.71 2045.75C1271.23 2047.34 1271.06 2049.01 1271.23 2050.66C1271.39 2052.32 1271.88 2053.92 1272.66 2055.39C1273.44 2056.85 1274.51 2058.15 1275.79 2059.2C1277.08 2060.25 1278.56 2061.04 1280.14 2061.52C1281.73 2062 1283.4 2062.16 1285.05 2061.99C1286.71 2061.83 1288.31 2061.34 1289.77 2060.55Z" fill="white" stroke="#263238" stroke-miterlimit="10"/>
<path d="M1403.54 1888.77L1644.66 1786.84L1635.74 1946.56L1436.64 1992.16L1403.54 1888.77Z" fill="#263238" stroke="#263238" stroke-linecap="round" stroke-linejoin="round"/>
<path d="M1436.64 1992.16L1403.54 1888.77L1437.26 1873.85L1437.93 1877.27L1468.79 1984.37L1436.64 1992.16Z" fill="white" stroke="#263238" stroke-miterlimit="10"/>
<path d="M1780.14 1249.91L1718.43 1278.57C1718.43 1278.57 1692.51 1352.01 1701.15 1354.14C1709.79 1356.27 1774.59 1304.49 1774.59 1304.49L1780.14 1249.91Z" fill="white" stroke="#263238" stroke-linecap="round" stroke-linejoin="round"/>
<path d="M1744.29 1235.21L1739.97 1210.47C1739.97 1210.47 1682.75 1214.39 1659.86 1214.23C1636.97 1214.06 1617 1211.14 1617.17 1186.85C1617.34 1162.56 1630.69 1079.7 1630.69 1079.7C1630.69 1079.7 1605 1073.81 1595.07 1062.31C1585.14 1050.81 1599.5 1036.61 1612.46 1019.5C1625.42 1002.39 1637.03 983.935 1638.54 963.908C1640.06 943.88 1674.84 878.355 1674.84 878.355C1674.84 878.355 1669.23 868.313 1687.91 846.995C1706.59 825.677 1802.41 821.975 1863.73 852.605C1925.05 883.236 1939.02 927.443 1938.74 976.025C1938.46 1024.61 1910.69 1093.11 1910.69 1093.11C1910.69 1093.11 1928.81 1167.55 1930.21 1171.65C1931.61 1175.74 1947.88 1207.66 1947.88 1207.66C1947.88 1207.66 1871.19 1261.13 1843.2 1285.14C1815.2 1309.15 1751.98 1350.21 1751.59 1328C1751.19 1305.78 1748.67 1255.63 1748.67 1255.63L1744.29 1235.21Z" fill="white" stroke="#263238" stroke-linecap="round" stroke-linejoin="round"/>
<path d="M1659.75 1003.18C1659.41 1011.48 1661.32 1018.27 1664.07 1018.38C1666.82 1018.49 1669.4 1011.93 1669.68 1003.63C1669.96 995.324 1668.17 988.535 1665.36 988.423C1662.56 988.311 1660.14 994.875 1659.75 1003.18Z" fill="#263238"/>
<path d="M1699.97 975.745C1699.97 975.745 1687.24 954.202 1654.25 966.881" stroke="#263238" stroke-width="2" stroke-linecap="round" stroke-linejoin="round"/>
<path d="M1617.17 1186.85C1617.17 1162.5 1630.69 1079.7 1630.69 1079.7C1630.69 1079.7 1646.46 1071.23 1676.47 1078.52C1706.48 1085.81 1714.67 1134.62 1720.39 1140.23C1726.12 1145.84 1763.42 1112.18 1777.9 1089.12C1792.37 1066.07 1802.58 1026.63 1804.15 1003.57C1805.72 980.513 1751.47 968.901 1743 947.47C1734.53 926.04 1774.53 903.208 1760.56 888.902C1746.59 874.597 1717.7 880.094 1703.4 882.843C1693.64 884.162 1683.72 882.602 1674.84 878.355C1674.84 878.355 1669.23 868.313 1687.91 846.995C1706.59 825.677 1802.41 821.975 1863.73 852.605C1925.05 883.236 1939.02 927.443 1938.74 976.025C1938.46 1015.3 1920.28 1067.8 1913.43 1086.32C1907.64 1088.82 1901.4 1090.12 1895.09 1090.13C1889.48 1088.67 1885.22 1071.51 1882.47 1054.28C1879.72 1037.06 1838.37 1016.87 1838.37 1016.87C1838.37 1016.87 1830.91 1068.31 1830.86 1078.3C1830.8 1088.28 1836.47 1138.38 1808.86 1162.45C1787.25 1180.36 1764.21 1196.48 1739.97 1210.64C1739.97 1210.64 1682.75 1214.56 1659.86 1214.39C1636.97 1214.23 1617 1211.14 1617.17 1186.85Z" fill="#263238" stroke="#263238" stroke-linecap="round" stroke-linejoin="round"/>
<path d="M1829.56 1052.32C1829.56 1052.32 1841.46 983.767 1861.43 986.74C1881.4 989.714 1892.73 1015.52 1882.52 1048.45C1872.31 1081.38 1852.29 1078.3 1840.9 1075.38" fill="white"/>
<path d="M1829.56 1052.32C1829.56 1052.32 1841.46 983.767 1861.43 986.74C1881.4 989.714 1892.73 1015.52 1882.52 1048.45C1872.31 1081.38 1852.29 1078.3 1840.9 1075.38" stroke="#263238" stroke-linecap="round" stroke-linejoin="round"/>
<path d="M1689.15 1104.33C1689.15 1104.33 1677.65 1118.58 1647.63 1118.41" stroke="white" stroke-linecap="round" stroke-linejoin="round"/>
<path d="M2010.15 2564.5H1707.21C1706.2 2548.56 1694.42 2487.3 1694.42 2447.14C1694.42 2400.74 1662.5 2101.45 1662.5 2101.45L2056.49 2096.29L2043.59 2279.45L2010.15 2564.5Z" fill="#263238" stroke="#263238" stroke-linecap="round" stroke-linejoin="round"/>
<path d="M1970.88 1218.1C1970.88 1218.1 2039.94 1306.68 2059.41 1356.33C2078.87 1405.98 2093.96 1414.62 2089.64 1477.22C2085.33 1539.83 2055.03 1790.32 2055.03 1790.32L2115.51 2116.43C2044.13 2142 1968.89 2155.13 1893.07 2155.25C1767.86 2155.25 1713.55 2144.48 1705.19 2140.16C1696.83 2135.84 1621.04 2116.43 1621.04 2116.43C1621.04 2116.43 1621.04 1747.18 1644.83 1619.77C1668.61 1492.37 1698.8 1395.37 1709.57 1371.42C1720.34 1347.46 1754.95 1269.93 1754.95 1269.93L1970.88 1218.1Z" fill="#263238" stroke="#263238" stroke-linecap="round" stroke-linejoin="round"/>
<path d="M1709.4 1371.42C1720.23 1347.69 1754.78 1269.93 1754.78 1269.93L1970.88 1218.1C1970.88 1218.1 1985.47 1236.83 2003.14 1261.91C1956.07 1289.23 1839.55 1356.78 1832.65 1358.46C1824.01 1360.65 1780.81 1356.33 1780.81 1356.33L1800.11 1380.06C1800.11 1380.06 1748.28 1421.12 1731 1438.35C1721.91 1447.43 1695.54 1471.44 1672.54 1492.2C1688.19 1430.15 1702.67 1386.34 1709.4 1371.42Z" fill="#263238" stroke="#263238" stroke-linecap="round" stroke-linejoin="round"/>
<path d="M1808.75 1317.45L1735.32 1375.74L1674.9 1483.73L1713.72 1326.09L1793.6 1280.76L1808.75 1317.45Z" fill="white" stroke="#263238" stroke-linecap="round" stroke-linejoin="round"/>
<path d="M1955.57 1177.09L1729.48 1278.97V1358.85L1987.99 1226.74L1955.57 1177.09Z" fill="white" stroke="#263238" stroke-linecap="round" stroke-linejoin="round"/>
<path d="M1656.61 1994.3H2047.29V2310.42H1656.61V1994.3Z" fill="#EB5757" stroke="#263238" stroke-miterlimit="10"/>
<path d="M1827.99 2144.98C1827.99 2144.98 1798.93 2182.85 1787.55 2186.66C1777.96 2190.6 1770.03 2197.74 1765.11 2206.86C1760.06 2214.43 1753.89 2271.26 1749.96 2275.08C1746.03 2278.89 1746.14 2287.7 1760.06 2281.36C1773.97 2275.02 1782.5 2253.31 1782.5 2253.31L1777.45 2303.8C1777.45 2303.8 1766.23 2306.32 1774.92 2312.66C1783.62 2319 1791.36 2327.81 1798.93 2323.88C1805.67 2319.87 1812 2315.21 1817.84 2309.97C1826.86 2313 1836.47 2313.86 1845.89 2312.5C1859.75 2309.97 1857.11 2315.02 1869.84 2306.16C1882.58 2297.29 1882.52 2307.45 1888.81 2291.01C1898.59 2261.6 1906.61 2231.62 1912.82 2201.25C1915.34 2184.81 1917.87 2161.98 1917.87 2161.98L1827.99 2144.98Z" fill="white" stroke="#263238" stroke-linecap="round" stroke-linejoin="round"/>
<path d="M1822.89 2120.97L1814.08 2160.13L1922.69 2175.27L1927.74 2136.12L1822.89 2120.97Z" fill="white" stroke="#263238" stroke-linecap="round" stroke-linejoin="round"/>
<path d="M1962.07 1295.91C1962.07 1295.91 2037.64 1319.64 2039.77 1354.2C2041.9 1388.75 2066.98 1807.88 2056.15 1835.93C2045.33 1863.98 1939.13 2148.23 1939.13 2148.23L1816.05 2133.14C1816.05 2133.14 1879.1 1803.5 1881.12 1796.99C1883.14 1790.49 1838.82 1423.25 1838.82 1423.25" fill="#263238"/>
<path d="M1962.07 1295.91C1962.07 1295.91 2037.64 1319.64 2039.77 1354.2C2041.9 1388.75 2066.98 1807.88 2056.15 1835.93C2045.33 1863.98 1939.13 2148.23 1939.13 2148.23L1816.05 2133.14C1816.05 2133.14 1879.1 1803.5 1881.12 1796.99C1883.14 1790.49 1838.82 1423.25 1838.82 1423.25" stroke="#263238" stroke-linecap="round" stroke-linejoin="round"/>
<path d="M1853.46 1528.72L1881.29 1796.99L1854.75 1963.67" stroke="#878787" stroke-linecap="round" stroke-linejoin="round"/>
<path d="M1849.2 1487.66L1850.66 1501.91" stroke="#878787" stroke-linecap="round" stroke-linejoin="round"/>
<path d="M2048.47 1446.14L2056.77 1698.03" stroke="#878787" stroke-linecap="round" stroke-linejoin="round"/>
<path d="M1766.17 1919.68L1683.14 1916.65L1675.68 1946.56L1813.24 1955.36" stroke="#878787" stroke-linecap="round" stroke-linejoin="round"/>
<path d="M1835.34 1922.15L1791.14 1920.58" stroke="#878787" stroke-linecap="round" stroke-linejoin="round"/>
<path d="M1984.79 1269.04L1832.48 1358.46L1780.65 1356.33L1800.11 1380.06L1699.75 1460" stroke="#878787" stroke-linecap="round" stroke-linejoin="round"/>
<path d="M64.4028 2564.5H2625.31" stroke="#263238" stroke-miterlimit="10"/>
<path d="M788.149 252.562V631.742" stroke="#263238" stroke-miterlimit="10"/>
<path d="M1370.58 252.562V631.742" stroke="#263238" stroke-miterlimit="10"/>
<path d="M1953.01 252.562V631.742" stroke="#263238" stroke-miterlimit="10"/>
</svg>
