<svg width="590" height="440" viewBox="0 0 590 440" fill="none" xmlns="http://www.w3.org/2000/svg">
<path d="M590 386.332H0V386.627H590V386.332Z" fill="#EBEBEB"/>
<path d="M100.984 397.565H61.9028V397.86H100.984V397.565Z" fill="#EBEBEB"/>
<path d="M212.199 394.368H181.059V394.663H212.199V394.368Z" fill="#EBEBEB"/>
<path d="M160.35 404.528H106.165V404.823H160.35V404.528Z" fill="#EBEBEB"/>
<path d="M530.882 406.545H505.394V406.84H530.882V406.545Z" fill="#EBEBEB"/>
<path d="M499.659 406.545H461.935V406.84H499.659V406.545Z" fill="#EBEBEB"/>
<path d="M392.15 401.566H327.108V401.861H392.15V401.566Z" fill="#EBEBEB"/>
<path d="M279.66 333.704H51.8139C50.029 333.701 48.3182 332.99 47.0572 331.726C45.7961 330.463 45.0879 328.751 45.0879 326.966V6.6788C45.1034 4.90411 45.8185 3.20721 47.0779 1.9567C48.3372 0.706181 50.0391 0.00304014 51.8139 0H279.66C281.447 0 283.161 0.709874 284.424 1.97346C285.688 3.23704 286.398 4.95082 286.398 6.7378V326.966C286.398 328.753 285.688 330.467 284.424 331.731C283.161 332.994 281.447 333.704 279.66 333.704ZM51.8139 0.236001C50.1072 0.239127 48.4715 0.919297 47.2658 2.12722C46.0601 3.33514 45.3829 4.97211 45.3829 6.6788V326.966C45.3829 328.673 46.0601 330.31 47.2658 331.518C48.4715 332.726 50.1072 333.406 51.8139 333.409H279.66C281.368 333.406 283.005 332.726 284.212 331.519C285.42 330.311 286.1 328.674 286.103 326.966V6.6788C286.1 4.97102 285.42 3.33408 284.212 2.1265C283.005 0.918914 281.368 0.23912 279.66 0.236001H51.8139Z" fill="#EBEBEB"/>
<path d="M534.906 333.704H307.048C305.262 333.701 303.55 332.99 302.287 331.727C301.024 330.464 300.313 328.752 300.31 326.966V6.6788C300.329 4.90303 301.046 3.20615 302.308 1.95596C303.569 0.705768 305.272 0.00300698 307.048 0H534.906C536.679 0.00614131 538.377 0.710654 539.634 1.96084C540.891 3.21102 541.605 4.90615 541.62 6.6788V326.966C541.62 328.749 540.913 330.459 539.655 331.722C538.396 332.985 536.689 333.698 534.906 333.704ZM307.048 0.236001C305.34 0.23912 303.703 0.918914 302.496 2.1265C301.288 3.33408 300.608 4.97102 300.605 6.6788V326.966C300.608 328.674 301.288 330.311 302.496 331.519C303.703 332.726 305.34 333.406 307.048 333.409H534.906C536.614 333.406 538.251 332.726 539.458 331.519C540.666 330.311 541.346 328.674 541.349 326.966V6.6788C541.346 4.97102 540.666 3.33408 539.458 2.1265C538.251 0.918914 536.614 0.23912 534.906 0.236001H307.048Z" fill="#EBEBEB"/>
<path d="M101.763 198.229L487.198 198.229V31.0343L101.763 31.0343V198.229Z" fill="#E6E6E6"/>
<path d="M96.4533 198.229L484.886 198.229V31.0343L96.4533 31.0343V198.229Z" fill="#F5F5F5"/>
<path d="M475.351 188.588V40.6748L105.976 40.6748V188.588L475.351 188.588Z" fill="#FAFAFA"/>
<path d="M263.034 188.588L220.908 40.6865H191.514L233.64 188.588H263.034Z" fill="white"/>
<path d="M225.298 188.588L183.183 40.6865H162.935L205.061 188.588H225.298Z" fill="white"/>
<path d="M439.881 188.588L397.766 40.6865H368.361L410.487 188.588H439.881Z" fill="white"/>
<path d="M402.156 188.588L360.03 40.6865H339.793L381.907 188.588H402.156Z" fill="white"/>
<path d="M187.632 188.588V40.6748H176.257V188.588H187.632Z" fill="#E6E6E6"/>
<path d="M412.693 188.6V40.6865H401.318V188.6H412.693Z" fill="#E6E6E6"/>
<path d="M185.579 194.712V33.5117H171.206V194.712H185.579Z" fill="#F5F5F5"/>
<path d="M410.652 194.712V33.5117H396.279V194.712H410.652Z" fill="#F5F5F5"/>
<path d="M106.991 188.6L106.991 40.6865H105.976L105.976 188.6H106.991Z" fill="#E6E6E6"/>
<path d="M92.4412 18.6436H497.559C497.872 18.6436 498.172 18.7679 498.393 18.9892C498.614 19.2105 498.739 19.5106 498.739 19.8236C498.739 20.1365 498.614 20.4366 498.393 20.6579C498.172 20.8792 497.872 21.0036 497.559 21.0036H92.4412C92.1283 21.0036 91.8281 20.8792 91.6069 20.6579C91.3856 20.4366 91.2612 20.1365 91.2612 19.8236C91.2612 19.5106 91.3856 19.2105 91.6069 18.9892C91.8281 18.7679 92.1283 18.6436 92.4412 18.6436Z" fill="#E6E6E6"/>
<path d="M487.187 26.7503C487.626 26.7503 488.047 26.5767 488.359 26.2672C488.671 25.9577 488.847 25.5375 488.85 25.0983V21.5583C488.85 21.1171 488.675 20.6939 488.363 20.3818C488.051 20.0698 487.628 19.8945 487.187 19.8945C486.747 19.8976 486.327 20.0743 486.018 20.386C485.708 20.6977 485.535 21.1191 485.535 21.5583V25.0983C485.535 25.5365 485.709 25.9567 486.019 26.2665C486.328 26.5763 486.749 26.7503 487.187 26.7503Z" fill="#E6E6E6"/>
<path d="M110.979 26.7503C111.418 26.7503 111.84 26.5767 112.151 26.2672C112.463 25.9577 112.64 25.5375 112.643 25.0983V21.5583C112.643 21.1171 112.468 20.6939 112.156 20.3818C111.844 20.0698 111.42 19.8945 110.979 19.8945C110.54 19.8976 110.12 20.0743 109.81 20.386C109.501 20.6977 109.327 21.1191 109.327 21.5583V25.0983C109.327 25.5365 109.501 25.9567 109.811 26.2665C110.121 26.5763 110.541 26.7503 110.979 26.7503Z" fill="#E6E6E6"/>
<path opacity="0.6" d="M92.8305 61.6904L481.098 61.6904V19.8712L92.8305 19.8712V61.6904Z" fill="#E0E0E0"/>
<path d="M229.817 326.506C234.006 325.09 237.039 321.054 234.384 316.912C229.982 310.068 240.992 308.652 237.924 297.171C233.569 281.005 220.035 295.012 216.684 279.471C214.241 268.178 195.278 260.78 194.535 275.648C193.721 291.92 185.567 281.288 183.75 299.389C182.499 311.897 200.27 313.715 194.995 317.632C191.113 320.488 188.812 325.467 194.228 328.878C201.615 333.515 194.641 337.138 199.668 340.371C204.695 343.604 205.497 338.447 213.285 340.961C220.247 343.203 226.147 336.323 224.767 332.016C223.433 328.04 225.616 327.934 229.817 326.506Z" fill="#E6E6E6"/>
<path d="M189.567 333.94C189.567 333.94 190.133 386.332 212.093 386.332C234.053 386.332 234.619 333.94 234.619 333.94H189.567Z" fill="#F0F0F0"/>
<path d="M168.669 326.506C172.846 325.09 175.891 321.054 173.224 316.912C168.823 310.068 179.844 308.652 176.764 297.171C172.398 281.005 158.863 295.012 155.524 279.471C153.081 268.178 134.119 260.78 133.375 275.648C132.561 291.92 124.407 281.288 122.59 299.389C121.339 311.897 139.11 313.715 133.836 317.632C129.953 320.488 127.652 325.467 133.08 328.878C140.455 333.515 133.493 337.138 138.508 340.371C143.523 343.604 144.338 338.447 152.126 340.961C159.099 343.203 164.999 336.323 163.607 332.016C162.274 328.04 164.457 327.934 168.669 326.506Z" fill="#E6E6E6"/>
<path d="M128.408 333.94C128.408 333.94 128.986 386.332 150.934 386.332C172.882 386.332 173.46 333.94 173.46 333.94H128.408Z" fill="#F0F0F0"/>
<path d="M360.667 275.978C363.829 240.968 366.036 184.139 364.325 165.129C364.298 164.808 364.206 164.496 364.053 164.212C363.901 163.927 363.692 163.678 363.44 163.477C363.101 163.21 362.69 163.049 362.259 163.014C361.829 162.979 361.398 163.072 361.02 163.281C360.642 163.49 360.334 163.806 360.135 164.19C359.935 164.573 359.854 165.007 359.9 165.436C360.207 174.876 360.549 198.393 358.72 239.009C357.788 259.222 356.443 273.064 357.363 275.978H360.667Z" fill="#F0F0F0"/>
<path d="M370.414 203.479C377.989 194.039 393.447 187.242 409.2 187.277C415.383 187.277 390.379 198.31 379.983 210.476C371.912 219.916 362.803 235.823 359.711 244.637C361.705 226.076 362.85 212.966 370.414 203.479Z" fill="#F0F0F0"/>
<path d="M354.59 203.384C347.109 192.953 329.81 184.929 311.107 184.021C303.756 183.667 331.71 196.753 342.129 210.17C350.236 220.589 358.543 237.864 360.82 247.328C361.375 227.74 362.083 213.816 354.59 203.384Z" fill="#F0F0F0"/>
<path d="M370.414 218.713C377.989 209.273 393.447 202.476 409.2 202.512C415.383 202.512 390.379 213.545 379.983 225.711C371.912 235.151 362.803 251.057 359.711 259.931C361.705 241.31 362.85 228.2 370.414 218.713Z" fill="#F0F0F0"/>
<path d="M354.59 219.48C347.109 209.049 329.81 201.025 311.107 200.116C303.756 199.762 331.71 212.849 342.129 226.265C350.236 236.696 358.543 253.96 360.82 263.423C361.375 243.765 362.083 229.9 354.59 219.48Z" fill="#F0F0F0"/>
<path d="M369.057 167.643C374.013 160.563 384.621 155.087 395.701 154.344C400.055 154.049 382.898 163.029 376.054 172.044C370.732 179.124 364.939 190.712 363.074 197.072C363.794 183.962 364.089 174.64 369.057 167.643Z" fill="#F0F0F0"/>
<path d="M359.192 170.616C353.918 163.265 341.728 157.636 328.512 156.976C323.332 156.728 343.026 165.955 350.378 175.407C356.089 182.747 361.942 194.924 363.546 201.591C363.971 187.75 364.479 177.968 359.192 170.616Z" fill="#F0F0F0"/>
<path d="M370.756 176.788C377.164 168.752 390.25 163.041 403.596 163.065C408.835 163.065 387.666 172.41 378.816 182.712C371.972 190.712 364.266 204.176 361.635 211.645C363.44 195.88 364.349 184.812 370.756 176.788Z" fill="#F0F0F0"/>
<path d="M357.74 181.06C351.392 172.28 336.748 165.436 320.96 164.669C314.741 164.363 338.4 175.455 347.227 186.806C354 195.633 361.08 210.253 363.015 218.3C363.44 201.639 364.077 189.898 357.74 181.06Z" fill="#F0F0F0"/>
<path d="M371.181 187.927C378.096 179.266 392.22 173.095 406.581 173.13C412.233 173.13 389.4 183.207 379.901 194.37C372.526 203.008 364.207 217.522 361.375 225.581C363.228 208.577 364.266 196.588 371.181 187.927Z" fill="#F0F0F0"/>
<path d="M356.738 192.67C349.658 182.865 333.444 175.324 315.851 174.475C308.948 174.133 335.214 186.44 345.02 199.054C352.643 208.86 360.455 225.097 362.602 233.994C363.11 215.515 363.782 202.488 356.738 192.67Z" fill="#F0F0F0"/>
<path d="M339.38 270.066L340.56 279.896C340.623 280.958 341.089 281.956 341.863 282.687C342.637 283.417 343.661 283.824 344.725 283.825H374.06C375.124 283.824 376.148 283.417 376.922 282.687C377.696 281.956 378.162 280.958 378.225 279.896L379.405 270.066C379.438 269.5 379.354 268.933 379.159 268.4C378.964 267.867 378.662 267.379 378.272 266.967C377.882 266.555 377.412 266.227 376.89 266.003C376.369 265.779 375.807 265.664 375.24 265.665H343.545C342.978 265.664 342.416 265.779 341.895 266.003C341.373 266.227 340.903 266.555 340.513 266.967C340.123 267.379 339.821 267.867 339.626 268.4C339.432 268.933 339.348 269.5 339.38 270.066Z" fill="#E6E6E6"/>
<path d="M337.633 272.143H381.14C381.448 272.143 381.745 272.03 381.975 271.825C382.206 271.621 382.353 271.34 382.391 271.034L383.429 261.665C383.447 261.489 383.428 261.312 383.374 261.145C383.319 260.977 383.23 260.822 383.112 260.691C382.995 260.56 382.851 260.455 382.69 260.383C382.529 260.311 382.355 260.273 382.178 260.272H336.595C336.419 260.273 336.244 260.311 336.083 260.383C335.923 260.455 335.779 260.56 335.661 260.691C335.543 260.822 335.454 260.977 335.399 261.145C335.345 261.312 335.326 261.489 335.344 261.665L336.383 271.034C336.42 271.34 336.568 271.621 336.798 271.825C337.028 272.03 337.325 272.143 337.633 272.143Z" fill="#F5F5F5"/>
<path d="M272.509 386.332H291.413V283.825H272.509V386.332Z" fill="#E6E6E6"/>
<path d="M278.173 386.332H272.509V366.708H284.109L278.173 386.332Z" fill="#F0F0F0"/>
<path d="M508.002 386.332H526.905V283.825H508.002V386.332Z" fill="#E6E6E6"/>
<path d="M272.509 374.296L512.958 374.296V283.825H272.509V374.296Z" fill="#F0F0F0"/>
<path d="M507.282 386.332H512.946V366.708H501.347L507.282 386.332Z" fill="#F0F0F0"/>
<path d="M276.899 326.4H508.557V290.198H276.899V326.4Z" fill="#E6E6E6"/>
<path d="M310.847 301.442H470.82C476.342 301.442 481.629 296.97 485.44 289.088H296.239C300.038 296.97 305.325 301.442 310.847 301.442Z" fill="#F0F0F0"/>
<path d="M276.899 368.443H508.557V332.241H276.899V368.443Z" fill="#E6E6E6"/>
<path d="M310.847 343.486H470.82C476.342 343.486 481.629 339.026 485.44 331.144H296.239C300.038 339.026 305.325 343.486 310.847 343.486Z" fill="#F0F0F0"/>
<path d="M510.043 259.801C510.043 259.801 509.005 283.826 469.381 283.826C429.756 283.826 428.729 259.801 428.729 259.801H510.043Z" fill="#F5F5F5"/>
<path d="M510.043 247.328C510.043 247.328 509.005 271.4 469.381 271.4C429.756 271.4 428.729 247.375 428.729 247.375L510.043 247.328Z" fill="#F5F5F5"/>
<path d="M295 439.621C421.357 439.621 523.79 433.641 523.79 426.263C523.79 418.886 421.357 412.906 295 412.906C168.643 412.906 66.21 418.886 66.21 426.263C66.21 433.641 168.643 439.621 295 439.621Z" fill="#F5F5F5"/>
<path d="M434.122 94.8362C427.042 98.7066 424.682 110.176 427.998 115.168C415.726 118.849 422.098 139.948 442.158 141.128C462.218 142.308 477.487 134.98 467.634 119.333C477.381 106.2 472.897 91.5322 464.354 93.1488C455.185 74.7762 424.481 75.319 434.122 94.8362Z" fill="#263238"/>
<path d="M455.48 142.544C452.385 142.534 449.352 141.686 446.701 140.089C446.658 140.074 446.62 140.049 446.588 140.017C446.556 139.985 446.532 139.947 446.517 139.904C446.501 139.862 446.496 139.817 446.5 139.772C446.504 139.727 446.518 139.683 446.541 139.645C446.564 139.606 446.595 139.573 446.633 139.547C446.67 139.522 446.712 139.505 446.757 139.498C446.801 139.491 446.847 139.493 446.89 139.506C446.934 139.518 446.974 139.54 447.007 139.57C450.426 141.616 454.466 142.368 458.392 141.688C462.318 141.008 465.869 138.942 468.401 135.865C471.622 131.876 473.121 125.481 467.492 119.51C467.465 119.481 467.444 119.448 467.43 119.411C467.416 119.374 467.409 119.335 467.41 119.295C467.411 119.256 467.42 119.217 467.436 119.181C467.452 119.145 467.475 119.112 467.504 119.085C467.533 119.058 467.566 119.037 467.603 119.023C467.64 119.009 467.679 119.002 467.719 119.003C467.758 119.004 467.797 119.013 467.833 119.029C467.869 119.045 467.902 119.068 467.929 119.097C473.758 125.351 472.236 132.077 468.861 136.242C467.226 138.207 465.181 139.789 462.869 140.877C460.558 141.966 458.035 142.535 455.48 142.544Z" fill="#263238"/>
<path d="M425.78 119.085C425.719 119.083 425.661 119.063 425.612 119.027C425.564 118.991 425.527 118.942 425.508 118.884C422.369 109.893 426.57 97.8214 433.992 94.5174C434.065 94.4917 434.144 94.493 434.216 94.5212C434.287 94.5494 434.346 94.6025 434.382 94.6708C434.397 94.7064 434.406 94.7448 434.407 94.7837C434.407 94.8226 434.4 94.8612 434.386 94.8974C434.372 94.9336 434.351 94.9666 434.323 94.9946C434.296 95.0225 434.264 95.0448 434.228 95.0602C427.054 98.2462 423.007 109.952 426.063 118.66C426.076 118.697 426.081 118.737 426.078 118.776C426.076 118.815 426.065 118.854 426.048 118.889C426.03 118.924 426.006 118.955 425.976 118.981C425.946 119.006 425.911 119.026 425.874 119.038L425.78 119.085Z" fill="#263238"/>
<path d="M423.856 106.093H423.75C423.678 106.064 423.62 106.009 423.587 105.939C423.554 105.869 423.549 105.789 423.573 105.716C425.697 100.087 429.709 95.8038 434.027 94.5294C434.103 94.5075 434.183 94.5163 434.252 94.5539C434.32 94.5915 434.371 94.6549 434.393 94.73C434.415 94.8051 434.406 94.8858 434.369 94.9544C434.331 95.023 434.268 95.0739 434.193 95.0958C430.051 96.2758 426.192 100.465 424.127 105.928C424.102 105.979 424.064 106.021 424.016 106.05C423.968 106.08 423.912 106.095 423.856 106.093Z" fill="#263238"/>
<path d="M440.376 419.973L433.556 419.985L432.411 394.367L443.893 394.65L440.376 419.973Z" fill="#FFB573"/>
<path d="M428.517 198.912C428.517 198.912 427.915 270.007 426.416 300.959C426.357 301.878 426.357 302.8 426.416 303.72C428.658 334.742 432.375 394.367 432.375 394.367L443.928 394.662C443.928 394.662 453.993 347.049 447.763 303.92C457.781 255.139 463.173 211.609 454.099 198.9L428.517 198.912Z" fill="#EB5757"/>
<path opacity="0.2" d="M447.869 227.149C444.329 239.02 447.774 277.181 449.603 294.787C452.093 282.067 454.217 269.83 455.787 258.549L447.869 227.149Z" fill="black"/>
<path d="M432.789 416.669H441.65C441.837 416.663 442.019 416.727 442.159 416.85C442.299 416.973 442.388 417.145 442.406 417.33L443.302 424.587C443.307 424.812 443.267 425.035 443.184 425.244C443.102 425.453 442.978 425.643 442.821 425.803C442.664 425.964 442.476 426.091 442.269 426.178C442.062 426.265 441.84 426.31 441.615 426.31C437.709 426.31 435.845 426.027 430.924 426.039C427.892 426.039 426.063 426.345 421.874 426.345C417.685 426.345 417.685 422.333 419.443 421.968C427.337 420.327 428.352 419.419 431.101 417.248C431.584 416.873 432.177 416.669 432.789 416.669Z" fill="#263238"/>
<path d="M435.703 146.591C435.266 149.034 434.771 151.311 434.24 153.671C433.709 156.031 433.166 158.391 432.541 160.751C431.302 165.471 430.015 170.097 428.316 174.77C427.464 177.186 426.471 179.55 425.343 181.85C424.717 183.126 423.995 184.353 423.183 185.52C422.947 185.838 422.735 186.145 422.428 186.499C422.134 186.875 421.806 187.222 421.449 187.537C420.544 188.392 419.453 189.026 418.263 189.39C417.014 189.767 415.69 189.82 414.416 189.543C413.413 189.311 412.455 188.912 411.584 188.363C410.261 187.517 409.089 186.456 408.115 185.225C406.441 183.142 405.107 180.808 404.162 178.31C403.954 177.779 403.936 177.192 404.111 176.649C404.285 176.106 404.642 175.64 405.12 175.33C405.599 175.019 406.169 174.883 406.736 174.944C407.303 175.006 407.832 175.261 408.233 175.667L408.374 175.82C409.839 177.367 411.416 178.803 413.094 180.115C413.75 180.616 414.478 181.014 415.254 181.295C415.537 181.366 415.737 181.366 415.761 181.295C415.785 181.224 415.596 181.177 415.431 181.189C415.265 181.201 415.159 181.26 415.206 181.189C415.262 181.086 415.325 180.987 415.395 180.894C415.512 180.751 415.615 180.597 415.702 180.434C416.196 179.621 416.63 178.773 417 177.897C417.859 175.875 418.615 173.812 419.266 171.714C420.611 167.395 421.838 162.899 422.9 158.38C423.962 153.86 425.012 149.246 425.956 144.739C426.247 143.493 427.01 142.408 428.084 141.712C429.158 141.017 430.46 140.765 431.716 141.009C432.972 141.254 434.084 141.976 434.819 143.023C435.554 144.071 435.854 145.363 435.656 146.627L435.703 146.591Z" fill="#FFB573"/>
<path d="M424.977 189.26C424.977 192.163 470.218 192.729 470.218 188.894L447.102 182.994L424.977 189.26Z" fill="#263238"/>
<path d="M433.284 138.98C445.212 136.985 457.399 137.105 469.286 139.334C469.983 139.445 470.65 139.697 471.246 140.075C471.843 140.453 472.355 140.949 472.752 141.533C473.149 142.117 473.422 142.776 473.554 143.469C473.687 144.163 473.676 144.876 473.522 145.565C467.126 174.203 467.492 183.832 468.106 198.913H428.529C426.546 173.755 425.496 159.394 425.236 151.241C425.024 145.022 427.16 139.889 433.284 138.98Z" fill="#FFB573"/>
<path opacity="0.2" d="M469.168 147.299C468.919 151.296 469.448 155.303 470.725 159.099C471.233 156.373 471.823 153.447 472.495 150.249L469.168 147.299Z" fill="black"/>
<path d="M456.294 118.07C455.114 123.793 454.04 134.307 458.052 138.13C458.052 138.13 456.483 143.948 445.839 143.948C434.122 143.948 440.234 138.13 440.234 138.13C446.63 136.596 446.465 131.853 445.355 127.404L456.294 118.07Z" fill="#FFB573"/>
<path opacity="0.2" d="M451.834 121.882L445.355 127.44C445.631 128.476 445.816 129.534 445.91 130.602C448.353 130.248 451.704 127.569 451.963 125.009C452.109 123.967 452.065 122.908 451.834 121.882Z" fill="black"/>
<path d="M462.477 108.135C460.282 117.469 459.562 121.469 453.969 125.493C445.568 131.558 434.57 126.838 433.909 117.032C433.319 108.217 436.989 94.4233 446.889 92.2521C449.064 91.7618 451.328 91.8351 453.466 92.4651C455.604 93.095 457.546 94.2607 459.107 95.8517C460.669 97.4426 461.798 99.4059 462.387 101.556C462.977 103.705 463.008 105.97 462.477 108.135Z" fill="#FFB573"/>
<path d="M458.914 94.0928C449.025 95.1902 452.034 113.622 459.468 115.404C468.177 111.144 473.546 94.966 458.914 94.0928Z" fill="#263238"/>
<path d="M507.317 403.099L500.485 405.176L490.514 384.29L501.028 381.423L507.317 403.099Z" fill="#FFB573"/>
<path d="M498.514 403.088L507.294 399.689C507.447 399.63 507.617 399.627 507.772 399.681C507.928 399.735 508.059 399.842 508.143 399.984L512.073 406.616C512.167 406.781 512.224 406.965 512.241 407.154C512.258 407.344 512.233 407.535 512.17 407.714C512.106 407.893 512.004 408.057 511.871 408.193C511.738 408.329 511.578 408.435 511.4 408.504C508.32 409.684 506.833 410.286 502.975 411.784C500.615 412.705 496.91 415.773 493.629 417.035C490.349 418.298 488.909 415.301 490.089 414.262C493.286 411.472 495.804 407.989 497.452 404.079C497.552 403.85 497.698 403.644 497.881 403.473C498.063 403.303 498.279 403.172 498.514 403.088Z" fill="#263238"/>
<path d="M439.385 198.912C439.385 198.912 453.934 273.335 459.445 302.752C465.144 333.432 490.538 384.243 490.538 384.243L501.075 381.364C501.075 381.364 486.644 327.013 479.918 300.074C478.596 251.293 480.154 211.574 468.118 198.865L439.385 198.912Z" fill="#EB5757"/>
<path d="M446.996 108.076C446.866 108.843 446.359 109.397 445.816 109.256C445.273 109.114 445.014 108.477 445.143 107.71C445.273 106.943 445.792 106.388 446.323 106.471C446.854 106.554 447.138 107.309 446.996 108.076Z" fill="#263238"/>
<path d="M438.323 106.601C438.193 107.368 437.674 107.922 437.143 107.781C436.612 107.639 436.34 107.014 436.47 106.235C436.6 105.456 437.119 104.913 437.65 105.055C438.181 105.196 438.452 105.834 438.323 106.601Z" fill="#263238"/>
<path d="M437.863 105.138L436.104 104.288C436.104 104.288 436.813 105.893 437.863 105.138Z" fill="#263238"/>
<path d="M440.753 108.441C439.779 110.073 438.588 111.566 437.213 112.878C437.557 113.222 437.972 113.488 438.428 113.657C438.884 113.826 439.371 113.895 439.857 113.858L440.753 108.441Z" fill="#ED893E"/>
<path d="M443.515 117.575C443.119 117.576 442.724 117.54 442.335 117.469C442.305 117.465 442.276 117.455 442.251 117.439C442.225 117.424 442.203 117.403 442.185 117.379C442.168 117.355 442.155 117.327 442.148 117.298C442.142 117.269 442.141 117.239 442.146 117.209C442.157 117.151 442.19 117.099 442.239 117.064C442.287 117.029 442.346 117.014 442.405 117.021C443.358 117.202 444.34 117.158 445.272 116.892C446.204 116.625 447.061 116.144 447.774 115.487C447.795 115.464 447.821 115.446 447.849 115.433C447.878 115.421 447.908 115.414 447.94 115.414C447.971 115.414 448.001 115.421 448.03 115.433C448.058 115.446 448.084 115.464 448.105 115.487C448.145 115.53 448.167 115.587 448.167 115.646C448.167 115.705 448.145 115.762 448.105 115.805C446.869 116.979 445.219 117.616 443.515 117.575Z" fill="#263238"/>
<path d="M463.823 116.182C462.882 117.78 461.353 118.945 459.563 119.427C457.203 120.029 456.023 117.893 456.754 115.675C457.38 113.68 459.386 110.955 461.758 111.32C462.273 111.415 462.756 111.635 463.165 111.962C463.574 112.289 463.895 112.713 464.1 113.195C464.305 113.677 464.386 114.202 464.338 114.723C464.29 115.245 464.113 115.746 463.823 116.182Z" fill="#FFB573"/>
<path d="M450.76 106.896C450.665 106.895 450.572 106.864 450.495 106.807C450.419 106.749 450.363 106.669 450.335 106.578C449.71 104.56 447.126 103.687 447.102 103.687C447.044 103.669 446.99 103.64 446.943 103.601C446.897 103.563 446.858 103.515 446.831 103.461C446.803 103.407 446.787 103.347 446.783 103.287C446.779 103.226 446.787 103.166 446.807 103.108C446.824 103.05 446.853 102.996 446.892 102.95C446.931 102.903 446.979 102.865 447.033 102.837C447.087 102.809 447.146 102.793 447.207 102.789C447.267 102.785 447.328 102.793 447.385 102.813C447.503 102.813 450.441 103.84 451.208 106.353C451.227 106.411 451.233 106.473 451.227 106.533C451.222 106.594 451.204 106.653 451.176 106.707C451.147 106.76 451.108 106.808 451.061 106.847C451.014 106.885 450.96 106.914 450.902 106.932L450.76 106.896Z" fill="#263238"/>
<path d="M436.388 102.141C436.309 102.14 436.232 102.119 436.164 102.079C436.095 102.04 436.038 101.984 435.998 101.917C435.939 101.81 435.924 101.685 435.957 101.567C435.991 101.45 436.069 101.351 436.175 101.291C436.797 100.915 437.499 100.694 438.223 100.644C438.948 100.595 439.674 100.72 440.341 101.008C440.448 101.064 440.529 101.159 440.566 101.274C440.604 101.389 440.595 101.513 440.541 101.622C440.486 101.729 440.39 101.81 440.275 101.848C440.161 101.885 440.036 101.876 439.928 101.822C439.395 101.604 438.818 101.514 438.245 101.559C437.671 101.604 437.116 101.783 436.624 102.082C436.553 102.125 436.47 102.145 436.388 102.141Z" fill="#263238"/>
<path d="M472.519 140.974C475.882 145.376 478.938 149.824 481.841 154.521C483.281 156.881 484.697 159.241 485.995 161.754C487.405 164.359 488.57 167.088 489.476 169.908C489.605 170.286 489.7 170.722 489.806 171.088L489.889 171.43L489.995 171.926C490.043 172.235 490.074 172.546 490.089 172.858C490.143 173.882 490.068 174.909 489.865 175.914C489.529 177.508 489.027 179.062 488.366 180.552C487.202 183.183 485.829 185.716 484.26 188.127C481.273 192.761 477.914 197.146 474.218 201.237C473.813 201.69 473.254 201.977 472.65 202.042C472.046 202.107 471.439 201.945 470.947 201.588C470.455 201.232 470.113 200.705 469.987 200.11C469.861 199.515 469.96 198.895 470.265 198.37V198.311C472.873 193.768 475.457 189.095 477.687 184.469C478.781 182.239 479.731 179.941 480.531 177.59C480.876 176.591 481.113 175.559 481.239 174.51C481.283 174.201 481.283 173.887 481.239 173.578V173.507V173.365C481.157 173.129 481.098 172.917 480.991 172.669C480.073 170.457 478.992 168.315 477.758 166.262C476.46 164.079 475.08 161.896 473.664 159.713C470.784 155.394 467.764 151.052 464.696 146.851C463.96 145.797 463.665 144.498 463.871 143.23C464.077 141.961 464.769 140.823 465.799 140.056C466.83 139.289 468.12 138.953 469.394 139.12C470.668 139.287 471.827 139.944 472.625 140.951L472.519 140.974Z" fill="#FFB573"/>
<path d="M446.547 106.612L444.789 105.763C444.789 105.763 445.485 107.379 446.547 106.612Z" fill="#263238"/>
<path d="M426.346 148.42C427.075 145.443 428.013 142.521 429.154 139.677C430.964 139.136 432.815 138.741 434.688 138.497C438.505 141.879 441.644 145.955 443.94 150.509C449.002 145.388 458.69 140.208 464.59 138.32C466.586 138.194 468.587 138.446 470.49 139.063C466.466 151.76 462.359 164.527 469.64 167.808C469.51 173.838 469.852 181.319 470.159 188.883C463.28 188.127 435.998 186.818 424.918 189.248C424.352 181.578 424.151 175.088 424.186 169.483C419.03 162.911 424.198 153.966 426.346 148.42Z" fill="#263238"/>
<g opacity="0.2">
<path d="M437.19 172.032C437.128 172.04 437.07 172.063 437.02 172.1C436.97 172.138 436.931 172.187 436.907 172.245C436.07 174.592 436.095 177.16 436.977 179.49C436.163 178.805 435.361 178.133 434.617 177.448C435.282 176.027 435.539 174.45 435.36 172.891C435.181 171.333 434.572 169.855 433.603 168.622C433.566 168.574 433.517 168.536 433.461 168.511C433.406 168.486 433.345 168.476 433.284 168.48C433.222 168.485 433.162 168.508 433.112 168.545C433.061 168.583 433.023 168.634 433.001 168.693C432.137 171.105 432.192 173.752 433.154 176.127C432.092 175.159 431.077 174.192 430.145 173.259C430.842 171.831 431.122 170.236 430.953 168.656C430.784 167.075 430.173 165.575 429.189 164.327C429.152 164.279 429.104 164.24 429.048 164.216C428.993 164.191 428.932 164.18 428.871 164.185C428.808 164.19 428.749 164.213 428.698 164.25C428.648 164.288 428.61 164.339 428.588 164.398C427.73 166.815 427.784 169.463 428.741 171.843C427.124 170.156 425.779 168.622 424.776 167.348C424.416 165.921 423.7 164.609 422.695 163.533C421.69 162.458 420.429 161.655 419.03 161.2C418.973 161.19 418.914 161.194 418.859 161.211C418.804 161.228 418.753 161.258 418.712 161.298C418.67 161.338 418.639 161.388 418.621 161.442C418.602 161.497 418.597 161.556 418.605 161.613C419.667 166.84 423.514 167.749 424.292 167.879C424.847 168.575 425.472 169.342 426.228 170.168C424.378 169.339 422.321 169.092 420.328 169.46C420.267 169.474 420.212 169.504 420.168 169.548C420.124 169.592 420.094 169.647 420.08 169.708C420.062 169.766 420.059 169.828 420.072 169.888C420.084 169.947 420.111 170.003 420.151 170.05C421.165 171.207 422.483 172.057 423.955 172.505C425.426 172.954 426.994 172.982 428.481 172.587C429.142 173.271 429.85 173.967 430.594 174.687C428.095 173.973 425.427 174.131 423.03 175.136C422.973 175.166 422.926 175.211 422.892 175.266C422.859 175.321 422.842 175.384 422.842 175.448C422.842 175.513 422.859 175.576 422.892 175.631C422.926 175.686 422.973 175.731 423.03 175.761C424.377 176.6 425.921 177.071 427.507 177.127C429.093 177.183 430.666 176.822 432.069 176.08C433.06 177.012 434.11 177.944 435.196 178.876C432.778 177.785 430.042 177.625 427.514 178.428C427.455 178.452 427.404 178.49 427.364 178.54C427.325 178.589 427.299 178.648 427.29 178.711C427.284 178.772 427.292 178.834 427.315 178.892C427.337 178.949 427.373 179.001 427.419 179.041C428.662 180.048 430.158 180.69 431.743 180.899C433.328 181.107 434.939 180.872 436.399 180.221L436.494 180.162C436.531 180.123 436.555 180.074 436.564 180.021L437.898 181.106C437.939 181.162 437.997 181.203 438.063 181.224C438.771 181.791 439.491 182.345 440.222 182.888C440.287 182.943 440.368 182.973 440.453 182.973C440.537 182.973 440.619 182.943 440.683 182.888C440.71 182.85 440.729 182.807 440.74 182.762C440.751 182.716 440.752 182.669 440.745 182.623C440.737 182.577 440.72 182.533 440.695 182.493C440.671 182.454 440.638 182.42 440.6 182.393C439.927 181.885 439.255 181.378 438.606 180.847C439.219 179.441 439.439 177.896 439.244 176.375C439.049 174.854 438.445 173.414 437.497 172.209C437.466 172.155 437.421 172.111 437.367 172.08C437.313 172.048 437.252 172.032 437.19 172.032Z" fill="white"/>
<path d="M425.555 153.753C425.617 153.746 425.676 153.723 425.725 153.685C425.775 153.648 425.814 153.598 425.838 153.541C426.675 151.194 426.65 148.626 425.768 146.296C426.582 146.98 427.384 147.653 428.128 148.337C427.463 149.758 427.206 151.336 427.385 152.894C427.564 154.453 428.173 155.931 429.142 157.164C429.18 157.212 429.228 157.25 429.284 157.275C429.339 157.3 429.4 157.31 429.461 157.305C429.524 157.3 429.583 157.278 429.633 157.24C429.684 157.203 429.722 157.152 429.744 157.093C430.608 154.68 430.553 152.034 429.591 149.659C430.653 150.626 431.668 151.594 432.6 152.526C431.903 153.954 431.623 155.55 431.792 157.13C431.961 158.71 432.572 160.211 433.556 161.459C433.593 161.507 433.641 161.545 433.697 161.57C433.753 161.595 433.814 161.605 433.874 161.6C433.937 161.596 433.997 161.573 434.047 161.535C434.097 161.498 434.135 161.447 434.157 161.388C435.015 158.97 434.961 156.323 434.004 153.942C435.621 155.63 436.966 157.164 437.969 158.438C438.329 159.865 439.045 161.177 440.05 162.252C441.055 163.327 442.316 164.13 443.715 164.586C443.772 164.596 443.831 164.592 443.886 164.575C443.941 164.558 443.992 164.528 444.033 164.488C444.075 164.447 444.106 164.398 444.125 164.343C444.143 164.288 444.149 164.23 444.14 164.173C443.078 158.945 439.231 158.037 438.453 157.907C437.898 157.211 437.273 156.444 436.517 155.618C438.366 156.45 440.426 156.693 442.417 156.314C442.478 156.304 442.533 156.276 442.577 156.234C442.621 156.192 442.652 156.138 442.665 156.078C442.683 156.02 442.686 155.958 442.673 155.898C442.661 155.838 442.634 155.782 442.594 155.736C441.58 154.579 440.262 153.729 438.791 153.28C437.319 152.832 435.751 152.804 434.264 153.199C433.603 152.514 432.895 151.818 432.151 151.098C434.65 151.813 437.318 151.655 439.715 150.65C439.772 150.62 439.82 150.575 439.853 150.52C439.886 150.465 439.903 150.402 439.903 150.337C439.903 150.273 439.886 150.21 439.853 150.155C439.82 150.1 439.772 150.055 439.715 150.025C438.368 149.186 436.824 148.715 435.238 148.659C433.652 148.603 432.079 148.964 430.676 149.706C429.685 148.774 428.635 147.842 427.549 146.909C429.967 148.001 432.703 148.16 435.231 147.358C435.289 147.332 435.339 147.293 435.378 147.244C435.417 147.195 435.444 147.136 435.455 147.075C435.462 147.013 435.453 146.951 435.43 146.894C435.408 146.836 435.372 146.785 435.326 146.744C434.084 145.738 432.587 145.095 431.002 144.887C429.417 144.679 427.806 144.913 426.346 145.564L426.251 145.623C426.214 145.662 426.19 145.712 426.181 145.765L424.847 144.679C424.806 144.624 424.748 144.582 424.682 144.561C423.974 143.995 423.254 143.44 422.523 142.897C422.459 142.843 422.377 142.812 422.293 142.812C422.208 142.813 422.127 142.843 422.062 142.897C422.009 142.974 421.987 143.067 422 143.159C422.013 143.251 422.061 143.335 422.133 143.393C422.818 143.9 423.49 144.408 424.139 144.939C423.526 146.344 423.306 147.89 423.501 149.411C423.696 150.932 424.3 152.371 425.248 153.576C425.28 153.63 425.324 153.675 425.378 153.706C425.432 153.737 425.493 153.754 425.555 153.753Z" fill="white"/>
<path d="M461.934 180.646C461.875 180.654 461.818 180.677 461.768 180.712C461.719 180.747 461.679 180.793 461.651 180.847C460.825 183.195 460.85 185.76 461.722 188.092C460.908 187.419 460.105 186.735 459.362 186.051C460.027 184.632 460.284 183.056 460.105 181.499C459.926 179.943 459.317 178.467 458.347 177.236C458.311 177.187 458.262 177.149 458.207 177.125C458.151 177.1 458.09 177.09 458.03 177.096C457.969 177.102 457.911 177.124 457.862 177.158C457.812 177.193 457.772 177.24 457.745 177.295C456.888 179.713 456.942 182.36 457.899 184.741C456.837 183.761 455.822 182.806 454.89 181.873C455.59 180.448 455.872 178.854 455.702 177.275C455.533 175.696 454.92 174.197 453.934 172.953C453.899 172.902 453.851 172.861 453.795 172.836C453.739 172.811 453.677 172.802 453.615 172.811C453.555 172.818 453.498 172.84 453.449 172.876C453.399 172.911 453.359 172.957 453.332 173.012C452.474 175.429 452.529 178.077 453.486 180.457C451.869 178.782 450.524 177.236 449.521 175.962C449.156 174.537 448.439 173.226 447.435 172.152C446.43 171.077 445.171 170.273 443.774 169.814C443.717 169.802 443.659 169.805 443.603 169.821C443.548 169.838 443.497 169.868 443.456 169.908C443.413 169.951 443.381 170.003 443.362 170.06C443.344 170.118 443.339 170.179 443.349 170.239C444.411 175.454 448.27 176.363 449.037 176.493C449.592 177.189 450.217 177.968 450.972 178.794C449.123 177.964 447.065 177.717 445.072 178.086C445.013 178.102 444.959 178.133 444.916 178.177C444.872 178.22 444.841 178.274 444.824 178.333C444.807 178.39 444.804 178.45 444.816 178.508C444.829 178.566 444.856 178.619 444.895 178.664C445.904 179.828 447.221 180.685 448.695 181.133C450.169 181.582 451.739 181.606 453.226 181.201C453.887 181.885 454.595 182.593 455.338 183.313C452.84 182.592 450.17 182.75 447.774 183.761C447.721 183.793 447.675 183.838 447.642 183.892C447.61 183.945 447.59 184.006 447.586 184.068C447.584 184.131 447.6 184.192 447.631 184.246C447.663 184.3 447.708 184.345 447.763 184.375C449.109 185.215 450.652 185.687 452.238 185.745C453.824 185.803 455.397 185.444 456.801 184.705C457.793 185.626 458.843 186.558 459.928 187.502C457.511 186.411 454.775 186.251 452.247 187.054C452.188 187.077 452.136 187.116 452.097 187.166C452.058 187.215 452.032 187.274 452.022 187.337C452.015 187.398 452.025 187.459 452.05 187.515C452.075 187.571 452.114 187.62 452.164 187.655C453.406 188.662 454.903 189.304 456.487 189.513C458.072 189.721 459.684 189.486 461.144 188.835L461.226 188.765C461.261 188.726 461.289 188.682 461.309 188.635L462.642 189.72C462.68 189.775 462.733 189.817 462.796 189.838C463.504 190.405 464.224 190.959 464.955 191.514C465.019 191.569 465.101 191.599 465.185 191.599C465.27 191.599 465.351 191.569 465.415 191.514C465.472 191.439 465.496 191.344 465.483 191.251C465.469 191.159 465.42 191.075 465.345 191.018C464.66 190.511 463.999 189.992 463.339 189.473C463.955 188.068 464.178 186.523 463.984 185.002C463.791 183.481 463.189 182.041 462.241 180.835C462.211 180.78 462.166 180.733 462.113 180.7C462.059 180.667 461.998 180.648 461.934 180.646Z" fill="white"/>
<path d="M484.626 188.8C484.563 188.805 484.503 188.827 484.453 188.865C484.403 188.903 484.365 188.954 484.342 189.012C483.501 191.358 483.522 193.926 484.401 196.258C483.587 195.573 482.797 194.889 482.041 194.216C482.709 192.797 482.969 191.219 482.792 189.661C482.614 188.102 482.007 186.623 481.038 185.39C481 185.34 480.95 185.3 480.892 185.276C480.834 185.251 480.771 185.241 480.708 185.248C480.647 185.257 480.589 185.281 480.539 185.318C480.49 185.355 480.45 185.404 480.425 185.461C479.567 187.874 479.621 190.518 480.578 192.895C479.516 191.927 478.513 190.959 477.581 190.027C478.278 188.599 478.558 187.003 478.389 185.423C478.22 183.843 477.609 182.343 476.625 181.095C476.588 181.046 476.54 181.008 476.484 180.983C476.428 180.959 476.367 180.948 476.307 180.953C476.244 180.958 476.184 180.98 476.134 181.018C476.084 181.056 476.046 181.107 476.023 181.165C475.16 183.582 475.215 186.232 476.177 188.611C474.56 186.924 473.203 185.39 472.212 184.115C471.852 182.689 471.136 181.376 470.131 180.301C469.126 179.226 467.865 178.423 466.465 177.968C466.408 177.955 466.348 177.956 466.292 177.972C466.235 177.988 466.184 178.018 466.141 178.059C466.099 178.1 466.068 178.151 466.05 178.207C466.033 178.263 466.029 178.323 466.041 178.381C467.103 183.608 470.949 184.517 471.728 184.646C472.271 185.343 472.908 186.11 473.663 186.936C471.813 186.109 469.757 185.862 467.763 186.228C467.705 186.246 467.652 186.278 467.609 186.321C467.566 186.364 467.534 186.417 467.516 186.475C467.5 186.535 467.499 186.597 467.513 186.657C467.528 186.717 467.557 186.772 467.598 186.818C468.612 187.972 469.927 188.821 471.397 189.27C472.866 189.718 474.432 189.747 475.917 189.355C476.59 190.039 477.286 190.735 478.029 191.455C475.534 190.74 472.87 190.898 470.477 191.903C470.421 191.932 470.373 191.976 470.339 192.03C470.306 192.084 470.288 192.146 470.289 192.21C470.288 192.273 470.302 192.335 470.331 192.39C470.36 192.446 470.402 192.493 470.454 192.529C471.805 193.364 473.35 193.833 474.937 193.889C476.524 193.945 478.098 193.586 479.504 192.847C480.496 193.776 481.534 194.708 482.62 195.644C480.202 194.553 477.466 194.393 474.938 195.196C474.879 195.218 474.828 195.256 474.791 195.306C474.753 195.356 474.73 195.416 474.725 195.479C474.719 195.54 474.728 195.602 474.751 195.66C474.773 195.717 474.809 195.768 474.855 195.809C476.098 196.814 477.594 197.456 479.179 197.664C480.764 197.873 482.375 197.639 483.835 196.989C483.862 196.995 483.89 196.995 483.918 196.989C483.962 196.954 483.992 196.903 484 196.848L485.334 197.933C485.373 197.986 485.426 198.026 485.487 198.051C486.195 198.618 486.915 199.172 487.646 199.715C487.711 199.77 487.792 199.8 487.877 199.8C487.961 199.8 488.043 199.77 488.107 199.715C488.136 199.678 488.158 199.636 488.17 199.591C488.183 199.546 488.186 199.498 488.179 199.452C488.172 199.405 488.156 199.361 488.132 199.321C488.107 199.281 488.074 199.246 488.036 199.219L486.03 197.674C486.646 196.269 486.869 194.724 486.676 193.203C486.482 191.682 485.88 190.242 484.932 189.036C484.909 188.972 484.867 188.916 484.813 188.874C484.759 188.832 484.694 188.807 484.626 188.8Z" fill="white"/>
<path d="M432.741 190.133C432.68 190.139 432.622 190.16 432.572 190.195C432.522 190.23 432.483 190.278 432.458 190.334C431.617 192.679 431.637 195.248 432.517 197.579C431.703 196.907 430.912 196.222 430.157 195.538C430.825 194.118 431.084 192.541 430.907 190.982C430.73 189.424 430.123 187.945 429.154 186.711C429.115 186.664 429.065 186.626 429.008 186.603C428.951 186.58 428.889 186.571 428.828 186.578C428.767 186.585 428.708 186.608 428.658 186.643C428.608 186.679 428.567 186.727 428.54 186.782C427.682 189.2 427.737 191.848 428.694 194.228C427.632 193.249 426.629 192.293 425.697 191.361C426.393 189.933 426.673 188.337 426.504 186.757C426.335 185.177 425.724 183.676 424.741 182.428C424.705 182.379 424.656 182.341 424.6 182.318C424.544 182.295 424.482 182.289 424.422 182.298C424.361 182.301 424.301 182.321 424.251 182.357C424.201 182.392 424.162 182.442 424.139 182.499C423.276 184.916 423.33 187.565 424.292 189.945C422.895 188.515 421.571 187.014 420.328 185.449C419.963 184.024 419.246 182.714 418.241 181.639C417.237 180.565 415.978 179.761 414.581 179.301C414.522 179.29 414.462 179.292 414.404 179.308C414.347 179.325 414.294 179.355 414.251 179.395C414.213 179.439 414.185 179.49 414.169 179.545C414.153 179.599 414.148 179.657 414.156 179.714C415.218 184.941 419.065 185.85 419.844 185.98C420.387 186.676 421.024 187.443 421.779 188.34C419.932 187.502 417.872 187.254 415.879 187.632C415.821 187.647 415.768 187.677 415.725 187.718C415.681 187.759 415.649 187.811 415.631 187.868C415.615 187.927 415.614 187.99 415.629 188.05C415.643 188.109 415.672 188.165 415.714 188.21C416.72 189.375 418.035 190.231 419.507 190.68C420.979 191.129 422.548 191.152 424.033 190.747C424.705 191.431 425.402 192.139 426.145 192.859C423.651 192.133 420.983 192.291 418.593 193.308C418.537 193.334 418.49 193.376 418.456 193.428C418.423 193.48 418.405 193.541 418.404 193.603C418.402 193.665 418.416 193.728 418.445 193.784C418.474 193.839 418.517 193.887 418.569 193.921C419.918 194.761 421.463 195.233 423.051 195.291C424.638 195.349 426.214 194.991 427.62 194.252C428.611 195.172 429.65 196.104 430.735 197.036C428.316 195.948 425.58 195.793 423.053 196.6C422.996 196.621 422.946 196.658 422.909 196.706C422.872 196.754 422.848 196.811 422.841 196.871C422.833 196.933 422.84 196.995 422.863 197.053C422.886 197.111 422.923 197.162 422.971 197.202C424.214 198.207 425.71 198.849 427.294 199.057C428.879 199.265 430.49 199.031 431.951 198.382C431.978 198.387 432.006 198.387 432.033 198.382C432.075 198.349 432.104 198.303 432.116 198.252L433.449 199.337C433.489 199.39 433.542 199.431 433.603 199.455C434.322 200.022 435.03 200.576 435.762 201.131C435.826 201.186 435.908 201.216 435.992 201.216C436.076 201.216 436.158 201.186 436.222 201.131C436.252 201.094 436.273 201.052 436.286 201.007C436.298 200.962 436.301 200.914 436.295 200.868C436.288 200.821 436.272 200.777 436.247 200.737C436.223 200.697 436.19 200.662 436.151 200.635L434.145 199.09C434.761 197.683 434.984 196.136 434.791 194.613C434.598 193.09 433.995 191.648 433.048 190.44C433.042 190.361 433.008 190.286 432.952 190.229C432.896 190.173 432.821 190.139 432.741 190.133Z" fill="white"/>
<path d="M461.179 140.42C461.118 140.428 461.06 140.452 461.01 140.49C460.961 140.527 460.921 140.576 460.896 140.632C460.069 142.981 460.095 145.545 460.967 147.877C460.153 147.193 459.35 146.52 458.607 145.836C459.271 144.415 459.528 142.838 459.349 141.279C459.17 139.721 458.562 138.243 457.592 137.01C457.555 136.961 457.506 136.923 457.451 136.898C457.395 136.874 457.334 136.863 457.273 136.868C457.211 136.873 457.151 136.896 457.101 136.933C457.051 136.971 457.012 137.022 456.99 137.08C456.132 139.494 456.186 142.138 457.144 144.514C456.082 143.547 455.067 142.579 454.135 141.647C454.831 140.219 455.111 138.623 454.942 137.043C454.773 135.463 454.162 133.963 453.179 132.714C453.142 132.665 453.094 132.627 453.038 132.602C452.982 132.577 452.921 132.567 452.86 132.573C452.798 132.578 452.738 132.6 452.688 132.638C452.638 132.676 452.599 132.727 452.577 132.785C451.719 135.203 451.774 137.851 452.73 140.231C451.114 138.544 449.769 137.01 448.766 135.735C448.405 134.308 447.689 132.996 446.684 131.921C445.679 130.846 444.418 130.043 443.019 129.587C442.962 129.578 442.904 129.581 442.848 129.598C442.793 129.615 442.743 129.645 442.701 129.686C442.66 129.726 442.628 129.775 442.61 129.83C442.591 129.885 442.586 129.943 442.594 130C443.656 135.228 447.515 136.136 448.282 136.266C448.836 136.962 449.462 137.729 450.217 138.555C448.368 137.726 446.31 137.479 444.317 137.847C444.259 137.866 444.206 137.898 444.163 137.941C444.119 137.984 444.087 138.037 444.069 138.095C444.051 138.154 444.049 138.216 444.061 138.275C444.073 138.335 444.101 138.391 444.14 138.437C445.154 139.594 446.472 140.445 447.944 140.893C449.416 141.341 450.984 141.369 452.471 140.974C453.132 141.659 453.84 142.355 454.583 143.075C452.084 142.36 449.416 142.518 447.019 143.523C446.965 143.555 446.92 143.6 446.887 143.654C446.854 143.707 446.835 143.767 446.83 143.83C446.829 143.894 446.845 143.957 446.876 144.013C446.907 144.069 446.953 144.116 447.007 144.149C448.355 144.988 449.898 145.458 451.484 145.514C453.07 145.57 454.643 145.209 456.046 144.467C457.037 145.399 458.088 146.332 459.173 147.264C456.755 146.173 454.02 146.013 451.491 146.815C451.433 146.839 451.381 146.878 451.342 146.927C451.303 146.977 451.277 147.036 451.267 147.099C451.26 147.161 451.27 147.225 451.295 147.282C451.319 147.34 451.359 147.391 451.409 147.429C452.649 148.434 454.143 149.077 455.726 149.285C457.309 149.493 458.919 149.259 460.377 148.609L460.471 148.55C460.508 148.511 460.533 148.462 460.542 148.408L461.875 149.494C461.919 149.547 461.976 149.588 462.041 149.612C462.749 150.178 463.468 150.733 464.2 151.276C464.264 151.331 464.346 151.361 464.43 151.361C464.514 151.361 464.596 151.331 464.66 151.276C464.716 151.201 464.741 151.106 464.727 151.013C464.714 150.92 464.664 150.837 464.589 150.78C463.905 150.273 463.244 149.765 462.583 149.234C463.199 147.83 463.422 146.285 463.229 144.764C463.036 143.243 462.433 141.803 461.486 140.597C461.452 140.545 461.407 140.502 461.354 140.471C461.3 140.441 461.241 140.423 461.179 140.42Z" fill="white"/>
<path d="M449.969 162.839C450.03 162.834 450.088 162.813 450.138 162.778C450.188 162.742 450.227 162.694 450.252 162.639C451.094 160.293 451.073 157.725 450.193 155.394C451.008 156.066 451.798 156.751 452.553 157.435C451.886 158.855 451.626 160.432 451.803 161.99C451.98 163.549 452.587 165.028 453.556 166.261C453.595 166.309 453.645 166.347 453.702 166.37C453.759 166.393 453.821 166.402 453.883 166.395C453.944 166.388 454.002 166.365 454.053 166.33C454.103 166.294 454.143 166.246 454.17 166.191C455.028 163.773 454.973 161.125 454.017 158.745C455.079 159.72 456.082 160.676 457.026 161.612C456.329 163.04 456.049 164.636 456.218 166.216C456.387 167.796 456.998 169.296 457.981 170.545C458.02 170.593 458.07 170.63 458.127 170.653C458.184 170.677 458.246 170.685 458.308 170.678C458.369 170.671 458.427 170.649 458.478 170.613C458.528 170.577 458.568 170.529 458.595 170.474C459.455 168.056 459.396 165.406 458.43 163.028C459.828 164.458 461.151 165.959 462.395 167.524C462.759 168.951 463.478 170.262 464.485 171.337C465.491 172.412 466.753 173.215 468.153 173.672C468.21 173.683 468.269 173.681 468.324 173.664C468.38 173.648 468.43 173.618 468.472 173.577C468.512 173.534 468.542 173.481 468.559 173.424C468.575 173.366 468.578 173.306 468.566 173.247C467.516 168.031 463.657 167.123 462.878 166.993C462.336 166.297 461.698 165.53 460.943 164.633C462.79 165.471 464.851 165.719 466.843 165.341C466.901 165.326 466.954 165.296 466.998 165.255C467.041 165.214 467.073 165.162 467.091 165.105C467.107 165.046 467.108 164.983 467.094 164.923C467.079 164.864 467.05 164.808 467.008 164.763C466.003 163.598 464.688 162.741 463.215 162.293C461.743 161.844 460.174 161.82 458.689 162.226C458.029 161.541 457.321 160.833 456.577 160.114C459.071 160.84 461.739 160.681 464.129 159.665C464.186 159.637 464.234 159.593 464.267 159.539C464.301 159.484 464.318 159.422 464.318 159.358C464.322 159.297 464.308 159.236 464.279 159.181C464.25 159.127 464.206 159.082 464.153 159.052C462.804 158.212 461.259 157.74 459.671 157.682C458.084 157.624 456.509 157.982 455.102 158.721C454.111 157.801 453.073 156.869 451.987 155.936C454.407 157.019 457.141 157.175 459.669 156.373C459.726 156.352 459.776 156.315 459.813 156.267C459.851 156.219 459.874 156.162 459.881 156.102C459.892 156.04 459.885 155.977 459.862 155.918C459.84 155.86 459.801 155.809 459.751 155.771C458.511 154.763 457.014 154.118 455.429 153.91C453.843 153.702 452.231 153.937 450.772 154.591C450.744 154.586 450.716 154.586 450.689 154.591C450.655 154.63 450.627 154.674 450.606 154.721L449.273 153.635C449.236 153.581 449.182 153.539 449.12 153.517C448.412 152.951 447.692 152.337 446.96 151.842C446.896 151.787 446.814 151.757 446.73 151.757C446.646 151.757 446.564 151.787 446.5 151.842C446.444 151.917 446.419 152.011 446.433 152.104C446.446 152.197 446.496 152.281 446.571 152.337L448.577 153.883C447.961 155.29 447.738 156.836 447.931 158.359C448.125 159.882 448.727 161.325 449.674 162.533C449.685 162.608 449.72 162.678 449.773 162.733C449.825 162.788 449.894 162.825 449.969 162.839Z" fill="white"/>
</g>
<path d="M455.149 172.988L376.089 180.965C373.981 181.179 372.044 182.222 370.703 183.863C369.362 185.505 368.728 187.611 368.939 189.72L371.653 216.754C373.712 215.295 376.117 214.401 378.63 214.162C381.142 213.923 383.673 214.347 385.971 215.391C388.268 216.436 390.251 218.065 391.722 220.115C393.194 222.166 394.101 224.566 394.355 227.077C394.609 229.588 394.2 232.121 393.169 234.425C392.138 236.728 390.521 238.721 388.479 240.204C386.437 241.688 384.042 242.609 381.533 242.878C379.023 243.146 376.487 242.752 374.178 241.735L376.904 268.768C377.121 270.877 378.164 272.813 379.805 274.155C381.445 275.497 383.55 276.135 385.659 275.931L464.719 267.966C466.828 267.745 468.765 266.7 470.107 265.058C471.448 263.415 472.086 261.309 471.882 259.199L463.917 180.139C463.693 178.032 462.647 176.098 461.005 174.759C459.363 173.42 457.258 172.783 455.149 172.988Z" fill="#EB5757"/>
<path opacity="0.3" d="M455.149 172.988L376.089 180.965C373.981 181.179 372.044 182.222 370.703 183.863C369.362 185.505 368.728 187.611 368.939 189.72L371.653 216.754C373.712 215.295 376.117 214.401 378.63 214.162C381.142 213.923 383.673 214.347 385.971 215.391C388.268 216.436 390.251 218.065 391.722 220.115C393.194 222.166 394.101 224.566 394.355 227.077C394.609 229.588 394.2 232.121 393.169 234.425C392.138 236.728 390.521 238.721 388.479 240.204C386.437 241.688 384.042 242.609 381.533 242.878C379.023 243.146 376.487 242.752 374.178 241.735L376.904 268.768C377.121 270.877 378.164 272.813 379.805 274.155C381.445 275.497 383.55 276.135 385.659 275.931L464.719 267.966C466.828 267.745 468.765 266.7 470.107 265.058C471.448 263.415 472.086 261.309 471.882 259.199L463.917 180.139C463.693 178.032 462.647 176.098 461.005 174.759C459.363 173.42 457.258 172.783 455.149 172.988Z" fill="black"/>
<path d="M476.72 197.237L473.062 195.644L464.471 197.838C463.487 198.096 462.615 198.673 461.993 199.479L460.176 201.839C459.789 202.356 459.593 202.991 459.621 203.636C459.649 204.281 459.899 204.897 460.33 205.379L462.383 207.644C462.875 208.184 463.559 208.51 464.288 208.554C465.017 208.598 465.735 208.357 466.289 207.88L470.95 203.88C470.95 203.88 476.566 201.249 476.72 197.237Z" fill="#FFB573"/>
<path d="M402.25 182.499L406.05 182.015C406.562 181.957 407.041 181.733 407.414 181.377C407.787 181.021 408.033 180.553 408.115 180.044L408.634 177.024C408.703 176.664 408.688 176.293 408.589 175.94C408.49 175.587 408.311 175.262 408.065 174.991C407.818 174.72 407.512 174.509 407.171 174.377C406.829 174.244 406.462 174.193 406.097 174.227L401.66 174.546C401.036 174.579 400.451 174.859 400.033 175.324C399.614 175.788 399.398 176.399 399.43 177.024L399.548 180.21C399.554 180.545 399.632 180.874 399.776 181.177C399.92 181.48 400.126 181.748 400.382 181.965C400.638 182.181 400.936 182.341 401.258 182.433C401.581 182.525 401.919 182.547 402.25 182.499Z" fill="#FFB573"/>
<path d="M461.38 95.7806C452.011 100.501 435.55 98.3294 435.55 98.3294C435.55 98.3294 444.73 83.3198 461.38 95.7806Z" fill="#263238"/>
<path d="M296.51 395.171L291.802 419.679L279.884 416.8L284.592 392.292L296.51 395.171Z" fill="#7F3E3B"/>
<path d="M280.262 411.82L293.513 414.699C293.718 414.74 293.901 414.855 294.026 415.023C294.15 415.191 294.207 415.4 294.186 415.608L293.265 425.343C293.235 425.587 293.154 425.823 293.027 426.034C292.901 426.245 292.732 426.428 292.531 426.57C292.33 426.712 292.101 426.811 291.86 426.859C291.619 426.908 291.37 426.906 291.129 426.853C286.964 425.874 285.725 425.261 280.45 424.116C274.303 422.759 272.12 423.125 264.898 421.543C260.532 420.588 260.733 416.009 262.691 415.997C267.865 416.01 272.949 414.655 277.43 412.068C278.308 411.628 279.321 411.539 280.262 411.82Z" fill="#263238"/>
<path opacity="0.2" d="M296.522 395.182L294.091 407.808L282.162 404.929L284.592 392.292L296.522 395.182Z" fill="black"/>
<path d="M317.255 300.782C331.238 259.648 342.306 211.102 342.306 211.102L302.422 208.577C302.422 208.577 296.522 271.566 293.478 300.617C290.292 330.802 280.392 398.947 280.392 398.947L298.387 402.593C298.387 402.593 315.261 338.424 317.255 300.782Z" fill="#263238"/>
<path opacity="0.2" d="M323.91 233.994L333.586 245.959C331.12 255.199 328.24 265.583 325.078 276.191C323.263 262.201 322.872 248.063 323.91 233.994Z" fill="#263238"/>
<path d="M280.651 401.507L297.171 405.118C297.5 405.191 297.845 405.14 298.139 404.974C298.433 404.809 298.656 404.54 298.764 404.221L300.581 398.899C300.644 398.719 300.668 398.527 300.652 398.337C300.636 398.147 300.58 397.962 300.487 397.795C300.395 397.628 300.268 397.482 300.116 397.368C299.963 397.253 299.788 397.172 299.602 397.129L281.678 392.94C281.489 392.896 281.293 392.891 281.103 392.928C280.913 392.965 280.732 393.041 280.574 393.153C280.416 393.265 280.283 393.408 280.184 393.575C280.086 393.742 280.023 393.928 280.002 394.12L279.589 400.02C279.552 400.355 279.64 400.692 279.836 400.967C280.032 401.241 280.322 401.433 280.651 401.507Z" fill="#263238"/>
<path opacity="0.1" d="M280.651 401.507L297.171 405.118C297.5 405.191 297.845 405.14 298.139 404.974C298.433 404.809 298.656 404.54 298.764 404.221L300.581 398.899C300.644 398.719 300.668 398.527 300.652 398.337C300.636 398.147 300.58 397.962 300.487 397.795C300.395 397.628 300.268 397.482 300.116 397.368C299.963 397.253 299.788 397.172 299.602 397.129L281.678 392.94C281.489 392.896 281.293 392.891 281.103 392.928C280.913 392.965 280.732 393.041 280.574 393.153C280.416 393.265 280.283 393.408 280.184 393.575C280.086 393.742 280.023 393.928 280.002 394.12L279.589 400.02C279.552 400.355 279.64 400.692 279.836 400.967C280.032 401.241 280.322 401.433 280.651 401.507Z" fill="white"/>
<path d="M362.118 394.321L362.862 419.608L350.767 419.443L350.023 394.156L362.118 394.321Z" fill="#7F3E3B"/>
<path d="M350.46 414.251L363.322 414.44C363.531 414.439 363.732 414.516 363.887 414.655C364.042 414.795 364.139 414.987 364.16 415.195L365.198 424.918C365.218 425.164 365.186 425.412 365.105 425.645C365.023 425.878 364.894 426.091 364.725 426.271C364.556 426.451 364.351 426.594 364.124 426.69C363.896 426.786 363.652 426.834 363.405 426.83C359.133 426.7 357.788 426.346 352.395 426.263C346.094 426.157 344.737 426.948 337.35 426.842C332.878 426.771 332.158 422.24 334.07 421.838C339.145 420.824 343.863 418.488 347.746 415.065C348.514 414.458 349.485 414.167 350.46 414.251Z" fill="#263238"/>
<path opacity="0.2" d="M362.13 394.333L362.508 407.36L350.401 407.195L350.023 394.156L362.13 394.333Z" fill="black"/>
<path d="M359.109 299.944C355.687 256.674 358.578 233.333 353.552 211.846L317.255 209.592C317.255 209.592 328.524 273.194 334.742 301.962C340.961 330.731 347.652 400.61 347.652 400.61L365.493 400.834C365.493 400.834 367.676 333.704 359.109 299.944Z" fill="#263238"/>
<path d="M347.699 403.82L364.585 404.08C364.934 404.083 365.271 403.954 365.528 403.717C365.785 403.48 365.941 403.154 365.965 402.805L366.331 397.236C366.346 397.052 366.322 396.867 366.263 396.692C366.203 396.517 366.109 396.356 365.985 396.219C365.862 396.082 365.711 395.972 365.543 395.895C365.376 395.818 365.194 395.777 365.009 395.772L346.637 395.206C346.433 395.199 346.229 395.237 346.042 395.32C345.855 395.402 345.689 395.525 345.556 395.681C345.423 395.836 345.327 396.02 345.275 396.217C345.224 396.415 345.217 396.622 345.256 396.823L346.436 402.723C346.499 403.018 346.657 403.284 346.884 403.482C347.112 403.68 347.398 403.799 347.699 403.82Z" fill="#263238"/>
<path opacity="0.1" d="M347.699 403.82L364.585 404.08C364.934 404.083 365.271 403.954 365.528 403.717C365.785 403.48 365.941 403.154 365.965 402.805L366.331 397.236C366.346 397.052 366.322 396.867 366.263 396.692C366.203 396.517 366.109 396.356 365.985 396.219C365.862 396.082 365.711 395.972 365.543 395.895C365.376 395.818 365.194 395.777 365.009 395.772L346.637 395.206C346.433 395.199 346.229 395.237 346.042 395.32C345.855 395.402 345.689 395.525 345.556 395.681C345.423 395.836 345.327 396.02 345.275 396.217C345.224 396.415 345.217 396.622 345.256 396.823L346.436 402.723C346.499 403.018 346.657 403.284 346.884 403.482C347.112 403.68 347.398 403.799 347.699 403.82Z" fill="white"/>
<path d="M316.086 143.028C314.694 146.037 313.243 148.704 311.661 151.454C310.08 154.203 308.416 156.87 306.576 159.489C304.714 162.194 302.681 164.776 300.487 167.218C298.052 170.031 295.199 172.451 292.026 174.393L291.613 174.629C290.908 175.044 290.122 175.305 289.309 175.394C288.495 175.484 287.672 175.4 286.893 175.148C284.592 174.405 282.362 173.567 280.179 172.67C277.996 171.773 275.872 170.782 273.783 169.744C271.695 168.705 269.653 167.608 267.647 166.428C265.641 165.248 263.683 164.068 261.747 162.64C261.055 162.149 260.555 161.431 260.335 160.61C260.115 159.79 260.188 158.919 260.542 158.146C260.896 157.374 261.508 156.75 262.273 156.381C263.039 156.012 263.908 155.922 264.733 156.126H264.863C266.975 156.634 269.158 157.247 271.282 157.802L277.666 159.489C279.778 160.068 281.902 160.551 283.99 161.071C286.079 161.59 288.168 161.991 290.221 162.416L285.135 163.183C286.902 161.718 288.486 160.046 289.855 158.203C291.472 156.126 293.029 153.837 294.575 151.477C296.121 149.117 297.525 146.651 298.917 144.149C300.31 141.648 301.726 139.064 302.977 136.68L303.047 136.55C303.988 134.984 305.484 133.829 307.238 133.316C308.992 132.803 310.874 132.969 312.511 133.781C314.147 134.594 315.418 135.993 316.07 137.7C316.721 139.407 316.706 141.297 316.027 142.993L316.086 143.028Z" fill="#7F3E3B"/>
<path d="M318.989 122.402C304.9 124.007 294.209 145.825 294.209 145.825L308.747 161.295C308.747 161.295 315.225 153.578 322.187 143.819C329.786 133.187 330.14 121.139 318.989 122.402Z" fill="#EB5757"/>
<path d="M317.255 125.671C322.671 123.747 346.932 126.851 346.932 126.851C342.212 132.94 338.271 183.361 337.834 212.342C332.677 213.05 312.901 211.693 308.334 210.631C308.924 199.256 313.668 145.896 317.255 125.671Z" fill="white"/>
<path d="M301.596 140.963C302.233 135.719 304.773 130.892 308.734 127.399C312.695 123.905 317.802 121.988 323.084 122.012C333.221 122.093 343.323 123.208 353.233 125.34C354.777 125.666 356.239 126.299 357.533 127.201C358.828 128.103 359.929 129.255 360.77 130.589C361.612 131.924 362.177 133.413 362.433 134.97C362.689 136.527 362.63 138.119 362.26 139.653C354.791 170.982 356.761 200.706 354.767 214.536C347.657 217.15 340.106 218.352 332.536 218.076C332.536 218.076 332.713 206.146 334.377 186.003C335.698 169.991 338.07 132.337 342.955 126.083C342.955 126.083 325.444 123.723 320.028 125.623C316.004 148.338 313.054 217.144 313.054 217.155C304.487 216.542 300.452 211.775 300.581 210.359C298.847 182.522 299.72 157.282 301.596 140.963Z" fill="#EB5757"/>
<path d="M343.58 106.118C341.94 110.838 340.04 119.204 343.073 123.901C343.227 124.119 343.33 124.369 343.376 124.632C343.422 124.895 343.409 125.164 343.338 125.422C343.266 125.679 343.139 125.917 342.965 126.12C342.791 126.322 342.574 126.483 342.33 126.591C337.455 129.403 331.822 130.616 326.223 130.06C318.612 129.447 319.143 126.013 321.101 123.783C321.564 123.268 322.205 122.947 322.895 122.886C330.081 122.025 330.152 117.694 329.114 113.446L343.58 106.118Z" fill="#7F3E3B"/>
<path opacity="0.2" d="M337.68 109.127L329.125 113.481C329.396 114.487 329.551 115.52 329.586 116.561C332.701 116.561 337.114 114.472 337.621 112.077C337.882 111.113 337.902 110.1 337.68 109.127Z" fill="black"/>
<path d="M332.172 89.7111C332.493 85.4546 330.178 81.8094 327 81.5694C323.823 81.3293 320.986 84.5853 320.664 88.8418C320.343 93.0983 322.658 96.7434 325.836 96.9835C329.014 97.2235 331.85 93.9676 332.172 89.7111Z" fill="#263238"/>
<path d="M348.206 93.2206C346.625 102.531 346.165 108.065 340.996 112.396C333.22 118.897 322.305 113.399 321.125 103.805C320.051 95.1794 322.812 81.3852 332.229 78.6004C341.645 75.8156 349.787 83.8986 348.206 93.2206Z" fill="#7F3E3B"/>
<path d="M346.177 101.091C346.059 101.091 345.917 100.937 345.787 101.008C341.563 103.368 340.194 98.2943 340.454 94.9195C340.54 93.7937 340.864 92.6988 341.402 91.7065C341.941 90.7142 342.684 89.8469 343.581 89.1611C339.002 89.6803 334.565 86.7303 334.495 83.9809C329.432 86.2111 323.332 86.3409 320.582 81.6209C317.833 76.9009 321.762 70.7295 327.002 72.3697C324.878 68.5701 333.857 60.9709 343.262 72.1809C343.557 64.0507 356.702 72.1809 354.543 80.1695C360.632 82.2699 365.847 93.8339 355.522 96.3001C354.838 107.014 346.177 101.091 346.177 101.091Z" fill="#263238"/>
<path d="M351.156 104.017C349.727 105.771 347.686 106.918 345.445 107.227C342.613 107.545 341.987 104.666 343.439 102.047C344.749 99.6867 347.793 96.6895 350.318 97.6099C352.844 98.5303 352.997 101.775 351.156 104.017Z" fill="#7F3E3B"/>
<path d="M334.707 93.9162C334.636 94.695 334.176 95.2732 333.668 95.226C333.161 95.1788 332.807 94.518 332.878 93.7392C332.948 92.9604 333.409 92.394 333.916 92.4412C334.423 92.4884 334.766 93.1492 334.707 93.9162Z" fill="#263238"/>
<path d="M325.562 92.9015C325.491 93.6685 325.031 94.2468 324.523 94.1996C324.016 94.1524 323.674 93.4916 323.733 92.7246C323.792 91.9576 324.264 91.3676 324.771 91.4148C325.278 91.462 325.68 92.1227 325.562 92.9015Z" fill="#263238"/>
<path d="M329.137 93.3379C328.01 95.6001 326.576 97.6965 324.877 99.5683C325.367 99.995 325.944 100.31 326.567 100.491C327.191 100.673 327.846 100.716 328.488 100.618L329.137 93.3379Z" fill="#630F0F"/>
<path d="M330.872 104.372C331.729 104.432 332.589 104.318 333.4 104.036C334.211 103.754 334.957 103.31 335.592 102.732C335.613 102.71 335.629 102.684 335.64 102.656C335.651 102.628 335.657 102.598 335.656 102.568C335.656 102.538 335.649 102.508 335.637 102.481C335.625 102.453 335.608 102.428 335.586 102.407C335.564 102.386 335.539 102.37 335.511 102.359C335.483 102.348 335.453 102.342 335.423 102.343C335.392 102.343 335.363 102.35 335.335 102.362C335.307 102.374 335.283 102.391 335.262 102.413C334.543 103.049 333.684 103.505 332.755 103.745C331.826 103.985 330.853 104.002 329.916 103.794C329.887 103.787 329.858 103.786 329.828 103.791C329.799 103.797 329.772 103.808 329.747 103.825C329.723 103.841 329.702 103.863 329.687 103.888C329.671 103.913 329.661 103.941 329.657 103.971C329.646 104.03 329.658 104.091 329.691 104.141C329.724 104.192 329.775 104.228 329.834 104.242C330.211 104.301 330.542 104.348 330.872 104.372Z" fill="#263238"/>
<path d="M337.728 92.0402C337.801 92.0573 337.878 92.0573 337.952 92.0402C338.007 92.016 338.056 91.9811 338.097 91.9375C338.138 91.8939 338.17 91.8426 338.191 91.7865C338.212 91.7304 338.221 91.6707 338.219 91.6109C338.216 91.5511 338.202 91.4925 338.176 91.4384C337.899 90.7708 337.468 90.178 336.919 89.7085C336.369 89.2389 335.716 88.9058 335.014 88.7362C334.895 88.7191 334.774 88.7489 334.677 88.8195C334.58 88.89 334.515 88.9956 334.494 89.1138C334.477 89.2324 334.507 89.3531 334.578 89.4501C334.648 89.547 334.754 89.6127 334.872 89.633C335.426 89.7758 335.939 90.0467 336.369 90.4238C336.8 90.8009 337.136 91.2737 337.35 91.8042C337.39 91.8709 337.444 91.9271 337.51 91.9682C337.576 92.0093 337.65 92.0339 337.728 92.0402Z" fill="#263238"/>
<path d="M321.727 89.1379C321.8 89.1574 321.877 89.159 321.951 89.1426C322.025 89.1262 322.094 89.0922 322.152 89.0435C322.572 88.6625 323.077 88.3859 323.624 88.2362C324.171 88.0866 324.746 88.068 325.302 88.1821C325.416 88.2149 325.539 88.201 325.643 88.1435C325.747 88.086 325.824 87.9895 325.857 87.8753C325.89 87.7596 325.876 87.6354 325.819 87.5295C325.762 87.4236 325.665 87.3444 325.55 87.3089C324.848 87.149 324.118 87.161 323.421 87.3439C322.725 87.5267 322.083 87.875 321.55 88.3591C321.508 88.4008 321.474 88.4504 321.452 88.5051C321.429 88.5598 321.417 88.6185 321.417 88.6777C321.417 88.737 321.429 88.7956 321.452 88.8503C321.474 88.905 321.508 88.9546 321.55 88.9963C321.595 89.0587 321.656 89.1076 321.727 89.1379Z" fill="#263238"/>
<path d="M365.068 139.016C365.835 140.515 366.461 141.813 367.074 143.217C367.688 144.621 368.254 145.978 368.868 147.371C370.048 150.156 371.074 152.988 372.042 155.855C374.01 161.655 375.517 167.601 376.55 173.638L376.868 175.998L377.033 177.178V177.461V177.98C377.033 178.358 377.092 178.735 377.092 179.16C377.047 181.311 376.619 183.436 375.83 185.438C374.655 188.494 373.16 191.417 371.369 194.158C369.744 196.724 367.984 199.201 366.095 201.58C364.244 203.947 362.275 206.22 360.195 208.389C359.597 209.021 358.792 209.419 357.926 209.508C357.06 209.598 356.191 209.373 355.477 208.876C354.762 208.379 354.25 207.642 354.033 206.798C353.816 205.955 353.909 205.063 354.295 204.282V204.188C356.737 199.102 359.322 193.957 361.375 188.942C361.906 187.691 362.378 186.441 362.791 185.225C363.202 184.09 363.545 182.932 363.817 181.756C364.009 181.025 364.077 180.267 364.018 179.514C364.018 179.514 364.018 179.585 364.018 179.514L363.959 179.278L363.735 178.299L363.298 176.352C361.937 171.068 360.27 165.867 358.307 160.776C357.363 158.18 356.289 155.619 355.251 153.047C354.731 151.772 354.177 150.498 353.622 149.235L351.97 145.554L351.876 145.341C351.046 143.604 350.941 141.609 351.583 139.795C352.225 137.98 353.561 136.495 355.298 135.665C357.035 134.836 359.03 134.731 360.844 135.372C362.659 136.014 364.144 137.35 364.974 139.087L365.068 139.016Z" fill="#7F3E3B"/>
<path d="M354.448 125.67C370.166 129.635 374.508 149.73 374.508 149.73L354.991 163.725C354.991 163.725 350.153 158.663 348.69 146.768C348.017 141.093 351.262 125.517 354.448 125.67Z" fill="#EB5757"/>
<path d="M356.867 201.78L347.781 205.179L354.743 214.501C354.743 214.501 362.59 210.43 361.103 205.91L356.867 201.78Z" fill="#7F3E3B"/>
<path d="M341.02 206.5C338.573 206.089 336.061 206.316 333.727 207.161L338.235 180.375C338.584 178.283 338.089 176.139 336.859 174.411C335.629 172.684 333.765 171.514 331.674 171.159L253.322 157.967C251.234 157.621 249.094 158.116 247.37 159.343C245.645 160.57 244.476 162.43 244.118 164.516L239.54 191.361C241.871 190.505 244.386 190.277 246.832 190.7C249.008 191.065 251.071 191.924 252.862 193.212C254.654 194.499 256.126 196.181 257.165 198.127C258.205 200.073 258.784 202.231 258.858 204.436C258.932 206.641 258.5 208.833 257.593 210.844C256.687 212.856 255.331 214.632 253.631 216.038C251.93 217.443 249.929 218.439 247.783 218.949C245.637 219.46 243.402 219.471 241.251 218.982C239.1 218.493 237.089 217.517 235.374 216.129L230.855 242.915C230.507 245.007 231.001 247.151 232.231 248.879C233.461 250.606 235.325 251.776 237.416 252.131L315.768 265.323C317.857 265.669 319.999 265.174 321.725 263.947C323.451 262.721 324.623 260.861 324.984 258.774L329.491 231.976C331.208 233.342 333.214 234.298 335.356 234.772C337.498 235.246 339.72 235.224 341.853 234.709C343.985 234.194 345.973 233.2 347.663 231.801C349.353 230.402 350.701 228.636 351.606 226.637C352.51 224.638 352.947 222.46 352.882 220.267C352.817 218.074 352.253 215.925 351.232 213.983C350.211 212.041 348.761 210.357 346.991 209.061C345.221 207.764 343.179 206.888 341.02 206.5Z" fill="#EB5757"/>
<path opacity="0.6" d="M341.02 206.5C338.573 206.089 336.061 206.316 333.727 207.161L338.235 180.375C338.584 178.283 338.089 176.139 336.859 174.411C335.629 172.684 333.765 171.514 331.674 171.159L253.322 157.967C251.234 157.621 249.094 158.116 247.37 159.343C245.645 160.57 244.476 162.43 244.118 164.516L239.54 191.361C241.871 190.505 244.386 190.277 246.832 190.7C249.008 191.065 251.071 191.924 252.862 193.212C254.654 194.499 256.126 196.181 257.165 198.127C258.205 200.073 258.784 202.231 258.858 204.436C258.932 206.641 258.5 208.833 257.593 210.844C256.687 212.856 255.331 214.632 253.631 216.038C251.93 217.443 249.929 218.439 247.783 218.949C245.637 219.46 243.402 219.471 241.251 218.982C239.1 218.493 237.089 217.517 235.374 216.129L230.855 242.915C230.507 245.007 231.001 247.151 232.231 248.879C233.461 250.606 235.325 251.776 237.416 252.131L315.768 265.323C317.857 265.669 319.999 265.174 321.725 263.947C323.451 262.721 324.623 260.861 324.984 258.774L329.491 231.976C331.208 233.342 333.214 234.298 335.356 234.772C337.498 235.246 339.72 235.224 341.853 234.709C343.985 234.194 345.973 233.2 347.663 231.801C349.353 230.402 350.701 228.636 351.606 226.637C352.51 224.638 352.947 222.46 352.882 220.267C352.817 218.074 352.253 215.925 351.232 213.983C350.211 212.041 348.761 210.357 346.991 209.061C345.221 207.764 343.179 206.888 341.02 206.5Z" fill="white"/>
<path d="M343.533 214.335L346.519 217.191C347.093 217.744 347.846 218.073 348.642 218.121C349.438 218.169 350.225 217.931 350.861 217.45L354.743 214.536L347.781 205.214L343.474 209.533C343.157 209.849 342.907 210.225 342.738 210.64C342.569 211.055 342.484 211.499 342.49 211.946C342.495 212.394 342.591 212.836 342.77 213.246C342.949 213.657 343.209 214.027 343.533 214.335Z" fill="#7F3E3B"/>
<path d="M256.06 160.48L257.146 156.456C257.327 155.983 257.653 155.578 258.076 155.299C258.499 155.02 258.999 154.88 259.506 154.899C261.043 154.836 262.578 155.072 264.025 155.595L270.161 157.86L269.866 160.362C269.618 162.51 267.223 164.303 264.509 164.386C262.687 164.41 260.868 164.216 259.093 163.808L258.432 163.666C258.056 163.639 257.69 163.532 257.359 163.351C257.028 163.17 256.74 162.92 256.515 162.617C256.29 162.315 256.132 161.967 256.054 161.598C255.975 161.229 255.978 160.848 256.06 160.48Z" fill="#7F3E3B"/>
<path d="M159.406 104.937C163.336 100.37 169.247 88.5115 158.132 83.9803C149.931 80.6291 132.526 82.3401 122.531 97.9043C115.699 100.264 113.681 115.463 129.458 118.66C145.234 121.858 159.406 104.937 159.406 104.937Z" fill="#263238"/>
<path d="M195.054 397.754L177.023 399.253L180.08 420.445L195.148 419.218L195.054 397.754Z" fill="#FFC3BD"/>
<path opacity="0.2" d="M195.054 397.766L177.012 399.265L178.735 411.136L195.113 409.779L195.054 397.766Z" fill="black"/>
<path d="M160.586 335.368C153.506 308.228 135.169 275.919 146.792 249.806L197.307 249.652C197.307 249.652 198.558 303.401 198.912 328.712C199.266 355.18 197.06 404.976 197.06 404.976L176.398 406.545C176.398 406.545 162.238 365.8 160.586 335.368Z" fill="#EB5757"/>
<path d="M175.371 407.359L197.697 405.719C197.887 405.703 198.066 405.619 198.2 405.483C198.334 405.346 198.415 405.167 198.429 404.976L198.901 396.716C198.908 396.601 198.891 396.486 198.849 396.379C198.807 396.272 198.742 396.176 198.659 396.097C198.575 396.018 198.475 395.958 198.366 395.923C198.257 395.887 198.141 395.876 198.027 395.89L173.247 399.182C173.135 399.194 173.026 399.231 172.93 399.29C172.833 399.35 172.751 399.43 172.689 399.524C172.627 399.619 172.586 399.726 172.571 399.839C172.555 399.951 172.565 400.065 172.598 400.173L174.557 406.805C174.612 406.975 174.722 407.121 174.869 407.222C175.017 407.322 175.193 407.371 175.371 407.359Z" fill="#263238"/>
<path opacity="0.2" d="M146.615 275.495C146.419 281.905 146.679 288.32 147.394 294.693C149.86 303.225 153.01 311.768 155.842 320.051C159.548 296.593 159.559 269.252 146.615 275.495Z" fill="black"/>
<path d="M128.313 399.076L110.212 399.253L110.188 420.611L125.316 420.493L128.313 399.076Z" fill="#FFC3BD"/>
<path d="M108.761 417.33C108.778 417.211 108.821 417.097 108.885 416.996C108.95 416.894 109.035 416.807 109.135 416.741C109.235 416.674 109.348 416.629 109.466 416.609C109.585 416.588 109.706 416.593 109.823 416.622C114.366 418.428 122.98 417.047 126.236 416.422C126.596 416.347 126.967 416.348 127.326 416.423C127.685 416.498 128.025 416.646 128.325 416.858C130.989 418.567 133.876 419.901 136.904 420.823C137.553 422.559 137.716 424.44 137.376 426.263H106.861C107.722 423.338 108.357 420.352 108.761 417.33Z" fill="#263238"/>
<path d="M178.085 417.33C178.103 417.211 178.146 417.097 178.21 416.996C178.274 416.894 178.359 416.807 178.459 416.741C178.559 416.674 178.672 416.629 178.791 416.609C178.909 416.588 179.031 416.593 179.147 416.622C183.69 418.428 192.304 417.047 195.561 416.422C195.921 416.347 196.292 416.348 196.651 416.423C197.01 416.498 197.35 416.646 197.65 416.858C201.119 419.313 210.37 420.823 210.37 420.823C211.02 422.56 211.179 424.442 210.83 426.263H176.186C177.047 423.338 177.682 420.352 178.085 417.33Z" fill="#263238"/>
<path opacity="0.2" d="M128.313 399.087L110.2 399.253L110.188 411.218L126.637 411.076L128.313 399.087Z" fill="black"/>
<path d="M107.663 326.588C105.209 299.177 97.5152 262.255 106.247 249.652H165.365C165.365 249.652 153.317 304.31 148.373 329.609C143.24 355.911 128.478 406.415 128.478 406.415L108.902 406.474C108.902 406.474 101.48 357.882 107.663 326.588Z" fill="#EB5757"/>
<path opacity="0.2" d="M111.215 400.869C111.088 400.867 110.964 400.825 110.863 400.749C110.761 400.672 110.686 400.566 110.649 400.444C109.244 395.724 109.469 341.503 113.009 326.659C113.009 324.7 112.596 320.853 112.124 315.98C110.507 299.46 107.51 268.78 111.982 251.375C112.021 251.218 112.121 251.084 112.259 251.001C112.397 250.918 112.563 250.893 112.719 250.932C112.876 250.971 113.01 251.071 113.093 251.209C113.176 251.348 113.201 251.513 113.162 251.67C108.737 268.886 111.722 299.448 113.327 315.874C113.811 320.83 114.2 324.735 114.224 326.718C114.23 326.769 114.23 326.82 114.224 326.871C110.826 340.913 110.495 395.547 111.864 400.114C111.908 400.262 111.892 400.423 111.819 400.559C111.746 400.696 111.623 400.799 111.475 400.845C111.392 400.878 111.302 400.886 111.215 400.869Z" fill="white"/>
<path d="M107.545 407.206H129.717C129.895 407.211 130.068 407.152 130.204 407.039C130.341 406.926 130.432 406.767 130.461 406.592L131.924 398.722C131.945 398.603 131.939 398.48 131.907 398.364C131.875 398.247 131.817 398.139 131.738 398.047C131.659 397.956 131.561 397.883 131.45 397.834C131.339 397.786 131.219 397.762 131.098 397.766L106.955 398.84C106.853 398.843 106.753 398.866 106.661 398.909C106.568 398.952 106.486 399.014 106.418 399.091C106.351 399.167 106.3 399.256 106.268 399.353C106.237 399.45 106.226 399.553 106.235 399.654L106.731 406.451C106.749 406.655 106.842 406.846 106.992 406.986C107.143 407.125 107.34 407.204 107.545 407.206Z" fill="#263238"/>
<path d="M185.449 154.178C186.629 158.898 187.714 163.618 188.765 168.338C189.815 173.058 190.806 177.778 191.726 182.498L193.142 189.578L194.464 196.658C195.373 201.378 196.175 206.169 197.001 210.936L195.078 206.629C195.335 207.512 195.889 208.279 196.647 208.801C198.157 209.821 199.86 210.524 201.65 210.866C204.037 211.417 206.471 211.737 208.919 211.821C210.229 211.892 211.574 211.939 212.931 211.916C213.604 211.916 214.288 211.916 214.972 211.916C215.657 211.916 216.4 211.916 216.872 211.916L218.548 212.034C219.958 212.124 221.3 212.671 222.372 213.591C223.444 214.511 224.188 215.754 224.492 217.134C224.796 218.514 224.643 219.955 224.056 221.24C223.469 222.525 222.48 223.585 221.238 224.259C220.294 224.778 219.622 225.167 218.819 225.58C218.017 225.993 217.273 226.347 216.459 226.76C214.878 227.445 213.261 228.094 211.586 228.636C209.885 229.193 208.156 229.658 206.406 230.029C204.562 230.396 202.698 230.656 200.824 230.808C198.8 230.952 196.766 230.92 194.747 230.713C192.503 230.525 190.291 230.057 188.163 229.321C185.775 228.525 183.508 227.405 181.425 225.993C179.228 224.472 177.271 222.63 175.619 220.53C174.907 219.644 174.377 218.625 174.062 217.533L173.696 216.223C172.398 211.574 171.065 206.936 169.837 202.263L167.961 195.278L166.179 188.269C164.999 183.549 163.819 178.899 162.746 174.203C161.672 169.507 160.598 164.763 159.666 160.043C158.998 156.665 159.674 153.161 161.551 150.274C163.428 147.388 166.357 145.348 169.715 144.588C173.073 143.829 176.595 144.41 179.531 146.207C182.467 148.005 184.586 150.878 185.437 154.214L185.449 154.178Z" fill="#FFC3BD"/>
<path d="M216.046 213.084L216.294 220.707C219.374 228.105 228.2 222.489 228.2 222.489L233.534 221.509C234.462 221.273 235.277 220.715 235.834 219.936C236.391 219.156 236.655 218.204 236.578 217.249L236.436 211.916C236.472 210.815 236.076 209.743 235.333 208.93C234.591 208.117 233.559 207.626 232.46 207.562L227.74 207.656C226.362 207.68 225.012 208.044 223.81 208.718L216.046 213.084Z" fill="#FFC3BD"/>
<path d="M176.41 141.033C187.266 146.745 194.358 166.899 194.358 166.899C192.069 176.339 182.841 193.555 174.298 193.449C174.298 193.449 161.754 177.271 160.397 165.566C158.745 151.417 154.462 129.493 176.41 141.033Z" fill="#263238"/>
<path d="M166.38 137.683C149.626 136.09 132.747 136.359 116.053 138.485C106.401 139.842 99.533 145.848 100.713 165.625C103.073 205.745 99.415 237.015 104.513 251.435C104.513 251.435 178.758 272.675 199.927 252.32C205.072 204.046 187.75 163.973 179.867 147.3C178.633 144.674 176.744 142.411 174.382 140.726C172.02 139.042 169.264 137.994 166.38 137.683Z" fill="#263238"/>
<path d="M160.798 142.072C158.875 140.184 156.857 141.282 155.925 138.438C155.514 136.205 155.889 133.899 156.987 131.912L134.083 119.546C134.532 127.971 134.874 134.626 131.133 137.977C130.048 144.255 141.753 150.521 157.341 150.615C167.265 150.674 163.571 144.786 160.798 142.072Z" fill="#FFC3BD"/>
<path opacity="0.2" d="M156.645 132.62L138.567 128.101C143.134 135.287 151.359 139.216 155.784 137.482C155.657 135.814 155.953 134.142 156.645 132.62Z" fill="black"/>
<path d="M149.163 91.3908C137.198 88.7358 126.861 98.6714 129.174 109.504C131.487 120.336 133.316 127.652 140.809 131.334C155.701 138.673 162.969 131.593 164.185 120.277C165.282 110.082 161.306 94.0694 149.163 91.3908Z" fill="#FFC3BD"/>
<path opacity="0.2" d="M146.816 110.625C145.41 110.273 143.922 110.489 142.674 111.227C144.081 111.301 145.488 111.096 146.816 110.625Z" fill="black"/>
<path opacity="0.2" d="M146.898 111.628C146.237 111.597 145.577 111.712 144.965 111.965C144.353 112.218 143.804 112.602 143.358 113.091C144.63 112.866 145.838 112.367 146.898 111.628Z" fill="black"/>
<path d="M130.685 118.66C137.376 120.159 140.125 116.808 140.125 113.055C140.125 109.067 136.361 102.329 132.231 101.09C133.706 92.2401 158.096 104.63 155.772 92.3699C155.772 92.3699 155.111 90.2695 148.81 89.0895C142.509 87.9095 125.67 91.7091 126.85 104.3C128.03 116.89 130.685 118.66 130.685 118.66Z" fill="#263238"/>
<path d="M122.165 98.5302C123.803 95.244 124.265 91.4958 123.475 87.9102C123.475 87.9102 130.814 92.76 122.165 98.5302Z" fill="#263238"/>
<path d="M152.94 122.024C153.44 121.986 153.937 121.911 154.427 121.8C154.465 121.791 154.501 121.776 154.533 121.753C154.564 121.731 154.592 121.702 154.612 121.67C154.633 121.637 154.647 121.6 154.654 121.562C154.661 121.523 154.659 121.484 154.651 121.446C154.644 121.407 154.629 121.37 154.607 121.337C154.585 121.304 154.557 121.277 154.523 121.255C154.49 121.234 154.453 121.22 154.414 121.215C154.375 121.209 154.335 121.211 154.297 121.222C153.071 121.521 151.793 121.529 150.564 121.246C149.335 120.964 148.188 120.397 147.217 119.593C147.189 119.565 147.156 119.542 147.12 119.526C147.083 119.511 147.044 119.503 147.004 119.503C146.965 119.503 146.925 119.511 146.889 119.526C146.852 119.542 146.819 119.565 146.792 119.593C146.737 119.65 146.707 119.726 146.707 119.806C146.707 119.885 146.737 119.961 146.792 120.018C147.633 120.743 148.609 121.294 149.665 121.638C150.72 121.982 151.833 122.114 152.94 122.024Z" fill="#263238"/>
<path d="M126.449 119.18C127.214 120.218 128.178 121.094 129.284 121.759C130.389 122.423 131.616 122.862 132.892 123.05C136.325 123.522 137.612 120.348 136.29 117.351C135.11 114.649 131.9 111.156 128.644 112.053C125.387 112.949 124.584 116.596 126.449 119.18Z" fill="#FFC3BD"/>
<path d="M148.762 110.742C148.904 111.698 149.518 112.406 150.143 112.312C150.768 112.217 151.17 111.356 151.028 110.4C150.886 109.444 150.285 108.748 149.659 108.843C149.034 108.937 148.68 109.739 148.762 110.742Z" fill="#263238"/>
<path d="M160.008 109.232C160.149 110.2 160.763 110.896 161.388 110.802C162.014 110.707 162.415 109.858 162.273 108.902C162.132 107.946 161.53 107.238 160.905 107.333C160.279 107.427 159.878 108.277 160.008 109.232Z" fill="#263238"/>
<path d="M155.76 110.495L156.303 118.59C156.303 118.59 158.958 119.05 160.397 117.516C159.483 114.815 157.886 112.396 155.76 110.495Z" fill="#ED847E"/>
<path d="M145.057 108.56C144.961 108.586 144.859 108.586 144.762 108.559C144.666 108.532 144.578 108.479 144.509 108.406C144.44 108.334 144.392 108.244 144.37 108.146C144.348 108.049 144.353 107.947 144.385 107.852C144.609 106.974 145.038 106.163 145.637 105.484C146.236 104.805 146.988 104.278 147.83 103.946C147.973 103.901 148.127 103.915 148.259 103.983C148.392 104.052 148.492 104.17 148.538 104.312C148.583 104.456 148.57 104.611 148.502 104.746C148.433 104.88 148.315 104.983 148.172 105.031C147.507 105.303 146.916 105.727 146.446 106.271C145.977 106.814 145.642 107.461 145.47 108.158C145.443 108.256 145.391 108.345 145.318 108.415C145.246 108.486 145.156 108.536 145.057 108.56Z" fill="#263238"/>
<path d="M163.701 104.937C163.608 104.946 163.514 104.93 163.429 104.89C163.344 104.851 163.271 104.79 163.217 104.713C162.813 104.127 162.275 103.646 161.646 103.312C161.018 102.977 160.318 102.798 159.607 102.79C159.45 102.79 159.3 102.727 159.189 102.617C159.079 102.506 159.017 102.356 159.017 102.2C159.017 102.043 159.079 101.893 159.189 101.782C159.3 101.672 159.45 101.61 159.607 101.61C160.506 101.602 161.393 101.813 162.192 102.224C162.992 102.635 163.68 103.234 164.197 103.97C164.24 104.03 164.271 104.098 164.288 104.171C164.305 104.243 164.308 104.318 164.296 104.392C164.284 104.465 164.257 104.535 164.218 104.599C164.179 104.662 164.127 104.717 164.067 104.76C164.022 104.813 163.966 104.856 163.903 104.887C163.84 104.917 163.771 104.934 163.701 104.937Z" fill="#263238"/>
<path d="M232.46 182.109C229.989 182.283 227.606 183.097 225.545 184.469L223.409 157.329C223.235 155.218 222.232 153.262 220.621 151.887C219.009 150.512 216.919 149.83 214.807 149.99L135.594 156.232C133.484 156.41 131.529 157.413 130.155 159.024C128.78 160.634 128.097 162.722 128.254 164.834L134.508 244.048C134.677 246.161 135.677 248.121 137.29 249.497C138.903 250.874 140.996 251.553 143.11 251.387L222.312 245.133C224.425 244.961 226.384 243.96 227.762 242.348C229.139 240.737 229.823 238.645 229.663 236.531L227.516 209.45C229.765 210.504 232.25 210.951 234.725 210.748C238.281 210.149 241.483 208.241 243.701 205.398C245.919 202.556 246.991 198.985 246.707 195.391C246.422 191.797 244.802 188.44 242.165 185.981C239.528 183.523 236.065 182.141 232.46 182.109Z" fill="#EB5757"/>
<path d="M117.599 171.277L116.419 173.448L115.062 175.879C114.188 177.531 113.292 179.183 112.477 180.858C110.841 184.123 109.376 187.471 108.088 190.888C107.462 192.54 106.908 194.18 106.495 195.797C106.024 197.345 105.653 198.921 105.386 200.517C104.89 203.083 104.807 205.712 105.138 208.305L102.424 203.585C103.554 205.135 104.901 206.514 106.424 207.68C108.426 209.277 110.527 210.747 112.713 212.081C114.991 213.544 117.433 214.948 119.888 216.353L123.64 218.441C124.82 219.149 126.236 219.857 127.357 220.542L127.924 220.884C129.176 221.643 130.145 222.793 130.68 224.157C131.214 225.52 131.286 227.022 130.884 228.43C130.481 229.839 129.627 231.076 128.453 231.951C127.278 232.826 125.848 233.291 124.384 233.274C122.59 233.274 121.056 233.156 119.404 233.026C117.752 232.896 116.183 232.696 114.578 232.436C111.316 231.946 108.089 231.253 104.914 230.359C101.554 229.418 98.2775 228.198 95.1196 226.713C91.3866 224.994 87.9558 222.683 84.9598 219.869C83.8818 218.841 83.0716 217.565 82.5998 216.152L82.2694 215.137C80.4217 209.533 79.7312 203.611 80.2398 197.732C80.6407 192.611 81.6224 187.551 83.1662 182.652C84.6038 178.048 86.3867 173.559 88.4998 169.223C89.5264 167.099 90.5766 164.999 91.7566 162.958C92.3348 161.931 92.9366 160.904 93.5502 159.89L94.5178 158.356L95.0252 157.577L95.6388 156.668C97.5346 153.8 100.474 151.784 103.833 151.049C107.192 150.314 110.705 150.919 113.625 152.734C116.546 154.549 118.642 157.432 119.47 160.769C120.298 164.106 119.792 167.634 118.059 170.604L117.599 171.277Z" fill="#FFC3BD"/>
<path d="M108.383 141.033C88.8183 151.488 81.5259 174.84 81.5259 174.84C85.3963 182.215 108.737 190.18 117.516 188.009C117.516 188.009 125.929 172.669 127.664 158.958C129.269 146.249 119.84 134.909 108.383 141.033Z" fill="#263238"/>
<path d="M122.071 221.839L122.472 229.462C125.705 236.802 134.414 231.008 134.414 231.008L139.735 229.922C140.659 229.668 141.462 229.094 142.002 228.304C142.542 227.513 142.784 226.556 142.685 225.604L142.449 220.282C142.478 219.174 142.072 218.099 141.318 217.287C140.563 216.475 139.521 215.992 138.414 215.939L133.694 216.128C132.314 216.191 130.972 216.597 129.788 217.308L122.071 221.839Z" fill="#FFC3BD"/>
</svg>
