<svg width="550" height="410" viewBox="0 0 550 410" fill="none" xmlns="http://www.w3.org/2000/svg">
<path d="M494.89 377.839H458.458V378.114H494.89V377.839Z" fill="#EBEBEB"/>
<path d="M364.342 380.831H354.783V381.106H364.342V380.831Z" fill="#EBEBEB"/>
<path d="M457.358 367.63H436.249V367.905H457.358V367.63Z" fill="#EBEBEB"/>
<path d="M105.215 369.48H57.7059V369.755H105.215V369.48Z" fill="#EBEBEB"/>
<path d="M121.979 369.48H115.016V369.755H121.979V369.48Z" fill="#EBEBEB"/>
<path d="M247.665 374.12H144.617V374.395H247.665V374.12Z" fill="#EBEBEB"/>
<path d="M260.7 311.08H48.3011C46.6372 311.077 45.0424 310.414 43.8669 309.236C42.6914 308.059 42.0311 306.463 42.0311 304.799V6.226C42.0456 4.57163 42.7122 2.98978 43.8862 1.82404C45.0602 0.658304 46.6467 0.00283403 48.3011 0H260.7C262.366 0 263.964 0.661747 265.141 1.83966C266.319 3.01758 266.981 4.61517 266.981 6.281V304.799C266.981 306.465 266.319 308.062 265.141 309.24C263.964 310.418 262.366 311.08 260.7 311.08ZM48.3011 0.220001C46.7101 0.222915 45.1853 0.856972 44.0614 1.983C42.9374 3.10903 42.3061 4.63501 42.3061 6.226V304.799C42.3061 306.39 42.9374 307.916 44.0614 309.042C45.1853 310.168 46.7101 310.802 48.3011 310.805H260.7C262.292 310.802 263.818 310.168 264.944 309.043C266.07 307.917 266.703 306.391 266.706 304.799V6.226C266.703 4.634 266.07 3.10804 264.944 1.98233C263.818 0.856614 262.292 0.222909 260.7 0.220001H48.3011Z" fill="#EBEBEB"/>
<path d="M498.641 311.08H286.231C284.566 311.077 282.97 310.414 281.793 309.237C280.616 308.06 279.953 306.464 279.95 304.799V6.226C279.967 4.57062 280.637 2.98878 281.812 1.82335C282.988 0.65792 284.576 0.00280312 286.231 0H498.641C500.294 0.00572495 501.877 0.662474 503.049 1.8279C504.221 2.99333 504.886 4.57353 504.9 6.226V304.799C504.9 306.461 504.241 308.055 503.068 309.233C501.895 310.41 500.303 311.074 498.641 311.08ZM286.231 0.220001C284.639 0.222909 283.113 0.856614 281.987 1.98233C280.862 3.10804 280.228 4.634 280.225 6.226V304.799C280.228 306.391 280.862 307.917 281.987 309.043C283.113 310.168 284.639 310.802 286.231 310.805H498.641C500.233 310.802 501.759 310.168 502.885 309.043C504.01 307.917 504.644 306.391 504.647 304.799V6.226C504.644 4.634 504.01 3.10804 502.885 1.98233C501.759 0.856614 500.233 0.222909 498.641 0.220001H286.231Z" fill="#EBEBEB"/>
<path d="M550 360.141H0V360.416H550V360.141Z" fill="#EBEBEB"/>
<path d="M501.226 18.0059H422.851V283.887H501.226V18.0059Z" fill="#FAFAFA"/>
<path d="M503.217 112.125H405.229V281.569H503.217V112.125Z" fill="#E0E0E0"/>
<path d="M424.05 88.4531V130.946H431.783H476.674H484.407V88.4531H424.05Z" fill="#E0E0E0"/>
<path d="M424.05 118.404H411.51V130.944H424.05V118.404Z" fill="#FAFAFA"/>
<path d="M448.349 118.404H435.809V130.944H448.349V118.404Z" fill="#FAFAFA"/>
<path d="M472.648 118.404H460.108V130.944H472.648V118.404Z" fill="#FAFAFA"/>
<path d="M496.958 118.404H484.407V130.944H496.958V118.404Z" fill="#F0F0F0"/>
<path d="M424.05 141.198H411.51V153.749H424.05V141.198Z" fill="#F0F0F0"/>
<path d="M448.349 141.198H435.809V153.749H448.349V141.198Z" fill="#F0F0F0"/>
<path d="M472.648 141.198H460.108V153.749H472.648V141.198Z" fill="#FAFAFA"/>
<path d="M496.958 141.198H484.407V153.749H496.958V141.198Z" fill="#FAFAFA"/>
<path d="M424.05 163.987H411.51V176.527H424.05V163.987Z" fill="#F0F0F0"/>
<path d="M448.349 163.987H435.809V176.527H448.349V163.987Z" fill="#FAFAFA"/>
<path d="M472.648 163.987H460.108V176.527H472.648V163.987Z" fill="#FAFAFA"/>
<path d="M448.349 98.6904H435.809V111.23H448.349V98.6904Z" fill="#FAFAFA"/>
<path d="M472.648 98.6904H460.108V111.23H472.648V98.6904Z" fill="#F0F0F0"/>
<path d="M496.958 163.987H484.407V176.527H496.958V163.987Z" fill="#F0F0F0"/>
<path d="M424.05 186.781H411.51V199.321H424.05V186.781Z" fill="#FAFAFA"/>
<path d="M448.349 186.781H435.809V199.321H448.349V186.781Z" fill="#F0F0F0"/>
<path d="M472.648 186.781H460.108V199.321H472.648V186.781Z" fill="#F0F0F0"/>
<path d="M496.958 186.781H484.407V199.321H496.958V186.781Z" fill="#FAFAFA"/>
<path d="M424.05 209.585H411.51V222.136H424.05V209.585Z" fill="#F0F0F0"/>
<path d="M448.349 209.585H435.809V222.136H448.349V209.585Z" fill="#FAFAFA"/>
<path d="M472.648 209.585H460.108V222.136H472.648V209.585Z" fill="#FAFAFA"/>
<path d="M496.958 209.585H484.407V222.136H496.958V209.585Z" fill="#F0F0F0"/>
<path d="M424.05 232.375H411.51V244.915H424.05V232.375Z" fill="#F0F0F0"/>
<path d="M448.349 232.375H435.809V244.915H448.349V232.375Z" fill="#FAFAFA"/>
<path d="M472.648 232.375H460.108V244.915H472.648V232.375Z" fill="#F0F0F0"/>
<path d="M496.958 232.375H484.407V244.915H496.958V232.375Z" fill="#FAFAFA"/>
<path d="M424.05 255.169H411.51V267.72H424.05V255.169Z" fill="#FAFAFA"/>
<path d="M448.349 255.169H435.809V267.72H448.349V255.169Z" fill="#FAFAFA"/>
<path d="M472.648 255.169H460.108V267.72H472.648V255.169Z" fill="#F0F0F0"/>
<path d="M496.958 255.169H484.407V267.72H496.958V255.169Z" fill="#F0F0F0"/>
<path opacity="0.1" d="M501.072 18.0059H422.697V283.887H501.072V18.0059Z" fill="white"/>
<g opacity="0.3">
<path d="M493.405 18.0049H468.413L441.078 283.886H466.059L493.405 18.0049Z" fill="white"/>
</g>
<path d="M501.886 14.6406H422.191V21.3836H501.886V14.6406Z" fill="#E0E0E0"/>
<path d="M501.886 281.569H422.191V288.312H501.886V281.569Z" fill="#EBEBEB"/>
<path d="M504.977 294.064H418.583V8.06445H504.977V294.064ZM425.172 287.464H498.399V14.6645H425.172V287.464Z" fill="#EBEBEB"/>
<path d="M415.734 18.0059H337.359V283.887H415.734V18.0059Z" fill="#FAFAFA"/>
<path d="M409.805 200.244H342.782V282.491H409.805V200.244Z" fill="#E6E6E6"/>
<path d="M403.975 209.362H388.377H384.087H379.797V217.942H384.087H388.377H403.975V209.362Z" fill="#E6E6E6"/>
<path d="M403.975 225.985H388.377H384.087H379.797V234.565H384.087H388.377H403.975V225.985Z" fill="#FAFAFA"/>
<path d="M403.975 242.603H388.377H384.087H379.797V251.183H384.087H388.377H403.975V242.603Z" fill="#E6E6E6"/>
<path d="M403.975 259.225H388.377H381.755H379.797V267.805H381.755H388.377H403.975V259.225Z" fill="#FAFAFA"/>
<path d="M372.79 209.362H357.203H352.913H348.623V217.942H352.913H357.203H372.79V209.362Z" fill="#FAFAFA"/>
<path d="M372.79 225.985H357.203H351.153H348.623V234.565H351.153H357.203H372.79V225.985Z" fill="#FAFAFA"/>
<path d="M372.79 242.603H357.203H352.913H348.623V251.183H352.913H357.203H372.79V242.603Z" fill="#E6E6E6"/>
<path d="M372.79 259.225H357.203H352.913H348.623V267.805H352.913H357.203H372.79V259.225Z" fill="#FAFAFA"/>
<path opacity="0.1" d="M415.481 18.0059H337.106V283.887H415.481V18.0059Z" fill="white"/>
<g opacity="0.3">
<path d="M407.913 18.0049H382.932L355.586 283.886H380.578L407.913 18.0049Z" fill="white"/>
</g>
<path d="M416.394 14.6406H336.699V21.3836H416.394V14.6406Z" fill="#E0E0E0"/>
<path d="M416.394 281.569H336.699V288.312H416.394V281.569Z" fill="#EBEBEB"/>
<path d="M419.496 294.064H333.102V8.06445H419.496V294.064ZM339.68 287.464H412.907V14.6645H339.68V287.464Z" fill="#EBEBEB"/>
<path d="M210.375 18.0059H132V283.887H210.375V18.0059Z" fill="#FAFAFA"/>
<path opacity="0.1" d="M210.221 18.0059H131.846V283.887H210.221V18.0059Z" fill="white"/>
<g opacity="0.3">
<path d="M202.565 18.0049H177.573L150.238 283.886H175.219L202.565 18.0049Z" fill="white"/>
</g>
<path d="M211.046 14.6406H131.351V21.3836H211.046V14.6406Z" fill="#E0E0E0"/>
<path d="M211.046 281.569H131.351V288.312H211.046V281.569Z" fill="#EBEBEB"/>
<path d="M214.137 294.064H127.743V8.06445H214.137V294.064ZM134.332 287.464H207.548V14.6645H134.332V287.464Z" fill="#EBEBEB"/>
<path d="M125.004 18.0059H46.6289V283.887H125.004V18.0059Z" fill="#FAFAFA"/>
<path d="M113.19 130.603H52.525V181.511H113.19V130.603Z" fill="#E6E6E6"/>
<path d="M64.1741 136.951H56.4081V144.717H64.1741V136.951Z" fill="#FAFAFA"/>
<path d="M79.2218 136.951H71.4558V144.717H79.2218V136.951Z" fill="#FAFAFA"/>
<path d="M94.27 136.951H86.504V144.717H94.27V136.951Z" fill="#FAFAFA"/>
<path d="M109.307 136.951H101.541V144.717H109.307V136.951Z" fill="#FAFAFA"/>
<path d="M64.1741 151.063H56.4081V158.829H64.1741V151.063Z" fill="#FAFAFA"/>
<path d="M79.2218 151.063H71.4558V158.829H79.2218V151.063Z" fill="#FAFAFA"/>
<path d="M94.27 151.063H86.504V158.829H94.27V151.063Z" fill="#FAFAFA"/>
<path d="M109.307 151.063H101.541V158.829H109.307V151.063Z" fill="#E6E6E6"/>
<path d="M64.1741 165.166H56.4081V172.932H64.1741V165.166Z" fill="#E6E6E6"/>
<path d="M79.2218 165.166H71.4558V172.932H79.2218V165.166Z" fill="#E6E6E6"/>
<path d="M94.27 165.166H86.504V172.932H94.27V165.166Z" fill="#FAFAFA"/>
<path d="M109.307 165.166H101.541V172.932H109.307V165.166Z" fill="#E6E6E6"/>
<path d="M113.19 180.874H52.525V231.782H113.19V180.874Z" fill="#E6E6E6"/>
<path d="M64.1741 187.208H56.4081V194.974H64.1741V187.208Z" fill="#FAFAFA"/>
<path d="M79.2218 187.208H71.4558V194.974H79.2218V187.208Z" fill="#FAFAFA"/>
<path d="M94.27 187.208H86.504V194.974H94.27V187.208Z" fill="#FAFAFA"/>
<path d="M109.307 187.208H101.541V194.974H109.307V187.208Z" fill="#FAFAFA"/>
<path d="M64.1741 201.32H56.4081V209.086H64.1741V201.32Z" fill="#FAFAFA"/>
<path d="M79.2218 201.32H71.4558V209.086H79.2218V201.32Z" fill="#FAFAFA"/>
<path d="M94.27 201.32H86.504V209.086H94.27V201.32Z" fill="#FAFAFA"/>
<path d="M109.307 201.32H101.541V209.086H109.307V201.32Z" fill="#E6E6E6"/>
<path d="M64.1741 215.438H56.4081V223.203H64.1741V215.438Z" fill="#E6E6E6"/>
<path d="M79.2218 215.438H71.4558V223.203H79.2218V215.438Z" fill="#E6E6E6"/>
<path d="M94.27 215.438H86.504V223.203H94.27V215.438Z" fill="#FAFAFA"/>
<path d="M109.307 215.438H101.541V223.203H109.307V215.438Z" fill="#E6E6E6"/>
<path d="M113.19 231.131H52.525V282.039H113.19V231.131Z" fill="#E6E6E6"/>
<path d="M64.1741 237.479H56.4081V245.245H64.1741V237.479Z" fill="#FAFAFA"/>
<path d="M79.2218 237.479H71.4558V245.245H79.2218V237.479Z" fill="#FAFAFA"/>
<path d="M94.27 237.479H86.504V245.245H94.27V237.479Z" fill="#FAFAFA"/>
<path d="M109.307 237.479H101.541V245.245H109.307V237.479Z" fill="#FAFAFA"/>
<path d="M64.1741 251.591H56.4081V259.357H64.1741V251.591Z" fill="#FAFAFA"/>
<path d="M79.2218 251.591H71.4558V259.357H79.2218V251.591Z" fill="#FAFAFA"/>
<path d="M94.27 251.591H86.504V259.357H94.27V251.591Z" fill="#FAFAFA"/>
<path d="M109.307 251.591H101.541V259.357H109.307V251.591Z" fill="#E6E6E6"/>
<path d="M64.1741 265.704H56.4081V273.47H64.1741V265.704Z" fill="#E6E6E6"/>
<path d="M79.2218 265.704H71.4558V273.47H79.2218V265.704Z" fill="#E6E6E6"/>
<path d="M94.27 265.704H86.504V273.47H94.27V265.704Z" fill="#FAFAFA"/>
<path d="M109.307 265.704H101.541V273.47H109.307V265.704Z" fill="#E6E6E6"/>
<path opacity="0.1" d="M123.97 18.0059H45.595V283.887H123.97V18.0059Z" fill="white"/>
<g opacity="0.3">
<path d="M117.183 18.0049H92.2019L64.8669 283.886H89.8479L117.183 18.0049Z" fill="white"/>
</g>
<path d="M125.675 14.6406H45.9799V21.3836H125.675V14.6406Z" fill="#E0E0E0"/>
<path d="M125.675 281.569H45.9799V288.312H125.675V281.569Z" fill="#EBEBEB"/>
<path d="M128.766 294.064H42.3719V8.06445H128.766V294.064ZM48.9609 287.464H122.177V14.6645H48.9609V287.464Z" fill="#EBEBEB"/>
<path d="M267.872 329.568L266.992 329.678C266.937 329.227 261.591 284.479 272.624 247.915C283.624 211.615 276.034 188.405 275.924 188.185L276.771 187.899C276.848 188.13 284.471 211.56 273.471 248.168C262.493 284.556 267.817 329.128 267.872 329.568Z" fill="#E0E0E0"/>
<path d="M277.53 193.171C275.609 190.883 273.001 189.274 270.094 188.584L270.303 187.715C273.396 188.449 276.17 190.162 278.212 192.599L277.53 193.171Z" fill="#E0E0E0"/>
<path d="M281.303 196.875L278.765 198.309L279.203 199.084L281.741 197.65L281.303 196.875Z" fill="#E0E0E0"/>
<path d="M276.573 217.501C274.36 212.456 270.262 208.477 265.155 206.413L265.485 205.599C270.805 207.746 275.076 211.887 277.387 217.138L276.573 217.501Z" fill="#E0E0E0"/>
<path d="M274.197 245.456H273.306C273.277 243.656 272.849 241.885 272.054 240.271C271.259 238.656 270.116 237.237 268.708 236.117L269.258 235.424C270.77 236.628 271.998 238.152 272.852 239.886C273.705 241.621 274.165 243.523 274.197 245.456Z" fill="#E0E0E0"/>
<path d="M272.217 252.603L271.381 252.284C271.838 251.149 272.522 250.12 273.393 249.261C274.263 248.402 275.301 247.731 276.441 247.29L276.749 248.126C275.726 248.52 274.796 249.121 274.016 249.891C273.236 250.662 272.624 251.585 272.217 252.603Z" fill="#E0E0E0"/>
<path d="M266.453 297.958L265.771 297.397C266.871 296.088 267.674 291.127 268.114 288.465C268.213 287.827 268.301 287.288 268.378 286.892L269.247 287.057C269.181 287.442 269.093 287.981 268.983 288.608C268.334 292.601 267.597 296.583 266.453 297.958Z" fill="#E0E0E0"/>
<path d="M265.947 312.2C265.328 310.457 264.175 308.953 262.653 307.903C261.13 306.852 259.315 306.308 257.466 306.348V305.457C259.511 305.408 261.519 306.007 263.202 307.169C264.886 308.331 266.158 309.996 266.838 311.925L265.947 312.2Z" fill="#E0E0E0"/>
<path d="M272.736 321.509L266.476 328.513L267.14 329.106L273.4 322.102L272.736 321.509Z" fill="#E0E0E0"/>
<path d="M277.2 275.827C278.619 280.414 268.73 289.159 268.73 289.159C268.73 289.159 255.629 287.52 254.21 282.922C252.791 278.324 256.113 270.822 262.46 268.864C268.807 266.906 275.737 271.24 277.2 275.827Z" fill="#F0F0F0"/>
<path d="M288.134 220.124C286.88 224.997 277.508 228.462 277.508 228.462C277.508 228.462 270.974 220.905 272.228 216.032C273.482 211.159 278.663 205.78 283.052 206.913C287.441 208.046 289.388 215.251 288.134 220.124Z" fill="#EBEBEB"/>
<path d="M250.547 292.962C256.421 295.261 260.029 305.656 260.029 305.656C260.029 305.656 250.338 310.881 244.453 308.593C238.568 306.305 232.353 299.793 234.025 295.536C235.697 291.279 244.662 290.674 250.547 292.962Z" fill="#F5F5F5"/>
<path d="M263.439 235.73C264.626 236.73 265.987 237.502 267.454 238.007C268.194 238.243 268.984 238.274 269.739 238.096C270.495 237.918 271.188 237.537 271.744 236.995C273.009 235.543 272.668 233.299 271.876 231.55C270.303 228.085 264.506 222.211 260.051 223.85C253.627 226.325 260.568 233.607 263.439 235.73Z" fill="#E6E6E6"/>
<path d="M276.595 244.563C275.748 245.608 274.857 246.917 275.319 248.182C275.581 248.719 276.013 249.153 276.549 249.416C277.085 249.679 277.694 249.756 278.278 249.634C279.441 249.363 280.527 248.833 281.457 248.083C283.723 246.499 288.376 243.199 285.406 240.108C282.436 237.017 278.366 242.352 276.595 244.563Z" fill="#EBEBEB"/>
<path d="M257.609 200.562C257.12 200.589 256.651 200.769 256.27 201.077C255.889 201.385 255.615 201.805 255.486 202.278C255.299 203.378 256.234 204.39 257.136 205.083C259.391 206.821 266.156 211.507 267.674 206.986C269.104 202.718 260.601 200.199 257.609 200.562Z" fill="#E0E0E0"/>
<path d="M270.094 185.691C268.697 185.823 267.3 185.317 265.903 185.405C264.506 185.493 262.944 186.615 263.263 187.99C263.582 189.365 265.122 189.673 266.409 189.761C268.62 189.893 270.838 189.737 273.009 189.299C273.522 189.253 273.998 189.013 274.34 188.628C274.912 187.792 274.01 186.67 273.042 186.428C272.045 186.3 271.065 186.068 270.116 185.735L270.094 185.691Z" fill="#E6E6E6"/>
<path d="M283.8 195.305C285.208 195.305 286.561 194.744 287.969 194.744C289.377 194.744 290.994 195.756 290.774 197.142C290.554 198.528 289.025 198.957 287.738 199.122C285.548 199.413 283.328 199.413 281.138 199.122C280.619 199.111 280.123 198.902 279.752 198.539C279.136 197.736 279.961 196.57 280.852 196.207C281.842 196.015 282.808 195.717 283.734 195.316L283.8 195.305Z" fill="#F0F0F0"/>
<path d="M282.359 298.66C282.678 298.329 283.101 298.119 283.558 298.066C283.858 298.101 284.137 298.234 284.352 298.445C284.568 298.656 284.706 298.933 284.746 299.232C284.81 299.832 284.735 300.438 284.526 301.003C283.569 304.182 272.899 327.227 270.435 323.091C268.983 320.638 272.558 312.542 273.614 310.243C275.645 305.788 278.63 301.834 282.359 298.66Z" fill="#F0F0F0"/>
<path d="M275.979 186.56C276.668 184.609 277.846 182.867 279.4 181.5C281.083 180.279 283.8 180.191 285.01 181.874C286.385 183.755 285.01 186.615 282.909 187.616C280.808 188.617 278.355 188.309 276.045 187.99C276.045 187.649 276.045 187.308 275.99 186.967L275.979 186.56Z" fill="#E6E6E6"/>
<path d="M283.437 360.303C272.006 362.25 260.328 362.25 248.897 360.303L235.466 320.703H296.879L283.437 360.303Z" fill="#F0F0F0"/>
<path d="M275.649 63.7779C288.243 63.7779 298.452 53.5686 298.452 40.9749C298.452 28.3811 288.243 18.1719 275.649 18.1719C263.055 18.1719 252.846 28.3811 252.846 40.9749C252.846 53.5686 263.055 63.7779 275.649 63.7779Z" fill="#E0E0E0"/>
<path d="M296.635 43.6827C298.653 31.2516 290.211 19.5385 277.78 17.5206C265.349 15.5028 253.636 23.9444 251.618 36.3754C249.6 48.8064 258.042 60.5196 270.473 62.5374C282.904 64.5553 294.617 56.1137 296.635 43.6827Z" fill="#EBEBEB"/>
<path opacity="0.8" d="M292.413 40.1702C292.413 43.7904 291.34 47.3293 289.328 50.3394C287.317 53.3494 284.458 55.6955 281.114 57.0809C277.769 58.4663 274.089 58.8288 270.538 58.1225C266.987 57.4162 263.726 55.673 261.166 53.1131C258.606 50.5532 256.863 47.2918 256.157 43.7411C255.451 40.1905 255.813 36.5102 257.198 33.1656C258.584 29.821 260.93 26.9623 263.94 24.951C266.95 22.9397 270.489 21.8662 274.109 21.8662C278.964 21.8662 283.619 23.7947 287.052 27.2273C290.485 30.66 292.413 35.3157 292.413 40.1702Z" fill="white"/>
<path d="M273.119 41.8975C272.773 41.5484 272.579 41.0763 272.58 40.5846C272.581 40.0929 272.777 39.6217 273.124 39.274C273.472 38.9263 273.943 38.7305 274.435 38.7295C274.927 38.7285 275.399 38.9223 275.748 39.2685C275.922 39.4408 276.06 39.6458 276.154 39.8717C276.249 40.0975 276.297 40.3398 276.298 40.5846C276.298 40.8294 276.251 41.0719 276.157 41.2981C276.064 41.5244 275.927 41.7299 275.753 41.903C275.58 42.0761 275.375 42.2133 275.149 42.3067C274.922 42.4002 274.68 42.448 274.435 42.4475C274.19 42.447 273.948 42.3981 273.722 42.3037C273.496 42.2094 273.291 42.0713 273.119 41.8975Z" fill="#E0E0E0"/>
<path d="M274.109 39.9501L284.911 39.6201L284.944 40.7421L275.154 41.0391L274.098 58.0671L272.987 58.0011L274.109 39.9501Z" fill="#E0E0E0"/>
<path d="M275 409.21C392.791 409.21 488.279 403.635 488.279 396.758C488.279 389.881 392.791 384.306 275 384.306C157.209 384.306 61.7209 389.881 61.7209 396.758C61.7209 403.635 157.209 409.21 275 409.21Z" fill="#F5F5F5"/>
<path d="M473.385 338.701L478.973 249.755C479.464 241.933 478.348 234.092 475.692 226.718C473.036 219.344 468.898 212.592 463.532 206.879C458.166 201.165 451.687 196.612 444.493 193.5C437.3 190.387 429.545 188.782 421.707 188.782C407.051 188.784 392.952 194.395 382.301 204.462C371.65 214.53 365.256 228.292 364.43 242.924L358.6 346.808H464.75C466.95 346.807 469.067 345.968 470.671 344.463C472.275 342.957 473.245 340.897 473.385 338.701Z" fill="#EB5757"/>
<path opacity="0.1" d="M473.583 335.501L478.973 249.778C479.464 241.955 478.348 234.115 475.692 226.741C473.036 219.366 468.898 212.614 463.532 206.901C458.166 201.188 451.687 196.635 444.493 193.522C437.3 190.41 429.545 188.804 421.707 188.805C407.051 188.807 392.952 194.417 382.301 204.485C371.65 214.552 365.256 228.314 364.43 242.947L358.6 346.809H461.549C464.614 346.799 467.561 345.626 469.795 343.527C472.028 341.428 473.382 338.559 473.583 335.501Z" fill="black"/>
<path d="M456.159 346.808L462.253 249.755C462.743 241.933 461.625 234.093 458.969 226.72C456.312 219.346 452.174 212.595 446.808 206.882C441.443 201.169 434.964 196.616 427.771 193.503C420.579 190.39 412.824 188.783 404.987 188.782C390.33 188.782 376.229 194.391 365.578 204.459C354.927 214.527 348.533 228.291 347.71 242.924L341.847 346.808H456.159Z" fill="#EB5757"/>
<path d="M457.985 363.518H459.448C459.842 363.496 460.216 363.335 460.502 363.063C460.789 362.791 460.969 362.426 461.01 362.033L463.21 346.82H454.3L456.5 362.033C456.541 362.413 456.71 362.767 456.98 363.038C457.25 363.308 457.605 363.477 457.985 363.518Z" fill="#EB5757"/>
<path opacity="0.7" d="M457.985 363.518H459.448C459.842 363.496 460.216 363.335 460.502 363.063C460.789 362.791 460.969 362.426 461.01 362.033L463.21 346.82H454.3L456.5 362.033C456.541 362.413 456.71 362.767 456.98 363.038C457.25 363.308 457.605 363.477 457.985 363.518Z" fill="white"/>
<path d="M314.27 363.518H315.59C315.964 363.479 316.313 363.309 316.573 363.036C316.833 362.764 316.987 362.409 317.009 362.033L319 346.82H310.904L312.873 362.033C312.894 362.405 313.045 362.758 313.301 363.03C313.556 363.302 313.9 363.474 314.27 363.518Z" fill="#EB5757"/>
<path opacity="0.5" d="M314.27 363.518H315.59C315.964 363.479 316.313 363.309 316.573 363.036C316.833 362.764 316.987 362.409 317.009 362.033L319 346.82H310.904L312.873 362.033C312.894 362.405 313.045 362.758 313.301 363.03C313.556 363.302 313.9 363.474 314.27 363.518Z" fill="white"/>
<path d="M355.641 363.518H356.972C357.346 363.479 357.695 363.309 357.955 363.036C358.215 362.764 358.369 362.409 358.391 362.033L360.349 346.82H352.264L354.2 362.033C354.222 362.412 354.38 362.771 354.644 363.043C354.909 363.316 355.263 363.484 355.641 363.518Z" fill="#EB5757"/>
<path opacity="0.7" d="M355.641 363.518H356.972C357.346 363.479 357.695 363.309 357.955 363.036C358.215 362.764 358.369 362.409 358.391 362.033L360.349 346.82H352.264L354.2 362.033C354.222 362.412 354.38 362.771 354.644 363.043C354.909 363.316 355.263 363.484 355.641 363.518Z" fill="white"/>
<path d="M413.435 363.518H414.898C415.293 363.495 415.667 363.333 415.955 363.062C416.242 362.79 416.425 362.426 416.471 362.033L418.671 346.82H409.75L411.95 362.033C411.989 362.414 412.157 362.769 412.428 363.04C412.699 363.31 413.054 363.479 413.435 363.518Z" fill="#EB5757"/>
<path opacity="0.5" d="M413.435 363.518H414.898C415.293 363.495 415.667 363.333 415.955 363.062C416.242 362.79 416.425 362.426 416.471 362.033L418.671 346.82H409.75L411.95 362.033C411.989 362.414 412.157 362.769 412.428 363.04C412.699 363.31 413.054 363.479 413.435 363.518Z" fill="white"/>
<path d="M365.002 310.201H325.886L323.301 272.493L322.74 264.397L322.487 260.668C322.416 259.689 322.288 258.716 322.102 257.753C322.102 257.544 322.014 257.313 321.97 257.104C321.946 256.946 321.906 256.791 321.849 256.642C320.795 252.798 318.742 249.303 315.898 246.511C312.617 243.27 308.279 241.317 303.677 241.011H340.472C340.868 241.011 341.275 241.011 341.682 241.011C346.67 241.033 351.452 243.007 355.003 246.511C357.85 249.302 359.907 252.798 360.965 256.642C361.022 256.791 361.062 256.946 361.086 257.104C361.344 258.278 361.517 259.469 361.603 260.668L361.856 264.397L365.002 310.201Z" fill="#EB5757"/>
<path opacity="0.1" d="M365.002 310.201H325.886L323.301 272.493L322.74 264.397L322.487 260.668C322.416 259.689 322.288 258.716 322.102 257.753C322.102 257.544 322.014 257.313 321.97 257.104C321.946 256.946 321.906 256.791 321.849 256.642C320.795 252.798 318.742 249.303 315.898 246.511C312.617 243.27 308.279 241.317 303.677 241.011H340.472C340.868 241.011 341.275 241.011 341.682 241.011C346.67 241.033 351.452 243.007 355.003 246.511C357.85 249.302 359.907 252.798 360.965 256.642C361.022 256.791 361.062 256.946 361.086 257.104C361.344 258.278 361.517 259.469 361.603 260.668L361.856 264.397L365.002 310.201Z" fill="black"/>
<g opacity="0.1">
<path d="M396 290.071H411.708C415.536 290.071 418.627 292.491 418.627 295.472V304.756C418.627 307.748 415.536 310.157 411.708 310.157H396V290.071Z" fill="black"/>
</g>
<path d="M331.859 310.16H401.049C404.342 310.16 407.011 307.49 407.011 304.198V296.025C407.011 292.732 404.342 290.063 401.049 290.063H331.859C328.566 290.063 325.897 292.732 325.897 296.025V304.198C325.897 307.49 328.566 310.16 331.859 310.16Z" fill="#EB5757"/>
<path d="M495 263.197C495.009 268.456 493.158 273.55 489.774 277.576C486.39 281.602 481.692 284.301 476.509 285.197L472.494 338.8C472.142 343.354 468.831 346.841 464.871 346.841H421.729C425.689 346.841 428.989 343.354 429.341 338.8L431.541 310.2L433.4 285.164C436.791 284.582 439.999 283.219 442.773 281.184C445.547 279.149 447.81 276.497 449.383 273.438C449.599 273.049 449.794 272.649 449.966 272.239C451.237 269.395 451.889 266.313 451.88 263.197C451.878 261.671 451.723 260.149 451.418 258.654C451.297 258.06 451.143 257.466 450.978 256.883C450.195 254.263 448.942 251.807 447.282 249.634C445.2 246.923 442.524 244.726 439.459 243.211C436.394 241.697 433.023 240.907 429.605 240.9H472.747C476.205 240.887 479.616 241.694 482.702 243.254C485.719 244.756 488.352 246.927 490.402 249.601C493.396 253.5 495.013 258.281 495 263.197Z" fill="#EB5757"/>
<path opacity="0.1" d="M495 263.197C495.009 268.456 493.158 273.55 489.774 277.576C486.39 281.602 481.692 284.301 476.509 285.197L472.494 338.8C472.142 343.354 468.831 346.841 464.871 346.841H421.729C425.689 346.841 428.989 343.354 429.341 338.8L431.541 310.2L433.4 285.164C436.791 284.582 439.999 283.219 442.773 281.184C445.547 279.149 447.81 276.497 449.383 273.438C449.599 273.049 449.794 272.649 449.966 272.239C451.237 269.395 451.889 266.313 451.88 263.197C451.878 261.671 451.723 260.149 451.418 258.654C451.297 258.06 451.143 257.466 450.978 256.883C450.195 254.263 448.942 251.807 447.282 249.634C445.2 246.923 442.524 244.726 439.459 243.211C436.394 241.697 433.023 240.907 429.605 240.9H472.747C476.205 240.887 479.616 241.694 482.702 243.254C485.719 244.756 488.352 246.927 490.402 249.601C493.396 253.5 495.013 258.281 495 263.197Z" fill="black"/>
<path d="M451.891 263.21C451.891 274.21 444.642 283.373 435.127 285.21L431.453 338.802C431.134 343.356 428.153 346.854 424.545 346.854H309.331C305.745 346.854 302.731 343.356 302.423 338.802L298.738 285.111C289.41 283.153 282.359 274.111 282.359 263.243C282.337 258.68 283.632 254.207 286.088 250.362C287.946 247.429 290.506 245.006 293.535 243.311C296.292 241.76 299.402 240.946 302.566 240.946C307.556 240.975 312.338 242.948 315.898 246.446C318.741 249.234 320.795 252.726 321.849 256.566C321.906 256.722 321.947 256.885 321.97 257.05C322.23 258.22 322.403 259.407 322.487 260.603L322.751 264.332L325.886 310.202H407.99L411.389 260.702C411.873 253.706 415.283 247.876 420.013 245.115C423.002 242.723 426.654 241.306 430.474 241.056C430.876 241.015 431.28 240.997 431.684 241.001C434.755 240.984 437.782 241.74 440.484 243.201C440.568 243.238 440.649 243.282 440.726 243.333C443.515 244.882 445.91 247.054 447.722 249.68C450.452 253.662 451.906 258.381 451.891 263.21Z" fill="#EB5757"/>
<path opacity="0.1" d="M406.087 346.822H309.287C305.701 346.822 302.687 343.324 302.379 338.77L298.694 285.079C289.366 283.121 282.315 274.079 282.315 263.211C282.293 258.648 283.588 254.175 286.044 250.33C287.902 247.397 290.461 244.974 293.491 243.279C296.248 241.728 299.358 240.914 302.522 240.914C307.512 240.943 312.294 242.916 315.854 246.414C318.697 249.202 320.75 252.694 321.805 256.534C321.862 256.69 321.902 256.852 321.926 257.018C322.186 258.187 322.359 259.375 322.443 260.571L322.707 264.3L325.886 310.203H407.99L406.087 346.822Z" fill="white"/>
<path d="M393.536 194.392C391.622 195.492 389.873 196.405 388.036 197.34C386.199 198.275 384.395 199.133 382.536 199.991C378.84 201.674 375.1 203.291 371.25 204.688C367.37 206.131 363.419 207.379 359.414 208.428C355.248 209.548 350.994 210.309 346.698 210.705L345.785 210.793H345.356C341.473 210.342 338.03 209.693 334.576 208.923C331.122 208.153 327.701 207.394 324.313 206.525C320.925 205.656 317.559 204.765 314.193 203.797C310.827 202.829 307.494 201.828 304.161 200.695L305.69 193.061C312.609 193.501 319.517 194.161 326.359 194.876L336.578 195.899C339.944 196.229 343.387 196.515 346.401 196.625H345.07C348.522 196.01 351.926 195.15 355.256 194.051C358.699 192.951 362.142 191.697 365.585 190.223C369.028 188.749 372.438 187.231 375.826 185.614C377.564 184.822 379.247 183.986 380.897 183.161C382.547 182.336 384.307 181.456 385.814 180.675L393.536 194.392Z" fill="#263238"/>
<path opacity="0.1" d="M393.536 194.392C391.622 195.492 389.873 196.405 388.036 197.34C386.199 198.275 384.395 199.133 382.536 199.991C378.84 201.674 375.1 203.291 371.25 204.688C367.37 206.131 363.419 207.379 359.414 208.428C355.248 209.548 350.994 210.309 346.698 210.705L345.785 210.793H345.356C341.473 210.342 338.03 209.693 334.576 208.923C331.122 208.153 327.701 207.394 324.313 206.525C320.925 205.656 317.559 204.765 314.193 203.797C310.827 202.829 307.494 201.828 304.161 200.695L305.69 193.061C312.609 193.501 319.517 194.161 326.359 194.876L336.578 195.899C339.944 196.229 343.387 196.515 346.401 196.625H345.07C348.522 196.01 351.926 195.15 355.256 194.051C358.699 192.951 362.142 191.697 365.585 190.223C369.028 188.749 372.438 187.231 375.826 185.614C377.564 184.822 379.247 183.986 380.897 183.161C382.547 182.336 384.307 181.456 385.814 180.675L393.536 194.392Z" fill="black"/>
<path d="M304.293 188.871C302.667 187.73 300.87 186.854 298.969 186.275L296.12 197.396L304.656 200.982L305.624 199.794C306.28 199.001 306.768 198.082 307.058 197.094C307.347 196.106 307.432 195.069 307.307 194.047C307.183 193.024 306.851 192.038 306.333 191.149C305.815 190.259 305.121 189.484 304.293 188.871Z" fill="#FFC3BD"/>
<path d="M296.12 197.399L298.969 186.278L291.005 181.933L288.607 189.765L296.12 197.399Z" fill="#FFC3BD"/>
<path opacity="0.2" d="M366.751 205.703H367.059H367.191C371.393 205.252 383.746 203.173 392.678 194.362C391.347 191.788 389.521 189.797 387.288 189.346C381.128 188.18 373.582 192.591 366.751 205.703Z" fill="black"/>
<path d="M374 263.199C384.538 234.742 377.608 208.573 378.928 194.086C379.252 190.515 380.731 187.147 383.141 184.491C385.55 181.835 388.759 180.037 392.282 179.368C399.476 177.982 408.375 176.42 416.856 175.276C419.226 174.949 421.639 175.138 423.928 175.831C426.218 176.524 428.331 177.704 430.122 179.29C431.913 180.876 433.34 182.831 434.304 185.02C435.269 187.21 435.748 189.582 435.71 191.974C434.973 234.874 421.223 263.199 421.223 263.199L399.003 263.1L374 263.199Z" fill="#EB5757"/>
<path opacity="0.8" d="M374 263.199C384.538 234.742 377.608 208.573 378.928 194.086C379.252 190.515 380.731 187.147 383.141 184.491C385.55 181.835 388.759 180.037 392.282 179.368C399.476 177.982 408.375 176.42 416.856 175.276C419.226 174.949 421.639 175.138 423.928 175.831C426.218 176.524 428.331 177.704 430.122 179.29C431.913 180.876 433.34 182.831 434.304 185.02C435.269 187.21 435.748 189.582 435.71 191.974C434.973 234.874 421.223 263.199 421.223 263.199L399.003 263.1L374 263.199Z" fill="white"/>
<path d="M289.696 360.294L286.88 378.807H295.823L301.697 360.294H289.696Z" fill="#FFC3BD"/>
<path d="M285.736 374.682L297.693 374.396C297.787 374.385 297.881 374.394 297.971 374.422C298.061 374.451 298.144 374.497 298.214 374.559C298.285 374.622 298.341 374.698 298.38 374.784C298.42 374.869 298.44 374.962 298.441 375.056V383.856C298.388 384.343 298.158 384.795 297.795 385.125C297.433 385.455 296.962 385.641 296.472 385.649C292.314 385.649 290.334 385.495 285.076 385.649C279.478 385.631 273.886 385.264 268.334 384.549C264.077 383.823 265.232 379.83 267.157 379.764C275.847 379.445 280.709 377.63 283.833 375.364C284.378 374.938 285.045 374.699 285.736 374.682Z" fill="#263238"/>
<path opacity="0.2" d="M288.563 367.719L289.696 360.294H301.697L298.815 369.556L288.563 367.719Z" fill="black"/>
<path d="M368.5 256.531C368.5 256.531 295.735 257.257 294.602 280.302C292.996 313.434 287.397 363.902 287.397 363.902L301.114 367.675C301.114 367.675 320.694 317.592 321.453 291.709C341.924 287.639 394.537 291.709 400.719 278.267C403.74 271.426 404.555 263.813 403.051 256.487L368.5 256.531Z" fill="#EB5757"/>
<path opacity="0.6" d="M368.5 256.531C368.5 256.531 295.735 257.257 294.602 280.302C292.996 313.434 287.397 363.902 287.397 363.902L301.114 367.675C301.114 367.675 320.694 317.592 321.453 291.709C341.924 287.639 394.537 291.709 400.719 278.267C403.74 271.426 404.555 263.813 403.051 256.487L368.5 256.531Z" fill="black"/>
<path d="M353.716 367.456L358.567 380.018H368.379L365.002 366.807L353.716 367.456Z" fill="#FFC3BD"/>
<path opacity="0.2" d="M365.915 370.371L364.012 360.702L351.615 362.242L354.794 370.646L365.915 370.371Z" fill="black"/>
<path d="M355.905 375.861H368.434C368.637 375.845 368.837 375.911 368.992 376.043C369.146 376.175 369.242 376.362 369.259 376.565L369.864 385.948C369.852 386.455 369.642 386.938 369.278 387.292C368.914 387.646 368.425 387.843 367.917 387.84C363.517 387.763 361.471 387.521 355.96 387.521C352.583 387.521 345.741 387.851 341.066 387.851C336.391 387.851 336.523 383.451 338.492 383.11C347.402 381.328 350.845 378.875 353.98 376.51C354.537 376.096 355.211 375.869 355.905 375.861Z" fill="#263238"/>
<path d="M388.069 256.531C388.069 256.531 322.069 261.008 323.697 284.031C325.468 309.243 351.901 367.708 351.901 367.708H365.2C365.2 367.708 356.4 314.666 352.352 288.97C370.964 288.97 414.095 291.775 420.299 278.3C423.308 271.454 424.115 263.843 422.609 256.52L388.069 256.531Z" fill="#EB5757"/>
<path opacity="0.5" d="M388.069 256.531C388.069 256.531 322.069 261.008 323.697 284.031C325.468 309.243 351.901 367.708 351.901 367.708H365.2C365.2 367.708 356.4 314.666 352.352 288.97C370.964 288.97 414.095 291.775 420.299 278.3C423.308 271.454 424.115 263.843 422.609 256.52L388.069 256.531Z" fill="black"/>
<path d="M398.068 163.264C399.586 169.138 400.059 176.464 391.853 179.489C389.576 183.119 388.465 186.947 397.232 185.583C404.211 184.681 410.562 181.089 414.931 175.573C409.684 170.975 410.641 156.873 411.972 148.92L398.068 163.264Z" fill="#FFC3BD"/>
<path d="M397.1 173.955C389.565 175.242 383.372 181.072 380.05 187.947C376.728 194.822 375.925 202.654 375.991 210.299C376.057 217.944 376.926 225.556 376.717 233.19C376.486 241.99 374.363 248.227 371.327 256.521C371.327 258.49 374.308 259.601 376.827 260.118C382.085 248.645 385.539 237.667 385.176 225.061C384.901 215.909 384.78 205.481 386.276 196.461C387.772 187.441 398.563 175.66 398.046 174.032L397.1 173.955Z" fill="#263238"/>
<path opacity="0.3" d="M404.47 167.577C403.68 168.163 402.78 168.584 401.824 168.815C400.867 169.046 399.874 169.081 398.904 168.919C398.922 167.49 398.819 166.062 398.596 164.651L407.704 157.171C407.903 158.143 408.032 159.128 408.089 160.119C408.187 161.57 407.905 163.021 407.27 164.329C406.636 165.637 405.67 166.757 404.47 167.577Z" fill="black"/>
<path d="M390.852 128.525C381.227 133.97 381.128 149.359 384.098 158.225C384.847 160.551 386.222 162.627 388.071 164.225C389.92 165.823 392.173 166.882 394.583 167.286C396.994 167.691 399.469 167.424 401.738 166.517C404.008 165.609 405.984 164.096 407.451 162.141C412.159 156.19 411.477 150.184 411.246 139.844C411.015 129.504 400.488 123.091 390.852 128.525Z" fill="#FFC3BD"/>
<path opacity="0.2" d="M393.954 156.202C390.852 157.533 387.453 159.26 384.318 158.886C385.161 161.116 386.588 163.078 388.448 164.568C390.308 166.059 392.534 167.023 394.893 167.36C397.253 167.697 399.66 167.394 401.863 166.485C404.066 165.575 405.984 164.09 407.418 162.186C411.301 157.302 412.5 154.002 411.4 145.114C405.372 152.176 400.587 153.342 393.954 156.202Z" fill="black"/>
<path d="M403.26 132.001C402.261 133.625 401.816 135.529 401.992 137.428C402.169 139.326 402.957 141.116 404.239 142.528C405.108 143.441 406.175 144.145 407.011 145.08C408.315 146.547 408.994 148.465 408.903 150.426C409.099 149.164 409.727 148.01 410.68 147.161C411.634 146.312 412.852 145.822 414.128 145.773C412.823 149.813 411.517 153.847 410.212 157.873C412.796 156.668 415.029 154.823 416.7 152.512C418.371 150.202 419.424 147.504 419.76 144.673C420.596 136.863 410.96 120.132 403.26 132.001Z" fill="#263238"/>
<path d="M380.798 132.54C380.062 133.358 379.537 134.344 379.269 135.411C379.14 135.94 379.177 136.496 379.373 137.003C379.57 137.51 379.917 137.945 380.369 138.249C381.202 138.585 382.124 138.631 382.987 138.381L391.787 136.852C396.825 135.972 401.863 135.103 406.835 133.904C409.035 133.376 411.576 132.529 412.456 130.417C415.305 123.542 403.139 122.651 399.069 122.838C392.139 123.201 385.132 127.183 380.798 132.54Z" fill="#263238"/>
<path d="M412.808 144.012C409.926 144.661 408.694 148.808 408.771 151.47C408.771 154.495 410.971 156.464 413.523 154.638C415.418 153.229 416.708 151.153 417.131 148.83C417.648 145.981 415.701 143.363 412.808 144.012Z" fill="#FFC3BD"/>
<path d="M392.447 154.52C392.01 154.811 391.515 155.003 390.996 155.08C390.477 155.158 389.947 155.121 389.444 154.971C390.544 152.485 390.412 153.046 390.753 148.822L392.447 154.52Z" fill="#ED847E"/>
<path d="M397.518 140.801C396.693 139.877 394.438 139.525 393.217 139.701C393.093 139.717 392.968 139.685 392.868 139.611C392.768 139.537 392.7 139.428 392.678 139.305C392.661 139.173 392.695 139.04 392.773 138.931C392.85 138.823 392.966 138.748 393.096 138.722C394.636 138.491 397.199 138.953 398.244 140.108C398.335 140.2 398.385 140.325 398.385 140.454C398.385 140.584 398.335 140.708 398.244 140.801C398.182 140.865 398.107 140.913 398.024 140.944C397.935 140.971 397.84 140.972 397.75 140.947C397.66 140.922 397.58 140.871 397.518 140.801Z" fill="#263238"/>
<path d="M383.284 142.86C383.181 142.789 383.109 142.68 383.084 142.557C383.06 142.434 383.084 142.306 383.152 142.2C383.537 141.506 384.079 140.911 384.733 140.463C385.388 140.014 386.139 139.724 386.925 139.615C386.985 139.614 387.045 139.624 387.101 139.646C387.157 139.668 387.208 139.701 387.251 139.744C387.294 139.786 387.328 139.836 387.352 139.891C387.375 139.947 387.387 140.006 387.387 140.066C387.393 140.2 387.347 140.331 387.259 140.431C387.171 140.532 387.047 140.594 386.914 140.605C386.294 140.704 385.704 140.943 385.19 141.303C384.675 141.663 384.249 142.136 383.944 142.684C383.904 142.756 383.847 142.817 383.778 142.861C383.709 142.905 383.63 142.931 383.548 142.937C383.453 142.945 383.359 142.918 383.284 142.86Z" fill="#263238"/>
<path d="M391.6 158.996C392.658 160.342 393.631 161.753 394.515 163.22L395.197 162.934C398.299 161.592 399.179 159.722 399.223 158.061C399.185 156.739 398.778 155.455 398.046 154.354C396.946 156.257 394.163 157.775 392.645 158.512C391.996 158.831 391.6 158.996 391.6 158.996Z" fill="#2E353A"/>
<path d="M392.623 158.512L393.074 159.128C393.198 159.293 393.373 159.412 393.573 159.466C393.772 159.52 393.984 159.505 394.174 159.424C396.462 158.324 397.98 157.225 398.574 155.982C398.628 155.864 398.656 155.737 398.656 155.608C398.656 155.478 398.628 155.351 398.574 155.234C398.427 154.928 398.258 154.634 398.068 154.354C396.913 156.257 394.141 157.775 392.623 158.512Z" fill="white"/>
<path d="M395.175 162.934C398.277 161.592 399.157 159.722 399.201 158.061C398.023 158.604 396.976 159.396 396.132 160.382C395.551 161.109 395.216 162.003 395.175 162.934Z" fill="#DE5753"/>
<path d="M386.815 146.302C386.276 146.401 385.979 147.171 386.133 147.996C386.287 148.821 386.87 149.415 387.409 149.305C387.948 149.195 388.245 148.447 388.091 147.622C387.937 146.797 387.354 146.302 386.815 146.302Z" fill="#263238"/>
<path d="M396.253 144.782C395.714 144.881 395.417 145.64 395.571 146.476C395.725 147.312 396.308 147.895 396.847 147.785C397.386 147.675 397.683 146.916 397.529 146.091C397.375 145.266 396.792 144.683 396.253 144.782Z" fill="#263238"/>
<path opacity="0.9" d="M382.657 150.769L389.598 149.207L389.719 152.155L383.262 153.695L382.657 150.769Z" fill="white"/>
<g opacity="0.8">
<path opacity="0.9" d="M391.71 148.745L392.535 151.451L401.445 149.537L400.917 146.413L391.71 148.745Z" fill="white"/>
</g>
<path d="M389.642 150.294L389.598 149.205L391.71 148.743L392.018 149.766L389.642 150.294Z" fill="#263238"/>
<path d="M387.112 261.931C387.112 261.931 399.641 266.782 402.512 267.728C405.812 269.02 409.286 269.817 412.819 270.093C414.611 270.213 416.407 269.951 418.09 269.323C419.772 268.695 421.301 267.716 422.576 266.452C425.568 263.262 426.503 258.422 427.284 253.879C429.572 240.539 431.867 227.2 434.17 213.861C435.27 207.261 438.163 197.361 437.921 193.632C437.47 186.702 433.059 178.518 421.828 174.019C417.428 172.27 413.149 172.919 409.475 177.319C407.275 179.937 400.873 186.251 399.3 197.372C398.046 206.282 396.088 217.821 396.209 226.874C396.352 238.776 391.6 253.78 387.112 261.931Z" fill="#263238"/>
<path d="M437.305 189.97C438.581 201.564 432.168 230.791 430.936 232.551C425.678 249.502 411.235 240.361 409.145 239.58C405.504 238.238 401.797 235.609 398.332 233.86C391.611 230.56 385.242 227.832 378.994 223.685L382.514 216.733C389.367 219.065 408.76 224.081 411.961 224.862C413.347 225.225 418.748 228.052 418.693 224.323C419.452 223.08 420.508 198.869 422.829 190.311C423.094 189.351 423.554 188.456 424.182 187.682L424.391 187.418C425.238 186.356 426.361 185.548 427.636 185.08C428.912 184.613 430.291 184.505 431.624 184.769C432.956 185.032 434.191 185.656 435.193 186.574C436.195 187.491 436.925 188.666 437.305 189.97Z" fill="#263238"/>
<path opacity="0.1" d="M437.305 189.97C438.581 201.564 432.168 230.791 430.936 232.551C425.678 249.502 411.235 240.361 409.145 239.58C405.504 238.238 401.797 235.609 398.332 233.86C391.611 230.56 385.242 227.832 378.994 223.685L382.514 216.733C389.367 219.065 408.76 224.081 411.961 224.862C413.347 225.225 418.748 228.052 418.693 224.323C419.452 223.08 420.508 198.869 422.829 190.311C423.094 189.351 423.554 188.456 424.182 187.682L424.391 187.418C425.238 186.356 426.361 185.548 427.636 185.08C428.912 184.613 430.291 184.505 431.624 184.769C432.956 185.032 434.191 185.656 435.193 186.574C436.195 187.491 436.925 188.666 437.305 189.97Z" fill="white"/>
<path d="M379.764 233.751H347.204L343.486 191.269H376.046L379.764 233.751Z" fill="#263238"/>
<path opacity="0.5" d="M379.764 233.751H347.204L343.486 191.269H376.046L379.764 233.751Z" fill="white"/>
<path d="M378.609 233.543H346.049L342.331 191.061H374.891L378.609 233.543Z" fill="#EB5757"/>
<path opacity="0.8" d="M378.609 233.543H346.049L342.331 191.061H374.891L378.609 233.543Z" fill="white"/>
<path d="M365.695 193.709H352L351.538 188.396H365.222L365.695 193.709Z" fill="#EB5757"/>
<path d="M351.538 188.399L352.88 187.938H367.059L367.257 190.192L366.201 191.413L366.135 193.261L365.695 193.713L365.222 188.399H351.538Z" fill="#EB5757"/>
<path opacity="0.5" d="M351.538 188.399L352.88 187.938H367.059L367.257 190.192L366.201 191.413L366.135 193.261L365.695 193.713L365.222 188.399H351.538Z" fill="black"/>
<path d="M385.11 219.033L385.847 223.004C384.087 227.591 374 226.381 374 226.381V214.644L382.899 216.712C383.451 216.846 383.953 217.137 384.345 217.548C384.736 217.96 385.002 218.475 385.11 219.033Z" fill="#FFC3BD"/>
<path d="M373.978 214.644L374.022 226.403L365.09 226.623L363.044 216.283L373.978 214.644Z" fill="#FFC3BD"/>
<path d="M407.99 310.203L411.389 260.703C411.873 253.707 415.283 247.877 420.013 245.116C423.002 242.724 426.654 241.307 430.474 241.057C430.876 241.016 431.28 240.998 431.684 241.002C434.756 240.985 437.782 241.741 440.484 243.202C440.568 243.239 440.649 243.284 440.726 243.334C443.516 244.883 445.91 247.055 447.722 249.681C450.465 253.675 451.923 258.41 451.902 263.255C451.902 274.255 444.653 283.418 435.138 285.255L431.453 338.803C431.134 343.357 428.153 346.855 424.545 346.855H406.087L407.99 310.203Z" fill="#EB5757"/>
<path opacity="0.1" d="M407.99 310.203L411.389 260.703C411.873 253.707 415.283 247.877 420.013 245.116C423.002 242.724 426.654 241.307 430.474 241.057C430.876 241.016 431.28 240.998 431.684 241.002C434.756 240.985 437.782 241.741 440.484 243.202C440.568 243.239 440.649 243.284 440.726 243.334C443.516 244.883 445.91 247.055 447.722 249.681C450.465 253.675 451.923 258.41 451.902 263.255C451.902 274.255 444.653 283.418 435.138 285.255L431.453 338.803C431.134 343.357 428.153 346.855 424.545 346.855H406.087L407.99 310.203Z" fill="white"/>
<path d="M240.13 79.8606V125.852C240.13 127.019 239.667 128.138 238.841 128.963C238.016 129.788 236.897 130.252 235.73 130.252H188.628L171.798 143.265C171.321 143.625 170.752 143.845 170.156 143.9C169.56 143.955 168.961 143.842 168.426 143.575C167.89 143.307 167.441 142.895 167.127 142.386C166.813 141.876 166.648 141.289 166.65 140.691V130.252H164.021C162.854 130.252 161.735 129.788 160.91 128.963C160.085 128.138 159.621 127.019 159.621 125.852V79.8496C159.624 79.2767 159.74 78.7101 159.964 78.1825C160.187 77.6548 160.512 77.1767 160.922 76.7757C161.331 76.3747 161.815 76.0588 162.347 75.8463C162.879 75.6338 163.448 75.5289 164.021 75.5376H235.807C236.954 75.5376 238.053 75.9931 238.864 76.8038C239.675 77.6145 240.13 78.7141 240.13 79.8606V79.8606Z" stroke="#EB5757" stroke-miterlimit="10"/>
<path d="M196.02 69.0586H187.033V70.1586H196.02V69.0586Z" fill="#EB5757"/>
<path d="M154 82.0149H152.9V76.5919C152.903 74.5896 153.701 72.6702 155.117 71.2554C156.534 69.8406 158.455 69.0459 160.457 69.0459H180.51V70.1459H160.435C158.725 70.1488 157.086 70.8285 155.876 72.0364C154.666 73.2443 153.984 74.8822 153.978 76.5919L154 82.0149Z" fill="#EB5757"/>
<path d="M217.547 109.23C217.069 109.233 216.596 109.136 216.157 108.947C215.717 108.758 215.322 108.48 214.996 108.131C214.669 107.782 214.419 107.369 214.259 106.918C214.1 106.467 214.036 105.989 214.071 105.512C215.248 92.1028 225.874 90.8708 227.205 75.6248C227.59 71.2248 225.984 69.5748 222.915 69.5748C219.846 69.5748 217.954 71.2358 217.569 75.6248L217.349 78.1328C217.25 79.2659 216.729 80.3206 215.89 81.0884C215.051 81.8563 213.955 82.2814 212.817 82.2798C212.188 82.2792 211.565 82.1477 210.989 81.8937C210.413 81.6397 209.896 81.2687 209.471 80.8043C209.046 80.3399 208.722 79.7922 208.52 79.196C208.317 78.5997 208.241 77.968 208.296 77.3408L208.395 76.2408C209.253 66.4288 214.566 60.8408 223.949 60.8408C233.332 60.8408 237.655 66.4508 236.797 76.2408C235.4 92.1358 223.795 94.5998 222.805 105.809C222.811 105.864 222.811 105.919 222.805 105.974C222.755 106.863 222.367 107.7 221.721 108.313C221.075 108.926 220.22 109.27 219.329 109.274L217.547 109.23ZM222.31 118.558C222.211 119.711 221.682 120.786 220.829 121.568C219.975 122.35 218.859 122.783 217.701 122.782C217.06 122.783 216.425 122.65 215.837 122.392C215.25 122.134 214.722 121.757 214.289 121.284C213.855 120.811 213.525 120.253 213.319 119.645C213.113 119.038 213.036 118.394 213.092 117.755C213.191 116.599 213.722 115.524 214.578 114.741C215.434 113.959 216.552 113.527 217.712 113.531C218.352 113.533 218.985 113.668 219.57 113.927C220.156 114.186 220.681 114.564 221.113 115.036C221.545 115.509 221.875 116.065 222.081 116.672C222.287 117.278 222.365 117.92 222.31 118.558Z" fill="#EB5757"/>
<path d="M205.15 98.4625H179.85C179.267 98.4625 178.707 98.2307 178.294 97.8181C177.882 97.4056 177.65 96.846 177.65 96.2625C177.65 95.679 177.882 95.1194 178.294 94.7069C178.707 94.2943 179.267 94.0625 179.85 94.0625H205.15C205.733 94.0625 206.293 94.2943 206.706 94.7069C207.118 95.1194 207.35 95.679 207.35 96.2625C207.35 96.846 207.118 97.4056 206.706 97.8181C206.293 98.2307 205.733 98.4625 205.15 98.4625Z" fill="#EB5757"/>
<path d="M201.652 107.172H179.894C179.311 107.172 178.751 106.941 178.338 106.528C177.926 106.116 177.694 105.556 177.694 104.972C177.694 104.389 177.926 103.829 178.338 103.417C178.751 103.004 179.311 102.772 179.894 102.772H201.652C202.236 102.772 202.795 103.004 203.208 103.417C203.62 103.829 203.852 104.389 203.852 104.972C203.852 105.556 203.62 106.116 203.208 106.528C202.795 106.941 202.236 107.172 201.652 107.172Z" fill="#EB5757"/>
<path d="M198.154 115.875H179.894C179.311 115.875 178.751 115.643 178.338 115.23C177.926 114.818 177.694 114.258 177.694 113.675C177.694 113.091 177.926 112.532 178.338 112.119C178.751 111.706 179.311 111.475 179.894 111.475H198.154C198.738 111.475 199.297 111.706 199.71 112.119C200.122 112.532 200.354 113.091 200.354 113.675C200.354 114.258 200.122 114.818 199.71 115.23C199.297 115.643 198.738 115.875 198.154 115.875Z" fill="#EB5757"/>
<path d="M146.388 295.362H130.317C126.401 295.362 123.233 297.837 123.233 300.862V310.366C123.233 313.424 126.401 315.866 130.317 315.866H146.388V295.362Z" fill="#EB5757"/>
<path d="M71.6981 340.12L66.1101 251.174C65.6187 243.353 66.735 235.514 69.3901 228.141C72.0452 220.768 76.1828 214.017 81.5476 208.305C86.9125 202.593 93.3908 198.04 100.583 194.929C107.775 191.817 115.529 190.212 123.365 190.212C138.023 190.211 152.125 195.82 162.778 205.888C173.431 215.956 179.827 229.719 180.653 244.354L186.505 348.238H80.3001C78.104 348.228 75.9937 347.384 74.3966 345.877C72.7994 344.37 71.8348 342.312 71.6981 340.12Z" fill="#EB5757"/>
<path opacity="0.1" d="M71.5001 336.897L66.1101 251.174C65.6187 243.353 66.735 235.514 69.3901 228.141C72.0452 220.768 76.1828 214.017 81.5476 208.305C86.9125 202.593 93.3908 198.04 100.583 194.929C107.775 191.817 115.529 190.212 123.365 190.212C138.023 190.211 152.125 195.82 162.778 205.888C173.431 215.956 179.827 229.719 180.653 244.354L186.505 348.238H83.6001C80.5182 348.244 77.5502 347.074 75.3016 344.966C73.0531 342.859 71.6934 339.973 71.5001 336.897Z" fill="black"/>
<path d="M88.9239 348.238L82.8299 251.174C82.3385 243.352 83.4551 235.512 86.1109 228.138C88.7666 220.765 92.9052 214.013 98.2712 208.301C103.637 202.589 110.117 198.036 117.31 194.925C124.504 191.814 132.259 190.21 140.096 190.212C154.752 190.214 168.851 195.824 179.502 205.892C190.153 215.96 196.547 229.721 197.373 244.354L203.236 348.238H88.9239Z" fill="#EB5757"/>
<path d="M87.0979 364.95H85.6349C85.2391 364.924 84.8648 364.76 84.5773 364.487C84.2899 364.213 84.1075 363.848 84.0619 363.454L81.8619 348.241H90.7829L88.5829 363.454C88.5447 363.836 88.3763 364.193 88.1059 364.465C87.8355 364.738 87.4796 364.909 87.0979 364.95Z" fill="#EB5757"/>
<path opacity="0.7" d="M87.0979 364.95H85.6349C85.2391 364.924 84.8648 364.76 84.5773 364.487C84.2899 364.213 84.1075 363.848 84.0619 363.454L81.8619 348.241H90.7829L88.5829 363.454C88.5447 363.836 88.3763 364.193 88.1059 364.465C87.8355 364.738 87.4796 364.909 87.0979 364.95Z" fill="white"/>
<path d="M230.813 364.95H229.482C229.107 364.909 228.758 364.736 228.498 364.462C228.238 364.188 228.084 363.831 228.063 363.454L226.105 348.241H234.19L232.232 363.454C232.211 363.831 232.057 364.188 231.797 364.462C231.537 364.736 231.188 364.909 230.813 364.95Z" fill="#EB5757"/>
<path opacity="0.5" d="M230.813 364.95H229.482C229.107 364.909 228.758 364.736 228.498 364.462C228.238 364.188 228.084 363.831 228.063 363.454L226.105 348.241H234.19L232.232 363.454C232.211 363.831 232.057 364.188 231.797 364.462C231.537 364.736 231.188 364.909 230.813 364.95Z" fill="white"/>
<path d="M189.442 364.95H188.1C187.725 364.909 187.376 364.736 187.116 364.462C186.856 364.188 186.702 363.831 186.681 363.454L184.712 348.241H192.808L190.85 363.454C190.827 363.828 190.674 364.183 190.417 364.456C190.159 364.73 189.815 364.904 189.442 364.95Z" fill="#EB5757"/>
<path opacity="0.7" d="M189.442 364.95H188.1C187.725 364.909 187.376 364.736 187.116 364.462C186.856 364.188 186.702 363.831 186.681 363.454L184.712 348.241H192.808L190.85 363.454C190.827 363.828 190.674 364.183 190.417 364.456C190.159 364.73 189.815 364.904 189.442 364.95Z" fill="white"/>
<path d="M131.648 364.95H130.185C129.788 364.926 129.413 364.763 129.125 364.489C128.837 364.215 128.655 363.849 128.612 363.454L126.412 348.241H135.333L133.133 363.454C133.095 363.836 132.926 364.193 132.656 364.465C132.386 364.738 132.03 364.909 131.648 364.95Z" fill="#EB5757"/>
<path opacity="0.5" d="M131.648 364.95H130.185C129.788 364.926 129.413 364.763 129.125 364.489C128.837 364.215 128.655 363.849 128.612 363.454L126.412 348.241H135.333L133.133 363.454C133.095 363.836 132.926 364.193 132.656 364.465C132.386 364.738 132.03 364.909 131.648 364.95Z" fill="white"/>
<path d="M180.081 311.578H219.197L221.782 273.903L222.332 265.807L222.596 262.078C222.664 261.099 222.789 260.126 222.97 259.163C222.97 258.954 223.069 258.734 223.113 258.525C223.136 258.363 223.177 258.205 223.234 258.052C224.288 254.212 226.342 250.72 229.185 247.932C232.463 244.692 236.797 242.74 241.395 242.432H204.6C204.193 242.432 203.797 242.432 203.39 242.432C198.399 242.457 193.615 244.43 190.058 247.932C187.215 250.72 185.161 254.212 184.107 258.052C184.05 258.205 184.009 258.363 183.986 258.525C183.728 259.695 183.555 260.882 183.469 262.078L183.216 265.807L180.081 311.578Z" fill="#EB5757"/>
<path opacity="0.1" d="M180.081 311.578H219.197L221.782 273.903L222.332 265.807L222.596 262.078C222.664 261.099 222.789 260.126 222.97 259.163C222.97 258.954 223.069 258.734 223.113 258.525C223.136 258.363 223.177 258.205 223.234 258.052C224.288 254.212 226.342 250.72 229.185 247.932C232.463 244.692 236.797 242.74 241.395 242.432H204.6C204.193 242.432 203.797 242.432 203.39 242.432C198.399 242.457 193.615 244.43 190.058 247.932C187.215 250.72 185.161 254.212 184.107 258.052C184.05 258.205 184.009 258.363 183.986 258.525C183.728 259.695 183.555 260.882 183.469 262.078L183.216 265.807L180.081 311.578Z" fill="black"/>
<g opacity="0.1">
<path d="M149.083 291.5H133.364C129.547 291.5 126.456 293.92 126.456 296.901V306.196C126.456 309.177 129.547 311.597 133.364 311.597H149.083V291.5Z" fill="black"/>
</g>
<path d="M213.224 291.491H144.034C140.741 291.491 138.072 294.161 138.072 297.453V305.626C138.072 308.919 140.741 311.588 144.034 311.588H213.224C216.517 311.588 219.186 308.919 219.186 305.626V297.453C219.186 294.161 216.517 291.491 213.224 291.491Z" fill="#EB5757"/>
<path d="M50.05 264.628C50.0406 269.887 51.8917 274.981 55.2756 279.007C58.6596 283.033 63.3584 285.732 68.541 286.628L72.6 340.187C72.952 344.741 76.252 348.239 80.212 348.239H123.365C119.405 348.239 116.105 344.741 115.753 340.187L113.553 311.587L111.661 286.606C108.275 286.014 105.073 284.646 102.304 282.61C99.5348 280.573 97.2746 277.924 95.7 274.869C95.491 274.473 95.304 274.066 95.128 273.659C93.8518 270.82 93.1955 267.741 93.203 264.628C93.2033 263.098 93.3618 261.572 93.676 260.074C93.797 259.48 93.951 258.886 94.105 258.314C94.8943 255.691 96.1501 253.232 97.812 251.054C99.8678 248.385 102.5 246.216 105.512 244.707C108.584 243.163 111.974 242.356 115.412 242.353H72.336C70.0981 242.352 67.8728 242.689 65.736 243.354C61.3352 244.711 57.4646 247.402 54.659 251.054C51.6659 254.946 50.0453 259.719 50.05 264.628Z" fill="#EB5757"/>
<path opacity="0.1" d="M50.05 264.628C50.0406 269.887 51.8917 274.981 55.2756 279.007C58.6596 283.033 63.3584 285.732 68.541 286.628L72.6 340.187C72.952 344.741 76.252 348.239 80.212 348.239H123.365C119.405 348.239 116.105 344.741 115.753 340.187L113.553 311.587L111.661 286.606C108.275 286.014 105.073 284.646 102.304 282.61C99.5348 280.573 97.2746 277.924 95.7 274.869C95.491 274.473 95.304 274.066 95.128 273.659C93.8518 270.82 93.1955 267.741 93.203 264.628C93.2033 263.098 93.3618 261.572 93.676 260.074C93.797 259.48 93.951 258.886 94.105 258.314C94.8943 255.691 96.1501 253.232 97.812 251.054C99.8678 248.385 102.5 246.216 105.512 244.707C108.584 243.163 111.974 242.356 115.412 242.353H72.336C70.0981 242.352 67.8728 242.689 65.736 243.354C61.3352 244.711 57.4646 247.402 54.659 251.054C51.6659 254.946 50.0453 259.719 50.05 264.628Z" fill="black"/>
<path d="M93.192 264.628C93.192 275.628 100.441 284.802 109.956 286.628L113.63 340.231C113.949 344.796 116.93 348.283 120.538 348.283H235.752C239.338 348.283 242.352 344.796 242.66 340.231L246.345 286.551C255.662 284.593 262.713 275.551 262.713 264.672C262.738 260.11 261.447 255.637 258.995 251.791C257.132 248.859 254.569 246.436 251.537 244.74C248.78 243.199 245.675 242.389 242.517 242.386C237.525 242.408 232.741 244.382 229.185 247.886C226.34 250.674 224.283 254.166 223.223 258.006C223.175 258.16 223.138 258.319 223.113 258.479C222.849 259.648 222.676 260.836 222.596 262.032L222.332 265.761L219.197 311.565H137.093L133.694 262.065C133.199 255.069 129.8 249.239 125.07 246.478C122.076 244.094 118.427 242.679 114.609 242.419C114.202 242.419 113.806 242.419 113.399 242.419C110.327 242.402 107.301 243.158 104.599 244.619C104.511 244.65 104.426 244.691 104.346 244.74C101.563 246.298 99.1709 248.468 97.35 251.087C94.6169 255.071 93.1662 259.796 93.192 264.628Z" fill="#EB5757"/>
<path opacity="0.1" d="M138.985 348.24H235.785C239.371 348.24 242.385 344.753 242.693 340.188L246.378 286.508C255.695 284.55 262.746 275.508 262.746 264.629C262.771 260.067 261.48 255.595 259.028 251.748C257.164 248.816 254.602 246.393 251.57 244.697C248.813 243.157 245.708 242.346 242.55 242.343C237.558 242.366 232.773 244.34 229.218 247.843C226.373 250.632 224.316 254.123 223.256 257.963C223.208 258.118 223.171 258.276 223.146 258.436C222.882 259.605 222.709 260.793 222.629 261.989L222.365 265.718L219.23 311.522H137.093L138.985 348.24Z" fill="white"/>
<path d="M168.443 367.173L177.826 369.769L186.252 347.714L176.869 345.118L168.443 367.173Z" fill="#FFC3BD"/>
<path d="M182.028 366.839C181.287 365.88 180.217 365.229 179.025 365.013L169.4 363.132C169.175 363.067 168.934 363.093 168.728 363.204C168.522 363.315 168.369 363.503 168.3 363.726L165.319 372.526C165.234 372.765 165.196 373.019 165.209 373.272C165.222 373.526 165.286 373.774 165.395 374.003C165.504 374.232 165.658 374.437 165.847 374.607C166.036 374.776 166.256 374.907 166.496 374.99H166.562C170.126 376.398 172.535 375.914 178.101 376.992C181.544 377.652 188.749 379.94 193.567 379.742C198.385 379.544 198.374 374.781 196.35 374.429C189.2 373.329 183.7 369.017 182.028 366.839Z" fill="#263238"/>
<g opacity="0.2">
<path d="M186.252 347.725L181.907 359.099L172.524 356.481L176.858 345.118L186.252 347.725Z" fill="black"/>
</g>
<path d="M154.935 264.004C154.935 264.004 211.431 263.696 209.671 282.616C208.483 295.398 202.345 308.829 197.571 321.798C190.63 340.597 184.613 356.998 184.613 356.998L171.743 352.543C171.743 352.543 183.304 298.181 191.092 292.615H143.319C127.512 292.615 120.681 275.257 136.07 255.017C145.475 255.05 154.935 264.004 154.935 264.004Z" fill="#EB5757"/>
<path opacity="0.6" d="M154.935 264.003C154.935 264.003 211.431 263.695 209.671 282.615C210.54 294.374 184.602 356.975 184.602 356.975L171.732 352.52C171.732 352.52 183.293 298.158 191.081 292.592H143.319C127.512 292.592 120.681 275.234 136.07 254.994C145.475 255.049 154.935 264.003 154.935 264.003Z" fill="black"/>
<path d="M194.777 229.649C187.825 235.996 174.174 220.97 171.974 219.188C167.266 215.338 153.428 202.424 154.154 197.936C156.354 184.736 178.002 203.436 184.261 216.328L194.777 229.649Z" fill="#263238"/>
<path d="M133.936 189.926C130.449 190.663 126.676 189.409 124.223 191.994C121.77 194.579 120.747 198.209 120.395 201.751C120.085 206.7 120.344 211.668 121.165 216.557C121.898 222.519 122.665 228.478 123.464 234.432C123.96 239.337 123.771 244.287 122.903 249.139C122.812 249.655 122.894 250.186 123.136 250.65C123.379 251.114 123.769 251.484 124.245 251.702C124.245 251.702 151.294 252.626 159.159 252.329C163.339 252.175 160.468 241.175 161.755 234.729C162.041 233.299 164.835 227.425 165.253 225.929C167.189 218.834 165.902 213.95 164.153 206.822C162.844 201.641 162.305 194.172 159.665 193.622C154.913 192.643 143.638 187.858 133.936 189.926Z" fill="#EB5757"/>
<path opacity="0.8" d="M133.936 189.926C130.449 190.663 126.676 189.409 124.223 191.994C121.77 194.579 120.747 198.209 120.395 201.751C120.085 206.7 120.344 211.668 121.165 216.557C121.898 222.519 122.665 228.478 123.464 234.432C123.96 239.337 123.771 244.287 122.903 249.139C122.812 249.655 122.894 250.186 123.136 250.65C123.379 251.114 123.769 251.484 124.245 251.702C124.245 251.702 151.294 252.626 159.159 252.329C163.339 252.175 160.468 241.175 161.755 234.729C162.041 233.299 164.835 227.425 165.253 225.929C167.189 218.834 165.902 213.95 164.153 206.822C162.844 201.641 162.305 194.172 159.665 193.622C154.913 192.643 143.638 187.858 133.936 189.926Z" fill="white"/>
<path d="M130.075 195.011C129.712 194.461 120.175 186.453 118.47 195.704C116.061 208.585 121.044 221.257 121.044 221.257C121.044 221.257 122.144 235.194 126.236 236.591C130.328 237.988 134.134 238.329 135.498 235.942C136.38 234.081 136.846 232.05 136.862 229.991C136.862 229.991 136.4 204.603 130.075 195.011Z" fill="#263238"/>
<path d="M136.664 172.254C137.643 178.183 138.468 189.018 134.233 192.835C134.233 192.835 144.584 198.258 151.382 207.718C152.891 206.591 154.008 205.018 154.572 203.221C155.137 201.424 155.121 199.495 154.528 197.708C154.187 196.58 153.622 195.533 152.865 194.629C152.109 193.725 151.178 192.984 150.128 192.45C146.113 190.25 146.498 186.092 147.598 182.198L136.664 172.254Z" fill="#E8BFBF"/>
<path opacity="0.2" d="M138.017 182.313L141.878 183.798C143.531 184.437 145.3 184.722 147.07 184.634C146.795 185.844 146.795 187.099 147.07 188.308C145.686 188.687 144.221 188.656 142.855 188.218C141.488 187.781 140.277 186.956 139.37 185.844C138.746 184.741 138.29 183.551 138.017 182.313Z" fill="black"/>
<path d="M233.86 348.208H244.376L233.365 321.841L226.237 333.941L233.86 348.208Z" fill="#FFC3BD"/>
<path d="M243.507 345.708L231.176 342.903C230.965 342.85 230.741 342.878 230.55 342.982C230.358 343.086 230.213 343.258 230.142 343.464L226.699 352.946C226.63 353.185 226.609 353.435 226.637 353.682C226.665 353.93 226.741 354.169 226.862 354.386C226.983 354.604 227.145 354.796 227.34 354.951C227.534 355.105 227.758 355.22 227.997 355.289C232.32 356.191 234.443 356.389 239.866 357.632C243.166 358.391 251.658 360.613 256.267 361.658C260.876 362.703 262.086 358.193 260.249 357.335C252.021 353.529 247.566 349.888 245.179 346.786C244.762 346.245 244.172 345.864 243.507 345.708Z" fill="#263238"/>
<g opacity="0.2">
<path d="M233.365 321.841L238.051 333.072L228.591 338.352L226.237 333.952L233.365 321.841Z" fill="black"/>
</g>
<path d="M122.694 251.827L121.594 255.413C121.451 255.688 121.77 255.974 122.232 255.996L162.932 257.228C163.306 257.228 163.603 257.074 163.636 256.843L164.109 253.235C164.109 252.993 163.823 252.773 163.438 252.751L123.398 251.541C123.266 251.52 123.13 251.536 123.006 251.586C122.882 251.636 122.774 251.72 122.694 251.827Z" fill="#263238"/>
<path d="M173.602 281.248C160.215 286.957 145.695 292.655 137.797 292.655C121.979 292.655 107.932 281.237 122.903 255.255C132.319 255.255 148.676 255.519 148.676 255.519C148.676 255.519 179.476 246.719 201.894 249.315C207.206 249.935 212.185 252.222 216.116 255.849C220.047 259.475 222.728 264.254 223.773 269.5C229.449 298.1 238.194 329.032 238.194 329.032L226.941 336.732C226.941 336.732 209.396 299.849 199.298 270.6C193.952 272.283 184.129 276.76 173.602 281.248Z" fill="#EB5757"/>
<path opacity="0.5" d="M223.773 269.499C222.732 264.25 220.053 259.466 216.122 255.835C212.191 252.205 207.209 249.914 201.894 249.292C179.52 246.74 148.676 255.496 148.676 255.496C148.676 255.496 132.319 255.199 122.903 255.232C107.69 281.104 121.979 292.632 137.797 292.632C145.695 292.632 160.215 286.934 173.602 281.225C184.129 276.737 193.952 272.26 199.298 270.544C209.396 299.826 226.941 336.72 226.941 336.72L238.194 329.02C238.194 329.02 229.449 298.099 223.773 269.499Z" fill="black"/>
<path d="M209.671 282.703C209.313 286.378 208.763 290.031 208.021 293.648C207.966 293.527 207.922 293.417 207.878 293.296C207.834 293.175 207.878 293.241 207.878 293.208C207.842 293.086 207.794 292.968 207.735 292.856C204.743 285.42 201.817 277.797 199.342 270.614H199.419C205.821 273.331 210.188 277.203 209.671 282.703Z" fill="#EB5757"/>
<path opacity="0.6" d="M209.671 282.703C209.313 286.378 208.763 290.031 208.021 293.648C207.966 293.527 207.922 293.417 207.878 293.296C207.834 293.175 207.878 293.241 207.878 293.208C207.842 293.086 207.794 292.968 207.735 292.856C204.743 285.42 201.817 277.797 199.342 270.614H199.419C205.821 273.331 210.188 277.203 209.671 282.703Z" fill="black"/>
<path d="M129.448 166.554C132.748 175.849 133.958 179.853 140.14 183.34C149.457 188.598 160.127 182.482 159.665 172.34C159.247 163.265 153.912 149.581 143.572 148.481C141.291 148.224 138.982 148.556 136.865 149.443C134.748 150.331 132.893 151.746 131.478 153.553C130.062 155.36 129.132 157.499 128.777 159.767C128.422 162.035 128.653 164.356 129.448 166.51V166.554Z" fill="#E8BFBF"/>
<path d="M146.157 165.341C146.388 166.144 146.971 166.617 147.477 166.441C147.983 166.265 148.181 165.561 147.983 164.78C147.785 163.999 147.18 163.504 146.663 163.68C146.146 163.856 145.937 164.571 146.157 165.341Z" fill="#263238"/>
<path d="M154.792 162.614C155.023 163.428 155.606 163.901 156.112 163.714C156.618 163.527 156.816 162.834 156.618 162.053C156.42 161.272 155.804 160.777 155.309 160.953C154.814 161.129 154.572 161.855 154.792 162.614Z" fill="#263238"/>
<path d="M155.1 161.075L156.794 159.975C156.794 159.975 156.255 161.702 155.1 161.075Z" fill="#263238"/>
<path d="M151.701 164.374C152.891 165.936 154.29 167.328 155.859 168.51C155.544 168.899 155.147 169.215 154.697 169.433C154.246 169.652 153.753 169.769 153.252 169.775L151.701 164.374Z" fill="#ED847E"/>
<path d="M123.376 172.701C124.052 174.374 124.564 176.11 124.905 177.882C124.999 179.664 124.425 181.418 123.297 182.801C122.168 184.183 120.565 185.096 118.8 185.362C120.337 185.771 121.968 185.637 123.418 184.982C124.867 184.326 126.045 183.19 126.753 181.765C125.912 184.004 124.248 185.838 122.1 186.891C123.635 186.908 125.153 186.57 126.536 185.904C127.92 185.238 129.131 184.262 130.075 183.052C129.558 184.394 128.975 185.725 128.513 187.067C131.125 185.485 133.27 183.238 134.728 180.555C135.311 179.455 135.751 178.025 134.981 177.057C134.211 176.089 132.99 176.155 131.868 176.133C130.746 176.111 129.393 175.847 128.986 174.802C128.579 173.757 129.327 172.712 130.141 171.997C130.955 171.282 131.934 170.622 132.231 169.577C132.372 168.821 132.319 168.041 132.077 167.311C131.571 165.287 131.072 163.259 130.581 161.228C130.447 160.511 130.191 159.822 129.822 159.193C127.622 155.893 125.169 160.733 124.322 162.372C122.736 165.578 122.399 169.26 123.376 172.701Z" fill="#263238"/>
<path d="M128.799 175.66C130.045 177.279 131.879 178.342 133.903 178.619C136.598 178.949 137.544 176.419 136.466 174.12C135.487 172.008 132.913 169.313 130.372 170.028C127.831 170.743 127.281 173.636 128.799 175.66Z" fill="#E8BFBF"/>
<path d="M146.3 158.7C146.282 158.802 146.234 158.897 146.161 158.972C146.089 159.046 145.995 159.097 145.893 159.118C143.693 159.536 142.417 162.187 142.417 162.209C142.362 162.329 142.262 162.422 142.139 162.47C142.015 162.517 141.878 162.514 141.757 162.462C141.64 162.407 141.549 162.308 141.504 162.187C141.458 162.065 141.462 161.931 141.515 161.813C141.614 161.714 142.978 158.667 145.706 158.139C145.834 158.119 145.964 158.149 146.071 158.223C146.177 158.296 146.251 158.408 146.278 158.535C146.302 158.586 146.309 158.644 146.3 158.7Z" fill="#263238"/>
<path d="M152.174 156.501C152.1 156.489 152.025 156.493 151.953 156.512C151.882 156.531 151.814 156.564 151.756 156.611C151.635 156.743 151.228 156.974 151.459 157.095C152.801 157.777 154.66 158.899 156.09 158.668C156.332 158.668 156.904 158.415 156.783 158.239C156.7 158.15 156.596 158.084 156.48 158.047C156.365 158.011 156.242 158.005 156.123 158.03C155.023 158.184 153.472 157.117 152.416 156.567C152.338 156.534 152.257 156.512 152.174 156.501Z" fill="#263238"/>
<path d="M146.454 163.793L148.159 162.693C148.159 162.693 147.62 164.442 146.454 163.793Z" fill="#263238"/>
<path d="M146.3 144.408C142.549 143.726 142.065 143.473 138.259 143.715C134.415 143.835 130.698 145.12 127.6 147.4C124.706 149.792 122.664 153.057 121.781 156.706C120.916 160.342 120.819 164.118 121.495 167.794C121.616 169.55 122.375 171.2 123.629 172.436C123.757 170.459 124.092 168.501 124.63 166.595C125.191 164.67 126.346 162.972 127.93 161.744C128.629 161.366 129.231 160.831 129.69 160.182C129.928 159.54 130.062 158.864 130.086 158.18C130.431 156.64 131.352 155.29 132.66 154.407C133.959 153.544 135.35 152.829 136.807 152.273C141.438 150.282 146.487 149.138 150.755 146.454C149.358 145.593 147.862 144.906 146.3 144.408Z" fill="#263238"/>
<path d="M127.105 159.127C128.112 160.35 129.491 161.212 131.032 161.58C132.858 161.998 137.423 161.888 137.698 161.415C137.973 160.942 136.345 155.816 134.497 155.508C135.772 156.739 137.294 157.684 138.963 158.28C140.851 158.658 142.795 158.658 144.683 158.28C145.651 158.06 143.484 154.056 141.911 152.912C146.652 153.902 151.668 155.035 155.111 158.412C158.554 161.789 160.039 167.135 159.863 172.118C160.67 171.468 161.318 170.643 161.758 169.706C162.198 168.768 162.419 167.742 162.404 166.706C163.234 169.283 163.539 172 163.299 174.697C163.059 177.393 162.279 180.014 161.007 182.403C166.045 178.267 167.926 171.04 166.606 164.66C165.286 158.28 161.106 152.725 156.035 148.644C151.635 145.157 146.399 142.55 140.822 142.418C133.507 142.198 119.955 150.514 127.105 159.127Z" fill="#263238"/>
<path d="M133.034 188.54C133.034 188.177 133.122 187.693 133.166 187.187C133.262 186.026 132.924 184.87 132.217 183.943C131.509 183.017 130.484 182.385 129.338 182.171C128.998 182.11 128.68 181.96 128.417 181.736C128.154 181.512 127.956 181.222 127.842 180.895C126.995 178.431 126.665 177.683 125.851 175.263C123.651 174.724 121 175.549 118.701 175.791C118.063 178.552 118.018 181.416 118.569 184.195C118.657 184.817 118.899 185.407 119.273 185.911C121.361 187.622 123.669 189.042 126.137 190.135C128.117 190.74 130.9 188.727 133.034 188.54Z" fill="#E8BFBF"/>
<path d="M126.368 190.19C126.368 190.19 120.307 229.295 126.555 235.29C130.218 238.788 133.386 236.852 135.355 234.663C136.077 233.847 136.62 232.889 136.949 231.851C137.279 230.813 137.388 229.718 137.269 228.635L133.012 188.573C133.012 188.573 128.832 186.098 126.368 190.19Z" fill="#E8BFBF"/>
<path d="M191.488 225.503C193.977 223.331 195.762 220.466 196.614 217.275C196.809 216.149 196.882 215.006 196.834 213.865C196.779 206.781 194.777 193.79 194.777 193.79L189.024 191.887C189.024 191.887 187.231 201.787 186.824 207.199C186.747 208.299 186.626 209.52 186.494 210.851C186.241 213.271 185.933 215.933 185.658 218.144L191.488 225.503Z" fill="#E8BFBF"/>
<path d="M194.777 229.65C196.548 228.033 196.845 226.075 197.758 221.95C198.627 218.012 197.648 213.15 196.834 213.887C196.732 213.98 196.657 214.097 196.614 214.228C195.217 217.528 189.783 214.635 188.243 212.985C187.58 212.355 186.996 211.645 186.505 210.873C186.303 210.578 186.195 210.23 186.195 209.872C186.195 209.515 186.303 209.166 186.505 208.871C184.833 208.178 183.491 214.756 184.305 216.373L184.723 217.594C185.386 219.575 186.407 221.417 187.737 223.028L190.762 226.669L194.777 229.65Z" fill="#263238"/>
<path d="M188.87 192.711L188.188 182.657C189.967 183.504 191.805 184.221 193.688 184.802C196.482 185.759 200.288 184.076 199.408 185.902C198.005 188.619 196.44 191.249 194.722 193.778L188.87 192.711Z" fill="#E8BFBF"/>
<path d="M188.188 182.657L192.5 172.592L198.132 176.035C199.683 179.401 199.496 185.935 199.496 185.935C199.496 185.935 191.664 186.243 188.188 182.657Z" fill="#E8BFBF"/>
<path d="M151.041 174.901C151.184 175.616 151.701 176.122 152.141 176.001C152.581 175.88 152.856 175.242 152.702 174.527C152.548 173.812 152.042 173.306 151.602 173.427C151.162 173.548 150.887 174.23 151.041 174.901Z" fill="#263238"/>
<path d="M137.093 311.578L133.694 262.078C133.199 255.082 129.8 249.252 125.07 246.491C122.076 244.108 118.427 242.692 114.609 242.432C114.202 242.432 113.806 242.432 113.399 242.432C110.328 242.415 107.301 243.171 104.599 244.632C104.511 244.663 104.426 244.704 104.346 244.753C101.563 246.311 99.1709 248.481 97.35 251.1C94.6027 255.091 93.144 259.828 93.17 264.674C93.17 275.674 100.419 284.848 109.934 286.674L113.608 340.277C113.927 344.842 116.908 348.329 120.516 348.329H138.963L137.093 311.578Z" fill="#EB5757"/>
<path opacity="0.1" d="M137.093 311.578L133.694 262.078C133.199 255.082 129.8 249.252 125.07 246.491C122.076 244.108 118.427 242.692 114.609 242.432C114.202 242.432 113.806 242.432 113.399 242.432C110.328 242.415 107.301 243.171 104.599 244.632C104.511 244.663 104.426 244.704 104.346 244.753C101.563 246.311 99.1709 248.481 97.35 251.1C94.6027 255.091 93.144 259.828 93.17 264.674C93.17 275.674 100.419 284.848 109.934 286.674L113.608 340.277C113.927 344.842 116.908 348.329 120.516 348.329H138.963L137.093 311.578Z" fill="white"/>
<path d="M268.576 402.015C288.952 402.015 305.47 397.79 305.47 392.577C305.47 387.365 288.952 383.139 268.576 383.139C248.2 383.139 231.682 387.365 231.682 392.577C231.682 397.79 248.2 402.015 268.576 402.015Z" fill="#263238"/>
<path opacity="0.3" d="M268.576 398.869C288.952 398.869 305.47 395.348 305.47 391.004C305.47 386.66 288.952 383.139 268.576 383.139C248.2 383.139 231.682 386.66 231.682 391.004C231.682 395.348 248.2 398.869 268.576 398.869Z" fill="white"/>
<path d="M271.623 390.996H265.529L258.489 315.074H278.663L271.623 390.996Z" fill="#263238"/>
<path d="M278.663 315.073C278.663 317.273 274.153 319.077 268.576 319.077C262.999 319.077 258.489 317.284 258.489 315.073C258.489 312.862 263.01 311.069 268.576 311.069C274.142 311.069 278.663 312.862 278.663 315.073Z" fill="#263238"/>
<path opacity="0.7" d="M278.663 315.073C278.663 317.273 274.153 319.077 268.576 319.077C262.999 319.077 258.489 317.284 258.489 315.073C258.489 312.862 263.01 311.069 268.576 311.069C274.142 311.069 278.663 312.862 278.663 315.073Z" fill="white"/>
<path opacity="0.7" d="M145.2 316.262C145.227 315.807 145.346 315.363 145.548 314.955C145.75 314.547 146.032 314.183 146.377 313.886C154.902 322.466 208.989 329.077 274.439 329.077C339.889 329.077 393.976 322.477 402.512 313.886C402.857 314.183 403.139 314.547 403.341 314.955C403.543 315.363 403.661 315.807 403.689 316.262C403.689 325.953 345.818 333.862 274.439 333.862C203.06 333.862 145.2 325.953 145.2 316.262Z" fill="white"/>
<path opacity="0.7" d="M146.421 318.448C154.946 309.868 209.033 303.268 274.483 303.268C339.933 303.268 394.02 309.868 402.556 318.448C394.02 327.028 339.933 333.639 274.483 333.639C209.033 333.639 154.946 327.028 146.421 318.448Z" fill="white"/>
<path opacity="0.7" d="M145.2 315.917C145.2 306.215 203.06 298.317 274.439 298.317C345.818 298.317 403.689 306.171 403.689 315.917C403.662 316.37 403.544 316.813 403.342 317.22C403.14 317.626 402.857 317.987 402.512 318.282C393.976 309.702 339.889 303.102 274.439 303.102C208.989 303.102 154.902 309.702 146.377 318.282C146.031 317.987 145.749 317.626 145.547 317.22C145.344 316.813 145.226 316.37 145.2 315.917Z" fill="white"/>
<path d="M324.335 307.37L270.259 306.347C270.113 306.332 269.972 306.288 269.843 306.218C269.714 306.148 269.601 306.052 269.51 305.937C269.419 305.823 269.351 305.691 269.312 305.55C269.272 305.408 269.262 305.261 269.28 305.115C269.268 304.969 269.285 304.822 269.331 304.682C269.377 304.543 269.45 304.414 269.546 304.303C269.643 304.193 269.76 304.102 269.892 304.038C270.024 303.973 270.167 303.936 270.314 303.927L324.39 304.95C324.537 304.964 324.679 305.007 324.809 305.077C324.939 305.146 325.054 305.242 325.146 305.357C325.238 305.471 325.307 305.604 325.347 305.746C325.387 305.887 325.398 306.036 325.38 306.182C325.392 306.329 325.374 306.477 325.328 306.618C325.281 306.758 325.207 306.887 325.109 306.998C325.012 307.109 324.893 307.199 324.76 307.263C324.627 307.327 324.482 307.363 324.335 307.37Z" fill="#263238"/>
<path opacity="0.2" d="M324.335 307.37L270.259 306.347C270.113 306.332 269.972 306.288 269.843 306.218C269.714 306.148 269.601 306.052 269.51 305.937C269.419 305.823 269.351 305.691 269.312 305.55C269.272 305.408 269.262 305.261 269.28 305.115C269.268 304.969 269.285 304.822 269.331 304.682C269.377 304.543 269.45 304.414 269.546 304.303C269.643 304.193 269.76 304.102 269.892 304.038C270.024 303.973 270.167 303.936 270.314 303.927L324.39 304.95C324.537 304.964 324.679 305.007 324.809 305.077C324.939 305.146 325.054 305.242 325.146 305.357C325.238 305.471 325.307 305.604 325.347 305.746C325.387 305.887 325.398 306.036 325.38 306.182C325.392 306.329 325.374 306.477 325.328 306.618C325.281 306.758 325.207 306.887 325.109 306.998C325.012 307.109 324.893 307.199 324.76 307.263C324.627 307.327 324.482 307.363 324.335 307.37Z" fill="white"/>
<path d="M350.592 303.425L324.742 307.33C324.459 307.331 324.188 307.222 323.983 307.028C323.778 306.833 323.656 306.567 323.642 306.285C323.597 305.99 323.663 305.688 323.828 305.438C323.992 305.188 324.243 305.008 324.533 304.932L350.383 301.027C350.665 301.027 350.937 301.135 351.142 301.33C351.347 301.524 351.469 301.79 351.483 302.072C351.528 302.368 351.462 302.67 351.297 302.92C351.133 303.17 350.881 303.35 350.592 303.425Z" fill="#263238"/>
<path d="M350.361 301.027H295.713L270.314 303.931L322.916 304.921L350.361 301.027Z" fill="#263238"/>
<path opacity="0.6" d="M350.361 301.027H295.713L270.314 303.931L322.916 304.921L350.361 301.027Z" fill="white"/>
<path opacity="0.5" d="M350.592 303.425L324.742 307.33C324.459 307.331 324.188 307.222 323.983 307.028C323.778 306.833 323.656 306.567 323.642 306.285C323.597 305.99 323.663 305.688 323.828 305.438C323.992 305.188 324.243 305.008 324.533 304.932L350.383 301.027C350.665 301.027 350.937 301.135 351.142 301.33C351.347 301.524 351.469 301.79 351.483 302.072C351.528 302.368 351.462 302.67 351.297 302.92C351.133 303.17 350.881 303.35 350.592 303.425Z" fill="white"/>
<path d="M322.916 304.92L272.492 303.974C271.541 303.853 270.668 303.387 270.038 302.666C269.407 301.944 269.063 301.016 269.071 300.058L267.553 269.61C267.443 267.487 268.818 265.782 270.589 265.815L321.013 266.772C321.965 266.888 322.841 267.353 323.473 268.075C324.104 268.798 324.446 269.728 324.434 270.688L325.963 301.125C326.062 303.248 324.698 304.953 322.916 304.92Z" fill="#EB5757"/>
<path opacity="0.2" d="M322.916 304.92L272.492 303.974C271.541 303.853 270.668 303.387 270.038 302.666C269.407 301.944 269.063 301.016 269.071 300.058L267.553 269.61C267.443 267.487 268.818 265.782 270.589 265.815L321.013 266.772C321.965 266.888 322.841 267.353 323.473 268.075C324.104 268.798 324.446 269.728 324.434 270.688L325.963 301.125C326.062 303.248 324.698 304.953 322.916 304.92Z" fill="white"/>
<path d="M321.442 304.765L271.018 303.808C270.065 303.689 269.189 303.225 268.557 302.503C267.924 301.781 267.579 300.852 267.586 299.892L266.068 269.499C265.958 267.376 267.333 265.671 269.115 265.704L319.528 266.65C320.481 266.769 321.356 267.233 321.989 267.955C322.622 268.677 322.967 269.606 322.96 270.566L324.5 300.97C324.588 303.093 323.213 304.798 321.442 304.765Z" fill="#EB5757"/>
<path opacity="0.6" d="M321.442 304.765L271.018 303.808C270.065 303.689 269.189 303.225 268.557 302.503C267.924 301.781 267.579 300.852 267.586 299.892L266.068 269.499C265.958 267.376 267.333 265.671 269.115 265.704L319.528 266.65C320.481 266.769 321.356 267.233 321.989 267.955C322.622 268.677 322.967 269.606 322.96 270.566L324.5 300.97C324.588 303.093 323.213 304.798 321.442 304.765Z" fill="white"/>
<path d="M288.596 284.712C288.744 286.16 289.418 287.505 290.49 288.49C291.562 289.475 292.959 290.033 294.415 290.058C295.1 290.069 295.779 289.935 296.408 289.664C297.037 289.394 297.601 288.992 298.063 288.486C298.525 287.981 298.874 287.383 299.087 286.732C299.3 286.081 299.372 285.392 299.299 284.712C299.139 283.271 298.46 281.937 297.39 280.959C296.319 279.982 294.929 279.427 293.48 279.399C292.798 279.387 292.122 279.521 291.495 279.79C290.869 280.058 290.307 280.457 289.845 280.959C289.384 281.461 289.034 282.055 288.819 282.701C288.603 283.348 288.527 284.033 288.596 284.712Z" fill="white"/>
</svg>
