<svg width="550" height="410" viewBox="0 0 550 410" fill="none" xmlns="http://www.w3.org/2000/svg">
<path d="M494.89 377.839H458.458V378.114H494.89V377.839Z" fill="#EBEBEB"/>
<path d="M364.342 380.831H354.783V381.106H364.342V380.831Z" fill="#EBEBEB"/>
<path d="M457.358 367.631H436.249V367.906H457.358V367.631Z" fill="#EBEBEB"/>
<path d="M105.215 369.479H57.706V369.754H105.215V369.479Z" fill="#EBEBEB"/>
<path d="M121.979 369.479H115.016V369.754H121.979V369.479Z" fill="#EBEBEB"/>
<path d="M247.665 374.121H144.617V374.396H247.665V374.121Z" fill="#EBEBEB"/>
<path d="M262.24 311.08H49.8299C48.1641 311.08 46.5665 310.418 45.3886 309.24C44.2107 308.062 43.549 306.465 43.549 304.799V6.226C43.5635 4.56972 44.2316 2.98622 45.4079 1.82018C46.5843 0.654129 48.1736 -6.34985e-05 49.8299 4.6228e-09H262.24C263.065 4.62281e-09 263.882 0.162461 264.644 0.478111C265.406 0.793761 266.098 1.25642 266.681 1.83966C267.265 2.42291 267.727 3.11532 268.043 3.87737C268.359 4.63941 268.521 5.45617 268.521 6.281V304.799C268.521 305.624 268.359 306.441 268.043 307.203C267.727 307.965 267.265 308.657 266.681 309.24C266.098 309.824 265.406 310.286 264.644 310.602C263.882 310.918 263.065 311.08 262.24 311.08ZM49.8299 0.220001C48.238 0.222909 46.712 0.856614 45.5863 1.98233C44.4606 3.10804 43.8269 4.634 43.824 6.226V304.799C43.8269 306.391 44.4606 307.917 45.5863 309.043C46.712 310.168 48.238 310.802 49.8299 310.805H262.24C263.832 310.802 265.358 310.168 266.484 309.043C267.609 307.917 268.243 306.391 268.246 304.799V6.226C268.243 4.634 267.609 3.10804 266.484 1.98233C265.358 0.856614 263.832 0.222909 262.24 0.220001H49.8299Z" fill="#EBEBEB"/>
<path d="M500.17 311.08H287.76C286.094 311.08 284.497 310.418 283.319 309.24C282.141 308.062 281.479 306.465 281.479 304.799V6.226C281.494 4.56972 282.162 2.98622 283.338 1.82018C284.514 0.654129 286.104 -6.34985e-05 287.76 4.6228e-09H500.17C501.836 4.62282e-09 503.433 0.661747 504.611 1.83966C505.789 3.01758 506.451 4.61517 506.451 6.281V304.799C506.451 306.465 505.789 308.062 504.611 309.24C503.433 310.418 501.836 311.08 500.17 311.08ZM287.76 0.220001C286.168 0.222909 284.642 0.856614 283.516 1.98233C282.391 3.10804 281.757 4.634 281.754 6.226V304.799C281.757 306.391 282.391 307.917 283.516 309.043C284.642 310.168 286.168 310.802 287.76 310.805H500.17C501.762 310.802 503.288 310.168 504.414 309.043C505.539 307.917 506.173 306.391 506.176 304.799V6.226C506.173 4.634 505.539 3.10804 504.414 1.98233C503.288 0.856614 501.762 0.222909 500.17 0.220001H287.76Z" fill="#EBEBEB"/>
<path d="M550 360.14H0V360.415H550V360.14Z" fill="#EBEBEB"/>
<path d="M224.301 18.0068H145.926V283.888H224.301V18.0068Z" fill="#FAFAFA"/>
<path opacity="0.1" d="M224.147 18.0068H145.772V283.888H224.147V18.0068Z" fill="white"/>
<g opacity="0.3">
<path d="M216.491 18.0068H191.499L164.164 283.888H189.145L216.491 18.0068Z" fill="white"/>
</g>
<path d="M224.972 14.6406H145.277V21.3836H224.972V14.6406Z" fill="#E0E0E0"/>
<path d="M224.972 281.567H145.277V288.31H224.972V281.567Z" fill="#EBEBEB"/>
<path d="M228.063 294.063H141.669V8.06299H228.063V294.063ZM148.258 287.463H221.474V14.663H148.258V287.463Z" fill="#EBEBEB"/>
<path d="M138.93 18.0068H60.5549V283.888H138.93V18.0068Z" fill="#FAFAFA"/>
<path d="M127.116 130.603H66.451V181.511H127.116V130.603Z" fill="#E6E6E6"/>
<path d="M78.1 136.95H70.334V144.716H78.1V136.95Z" fill="#FAFAFA"/>
<path d="M93.1481 136.95H85.3821V144.716H93.1481V136.95Z" fill="#FAFAFA"/>
<path d="M108.196 136.95H100.43V144.716H108.196V136.95Z" fill="#FAFAFA"/>
<path d="M123.233 136.95H115.467V144.716H123.233V136.95Z" fill="#FAFAFA"/>
<path d="M78.1 151.063H70.334V158.829H78.1V151.063Z" fill="#FAFAFA"/>
<path d="M93.1481 151.063H85.3821V158.829H93.1481V151.063Z" fill="#FAFAFA"/>
<path d="M108.196 151.063H100.43V158.829H108.196V151.063Z" fill="#FAFAFA"/>
<path d="M123.233 151.063H115.467V158.829H123.233V151.063Z" fill="#E6E6E6"/>
<path d="M78.1 165.165H70.334V172.931H78.1V165.165Z" fill="#E6E6E6"/>
<path d="M93.1481 165.165H85.3821V172.931H93.1481V165.165Z" fill="#E6E6E6"/>
<path d="M108.196 165.165H100.43V172.931H108.196V165.165Z" fill="#FAFAFA"/>
<path d="M123.233 165.165H115.467V172.931H123.233V165.165Z" fill="#E6E6E6"/>
<path d="M127.116 180.873H66.451V231.781H127.116V180.873Z" fill="#E6E6E6"/>
<path d="M78.1 187.209H70.334V194.975H78.1V187.209Z" fill="#FAFAFA"/>
<path d="M93.1481 187.209H85.3821V194.975H93.1481V187.209Z" fill="#FAFAFA"/>
<path d="M108.196 187.209H100.43V194.975H108.196V187.209Z" fill="#FAFAFA"/>
<path d="M123.233 187.209H115.467V194.975H123.233V187.209Z" fill="#FAFAFA"/>
<path d="M78.1 201.322H70.334V209.088H78.1V201.322Z" fill="#FAFAFA"/>
<path d="M93.1481 201.322H85.3821V209.088H93.1481V201.322Z" fill="#FAFAFA"/>
<path d="M108.196 201.322H100.43V209.088H108.196V201.322Z" fill="#FAFAFA"/>
<path d="M123.233 201.322H115.467V209.088H123.233V201.322Z" fill="#E6E6E6"/>
<path d="M78.1 215.435H70.334V223.201H78.1V215.435Z" fill="#E6E6E6"/>
<path d="M93.1481 215.435H85.3821V223.201H93.1481V215.435Z" fill="#E6E6E6"/>
<path d="M108.196 215.435H100.43V223.201H108.196V215.435Z" fill="#FAFAFA"/>
<path d="M123.233 215.435H115.467V223.201H123.233V215.435Z" fill="#E6E6E6"/>
<path d="M127.116 231.132H66.451V282.04H127.116V231.132Z" fill="#E6E6E6"/>
<path d="M78.1 237.479H70.334V245.245H78.1V237.479Z" fill="#FAFAFA"/>
<path d="M93.1481 237.479H85.3821V245.245H93.1481V237.479Z" fill="#FAFAFA"/>
<path d="M108.196 237.479H100.43V245.245H108.196V237.479Z" fill="#FAFAFA"/>
<path d="M123.233 237.479H115.467V245.245H123.233V237.479Z" fill="#FAFAFA"/>
<path d="M78.1 251.592H70.334V259.358H78.1V251.592Z" fill="#FAFAFA"/>
<path d="M93.1481 251.592H85.3821V259.358H93.1481V251.592Z" fill="#FAFAFA"/>
<path d="M108.196 251.592H100.43V259.358H108.196V251.592Z" fill="#FAFAFA"/>
<path d="M123.233 251.592H115.467V259.358H123.233V251.592Z" fill="#E6E6E6"/>
<path d="M78.1 265.705H70.334V273.471H78.1V265.705Z" fill="#E6E6E6"/>
<path d="M93.1481 265.705H85.3821V273.471H93.1481V265.705Z" fill="#E6E6E6"/>
<path d="M108.196 265.705H100.43V273.471H108.196V265.705Z" fill="#FAFAFA"/>
<path d="M123.233 265.705H115.467V273.471H123.233V265.705Z" fill="#E6E6E6"/>
<path opacity="0.1" d="M137.896 18.0068H59.521V283.888H137.896V18.0068Z" fill="white"/>
<g opacity="0.3">
<path d="M131.12 18.0068H106.128L78.793 283.888H103.774L131.12 18.0068Z" fill="white"/>
</g>
<path d="M139.601 14.6406H59.9061V21.3836H139.601V14.6406Z" fill="#E0E0E0"/>
<path d="M139.601 281.567H59.9061V288.31H139.601V281.567Z" fill="#EBEBEB"/>
<path d="M142.692 294.063H56.298V8.06299H142.692V294.063ZM62.887 287.463H136.103V14.663H62.887V287.463Z" fill="#EBEBEB"/>
<path d="M260.007 329.571L259.127 329.681C259.127 329.23 253.726 284.482 264.759 247.918C275.759 211.618 268.169 188.408 268.059 188.188L268.906 187.902C268.983 188.133 276.606 211.563 265.606 248.171C254.628 284.559 259.952 329.131 260.007 329.571Z" fill="#E0E0E0"/>
<path d="M269.665 193.171C267.744 190.883 265.136 189.275 262.229 188.584L262.438 187.715C265.531 188.45 268.305 190.163 270.347 192.599L269.665 193.171Z" fill="#E0E0E0"/>
<path d="M273.443 196.87L270.906 198.304L271.344 199.08L273.882 197.646L273.443 196.87Z" fill="#E0E0E0"/>
<path d="M268.708 217.503C266.494 212.458 262.397 208.479 257.29 206.415L257.62 205.601C262.932 207.753 267.194 211.893 269.5 217.14L268.708 217.503Z" fill="#E0E0E0"/>
<path d="M266.332 245.454H265.441C265.412 243.654 264.984 241.884 264.189 240.269C263.394 238.654 262.251 237.235 260.843 236.115L261.393 235.422C262.905 236.626 264.133 238.15 264.987 239.884C265.84 241.619 266.3 243.521 266.332 245.454Z" fill="#E0E0E0"/>
<path d="M264.352 252.604L263.516 252.285C263.973 251.151 264.657 250.122 265.528 249.263C266.398 248.404 267.436 247.733 268.576 247.291L268.884 248.127C267.861 248.521 266.931 249.122 266.151 249.893C265.371 250.663 264.759 251.586 264.352 252.604Z" fill="#E0E0E0"/>
<path d="M258.599 297.957L257.906 297.396C259.006 296.087 259.809 291.126 260.249 288.464C260.348 287.826 260.436 287.287 260.513 286.891L261.393 287.056C261.316 287.441 261.228 287.98 261.118 288.607C260.469 292.6 259.732 296.582 258.599 297.957Z" fill="#E0E0E0"/>
<path d="M258.082 312.202C257.463 310.459 256.31 308.955 254.788 307.905C253.265 306.854 251.45 306.31 249.601 306.35V305.459C251.646 305.41 253.654 306.009 255.337 307.171C257.021 308.333 258.293 309.998 258.973 311.927L258.082 312.202Z" fill="#E0E0E0"/>
<path d="M264.866 321.508L258.605 328.512L259.27 329.105L265.53 322.101L264.866 321.508Z" fill="#E0E0E0"/>
<path d="M269.291 275.825C270.71 280.412 260.821 289.157 260.821 289.157C260.821 289.157 247.72 287.518 246.301 282.92C244.882 278.322 248.204 270.82 254.551 268.862C260.898 266.904 267.872 271.238 269.291 275.825Z" fill="#F0F0F0"/>
<path d="M280.269 220.121C279.015 224.994 269.643 228.459 269.643 228.459C269.643 228.459 263.109 220.902 264.363 216.029C265.617 211.156 270.798 205.777 275.187 206.91C279.576 208.043 281.523 215.248 280.269 220.121Z" fill="#EBEBEB"/>
<path d="M242.682 292.963C248.556 295.262 252.164 305.657 252.164 305.657C252.164 305.657 242.473 310.882 236.588 308.594C230.703 306.306 224.488 299.794 226.16 295.537C227.832 291.28 236.797 290.675 242.682 292.963Z" fill="#F5F5F5"/>
<path d="M255.574 235.73C256.761 236.73 258.122 237.502 259.589 238.007C260.329 238.243 261.119 238.274 261.874 238.096C262.63 237.918 263.323 237.537 263.879 236.995C265.144 235.543 264.803 233.299 264.011 231.55C262.438 228.085 256.641 222.211 252.186 223.85C245.762 226.325 252.703 233.607 255.574 235.73Z" fill="#E6E6E6"/>
<path d="M268.73 244.563C267.883 245.608 266.992 246.917 267.454 248.182C267.715 248.719 268.148 249.153 268.684 249.416C269.22 249.679 269.828 249.755 270.413 249.634C271.576 249.363 272.662 248.832 273.592 248.083C275.858 246.499 280.511 243.199 277.541 240.108C274.571 237.017 270.501 242.352 268.73 244.563Z" fill="#EBEBEB"/>
<path d="M249.7 200.563C249.212 200.589 248.744 200.769 248.364 201.077C247.985 201.385 247.713 201.806 247.588 202.279C247.39 203.379 248.325 204.391 249.227 205.084C251.427 206.822 258.247 211.508 259.765 206.987C261.239 202.719 252.736 200.2 249.7 200.563Z" fill="#E0E0E0"/>
<path d="M262.229 185.691C260.832 185.823 259.435 185.317 258.038 185.405C256.641 185.493 255.079 186.615 255.398 187.99C255.717 189.365 257.257 189.673 258.544 189.761C260.755 189.893 262.973 189.738 265.144 189.299C265.659 189.251 266.138 189.011 266.486 188.628C267.047 187.792 266.145 186.67 265.177 186.428C264.18 186.3 263.199 186.068 262.251 185.735L262.229 185.691Z" fill="#E6E6E6"/>
<path d="M275.88 195.305C277.288 195.305 278.641 194.744 280.049 194.744C281.457 194.744 283.074 195.756 282.854 197.142C282.634 198.528 281.105 198.957 279.818 199.122C277.628 199.413 275.408 199.413 273.218 199.122C272.699 199.111 272.203 198.902 271.832 198.539C271.216 197.736 272.041 196.57 272.932 196.207C273.922 196.015 274.888 195.717 275.814 195.316L275.88 195.305Z" fill="#F0F0F0"/>
<path d="M274.505 298.661C274.818 298.329 275.239 298.118 275.693 298.067C275.993 298.102 276.272 298.235 276.488 298.446C276.703 298.657 276.841 298.934 276.881 299.233C276.945 299.833 276.87 300.439 276.661 301.004C275.704 304.183 265.034 327.228 262.57 323.092C261.118 320.639 264.693 312.543 265.749 310.244C267.78 305.786 270.77 301.831 274.505 298.661Z" fill="#F0F0F0"/>
<path d="M268.114 186.56C268.801 184.586 269.987 182.824 271.557 181.445C273.251 180.224 275.957 180.136 277.167 181.819C278.542 183.7 277.167 186.56 275.066 187.561C272.965 188.562 270.512 188.254 268.202 187.935C268.202 187.594 268.202 187.253 268.202 186.912L268.114 186.56Z" fill="#E6E6E6"/>
<path d="M275.572 360.305C264.141 362.252 252.463 362.252 241.032 360.305L227.601 320.705H289.014L275.572 360.305Z" fill="#F0F0F0"/>
<path d="M484.627 148.731C484.391 148.697 484.158 148.638 483.934 148.555C479.413 147.059 472.549 139.997 466.697 130.405C460.845 120.813 457.754 111.43 458.513 106.711C458.6 105.905 458.917 105.142 459.426 104.511C459.447 104.474 459.473 104.441 459.503 104.412C459.66 104.222 459.85 104.062 460.064 103.939C460.291 103.804 460.535 103.701 460.79 103.631C461.581 103.468 462.402 103.537 463.155 103.829C464.133 104.152 465.062 104.608 465.916 105.182C466.554 105.6 467.225 106.095 467.918 106.656C468.303 106.975 468.71 107.316 469.117 107.679C477.894 116.28 484.379 126.94 487.982 138.688C488.114 139.216 488.235 139.788 488.345 140.261C488.54 141.138 488.676 142.028 488.752 142.923C488.859 143.928 488.822 144.943 488.642 145.937C488.531 146.772 488.144 147.547 487.542 148.137C487.419 148.284 487.27 148.407 487.102 148.5C486.952 148.594 486.789 148.664 486.618 148.709C485.97 148.905 485.279 148.912 484.627 148.731Z" fill="#EBEBEB"/>
<path d="M484.627 148.731L484.253 148.126L471.614 127.325C471.284 126.764 470.943 126.225 470.635 125.697L458.832 106.282C458.91 105.665 459.112 105.07 459.426 104.533C459.535 104.341 459.668 104.164 459.822 104.005L461.109 103.224L464.97 100.881L466.73 103.741L467.038 104.258L468.237 106.249L469.117 107.701L487.982 138.71L488.664 139.81L489.984 142.01L490.292 142.516L492.052 145.387L487.575 148.104L486.651 148.676C485.996 148.889 485.293 148.908 484.627 148.731Z" fill="#EBEBEB"/>
<path d="M464.981 100.859C461.175 103.18 464.134 115.027 471.581 127.325C479.028 139.623 488.202 147.719 492.008 145.409C495.814 143.099 492.855 131.241 485.408 118.943C477.961 106.645 468.787 98.5493 464.981 100.859Z" fill="#EBEBEB"/>
<path d="M464.981 100.859C461.175 103.18 464.134 115.027 471.581 127.325C479.028 139.623 488.202 147.719 492.008 145.409C495.814 143.099 492.855 131.241 485.408 118.943C477.961 106.645 468.787 98.5493 464.981 100.859Z" fill="#FAFAFA"/>
<path d="M466.972 103.532C466.73 103.672 466.54 103.889 466.433 104.148C469.601 104.148 476.245 111.188 482.152 120.912C488.059 130.636 491.26 139.81 489.786 142.604C490.064 142.617 490.339 142.548 490.578 142.406C493.163 140.844 490.017 130.845 483.494 120.109C476.971 109.373 469.546 101.959 466.972 103.532Z" fill="#EBEBEB"/>
<path opacity="0.4" d="M466.972 103.532C466.73 103.672 466.54 103.889 466.433 104.148C469.601 104.148 476.245 111.188 482.152 120.912C488.059 130.636 491.26 139.81 489.786 142.604C490.064 142.617 490.339 142.548 490.578 142.406C493.163 140.844 490.017 130.845 483.494 120.109C476.971 109.373 469.546 101.959 466.972 103.532Z" fill="#EBEBEB"/>
<path d="M419.1 41.9537C419.046 42.109 418.98 42.2598 418.902 42.4047C417.351 45.2757 411.752 49.0817 404.602 51.8867C397.452 54.6917 390.698 55.6707 387.596 54.5927C387.068 54.4333 386.595 54.1283 386.232 53.7127C386.207 53.6968 386.188 53.6738 386.177 53.6467C386.068 53.5157 385.982 53.3669 385.924 53.2067C385.863 53.0361 385.822 52.8589 385.803 52.6787C385.792 52.1254 385.936 51.5802 386.221 51.1057C386.553 50.4813 386.971 49.9072 387.464 49.4007C387.855 48.9841 388.27 48.5911 388.707 48.2237C388.96 48.0037 389.246 47.7727 389.543 47.5417C392.932 45.0395 396.653 43.0218 400.598 41.5467C404.485 39.9617 408.578 38.9359 412.753 38.4997L413.853 38.4337C414.468 38.3938 415.086 38.3938 415.701 38.4337C416.394 38.4804 417.076 38.6286 417.725 38.8737C418.271 39.0428 418.747 39.3868 419.078 39.8527C419.16 39.9544 419.224 40.0698 419.265 40.1937C419.308 40.3067 419.334 40.4253 419.342 40.5457C419.411 41.0288 419.326 41.5212 419.1 41.9537Z" fill="#EBEBEB"/>
<path d="M419.1 41.954L418.649 42.141L403.073 48.202L401.852 48.664L387.31 54.329C386.907 54.2011 386.534 53.9956 386.21 53.724C386.096 53.6248 385.993 53.5143 385.902 53.394L385.528 52.426L384.428 49.533L386.573 48.686L386.958 48.543L388.454 47.971L389.554 47.553L412.753 38.5L413.611 38.17L415.25 37.532L415.624 37.389L417.824 36.542L419.1 39.886L419.364 40.579C419.419 41.0535 419.327 41.5335 419.1 41.954Z" fill="#EBEBEB"/>
<path d="M384.417 49.4998C385.517 52.3488 393.899 51.6998 403.117 48.1798C412.335 44.6598 418.891 39.3798 417.78 36.5198C416.669 33.6598 408.309 34.2538 399.08 37.8398C389.851 41.4258 383.306 46.6618 384.417 49.4998Z" fill="#EBEBEB"/>
<path d="M384.417 49.4998C385.517 52.3488 393.899 51.6998 403.117 48.1798C412.335 44.6598 418.891 39.3798 417.78 36.5198C416.669 33.6598 408.309 34.2538 399.08 37.8398C389.851 41.4258 383.306 46.6618 384.417 49.4998Z" fill="#FAFAFA"/>
<path d="M386.463 48.4991C386.532 48.6755 386.656 48.8256 386.815 48.9281C387.2 46.7941 392.744 43.1311 400.015 40.3041C407.286 37.4771 413.886 36.3991 415.591 37.7301C415.651 37.548 415.651 37.3512 415.591 37.1691C414.843 35.2331 407.704 36.1681 399.663 39.3031C391.622 42.4381 385.715 46.5631 386.463 48.4991Z" fill="#EBEBEB"/>
<path opacity="0.4" d="M386.463 48.4991C386.532 48.6755 386.656 48.8256 386.815 48.9281C387.2 46.7941 392.744 43.1311 400.015 40.3041C407.286 37.4771 413.886 36.3991 415.591 37.7301C415.651 37.548 415.651 37.3512 415.591 37.1691C414.843 35.2331 407.704 36.1681 399.663 39.3031C391.622 42.4381 385.715 46.5631 386.463 48.4991Z" fill="#EBEBEB"/>
<path d="M386.815 48.9279C388.542 50.2589 395.109 49.2029 402.402 46.3649C409.695 43.5269 415.25 39.8639 415.602 37.7299C413.897 36.3989 407.341 37.4549 400.026 40.3039C392.711 43.1529 387.2 46.7939 386.815 48.9279Z" fill="#FAFAFA"/>
<path d="M420.409 193.776C417.832 189.422 416.604 184.402 416.879 179.35C417.155 174.298 418.923 169.441 421.958 165.393C424.994 161.345 429.162 158.289 433.934 156.609C438.707 154.929 443.87 154.703 448.772 155.957C453.673 157.212 458.093 159.892 461.472 163.658C464.851 167.423 467.037 172.107 467.755 177.115C468.472 182.124 467.689 187.232 465.504 191.796C463.318 196.359 459.829 200.172 455.477 202.752C449.636 206.212 442.661 207.21 436.084 205.527C429.508 203.843 423.869 199.617 420.409 193.776Z" fill="#EBEBEB"/>
<path d="M417.769 195.349C415.189 190.996 413.958 185.975 414.231 180.922C414.504 175.869 416.27 171.011 419.304 166.961C422.339 162.912 426.506 159.853 431.279 158.172C436.052 156.49 441.216 156.262 446.119 157.516C451.021 158.77 455.442 161.449 458.822 165.215C462.202 168.981 464.389 173.665 465.107 178.674C465.825 183.683 465.041 188.793 462.855 193.357C460.669 197.921 457.179 201.734 452.826 204.314C446.988 207.771 440.015 208.769 433.442 207.088C426.868 205.407 421.231 201.185 417.769 195.349Z" fill="#EBEBEB"/>
<path d="M417.769 195.349C415.189 190.996 413.958 185.975 414.231 180.922C414.504 175.869 416.27 171.011 419.304 166.961C422.339 162.912 426.506 159.853 431.279 158.172C436.052 156.49 441.216 156.262 446.119 157.516C451.021 158.77 455.442 161.449 458.822 165.215C462.202 168.981 464.389 173.665 465.107 178.674C465.825 183.683 465.041 188.793 462.855 193.357C460.669 197.921 457.179 201.734 452.826 204.314C446.988 207.771 440.015 208.769 433.442 207.088C426.868 205.407 421.231 201.185 417.769 195.349Z" fill="#FAFAFA"/>
<path d="M449.537 198.781C448.927 199.15 448.291 199.473 447.634 199.749C443.104 201.742 437.976 201.889 433.339 200.159C428.702 198.43 424.923 194.961 422.804 190.488C420.685 186.016 420.394 180.894 421.992 176.21C423.59 171.527 426.952 167.651 431.363 165.408C435.774 163.164 440.886 162.729 445.613 164.195C450.339 165.661 454.308 168.913 456.674 173.259C459.041 177.605 459.62 182.703 458.287 187.469C456.954 192.235 453.815 196.293 449.537 198.781Z" fill="#EBEBEB"/>
<path d="M431.267 176.154L433.989 175.096C434.019 175.086 434.051 175.084 434.083 175.089C434.114 175.095 434.144 175.107 434.169 175.127L440.156 179.788L443.825 178.363L441.503 172.388C441.493 172.364 441.488 172.339 441.488 172.314C441.488 172.288 441.493 172.263 441.503 172.239C441.513 172.216 441.528 172.194 441.546 172.177C441.564 172.159 441.586 172.145 441.609 172.135L444.128 171.157C444.175 171.138 444.228 171.139 444.275 171.16C444.322 171.181 444.358 171.219 444.377 171.266L446.698 177.241L448.301 176.619C448.349 176.6 448.402 176.601 448.448 176.622C448.495 176.642 448.532 176.681 448.55 176.728L449.178 178.344C449.196 178.392 449.195 178.445 449.175 178.491C449.154 178.538 449.116 178.575 449.068 178.593L447.465 179.216L447.998 180.587L449.601 179.965C449.648 179.946 449.701 179.947 449.748 179.967C449.794 179.988 449.831 180.026 449.85 180.073L450.476 181.686C450.494 181.733 450.493 181.786 450.472 181.832C450.452 181.879 450.413 181.915 450.366 181.933L448.763 182.556L451.198 188.823C451.216 188.87 451.215 188.923 451.195 188.97C451.174 189.017 451.136 189.053 451.088 189.072L448.57 190.05C448.54 190.06 448.508 190.062 448.476 190.057C448.445 190.051 448.416 190.039 448.39 190.019L442.22 185.099L438.614 186.499L441.049 192.766C441.065 192.814 441.062 192.866 441.041 192.911C441.019 192.957 440.98 192.992 440.932 193.009L438.225 194.061C438.177 194.08 438.124 194.078 438.077 194.058C438.031 194.037 437.994 193.999 437.976 193.952L435.544 187.692L433.941 188.315C433.894 188.332 433.842 188.329 433.797 188.309C433.752 188.288 433.717 188.251 433.698 188.205L433.071 186.592C433.053 186.544 433.055 186.492 433.076 186.445C433.096 186.399 433.134 186.363 433.182 186.344L434.785 185.721L434.252 184.35L432.649 184.973C432.625 184.982 432.6 184.986 432.575 184.986C432.55 184.985 432.525 184.98 432.502 184.97C432.455 184.949 432.418 184.911 432.4 184.863L431.774 183.251C431.755 183.204 431.756 183.151 431.777 183.104C431.797 183.058 431.836 183.021 431.883 183.003L433.486 182.38L431.165 176.405C431.145 176.358 431.145 176.305 431.164 176.258C431.183 176.211 431.22 176.174 431.267 176.154V176.154ZM437.317 183.159L437.849 184.531L440.327 183.568L439.153 182.446L437.317 183.159ZM443.204 182.45L445.123 181.705L444.59 180.333L442.041 181.324L443.204 182.45ZM445.888 183.673L445.117 183.973L446.511 185.276L445.888 183.673ZM436.013 179.804L436.551 181.189L437.217 180.93L436.013 179.804Z" fill="white"/>
<path d="M471.9 54.3292C476.3 63.2392 470.987 74.8002 460.097 80.1572C449.207 85.5142 436.821 82.6322 432.432 73.7112C428.043 64.7902 433.345 53.2402 444.235 47.8832C455.125 42.5262 467.5 45.4192 471.9 54.3292Z" fill="#EBEBEB"/>
<path d="M470.151 50.7762C474.551 59.6972 469.249 71.2582 458.348 76.6152C447.447 81.9722 435.072 79.0792 430.694 70.1692C426.316 61.2592 431.596 49.6872 442.497 44.3412C453.398 38.9952 465.773 41.8662 470.151 50.7762Z" fill="#EBEBEB"/>
<path d="M470.151 50.7762C474.551 59.6972 469.249 71.2582 458.348 76.6152C447.447 81.9722 435.072 79.0792 430.694 70.1692C426.316 61.2592 431.596 49.6872 442.497 44.3412C453.398 38.9952 465.773 41.8662 470.151 50.7762Z" fill="#FAFAFA"/>
<path d="M465.069 52.921C465.278 53.35 465.454 53.7899 465.619 54.1969C465.619 54.1969 465.619 54.2629 465.619 54.2959C467.764 60.7859 463.782 68.5959 456.192 72.2809C448.602 75.9659 440.011 74.4809 436.172 68.761C436.172 68.761 436.172 68.6839 436.117 68.6619C435.897 68.2879 435.655 67.8809 435.446 67.4519C432.146 60.7859 436.139 52.0519 444.312 48.0809C452.485 44.1099 461.791 46.255 465.069 52.921Z" fill="#EBEBEB"/>
<path d="M456.17 66.517C454.883 69.817 451.605 70.917 447.689 69.322L446.127 71.83L443.872 70.73L445.423 68.211C443.576 67.0957 442.042 65.5285 440.968 63.657L443.674 61.314C444.517 62.9123 445.755 64.268 447.271 65.252L449.669 61.391C447.843 59.631 445.885 57.541 447.051 54.505C448.338 51.205 451.671 50.105 455.642 51.777L457.204 49.269L459.459 50.369L457.897 52.91C459.35 53.8001 460.584 55.0072 461.505 56.441L458.931 58.85C458.22 57.6395 457.237 56.6113 456.06 55.847L453.563 59.873C455.4 61.6 457.281 63.635 456.17 66.517ZM451.693 58.091L453.739 54.791C452.342 54.417 451.319 54.791 450.923 55.77C450.527 56.749 451 57.299 451.693 58.091ZM452.254 65.329C452.362 64.9305 452.35 64.5089 452.219 64.1174C452.088 63.7258 451.843 63.3819 451.517 63.129L449.592 66.253C450.912 66.627 451.891 66.275 452.254 65.329Z" fill="#FAFAFA"/>
<path d="M358.083 52.173C353.837 63.173 337.953 65.912 323.246 56.705C308.539 47.498 304.007 31.9 311.916 23.287C318.747 15.818 332.75 16.17 343.992 23.21C355.234 30.25 361.746 42.724 358.083 52.173Z" fill="#EBEBEB"/>
<path d="M359.601 48.2571C355.608 58.5641 340.351 60.9511 326.128 52.0521C311.905 43.1531 307.307 28.3361 314.754 20.1521C321.211 13.0791 334.73 13.5521 345.697 20.4381C356.664 27.3241 363.066 39.3141 359.601 48.2571Z" fill="#EBEBEB"/>
<path d="M359.601 48.2571C355.608 58.5641 340.351 60.9511 326.128 52.0521C311.905 43.1531 307.307 28.3361 314.754 20.1521C321.211 13.0791 334.73 13.5521 345.697 20.4381C356.664 27.3241 363.066 39.3141 359.601 48.2571Z" fill="#FAFAFA"/>
<path d="M354.123 44.4399C353.925 44.8728 353.705 45.295 353.463 45.7049C353.463 45.7049 353.463 45.7709 353.463 45.8039C349.437 51.9639 338.987 52.7339 329.461 46.7829C319.935 40.8319 315.975 31.0309 319.704 24.6729C319.704 24.6729 319.792 24.6729 319.77 24.5849C320.032 24.2031 320.315 23.8359 320.617 23.4849C325.215 17.9849 335.5 18.1389 343.948 23.4849C352.396 28.8309 357.027 37.8399 354.123 44.4399Z" fill="#EBEBEB"/>
<path d="M327.188 31.805L329.708 30.3292C329.737 30.3147 329.768 30.3073 329.8 30.3076C329.832 30.3079 329.863 30.316 329.891 30.3311L336.541 33.9845L339.937 31.9959L336.698 26.4644C336.685 26.4427 336.676 26.4186 336.672 26.3934C336.668 26.3682 336.669 26.3424 336.675 26.3176C336.681 26.2928 336.692 26.2695 336.707 26.249C336.722 26.2284 336.741 26.2111 336.763 26.1981L339.094 24.8329C339.139 24.8071 339.191 24.7999 339.24 24.8127C339.29 24.8256 339.332 24.8576 339.358 24.9016L342.597 30.4331L344.081 29.5641C344.125 29.5383 344.177 29.5311 344.227 29.544C344.276 29.5569 344.318 29.5889 344.344 29.6329L345.22 31.1291C345.246 31.1731 345.253 31.2255 345.24 31.2749C345.227 31.3242 345.195 31.3664 345.151 31.3922L343.667 32.2612L344.411 33.5308L345.895 32.6617C345.939 32.6361 345.991 32.6288 346.04 32.6414C346.089 32.6541 346.131 32.6856 346.157 32.7292L347.032 34.2227C347.057 34.2667 347.064 34.3189 347.051 34.3679C347.038 34.4169 347.006 34.4588 346.962 34.4844L345.478 35.3535L348.875 41.1548C348.901 41.1989 348.908 41.2513 348.895 41.3006C348.882 41.35 348.851 41.3922 348.807 41.418L346.475 42.7832C346.447 42.7977 346.416 42.8051 346.384 42.8048C346.352 42.8044 346.321 42.7963 346.293 42.7812L339.42 38.9008L336.083 40.8554L339.48 46.6567C339.504 46.7013 339.509 46.7534 339.494 46.8018C339.48 46.8502 339.447 46.891 339.403 46.9155L336.896 48.3834C336.852 48.4091 336.8 48.4164 336.751 48.4035C336.701 48.3906 336.659 48.3586 336.633 48.3146L333.24 42.52L331.756 43.389C331.712 43.4127 331.661 43.4186 331.613 43.4055C331.565 43.3923 331.524 43.3611 331.499 43.3185L330.624 41.8249C330.599 41.781 330.592 41.7288 330.605 41.6797C330.618 41.6307 330.65 41.5888 330.694 41.5632L332.178 40.6941L331.435 39.4246L329.95 40.2936C329.929 40.3064 329.905 40.3147 329.88 40.3182C329.855 40.3216 329.829 40.3201 329.805 40.3137C329.755 40.3008 329.713 40.2689 329.687 40.2248L328.814 38.7327C328.788 38.6887 328.781 38.6362 328.793 38.5869C328.806 38.5375 328.838 38.4953 328.882 38.4696L330.366 37.6005L327.127 32.069C327.101 32.0259 327.092 31.9739 327.103 31.9244C327.115 31.875 327.145 31.832 327.188 31.805V31.805ZM334.272 37.7631L335.015 39.0327L337.309 37.6896L335.972 36.7677L334.272 37.7631ZM339.972 36.13L341.749 35.0896L341.005 33.82L338.646 35.2018L339.972 36.13ZM342.816 36.9123L342.103 37.3302L343.685 38.3963L342.816 36.9123ZM332.453 34.6574L333.204 35.9391L333.82 35.578L332.453 34.6574Z" fill="white"/>
<path d="M275 409.211C392.791 409.211 488.279 403.636 488.279 396.759C488.279 389.882 392.791 384.307 275 384.307C157.209 384.307 61.7211 389.882 61.7211 396.759C61.7211 403.636 157.209 409.211 275 409.211Z" fill="#F5F5F5"/>
<path d="M251.174 396.891C250.707 396.893 250.244 396.802 249.813 396.624C249.381 396.446 248.989 396.184 248.659 395.854C248.328 395.524 248.067 395.131 247.889 394.7C247.711 394.268 247.62 393.805 247.621 393.338V389.785H254.727V393.338C254.727 394.28 254.353 395.184 253.686 395.85C253.02 396.517 252.116 396.891 251.174 396.891Z" fill="#263238"/>
<path d="M376.508 396.891C376.042 396.891 375.58 396.799 375.148 396.621C374.717 396.442 374.326 396.18 373.996 395.85C373.666 395.521 373.404 395.129 373.226 394.698C373.047 394.267 372.955 393.805 372.955 393.338V389.785H380.061V393.338C380.063 393.805 379.972 394.268 379.794 394.7C379.616 395.131 379.354 395.524 379.024 395.854C378.693 396.184 378.301 396.446 377.869 396.624C377.438 396.802 376.975 396.893 376.508 396.891Z" fill="#263238"/>
<path d="M441.232 396.891C440.766 396.891 440.304 396.799 439.873 396.621C439.441 396.442 439.05 396.18 438.72 395.85C438.39 395.521 438.128 395.129 437.95 394.698C437.771 394.267 437.679 393.805 437.679 393.338V389.785H444.785V393.338C444.787 393.805 444.696 394.268 444.518 394.7C444.34 395.131 444.078 395.524 443.748 395.854C443.418 396.184 443.025 396.446 442.594 396.624C442.162 396.802 441.699 396.893 441.232 396.891Z" fill="#263238"/>
<path d="M446.457 348.557H241.395V392.854H446.457V348.557Z" fill="#EB5757"/>
<path opacity="0.3" d="M446.457 348.557H241.395V392.854H446.457V348.557Z" fill="white"/>
<path opacity="0.2" d="M446.259 348.557H382.723V392.865H446.259V348.557Z" fill="black"/>
<path d="M459.085 238.304L449.031 328.735C448.36 335.082 442.068 339.988 434.445 340.208C434.262 340.219 434.078 340.219 433.895 340.208H307.142C298.232 340.208 291.225 333.872 292.006 326.524L302.049 236.093C302.731 229.592 309.309 224.598 317.196 224.598H444.532C453.2 224.906 459.8 231.11 459.085 238.304Z" fill="#EB5757"/>
<path opacity="0.5" d="M459.085 238.304L449.031 328.735C448.36 335.082 442.068 339.988 434.445 340.208C434.262 340.219 434.078 340.219 433.895 340.208H307.142C298.232 340.208 291.225 333.872 292.006 326.524L302.049 236.093C302.731 229.592 309.309 224.598 317.196 224.598H444.532C453.2 224.906 459.8 231.11 459.085 238.304Z" fill="white"/>
<path d="M466.048 238.304L455.994 328.735C455.323 335.082 449.042 339.988 441.408 340.208C432.784 339.944 426.107 333.729 426.866 326.546L436.909 236.115C437.58 229.768 443.861 224.862 451.495 224.631C460.13 224.906 466.807 231.11 466.048 238.304Z" fill="#EB5757"/>
<path opacity="0.3" d="M466.048 238.304L455.994 328.735C455.323 335.082 449.042 339.988 441.408 340.208C432.784 339.944 426.107 333.729 426.866 326.546L436.909 236.115C437.58 229.768 443.861 224.862 451.495 224.631C460.13 224.906 466.807 231.11 466.048 238.304Z" fill="white"/>
<path d="M440.649 315.645H352.407C343.543 315.645 336.358 322.83 336.358 331.694V341.99C336.358 350.854 343.543 358.039 352.407 358.039H440.649C449.513 358.039 456.698 350.854 456.698 341.99V331.694C456.698 322.83 449.513 315.645 440.649 315.645Z" fill="#EB5757"/>
<path opacity="0.3" d="M440.649 315.645H352.407C343.543 315.645 336.358 322.83 336.358 331.694V341.99C336.358 350.854 343.543 358.039 352.407 358.039H440.649C449.513 358.039 456.698 350.854 456.698 341.99V331.694C456.698 322.83 449.513 315.645 440.649 315.645Z" fill="white"/>
<path d="M383.834 315.645H246.477C237.796 315.645 230.758 322.683 230.758 331.364V342.32C230.758 351.001 237.796 358.039 246.477 358.039H383.834C392.515 358.039 399.553 351.001 399.553 342.32V331.364C399.553 322.683 392.515 315.645 383.834 315.645Z" fill="#EB5757"/>
<path opacity="0.6" d="M383.834 315.645H246.477C237.796 315.645 230.758 322.683 230.758 331.364V342.32C230.758 351.001 237.796 358.039 246.477 358.039H383.834C392.515 358.039 399.553 351.001 399.553 342.32V331.364C399.553 322.683 392.515 315.645 383.834 315.645Z" fill="white"/>
<path d="M261.47 361.009L254.144 384.505L245.707 383.955L251.889 352.946L261.47 361.009Z" fill="#FF8B7B"/>
<path d="M350.185 270.71C350.185 270.71 334.785 270.182 323.499 266.75C323.499 266.75 318.791 276.485 315.051 280.071L313.555 281.501C313.555 281.501 269.368 270.754 263.329 284.647C258.17 296.494 244.739 374.363 244.739 374.363H259.776C259.776 374.363 270.347 341.484 280.258 317.163C280.786 315.876 282.612 309.034 282.612 309.034C300.708 316.842 320.346 320.416 340.032 319.484C344.432 319.275 351.032 310.09 351.12 295.812C351.229 287.435 350.917 279.057 350.185 270.71Z" fill="#263238"/>
<path opacity="0.2" d="M316.976 311.3C304.623 305.547 287.606 290.125 279.708 284.361C277.871 282.972 275.778 281.958 273.548 281.38C280.511 280.005 289.388 280.28 297.011 280.94L314.996 289.3L343.882 302.797L347.292 313.148C345.939 318.648 342.441 319.407 339.317 319.561C327.159 320.045 314.992 318.875 303.149 316.085C304.59 316.206 328.9 316.8 316.976 311.3Z" fill="black"/>
<path d="M229.658 321.64L213.785 337.117L207.834 332.233L220.165 314.391L229.658 321.64Z" fill="#FF8B7B"/>
<path d="M209 330.099L215.919 335.599C216.067 335.714 216.17 335.877 216.212 336.059C216.255 336.241 216.233 336.432 216.15 336.6L212.454 344.212C212.297 344.537 212.019 344.787 211.679 344.908C211.34 345.03 210.966 345.013 210.639 344.861L210.386 344.707C207.559 342.386 205.139 340.197 201.586 337.37C197.362 334.07 198.033 335.379 193.028 331.518C190.003 329.186 192.159 325.358 193.556 326.194C199.925 330.066 202.95 329.604 206.833 329.307C207.627 329.302 208.397 329.583 209 330.099Z" fill="#263238"/>
<path d="M206.173 329.769C206.201 329.787 206.233 329.796 206.267 329.796C206.3 329.796 206.332 329.787 206.36 329.769C206.381 329.741 206.393 329.706 206.393 329.67C206.393 329.634 206.381 329.6 206.36 329.571C206.228 329.23 204.875 326.194 203.863 326.007C203.766 325.991 203.666 325.999 203.572 326.029C203.478 326.06 203.393 326.113 203.324 326.183C203.213 326.299 203.129 326.438 203.078 326.59C203.027 326.742 203.009 326.904 203.027 327.063C203.192 328.163 205.029 329.263 206.107 329.802L206.173 329.769ZM203.896 326.326C204.457 326.524 205.304 328.02 205.865 329.197C204.413 328.383 203.511 327.558 203.423 326.997C203.402 326.893 203.409 326.785 203.444 326.684C203.479 326.583 203.54 326.494 203.621 326.425C203.646 326.395 203.678 326.372 203.715 326.358C203.752 326.345 203.792 326.341 203.83 326.348L203.896 326.326Z" fill="#EB5757"/>
<path d="M206.173 329.77C206.205 329.774 206.238 329.77 206.267 329.756C206.296 329.742 206.321 329.72 206.338 329.693C206.967 328.838 207.309 327.806 207.317 326.745C207.284 326.573 207.218 326.41 207.121 326.265C207.025 326.12 206.901 325.995 206.756 325.898C206.639 325.799 206.491 325.745 206.338 325.745C206.185 325.745 206.037 325.799 205.92 325.898C205.249 326.481 205.601 328.835 206.03 329.715C206.049 329.733 206.071 329.748 206.096 329.757C206.12 329.767 206.147 329.771 206.173 329.77ZM206.426 326.118L206.569 326.228C206.679 326.297 206.773 326.389 206.845 326.497C206.917 326.605 206.965 326.727 206.987 326.855C206.986 327.71 206.73 328.545 206.25 329.253C205.898 328.241 205.788 326.514 206.173 326.162C206.207 326.139 206.247 326.127 206.289 326.127C206.33 326.127 206.37 326.139 206.404 326.162L206.426 326.118Z" fill="#EB5757"/>
<path d="M331.914 268.521C344.087 270.616 356.506 270.864 368.753 269.258C368.753 269.258 381.447 318.098 345.18 318.043C331.771 318.043 326.304 312.356 317.68 307.043C298.056 295.042 281.996 277.519 274.318 278.443C263.252 279.84 269.269 293.051 223.718 328.845L214.5 320.562C214.5 320.562 248.974 244.783 271.7 244.783C291.357 244.783 322.3 275.055 326.458 275.154C330.616 275.253 331.914 268.521 331.914 268.521Z" fill="#263238"/>
<path opacity="0.2" d="M268.114 281.259C265.331 282.458 263.23 284.119 262.229 286.429C261.443 288.538 260.882 290.725 260.557 292.952C259.248 294.767 257.719 296.78 255.893 299.002C257.4 284.24 268.114 281.259 268.114 281.259Z" fill="black"/>
<path d="M243.1 384.296C243.118 384.264 243.124 384.226 243.119 384.189C243.114 384.153 243.098 384.118 243.072 384.092C243.047 384.065 243.013 384.047 242.977 384.04C242.94 384.033 242.903 384.038 242.869 384.054C242.506 384.175 239.294 385.429 239.052 386.474C239.031 386.574 239.035 386.678 239.064 386.776C239.093 386.874 239.145 386.963 239.217 387.035C239.324 387.164 239.462 387.263 239.618 387.325C239.773 387.386 239.942 387.408 240.108 387.387C241.208 387.277 242.462 385.418 243.1 384.329V384.296ZM239.426 386.496C239.668 385.935 241.263 385.121 242.495 384.604C241.582 386.067 240.691 386.958 240.064 387.024C239.954 387.04 239.841 387.027 239.737 386.987C239.633 386.946 239.541 386.88 239.47 386.793C239.443 386.764 239.423 386.729 239.412 386.691C239.4 386.653 239.398 386.613 239.404 386.573L239.426 386.496Z" fill="#EB5757"/>
<path d="M243.1 384.296C243.106 384.263 243.101 384.228 243.088 384.197C243.074 384.166 243.052 384.139 243.023 384.121C242.165 383.444 241.113 383.058 240.02 383.021C239.839 383.044 239.665 383.103 239.508 383.196C239.351 383.289 239.215 383.412 239.107 383.559C238.997 383.672 238.93 383.82 238.918 383.977C238.906 384.133 238.95 384.289 239.041 384.417C239.613 385.143 242.066 384.879 243.001 384.483C243.034 384.466 243.062 384.439 243.079 384.405C243.097 384.372 243.104 384.334 243.1 384.296ZM239.327 383.867L239.459 383.724C239.533 383.613 239.63 383.519 239.744 383.448C239.858 383.378 239.986 383.333 240.119 383.317C241.006 383.353 241.861 383.656 242.572 384.187C241.472 384.506 239.712 384.55 239.371 384.121C239.346 384.085 239.332 384.043 239.332 383.999C239.332 383.956 239.346 383.914 239.371 383.879L239.327 383.867Z" fill="#EB5757"/>
<path d="M245.641 382.646L254.749 381.546C254.941 381.521 255.136 381.563 255.301 381.665C255.465 381.767 255.589 381.924 255.651 382.107L258.544 390.401C258.668 390.753 258.649 391.139 258.491 391.477C258.332 391.815 258.047 392.076 257.697 392.205C257.601 392.238 257.501 392.26 257.4 392.271C253.616 392.656 250.239 392.843 245.542 393.371C240.042 394.02 241.483 394.471 234.971 395.384C231.055 395.89 229.801 391.512 231.44 391.094C238.953 389.246 240.834 386.694 243.452 383.603C244.044 383.032 244.82 382.693 245.641 382.646Z" fill="#263238"/>
<path d="M283.492 178.915C282.084 178.706 281.941 177.639 281.204 176.407C281.204 176.407 279.004 171.479 280.764 170.753C282.547 170.56 284.34 170.494 286.132 170.555C287.376 170.636 288.561 171.115 289.512 171.921C290.463 172.727 291.129 173.818 291.412 175.032C292.974 180.4 283.492 178.915 283.492 178.915Z" fill="#FF8B7B"/>
<path d="M282.249 178.2L275.924 173.349C275.693 173.173 275.5 172.952 275.355 172.7C275.209 172.448 275.116 172.17 275.079 171.881C275.042 171.593 275.063 171.3 275.14 171.019C275.217 170.739 275.349 170.477 275.528 170.247L277.123 168.212C277.428 167.819 277.857 167.541 278.341 167.423C278.824 167.305 279.333 167.355 279.785 167.563L286.132 170.511L282.249 178.2Z" fill="#FF8B7B"/>
<path d="M286.583 178.366L292.589 190.686L300.245 189.311L289.982 173.141L286.583 178.366Z" fill="#FF8B7B"/>
<path d="M335.335 205.986L331.155 220.484L312.521 214.5C300.245 211.321 286.858 183.491 286.858 183.491L295.207 180.191L314.303 202.191L335.335 205.986Z" fill="#EB5757"/>
<path d="M325.204 246.092C327.118 251.251 328.262 260.315 320.804 271.909C320.804 271.909 349.547 276.177 369.908 274.89C371.327 266.607 367.818 249.381 375.276 222.827C375.685 221.373 375.783 219.849 375.564 218.355C375.345 216.86 374.814 215.429 374.006 214.153C373.198 212.877 372.131 211.785 370.873 210.948C369.616 210.112 368.196 209.549 366.707 209.297C365.024 209.011 363.242 208.747 361.405 208.538C354.277 207.702 348.909 206.338 342.584 206.448C340.483 206.448 338.679 205.733 336.6 205.887C332.024 206.217 326.436 215.347 323.95 224.191C322.049 231.441 322.488 239.106 325.204 246.092Z" fill="#EB5757"/>
<path opacity="0.4" d="M325.204 246.092C327.118 251.251 328.262 260.315 320.804 271.909C320.804 271.909 349.547 276.177 369.908 274.89C371.327 266.607 367.818 249.381 375.276 222.827C375.685 221.373 375.783 219.849 375.564 218.355C375.345 216.86 374.814 215.429 374.006 214.153C373.198 212.877 372.131 211.785 370.873 210.948C369.616 210.112 368.196 209.549 366.707 209.297C365.024 209.011 363.242 208.747 361.405 208.538C354.277 207.702 348.909 206.338 342.584 206.448C340.483 206.448 338.679 205.733 336.6 205.887C332.024 206.217 326.436 215.347 323.95 224.191C322.049 231.441 322.488 239.106 325.204 246.092Z" fill="white"/>
<path d="M331.364 274.076C326.585 273.977 321.908 272.672 317.768 270.281C321.058 260.994 321.925 251.022 320.287 241.307C319.418 236.236 317.878 231.121 318.681 226.039C320.001 217.668 327.228 211.684 333.949 206.503C335.203 205.535 336.6 206.173 338.162 205.887C330.825 223.157 330.825 245.443 331.364 274.076Z" fill="#EB5757"/>
<path d="M373.593 274.45C373.429 275.223 373.046 275.932 372.49 276.494C371.935 277.055 371.229 277.446 370.458 277.618C368.911 277.921 367.319 277.921 365.772 277.618C360.492 276.958 354.915 276.056 349.635 275.418C346.674 252.217 349.241 228.644 357.126 206.624C363.044 206.459 369.479 207.108 373.131 211.761C376.013 215.424 375.837 220.561 375.518 225.181C374.407 241.659 375.661 258.093 373.593 274.45Z" fill="#EB5757"/>
<path opacity="0.2" d="M358.897 236.621C360.41 228.922 362.699 221.397 365.728 214.159L366.267 219.054L367.873 221.1C365.2 229.218 378.983 242.715 363.473 261.503C363.105 261.948 362.603 262.261 362.042 262.398C361.482 262.535 360.892 262.487 360.36 262.262C353.782 259.6 346.5 251.097 346.5 251.097L349.91 242.374C354.552 244.541 357.643 243.221 358.897 236.621Z" fill="black"/>
<path d="M333.74 238.117L342.529 246.807L346.39 240.658L336.919 233.146L333.74 238.117Z" fill="#FF8B7B"/>
<path d="M334.488 243.078H308.187L305.184 208.758H331.485L334.488 243.078Z" fill="#263238"/>
<path opacity="0.5" d="M334.488 243.078H308.187L305.184 208.758H331.485L334.488 243.078Z" fill="white"/>
<path d="M333.553 242.902H307.252L304.26 208.593H330.55L333.553 242.902Z" fill="#263238"/>
<path opacity="0.8" d="M333.553 242.902H307.252L304.26 208.593H330.55L333.553 242.902Z" fill="white"/>
<path d="M323.125 210.727H312.059L311.685 206.448H322.751L323.125 210.727Z" fill="#263238"/>
<path d="M311.685 206.448L312.774 206.063H324.225L324.379 207.889L323.532 208.879L323.477 210.375L323.125 210.727L322.751 206.448H311.685Z" fill="#263238"/>
<path opacity="0.5" d="M311.685 206.448L312.774 206.063H324.225L324.379 207.889L323.532 208.879L323.477 210.375L323.125 210.727L322.751 206.448H311.685Z" fill="black"/>
<path d="M325.38 237.215L327.261 238.81C327.607 239.107 328.02 239.317 328.464 239.422C328.908 239.527 329.37 239.525 329.813 239.415L334.015 238.37C335.698 237.941 336.919 233.145 336.919 233.145C334.796 230.593 328.416 229.845 328.416 229.845C328.116 229.746 327.8 229.708 327.485 229.732C327.171 229.757 326.864 229.844 326.584 229.988C326.303 230.133 326.054 230.332 325.851 230.573C325.648 230.815 325.496 231.095 325.402 231.396L324.5 234.3C324.342 234.818 324.341 235.372 324.498 235.891C324.654 236.41 324.961 236.871 325.38 237.215Z" fill="#FF8B7B"/>
<path d="M375.606 228.8C376.541 223.729 376.706 213.4 371.327 211.475C365.068 209.22 363.396 218.669 362.054 227.194C360.712 235.719 358.061 246.4 356.015 245.3C351.769 243.1 344.311 238.216 344.311 238.216L339.812 245.19C339.812 245.19 355.509 261.921 362.648 258.016C370.7 253.638 374.418 235.257 375.606 228.8Z" fill="#EB5757"/>
<path d="M356.488 194.535C355.559 198.706 355.604 203.035 356.62 207.185C356.62 207.185 339.405 218.185 339.405 206.866C339.405 206.866 344.751 208.406 345.202 201.542C345.455 197.648 349.525 193.699 356.488 194.535Z" fill="#FF8B7B"/>
<path opacity="0.2" d="M345.202 201.542C345.664 197.945 348.986 194.282 355.014 194.436L355.41 194.799L355.839 195.591C355.839 195.591 351.956 205.491 344.542 204.27C344.877 203.392 345.098 202.475 345.202 201.542Z" fill="black"/>
<path d="M360.426 181.06C359.084 190.41 358.721 194.403 353.584 198.847C345.884 205.535 334.664 201.85 333.168 192.247C331.837 183.634 334.268 169.796 343.739 166.793C345.35 166.273 347.047 166.075 348.734 166.211C350.421 166.348 352.065 166.815 353.571 167.588C355.077 168.36 356.416 169.422 357.511 170.713C358.606 172.004 359.436 173.498 359.953 175.109C360.57 177.03 360.732 179.067 360.426 181.06Z" fill="#FF8B7B"/>
<path d="M354.2 198.231C357.374 197.68 360.457 196.695 363.363 195.305C364.694 191.125 365.167 189.805 366.201 185.999C368.104 178.948 366.564 170.027 359.788 167.365C357.445 166.441 350.196 162.184 347.589 165.924C346.918 166.87 360.206 182.6 354.2 198.231Z" fill="#263238"/>
<path d="M339.592 186.208C338.77 187.903 337.719 189.476 336.468 190.883C336.835 191.194 337.265 191.422 337.729 191.549C338.192 191.676 338.678 191.701 339.152 191.62L339.592 186.208Z" fill="#FF5652"/>
<path d="M347.941 181.5C348.005 181.495 348.066 181.472 348.117 181.434C348.156 181.404 348.189 181.366 348.214 181.323C348.238 181.28 348.254 181.233 348.26 181.184C348.266 181.135 348.263 181.085 348.25 181.037C348.236 180.99 348.214 180.945 348.183 180.906C347.768 180.338 347.223 179.878 346.593 179.564C345.963 179.25 345.268 179.091 344.564 179.102C344.467 179.116 344.378 179.165 344.315 179.24C344.252 179.315 344.219 179.411 344.223 179.509C344.231 179.606 344.278 179.696 344.352 179.76C344.426 179.824 344.522 179.856 344.619 179.85C345.201 179.849 345.774 179.986 346.292 180.25C346.811 180.514 347.259 180.897 347.6 181.368C347.64 181.418 347.693 181.457 347.753 181.48C347.813 181.503 347.878 181.51 347.941 181.5Z" fill="#263238"/>
<path d="M334.059 179.729C334.122 179.721 334.182 179.698 334.235 179.663C334.698 179.308 335.239 179.068 335.813 178.965C336.387 178.862 336.978 178.897 337.535 179.069C337.627 179.105 337.729 179.104 337.82 179.064C337.911 179.025 337.982 178.952 338.019 178.86C338.037 178.814 338.045 178.765 338.043 178.715C338.042 178.666 338.03 178.617 338.01 178.572C337.99 178.527 337.96 178.487 337.924 178.453C337.888 178.419 337.845 178.393 337.799 178.376C337.129 178.163 336.418 178.114 335.725 178.233C335.032 178.352 334.378 178.635 333.817 179.058C333.746 179.105 333.692 179.175 333.666 179.257C333.64 179.338 333.643 179.426 333.674 179.506C333.704 179.586 333.762 179.652 333.836 179.695C333.91 179.738 333.997 179.754 334.081 179.74L334.059 179.729Z" fill="#263238"/>
<path d="M345.092 185.383C345.037 186.142 344.575 186.725 344.069 186.692C343.563 186.659 343.222 185.999 343.288 185.229C343.354 184.459 343.805 183.887 344.3 183.92C344.795 183.953 345.147 184.613 345.092 185.383Z" fill="#263238"/>
<path d="M336.435 184.69C336.38 185.449 335.918 186.032 335.423 185.999C334.928 185.966 334.576 185.306 334.631 184.536C334.686 183.766 335.148 183.194 335.643 183.227C336.138 183.26 336.512 183.909 336.435 184.69Z" fill="#263238"/>
<path d="M335.863 183.282L334.07 182.6C334.07 182.6 334.895 184.118 335.863 183.282Z" fill="#263238"/>
<path d="M344.52 183.987L342.716 183.305C342.716 183.305 343.552 184.801 344.52 183.987Z" fill="#263238"/>
<path d="M344.014 193.039C344.223 192.81 344.41 192.564 344.575 192.302C344.607 192.267 344.624 192.222 344.624 192.175C344.624 192.129 344.607 192.083 344.575 192.049C344.532 192.027 344.483 192.022 344.436 192.034C344.39 192.046 344.349 192.075 344.322 192.115C343.911 192.775 343.351 193.33 342.686 193.733C342.02 194.136 341.27 194.377 340.494 194.436C340.445 194.436 340.397 194.456 340.362 194.491C340.327 194.526 340.307 194.573 340.307 194.623C340.31 194.671 340.331 194.715 340.366 194.748C340.4 194.781 340.446 194.799 340.494 194.799C341.168 194.753 341.826 194.573 342.43 194.271C343.034 193.969 343.573 193.55 344.014 193.039Z" fill="#263238"/>
<path d="M362.043 188.672C361.718 189.516 361.229 190.286 360.604 190.94C359.979 191.593 359.231 192.116 358.402 192.478C356.202 193.435 354.739 191.532 355.102 189.255C355.41 187.22 356.95 184.261 359.315 184.261C360.143 184.289 360.925 184.645 361.492 185.248C362.059 185.852 362.364 186.656 362.34 187.484C362.319 187.895 362.218 188.299 362.043 188.672Z" fill="#FF8B7B"/>
<path d="M342.749 164.879C339.94 165.465 337.457 167.091 335.796 169.431C334.136 171.771 333.421 174.652 333.795 177.496C335.357 177.749 336.93 178.211 338.492 178.453C338.279 177.601 338.268 176.711 338.459 175.854C338.65 174.996 339.038 174.195 339.592 173.514C339.271 175.308 339.384 177.152 339.922 178.893C341.099 179.025 342.595 179.058 343.772 179.19C343.772 177.298 343.871 176.231 343.882 174.339C344.674 176.22 345.565 178.09 346.368 179.982C347.665 179.95 348.942 180.311 350.031 181.016C349.646 179.179 349.25 177.155 348.865 175.318C351.127 178.084 352.367 181.546 352.374 185.119C353.476 183.221 354.117 181.089 354.243 178.897C354.369 176.706 353.977 174.515 353.1 172.502C351.318 168.509 347.039 163.988 342.749 164.879Z" fill="#263238"/>
<path d="M355.839 204.919C351.947 207.643 347.863 210.08 343.618 212.212C343.992 214.72 345.444 218.383 347.644 220.11C354.53 214.929 356.642 211.904 358.644 206.624C358.358 205.227 357.027 204.116 355.839 204.919Z" fill="#EB5757"/>
<path opacity="0.7" d="M355.839 204.919C351.947 207.643 347.863 210.08 343.618 212.212C343.992 214.72 345.444 218.383 347.644 220.11C354.53 214.929 356.642 211.904 358.644 206.624C358.358 205.227 357.027 204.116 355.839 204.919Z" fill="white"/>
<path d="M338.327 206.03C336.05 209.88 336.446 214.445 338.272 218.537C339.977 216.337 342.034 214.5 343.772 212.3C341.275 210.1 341.924 208.252 342.331 206.173C341.091 205.73 339.758 205.613 338.459 205.832L338.25 206.36C338.404 206.316 338.14 206.074 338.327 206.03Z" fill="#EB5757"/>
<path opacity="0.7" d="M338.327 206.03C336.05 209.88 336.446 214.445 338.272 218.537C339.977 216.337 342.034 214.5 343.772 212.3C341.275 210.1 341.924 208.252 342.331 206.173C341.091 205.73 339.758 205.613 338.459 205.832L338.25 206.36C338.404 206.316 338.14 206.074 338.327 206.03Z" fill="white"/>
<path d="M395.516 149.776H371.074C370.908 140.219 366.995 131.109 360.178 124.409C353.36 117.709 344.184 113.955 334.625 113.955C325.067 113.955 315.891 117.709 309.073 124.409C302.256 131.109 298.343 140.219 298.177 149.776H273.735C273.627 141.711 275.121 133.705 278.133 126.222C281.144 118.739 285.612 111.93 291.277 106.188C296.942 100.446 303.691 95.8873 311.133 92.7756C318.574 89.6639 326.56 88.0615 334.625 88.0615C342.691 88.0615 350.677 89.6639 358.118 92.7756C365.56 95.8873 372.309 100.446 377.974 106.188C383.639 111.93 388.107 118.739 391.118 126.222C394.129 133.705 395.624 141.711 395.516 149.776Z" fill="#EB5757"/>
<path d="M366.179 131.56L387.365 119.328C382.011 110.077 374.328 102.389 365.079 97.0308L352.847 118.217C358.383 121.419 362.981 126.021 366.179 131.56Z" fill="#EB5757"/>
<path opacity="0.8" d="M281.886 119.328C276.531 128.581 273.719 139.085 273.735 149.776H298.177C298.168 143.379 299.853 137.094 303.061 131.56L281.886 119.328Z" fill="white"/>
<path opacity="0.2" d="M371.074 149.776H395.516C395.531 139.086 392.719 128.581 387.365 119.328L366.179 131.56C369.395 137.091 371.084 143.378 371.074 149.776Z" fill="black"/>
<path opacity="0.6" d="M316.404 118.217L304.172 97.0308C294.923 102.389 287.24 110.077 281.886 119.328L303.061 131.56C306.266 126.023 310.867 121.422 316.404 118.217Z" fill="white"/>
<path opacity="0.4" d="M334.62 113.3V88.8804C323.93 88.8667 313.426 91.6787 304.172 97.0314L316.404 118.217C321.936 115.001 328.221 113.305 334.62 113.3Z" fill="white"/>
<path opacity="0.2" d="M352.847 118.217L365.079 97.0314C355.822 91.6773 345.314 88.8653 334.62 88.8804V113.3C341.023 113.303 347.311 115 352.847 118.217Z" fill="white"/>
<path d="M334.62 146.718L365.937 112.475L368.819 115.005L339.317 151.415L334.62 146.718Z" fill="#263238"/>
<path d="M340.252 151.415C340.254 152.529 339.926 153.619 339.308 154.547C338.691 155.475 337.812 156.198 336.783 156.626C335.754 157.054 334.621 157.167 333.528 156.951C332.435 156.735 331.43 156.199 330.641 155.412C329.853 154.625 329.315 153.622 329.097 152.529C328.879 151.436 328.99 150.303 329.416 149.273C329.842 148.243 330.563 147.363 331.49 146.744C332.416 146.125 333.506 145.794 334.62 145.794C336.112 145.794 337.543 146.386 338.599 147.44C339.654 148.493 340.249 149.923 340.252 151.415Z" fill="#263238"/>
<path d="M177.682 392.896C192.274 392.154 203.502 379.724 202.76 365.132C202.018 350.54 189.588 339.312 174.996 340.054C160.404 340.796 149.176 353.226 149.918 367.818C150.66 382.41 163.09 393.637 177.682 392.896Z" fill="#EB5757"/>
<path d="M205.975 365.2C206.187 370.411 204.85 375.567 202.135 380.02C199.419 384.472 195.445 388.02 190.715 390.216C185.985 392.412 180.711 393.159 175.557 392.361C170.403 391.563 165.601 389.256 161.757 385.732C157.913 382.208 155.199 377.624 153.956 372.559C152.714 367.494 153 362.175 154.778 357.272C156.556 352.37 159.746 348.103 163.945 345.011C168.145 341.92 173.166 340.141 178.376 339.9C181.852 339.739 185.325 340.267 188.596 341.453C191.867 342.639 194.871 344.46 197.436 346.811C200.001 349.162 202.076 351.997 203.541 355.153C205.007 358.309 205.834 361.723 205.975 365.2Z" fill="#EB5757"/>
<path opacity="0.4" d="M205.975 365.2C206.187 370.411 204.85 375.567 202.135 380.02C199.419 384.472 195.445 388.02 190.715 390.216C185.985 392.412 180.711 393.159 175.557 392.361C170.403 391.563 165.601 389.256 161.757 385.732C157.913 382.208 155.199 377.624 153.956 372.559C152.714 367.494 153 362.175 154.778 357.272C156.556 352.37 159.746 348.103 163.945 345.011C168.145 341.92 173.166 340.141 178.376 339.9C181.852 339.739 185.325 340.267 188.596 341.453C191.867 342.639 194.871 344.46 197.436 346.811C200.001 349.162 202.076 351.997 203.541 355.153C205.007 358.309 205.834 361.723 205.975 365.2Z" fill="white"/>
<path d="M199.331 365.442C199.497 369.353 198.499 373.225 196.465 376.57C194.431 379.914 191.451 382.581 187.902 384.232C184.353 385.884 180.394 386.446 176.526 385.848C172.657 385.251 169.052 383.52 166.167 380.874C163.282 378.229 161.246 374.787 160.316 370.985C159.386 367.182 159.603 363.19 160.942 359.511C162.28 355.833 164.679 352.633 167.835 350.317C170.991 348.001 174.762 346.673 178.673 346.5C181.274 346.385 183.872 346.784 186.318 347.674C188.764 348.564 191.011 349.927 192.93 351.687C194.849 353.446 196.402 355.567 197.5 357.927C198.599 360.287 199.221 362.841 199.331 365.442Z" fill="#EB5757"/>
<g opacity="0.3">
<path d="M172.098 358H175.019C175.05 358.002 175.081 358.011 175.108 358.028C175.136 358.044 175.159 358.067 175.175 358.094L179.068 364.607H183.003V358.197C183.003 358.171 183.007 358.146 183.016 358.122C183.026 358.099 183.04 358.077 183.057 358.059C183.075 358.04 183.096 358.026 183.12 358.016C183.143 358.005 183.168 358 183.194 358H185.896C185.947 358 185.996 358.02 186.032 358.056C186.068 358.092 186.088 358.141 186.088 358.192V364.602H187.808C187.859 364.602 187.908 364.623 187.944 364.659C187.98 364.695 188 364.744 188 364.795V366.529C188 366.58 187.98 366.629 187.944 366.665C187.908 366.701 187.859 366.721 187.808 366.721H186.088V368.192H187.808C187.858 368.192 187.907 368.212 187.943 368.248C187.979 368.284 188 368.332 188 368.383V370.114C188 370.164 187.979 370.213 187.943 370.249C187.907 370.284 187.858 370.304 187.808 370.304H186.088V377.027C186.088 377.078 186.068 377.127 186.032 377.163C185.996 377.199 185.947 377.219 185.896 377.219H183.194C183.162 377.218 183.131 377.208 183.104 377.192C183.077 377.176 183.054 377.153 183.038 377.126L179.068 370.304H175.2V377.027C175.198 377.078 175.176 377.125 175.139 377.16C175.102 377.194 175.054 377.213 175.003 377.212H172.098C172.047 377.212 171.998 377.191 171.962 377.155C171.926 377.119 171.906 377.07 171.906 377.019V370.304H170.186C170.136 370.303 170.089 370.282 170.055 370.246C170.02 370.211 170 370.163 170 370.114V368.383C170 368.332 170.021 368.284 170.057 368.248C170.093 368.212 170.142 368.192 170.192 368.192H171.912V366.721H170.192C170.167 366.721 170.142 366.716 170.119 366.706C170.095 366.697 170.074 366.682 170.056 366.665C170.02 366.629 170 366.58 170 366.529V364.799C170 364.748 170.02 364.7 170.056 364.663C170.092 364.627 170.141 364.607 170.192 364.607H171.912V358.197C171.911 358.146 171.93 358.097 171.965 358.06C171.999 358.023 172.047 358.002 172.098 358V358ZM175.2 366.721V368.192H177.858L177.17 366.721H175.2ZM180.944 368.192H183.003V366.721H180.269L180.944 368.192ZM183.003 370.304H182.176L183.003 372.024V370.304ZM175.2 363.122V364.607H175.915L175.2 363.122Z" fill="white"/>
</g>
<path d="M109.901 388.707C109.725 392.81 122.716 396.693 138.919 397.375C155.122 398.057 168.399 395.296 168.619 391.193C168.839 387.09 155.793 383.207 139.601 382.514C123.409 381.821 110.077 384.604 109.901 388.707Z" fill="#EB5757"/>
<path d="M110.246 380.124L109.949 387.56L168.667 389.908L168.964 382.472L110.246 380.124Z" fill="#EB5757"/>
<path d="M110.22 381.271C110.044 385.374 123.035 389.257 139.238 389.95C155.441 390.643 168.718 387.871 168.938 383.768C169.158 379.665 156.123 375.771 139.92 375.089C123.717 374.407 110.396 377.168 110.22 381.271Z" fill="#EB5757"/>
<path opacity="0.4" d="M110.22 381.271C110.044 385.374 123.035 389.257 139.238 389.95C155.441 390.643 168.718 387.871 168.938 383.768C169.158 379.665 156.123 375.771 139.92 375.089C123.717 374.407 110.396 377.168 110.22 381.271Z" fill="white"/>
<path d="M113.96 381.139C113.951 381.407 114.041 381.669 114.213 381.876C116.171 379.467 126.896 378.048 139.711 378.576C152.526 379.104 163.13 381.447 164.846 384.01C165.034 383.822 165.147 383.572 165.165 383.306C165.275 380.523 153.923 377.74 139.777 377.146C125.631 376.552 114.081 378.4 113.96 381.139Z" fill="#EB5757"/>
<path opacity="0.4" d="M113.96 381.139C113.951 381.407 114.041 381.669 114.213 381.876C116.171 379.467 126.896 378.048 139.711 378.576C152.526 379.104 163.13 381.447 164.846 384.01C165.034 383.822 165.147 383.572 165.165 383.306C165.275 380.523 153.923 377.74 139.777 377.146C125.631 376.552 114.081 378.4 113.96 381.139Z" fill="#EB5757"/>
<path opacity="0.4" d="M114.213 381.876C115.962 384.45 126.522 386.771 139.348 387.31C152.174 387.849 162.921 386.441 164.846 384.01C163.13 381.447 152.57 379.126 139.711 378.576C126.852 378.026 116.171 379.5 114.213 381.876Z" fill="#EB5757"/>
<path d="M103.741 377.454C103.565 381.557 116.556 385.44 132.759 386.133C148.962 386.826 162.228 384.043 162.404 379.94C162.58 375.837 149.589 371.954 133.386 371.261C117.183 370.568 103.917 373.351 103.741 377.454Z" fill="#EB5757"/>
<path d="M104.056 370.024L103.741 377.453L162.417 379.943L162.732 372.514L104.056 370.024Z" fill="#EB5757"/>
<path d="M104.049 370.017C103.873 374.12 116.875 378.003 133.078 378.696C149.281 379.389 162.547 376.617 162.778 372.514C163.009 368.411 149.963 364.517 133.76 363.835C117.557 363.153 104.225 365.914 104.049 370.017Z" fill="#EB5757"/>
<path opacity="0.4" d="M104.049 370.017C103.873 374.12 116.875 378.003 133.078 378.696C149.281 379.389 162.547 376.617 162.778 372.514C163.009 368.411 149.963 364.517 133.76 363.835C117.557 363.153 104.225 365.914 104.049 370.017Z" fill="white"/>
<path d="M107.8 369.886C107.788 370.153 107.874 370.415 108.042 370.623C110.011 368.214 120.736 366.795 133.551 367.323C146.366 367.851 156.97 370.194 158.686 372.768C158.872 372.575 158.982 372.321 158.994 372.053C159.115 369.281 147.763 366.487 133.617 365.893C119.471 365.299 107.91 367.114 107.8 369.886Z" fill="#EB5757"/>
<path opacity="0.4" d="M107.8 369.886C107.788 370.153 107.874 370.415 108.042 370.623C110.011 368.214 120.736 366.795 133.551 367.323C146.366 367.851 156.97 370.194 158.686 372.768C158.872 372.575 158.982 372.321 158.994 372.053C159.115 369.281 147.763 366.487 133.617 365.893C119.471 365.299 107.91 367.114 107.8 369.886Z" fill="#EB5757"/>
<path opacity="0.4" d="M108.042 370.622C109.791 373.196 120.362 375.517 133.177 376.056C145.992 376.595 156.761 375.187 158.686 372.756C156.97 370.182 146.41 367.862 133.551 367.312C120.692 366.762 110 368.213 108.042 370.622Z" fill="#EB5757"/>
<path d="M104.5 363.891C104.324 368.005 117.326 371.888 133.518 372.57C149.71 373.252 162.998 370.491 163.218 366.388C163.438 362.285 150.403 358.402 134.2 357.709C117.997 357.016 104.709 359.788 104.5 363.891Z" fill="#EB5757"/>
<path d="M104.85 356.47L104.535 363.899L163.211 366.389L163.526 358.96L104.85 356.47Z" fill="#EB5757"/>
<path d="M104.852 356.466C104.676 360.569 117.667 364.452 133.87 365.145C150.073 365.838 163.35 363.066 163.57 358.952C163.79 354.838 150.744 350.966 134.541 350.284C118.338 349.602 105.028 352.363 104.852 356.466Z" fill="#EB5757"/>
<path opacity="0.4" d="M104.852 356.466C104.676 360.569 117.667 364.452 133.87 365.145C150.073 365.838 163.35 363.066 163.57 358.952C163.79 354.838 150.744 350.966 134.541 350.284C118.338 349.602 105.028 352.363 104.852 356.466Z" fill="white"/>
<path d="M108.592 356.334C108.584 356.602 108.674 356.864 108.845 357.071C110.803 354.651 121.528 353.243 134.354 353.771C147.18 354.299 157.773 356.642 159.489 359.205C159.673 359.015 159.782 358.765 159.797 358.501C159.918 355.718 148.555 352.935 134.409 352.33C120.263 351.725 108.713 353.562 108.592 356.334Z" fill="#EB5757"/>
<path opacity="0.4" d="M108.592 356.334C108.584 356.602 108.674 356.864 108.845 357.071C110.803 354.651 121.528 353.243 134.354 353.771C147.18 354.299 157.773 356.642 159.489 359.205C159.673 359.015 159.782 358.765 159.797 358.501C159.918 355.718 148.555 352.935 134.409 352.33C120.263 351.725 108.713 353.562 108.592 356.334Z" fill="#EB5757"/>
<path opacity="0.4" d="M108.9 357.071C110.649 359.634 121.22 361.955 134.035 362.505C146.85 363.055 157.608 361.636 159.544 359.205C157.828 356.642 147.257 354.321 134.409 353.771C121.561 353.221 110.803 354.651 108.9 357.071Z" fill="#EB5757"/>
<path d="M98.3729 352.649C98.1969 356.752 111.188 360.635 127.391 361.317C143.594 361.999 156.871 359.238 157.036 355.135C157.201 351.032 144.221 347.149 128.018 346.456C111.815 345.763 98.5489 348.535 98.3729 352.649Z" fill="#EB5757"/>
<path d="M98.681 345.185L98.3657 352.615L157.031 355.104L157.346 347.675L98.681 345.185Z" fill="#EB5757"/>
<path d="M98.692 345.213C98.516 349.316 111.507 353.199 127.71 353.892C143.913 354.585 157.179 351.813 157.41 347.699C157.641 343.585 144.595 339.713 128.392 339.031C112.189 338.349 98.857 341.11 98.692 345.213Z" fill="#EB5757"/>
<path opacity="0.4" d="M98.692 345.213C98.516 349.316 111.507 353.199 127.71 353.892C143.913 354.585 157.179 351.813 157.41 347.699C157.641 343.585 144.595 339.713 128.392 339.031C112.189 338.349 98.857 341.11 98.692 345.213Z" fill="white"/>
<path d="M102.432 345.081C102.42 345.348 102.506 345.61 102.674 345.818C104.643 343.398 115.368 341.99 128.183 342.518C140.998 343.046 151.602 345.389 153.318 347.952C153.502 347.762 153.611 347.512 153.626 347.248C153.747 344.465 142.395 341.682 128.249 341.077C114.103 340.472 102.542 342.309 102.432 345.081Z" fill="#EB5757"/>
<path opacity="0.4" d="M102.432 345.081C102.42 345.348 102.506 345.61 102.674 345.818C104.643 343.398 115.368 341.99 128.183 342.518C140.998 343.046 151.602 345.389 153.318 347.952C153.502 347.762 153.611 347.512 153.626 347.248C153.747 344.465 142.395 341.682 128.249 341.077C114.103 340.472 102.542 342.309 102.432 345.081Z" fill="#EB5757"/>
<path opacity="0.4" d="M102.674 345.818C104.434 348.381 114.994 350.702 127.809 351.252C140.624 351.802 151.393 350.383 153.318 347.952C151.602 345.389 141.042 343.068 128.183 342.518C115.324 341.968 104.643 343.398 102.674 345.818Z" fill="#EB5757"/>
<path d="M107.8 343.112C107.624 347.215 120.615 351.098 136.818 351.78C153.021 352.462 166.287 349.701 166.463 345.598C166.639 341.495 153.648 337.612 137.445 336.919C121.242 336.226 107.954 338.998 107.8 343.112Z" fill="#EB5757"/>
<path d="M108.098 335.671L107.782 343.1L166.448 345.59L166.763 338.16L108.098 335.671Z" fill="#EB5757"/>
<path d="M108.097 335.676C107.921 339.779 120.912 343.662 137.115 344.355C153.318 345.048 166.595 342.276 166.815 338.162C167.035 334.048 154 330.176 137.797 329.494C121.594 328.812 108.273 331.573 108.097 335.676Z" fill="#EB5757"/>
<path opacity="0.4" d="M108.097 335.676C107.921 339.779 120.912 343.662 137.115 344.355C153.318 345.048 166.595 342.276 166.815 338.162C167.035 334.048 154 330.176 137.797 329.494C121.594 328.812 108.273 331.573 108.097 335.676Z" fill="white"/>
<path d="M111.837 335.499C111.829 335.768 111.919 336.03 112.09 336.236C114.048 333.816 124.784 332.408 137.599 332.936C150.414 333.464 161.018 335.807 162.734 338.37C162.918 338.18 163.027 337.93 163.042 337.666C163.163 334.883 151.811 332.1 137.654 331.495C123.497 330.89 111.958 332.771 111.837 335.499Z" fill="#EB5757"/>
<path opacity="0.4" d="M111.837 335.499C111.829 335.768 111.919 336.03 112.09 336.236C114.048 333.816 124.784 332.408 137.599 332.936C150.414 333.464 161.018 335.807 162.734 338.37C162.918 338.18 163.027 337.93 163.042 337.666C163.163 334.883 151.811 332.1 137.654 331.495C123.497 330.89 111.958 332.771 111.837 335.499Z" fill="#EB5757"/>
<path opacity="0.4" d="M112.09 336.281C113.839 338.844 124.41 341.165 137.225 341.715C150.04 342.265 160.809 340.846 162.734 338.415C161.018 335.852 150.447 333.531 137.599 332.981C124.751 332.431 114.048 333.861 112.09 336.281Z" fill="#EB5757"/>
<path d="M101.618 331.859C101.442 335.962 114.433 339.845 130.636 340.527C146.839 341.209 160.116 338.448 160.336 334.345C160.556 330.242 147.521 326.359 131.318 325.666C115.115 324.973 101.794 327.8 101.618 331.859Z" fill="#EB5757"/>
<path d="M101.928 324.408L101.613 331.837L160.278 334.327L160.594 326.898L101.928 324.408Z" fill="#EB5757"/>
<path d="M101.937 324.423C101.761 328.526 114.752 332.409 130.955 333.102C147.158 333.795 160.435 331.023 160.655 326.92C160.875 322.817 147.829 318.923 131.626 318.241C115.423 317.559 102.113 320.32 101.937 324.423Z" fill="#EB5757"/>
<path opacity="0.4" d="M101.937 324.423C101.761 328.526 114.752 332.409 130.955 333.102C147.158 333.795 160.435 331.023 160.655 326.92C160.875 322.817 147.829 318.923 131.626 318.241C115.423 317.559 102.113 320.32 101.937 324.423Z" fill="white"/>
<path d="M105.677 324.291C105.669 324.559 105.759 324.821 105.93 325.028C107.888 322.608 118.613 321.2 131.428 321.728C144.243 322.256 154.858 324.599 156.574 327.162C156.758 326.972 156.867 326.722 156.882 326.458C156.992 323.675 145.64 320.892 131.494 320.298C117.348 319.704 105.798 321.519 105.677 324.291Z" fill="#EB5757"/>
<path opacity="0.4" d="M105.677 324.291C105.669 324.559 105.759 324.821 105.93 325.028C107.888 322.608 118.613 321.2 131.428 321.728C144.243 322.256 154.858 324.599 156.574 327.162C156.758 326.972 156.867 326.722 156.882 326.458C156.992 323.675 145.64 320.892 131.494 320.298C117.348 319.704 105.798 321.519 105.677 324.291Z" fill="#EB5757"/>
<path opacity="0.4" d="M105.93 325.028C107.679 327.602 118.25 329.923 131.065 330.462C143.88 331.001 154.638 329.593 156.574 327.162C154.858 324.599 144.287 322.278 131.428 321.728C118.569 321.178 107.888 322.608 105.93 325.028Z" fill="#EB5757"/>
<path d="M166.43 323.862C166.606 327.976 153.615 331.859 137.412 332.541C121.209 333.223 107.932 330.462 107.712 326.359C107.492 322.256 120.527 318.373 136.73 317.68C152.933 316.987 166.254 319.759 166.43 323.862Z" fill="#EB5757"/>
<path d="M165.343 317.188L106.625 319.537L106.923 326.973L165.641 324.624L165.343 317.188Z" fill="#EB5757"/>
<path d="M166.1 316.437C166.276 320.54 153.285 324.423 137.082 325.116C120.879 325.809 107.602 323.037 107.437 318.923C107.272 314.809 120.252 310.937 136.455 310.255C152.658 309.573 165.935 312.334 166.1 316.437Z" fill="#EB5757"/>
<path opacity="0.4" d="M166.1 316.437C166.276 320.54 153.285 324.423 137.082 325.116C120.879 325.809 107.602 323.037 107.437 318.923C107.272 314.809 120.252 310.937 136.455 310.255C152.658 309.573 165.935 312.334 166.1 316.437Z" fill="white"/>
<path d="M162.371 316.304C162.379 316.573 162.289 316.835 162.118 317.042C160.16 314.622 149.435 313.214 136.62 313.742C123.805 314.27 113.19 316.613 111.485 319.176C111.297 318.987 111.184 318.737 111.166 318.471C111.056 315.688 122.408 312.906 136.554 312.301C150.7 311.696 162.25 313.499 162.371 316.304Z" fill="#EB5757"/>
<path opacity="0.4" d="M162.371 316.304C162.379 316.573 162.289 316.835 162.118 317.042C160.16 314.622 149.435 313.214 136.62 313.742C123.805 314.27 113.19 316.613 111.485 319.176C111.297 318.987 111.184 318.737 111.166 318.471C111.056 315.688 122.408 312.906 136.554 312.301C150.7 311.696 162.25 313.499 162.371 316.304Z" fill="#EB5757"/>
<path opacity="0.4" d="M162.118 317.042C160.369 319.605 149.809 321.926 136.983 322.476C124.157 323.026 113.41 321.607 111.485 319.176C113.19 316.613 123.761 314.292 136.62 313.742C149.479 313.192 160.16 314.6 162.118 317.042Z" fill="#EB5757"/>
<path d="M172.59 312.619C172.766 316.722 159.775 320.605 143.572 321.287C127.369 321.969 114.103 319.208 113.872 315.105C113.641 311.002 126.687 307.119 142.89 306.426C159.093 305.733 172.414 308.505 172.59 312.619Z" fill="#EB5757"/>
<path d="M172.295 305.186L113.619 307.676L113.934 315.106L172.61 312.616L172.295 305.186Z" fill="#EB5757"/>
<path d="M172.282 305.184C172.447 309.287 159.456 313.17 143.253 313.863C127.05 314.556 113.784 311.784 113.608 307.67C113.432 303.556 126.423 299.684 142.626 299.002C158.829 298.32 172.106 301.081 172.282 305.184Z" fill="#EB5757"/>
<path opacity="0.4" d="M172.282 305.184C172.447 309.287 159.456 313.17 143.253 313.863C127.05 314.556 113.784 311.784 113.608 307.67C113.432 303.556 126.423 299.684 142.626 299.002C158.829 298.32 172.106 301.081 172.282 305.184Z" fill="white"/>
<path d="M168.531 305.052C168.542 305.319 168.456 305.58 168.289 305.789C166.32 303.369 155.595 301.961 142.78 302.489C129.965 303.017 119.361 305.36 117.645 307.923C117.461 307.733 117.352 307.483 117.337 307.219C117.216 304.436 128.568 301.653 142.714 301.048C156.86 300.443 168.421 302.28 168.531 305.052Z" fill="#EB5757"/>
<path opacity="0.4" d="M168.531 305.052C168.542 305.319 168.456 305.58 168.289 305.789C166.32 303.369 155.595 301.961 142.78 302.489C129.965 303.017 119.361 305.36 117.645 307.923C117.461 307.733 117.352 307.483 117.337 307.219C117.216 304.436 128.568 301.653 142.714 301.048C156.86 300.443 168.421 302.28 168.531 305.052Z" fill="#EB5757"/>
<path opacity="0.4" d="M168.3 305.799C166.551 308.362 155.98 310.683 143.165 311.233C130.35 311.783 119.581 310.364 117.656 307.933C119.372 305.37 129.932 303.049 142.791 302.499C155.65 301.949 166.32 303.368 168.3 305.799Z" fill="#EB5757"/>
<path d="M171.798 299.057C171.974 303.16 158.972 307.054 142.78 307.736C126.588 308.418 113.3 305.657 113.08 301.554C112.86 297.451 125.895 293.557 142.098 292.875C158.301 292.193 171.6 294.954 171.798 299.057Z" fill="#EB5757"/>
<path d="M171.479 291.636L112.803 294.126L113.118 301.556L171.795 299.066L171.479 291.636Z" fill="#EB5757"/>
<path d="M171.479 291.632C171.655 295.735 158.664 299.618 142.461 300.311C126.258 301.004 112.981 298.221 112.761 294.118C112.541 290.015 125.587 286.132 141.779 285.439C157.971 284.746 171.303 287.529 171.479 291.632Z" fill="#EB5757"/>
<path opacity="0.4" d="M171.479 291.632C171.655 295.735 158.664 299.618 142.461 300.311C126.258 301.004 112.981 298.221 112.761 294.118C112.541 290.015 125.587 286.132 141.779 285.439C157.971 284.746 171.303 287.529 171.479 291.632Z" fill="white"/>
<path d="M167.739 291.5C167.741 291.767 167.651 292.027 167.486 292.237C165.528 289.817 154.803 288.398 141.977 288.937C129.151 289.476 118.558 291.808 116.842 294.371C116.663 294.178 116.554 293.93 116.534 293.667C116.413 290.884 127.776 288.101 141.922 287.496C156.068 286.891 167.618 288.717 167.739 291.5Z" fill="#EB5757"/>
<path opacity="0.4" d="M167.739 291.5C167.741 291.767 167.651 292.027 167.486 292.237C165.528 289.817 154.803 288.398 141.977 288.937C129.151 289.476 118.558 291.808 116.842 294.371C116.663 294.178 116.554 293.93 116.534 293.667C116.413 290.884 127.776 288.101 141.922 287.496C156.068 286.891 167.618 288.717 167.739 291.5Z" fill="#EB5757"/>
<path opacity="0.4" d="M167.486 292.237C165.737 294.8 155.166 297.121 142.351 297.671C129.536 298.221 118.778 296.802 116.842 294.371C118.558 291.808 129.129 289.476 141.977 288.937C154.825 288.398 165.528 289.817 167.486 292.237Z" fill="#EB5757"/>
<path d="M177.958 287.804C178.134 291.907 165.143 295.801 148.94 296.483C132.737 297.165 119.46 294.404 119.24 290.301C119.02 286.198 132.066 282.315 148.269 281.622C164.472 280.929 177.782 283.701 177.958 287.804Z" fill="#EB5757"/>
<path d="M177.619 280.385L118.953 282.875L119.269 290.304L177.934 287.815L177.619 280.385Z" fill="#EB5757"/>
<path d="M177.639 280.378C177.815 284.481 164.824 288.364 148.621 289.057C132.418 289.75 119.152 286.967 118.921 282.864C118.69 278.761 131.736 274.878 147.939 274.185C164.142 273.492 177.474 276.275 177.639 280.378Z" fill="#EB5757"/>
<path opacity="0.4" d="M177.639 280.378C177.815 284.481 164.824 288.364 148.621 289.057C132.418 289.75 119.152 286.967 118.921 282.864C118.69 278.761 131.736 274.878 147.939 274.185C164.142 273.492 177.474 276.275 177.639 280.378Z" fill="white"/>
<path d="M173.899 280.247C173.911 280.514 173.825 280.776 173.657 280.984C171.688 278.564 160.963 277.145 148.148 277.684C135.333 278.223 124.729 280.555 123.013 283.118C122.829 282.928 122.72 282.678 122.705 282.414C122.584 279.631 133.936 276.848 148.082 276.243C162.228 275.638 173.8 277.475 173.899 280.247Z" fill="#EB5757"/>
<path opacity="0.4" d="M173.899 280.247C173.911 280.514 173.825 280.776 173.657 280.984C171.688 278.564 160.963 277.145 148.148 277.684C135.333 278.223 124.729 280.555 123.013 283.118C122.829 282.928 122.72 282.678 122.705 282.414C122.584 279.631 133.936 276.848 148.082 276.243C162.228 275.638 173.8 277.475 173.899 280.247Z" fill="#EB5757"/>
<path opacity="0.4" d="M173.657 280.984C171.897 283.547 161.337 285.868 148.522 286.418C135.707 286.968 124.938 285.549 123.013 283.118C124.729 280.555 135.289 278.234 148.148 277.684C161.007 277.134 171.688 278.564 173.657 280.984Z" fill="#EB5757"/>
<path d="M168.542 278.299C168.718 282.402 155.727 286.296 139.524 286.978C123.321 287.66 110.055 284.899 109.879 280.796C109.703 276.693 122.694 272.81 138.897 272.117C155.1 271.424 168.377 274.163 168.542 278.299Z" fill="#EB5757"/>
<path d="M168.236 270.838L109.56 273.328L109.875 280.757L168.551 278.267L168.236 270.838Z" fill="#EB5757"/>
<path d="M168.234 270.841C168.41 274.944 155.408 278.827 139.216 279.52C123.024 280.213 109.736 277.43 109.516 273.327C109.296 269.224 122.331 265.341 138.534 264.648C154.737 263.955 168.058 266.738 168.234 270.841Z" fill="#EB5757"/>
<path opacity="0.4" d="M168.234 270.841C168.41 274.944 155.408 278.827 139.216 279.52C123.024 280.213 109.736 277.43 109.516 273.327C109.296 269.224 122.331 265.341 138.534 264.648C154.737 263.955 168.058 266.738 168.234 270.841Z" fill="white"/>
<path d="M164.494 270.71C164.492 270.977 164.403 271.235 164.241 271.447C162.272 269.027 151.547 267.608 138.732 268.147C125.917 268.686 115.313 271.018 113.597 273.581C113.413 273.391 113.304 273.141 113.289 272.877C113.168 270.094 124.52 267.311 138.677 266.706C152.834 266.101 164.373 267.938 164.494 270.71Z" fill="#EB5757"/>
<path opacity="0.4" d="M164.494 270.71C164.492 270.977 164.403 271.235 164.241 271.447C162.272 269.027 151.547 267.608 138.732 268.147C125.917 268.686 115.313 271.018 113.597 273.581C113.413 273.391 113.304 273.141 113.289 272.877C113.168 270.094 124.52 267.311 138.677 266.706C152.834 266.101 164.373 267.938 164.494 270.71Z" fill="#EB5757"/>
<path opacity="0.4" d="M164.241 271.447C162.492 274.01 151.921 276.331 139.106 276.881C126.291 277.431 115.522 276.012 113.597 273.581C115.313 271.018 125.884 268.697 138.732 268.147C151.58 267.597 162.272 269.027 164.241 271.447Z" fill="#EB5757"/>
<path d="M174.713 267.014C174.889 271.128 161.898 275.011 145.695 275.693C129.492 276.375 116.215 273.614 115.995 269.511C115.775 265.408 128.81 261.525 145.013 260.832C161.216 260.139 174.537 262.9 174.713 267.014Z" fill="#EB5757"/>
<path d="M174.375 259.598L115.71 262.088L116.025 269.517L174.69 267.028L174.375 259.598Z" fill="#EB5757"/>
<path d="M174.394 259.6C174.57 263.703 161.579 267.586 145.376 268.279C129.173 268.972 115.896 266.2 115.676 262.086C115.456 257.972 128.502 254.1 144.705 253.418C160.908 252.736 174.218 255.486 174.394 259.6Z" fill="#EB5757"/>
<path opacity="0.4" d="M174.394 259.6C174.57 263.703 161.579 267.586 145.376 268.279C129.173 268.972 115.896 266.2 115.676 262.086C115.456 257.972 128.502 254.1 144.705 253.418C160.908 252.736 174.218 255.486 174.394 259.6Z" fill="white"/>
<path d="M170.654 259.457C170.662 259.725 170.572 259.987 170.401 260.194C168.443 257.774 157.718 256.366 144.903 256.894C132.088 257.422 121.473 259.765 119.757 262.328C119.573 262.138 119.464 261.888 119.449 261.624C119.339 258.841 130.691 256.058 144.837 255.453C158.983 254.848 170.5 256.685 170.654 259.457Z" fill="#EB5757"/>
<path opacity="0.4" d="M170.654 259.457C170.662 259.725 170.572 259.987 170.401 260.194C168.443 257.774 157.718 256.366 144.903 256.894C132.088 257.422 121.473 259.765 119.757 262.328C119.573 262.138 119.464 261.888 119.449 261.624C119.339 258.841 130.691 256.058 144.837 255.453C158.983 254.848 170.5 256.685 170.654 259.457Z" fill="#EB5757"/>
<path opacity="0.4" d="M170.401 260.194C168.652 262.757 158.081 265.078 145.266 265.628C132.451 266.178 121.693 264.759 119.757 262.328C121.473 259.765 132.044 257.444 144.903 256.894C157.762 256.344 168.443 257.774 170.401 260.194Z" fill="#EB5757"/>
<path d="M240.966 219.615H96.47L85.965 19.1948H230.472L240.966 219.615Z" fill="#EB5757"/>
<g opacity="0.6">
<path d="M240.966 219.615H96.47L85.965 19.1948H230.472L240.966 219.615Z" fill="white"/>
</g>
<path d="M167.717 152.779H109.417C109.238 152.776 109.061 152.809 108.896 152.878C108.732 152.947 108.583 153.049 108.46 153.178C108.337 153.308 108.242 153.461 108.181 153.629C108.121 153.797 108.096 153.976 108.108 154.154C108.13 154.525 108.293 154.873 108.562 155.128C108.832 155.384 109.189 155.527 109.56 155.529H167.86C168.039 155.533 168.216 155.499 168.381 155.43C168.545 155.361 168.694 155.259 168.817 155.13C168.94 155 169.035 154.847 169.096 154.679C169.156 154.511 169.181 154.332 169.169 154.154C169.147 153.783 168.984 153.435 168.715 153.18C168.445 152.924 168.088 152.781 167.717 152.779Z" fill="#263238"/>
<path d="M152.9 142.175H108.823C108.644 142.174 108.468 142.211 108.304 142.281C108.14 142.352 107.992 142.455 107.869 142.585C107.746 142.715 107.652 142.868 107.591 143.036C107.53 143.204 107.503 143.383 107.514 143.561C107.539 143.931 107.702 144.277 107.971 144.532C108.24 144.787 108.595 144.931 108.966 144.936H153.054C153.232 144.938 153.409 144.903 153.573 144.833C153.737 144.764 153.885 144.662 154.007 144.533C154.13 144.404 154.225 144.251 154.286 144.084C154.347 143.917 154.374 143.739 154.363 143.561C154.341 143.187 154.177 142.836 153.905 142.579C153.634 142.321 153.274 142.177 152.9 142.175Z" fill="#263238"/>
<path d="M169.059 178.31H110.759C110.581 178.308 110.404 178.343 110.24 178.412C110.076 178.482 109.928 178.584 109.806 178.713C109.683 178.842 109.588 178.995 109.527 179.162C109.466 179.329 109.439 179.507 109.45 179.685C109.472 180.057 109.634 180.406 109.904 180.663C110.173 180.921 110.53 181.066 110.902 181.071H169.202C169.381 181.073 169.559 181.038 169.723 180.968C169.888 180.898 170.037 180.795 170.16 180.664C170.283 180.534 170.377 180.38 170.438 180.212C170.498 180.043 170.523 179.864 170.511 179.685C170.486 179.315 170.323 178.969 170.054 178.714C169.785 178.459 169.43 178.315 169.059 178.31Z" fill="#263238"/>
<path d="M154.253 167.717H110.165C109.991 167.721 109.819 167.76 109.66 167.832C109.501 167.904 109.359 168.007 109.24 168.135C109.122 168.264 109.031 168.414 108.973 168.579C108.914 168.743 108.89 168.917 108.9 169.092C108.925 169.461 109.088 169.808 109.357 170.063C109.626 170.318 109.981 170.462 110.352 170.467H154.44C154.618 170.468 154.795 170.434 154.959 170.364C155.123 170.295 155.271 170.193 155.393 170.064C155.516 169.935 155.611 169.782 155.672 169.615C155.733 169.447 155.76 169.269 155.749 169.092C155.724 168.714 155.554 168.361 155.276 168.105C154.997 167.849 154.631 167.71 154.253 167.717Z" fill="#263238"/>
<path d="M170.401 203.841H112.101C111.922 203.841 111.746 203.877 111.582 203.947C111.418 204.018 111.27 204.121 111.147 204.251C111.025 204.381 110.93 204.534 110.869 204.702C110.808 204.87 110.782 205.049 110.792 205.227C110.817 205.597 110.98 205.943 111.249 206.198C111.518 206.453 111.874 206.597 112.244 206.602H170.544C170.722 206.604 170.899 206.569 171.063 206.499C171.227 206.43 171.375 206.328 171.497 206.199C171.62 206.07 171.715 205.917 171.776 205.75C171.838 205.583 171.864 205.405 171.853 205.227C171.828 204.856 171.666 204.508 171.397 204.251C171.128 203.995 170.773 203.848 170.401 203.841Z" fill="#263238"/>
<path d="M155.584 193.248H111.496C111.318 193.246 111.142 193.281 110.979 193.35C110.815 193.42 110.668 193.522 110.546 193.652C110.424 193.781 110.33 193.934 110.27 194.101C110.21 194.268 110.186 194.446 110.198 194.623C110.218 194.996 110.379 195.347 110.649 195.604C110.919 195.862 111.277 196.007 111.65 196.009H155.727C155.906 196.013 156.085 195.979 156.25 195.909C156.416 195.84 156.565 195.737 156.688 195.606C156.812 195.476 156.906 195.321 156.966 195.151C157.026 194.982 157.05 194.802 157.036 194.623C157.014 194.252 156.851 193.904 156.582 193.649C156.312 193.393 155.955 193.25 155.584 193.248Z" fill="#263238"/>
<path d="M222.002 153.527H211.409C211.207 153.525 211.014 153.447 210.867 153.308C210.72 153.169 210.631 152.981 210.617 152.779L210.067 142.175C210.061 142.079 210.075 141.983 210.107 141.892C210.14 141.802 210.191 141.719 210.257 141.649C210.323 141.579 210.403 141.523 210.491 141.485C210.579 141.447 210.675 141.427 210.771 141.427H221.375C221.576 141.43 221.768 141.508 221.913 141.647C222.058 141.786 222.145 141.975 222.156 142.175L222.717 152.779C222.723 152.876 222.709 152.973 222.676 153.065C222.642 153.156 222.591 153.24 222.523 153.31C222.456 153.38 222.375 153.436 222.285 153.473C222.196 153.511 222.099 153.529 222.002 153.527ZM212.102 152.02H221.199L220.726 142.923H211.629L212.102 152.02Z" fill="#EB5757"/>
<path d="M223.41 180.4H212.817C212.613 180.397 212.418 180.318 212.271 180.177C212.124 180.036 212.036 179.844 212.025 179.641L211.475 169.048C211.469 168.952 211.483 168.855 211.515 168.765C211.548 168.674 211.599 168.591 211.665 168.521C211.731 168.451 211.811 168.395 211.899 168.357C211.987 168.319 212.083 168.3 212.179 168.3H222.783C222.985 168.302 223.178 168.38 223.325 168.519C223.472 168.658 223.561 168.846 223.575 169.048L224.125 179.641C224.131 179.738 224.117 179.836 224.084 179.928C224.051 180.02 223.999 180.104 223.932 180.175C223.865 180.246 223.784 180.303 223.694 180.341C223.604 180.38 223.508 180.4 223.41 180.4ZM213.51 178.893H222.607L222.134 169.796H213.037L213.51 178.893Z" fill="#EB5757"/>
<path d="M224.752 205.975H214.159C213.957 205.973 213.764 205.894 213.617 205.756C213.47 205.617 213.381 205.428 213.367 205.227L212.817 194.623C212.811 194.527 212.825 194.431 212.857 194.34C212.89 194.249 212.941 194.167 213.007 194.097C213.073 194.026 213.153 193.971 213.241 193.932C213.329 193.894 213.425 193.875 213.521 193.875H224.125C224.325 193.88 224.516 193.959 224.66 194.098C224.805 194.236 224.892 194.423 224.906 194.623L225.467 205.227C225.473 205.324 225.459 205.421 225.426 205.513C225.392 205.604 225.341 205.687 225.273 205.758C225.206 205.828 225.125 205.883 225.035 205.921C224.946 205.958 224.849 205.977 224.752 205.975ZM214.852 204.479H223.949L223.476 195.382H214.368L214.852 204.479Z" fill="#EB5757"/>
<path d="M191.202 108.207H142.318L139.392 52.2607H188.276L191.202 108.207Z" fill="white"/>
<path d="M216.557 150.7C216.137 150.678 215.742 150.493 215.457 150.183L212.564 147.004C212.436 146.86 212.338 146.691 212.275 146.509C212.212 146.327 212.186 146.134 212.198 145.941C212.21 145.749 212.259 145.56 212.344 145.387C212.428 145.213 212.546 145.058 212.69 144.931C212.982 144.672 213.365 144.541 213.753 144.564C213.946 144.576 214.134 144.626 214.308 144.71C214.481 144.795 214.636 144.913 214.764 145.057L216.513 146.96L223.113 139.612C223.387 139.309 223.771 139.127 224.179 139.106C224.588 139.085 224.988 139.228 225.291 139.502C225.594 139.776 225.776 140.16 225.797 140.568C225.818 140.977 225.675 141.377 225.401 141.68L217.701 150.227C217.558 150.387 217.381 150.513 217.183 150.595C216.985 150.677 216.771 150.713 216.557 150.7Z" fill="#EB5757"/>
<path d="M217.965 177.573C217.545 177.551 217.15 177.366 216.865 177.056L213.972 173.888C213.843 173.743 213.745 173.575 213.681 173.392C213.618 173.21 213.591 173.016 213.602 172.823C213.613 172.63 213.662 172.441 213.747 172.267C213.831 172.093 213.948 171.937 214.093 171.809C214.237 171.68 214.406 171.581 214.588 171.518C214.771 171.454 214.964 171.427 215.157 171.439C215.351 171.45 215.539 171.499 215.714 171.583C215.888 171.668 216.043 171.785 216.172 171.93L217.8 173.8L224.4 166.452C224.678 166.17 225.054 166.006 225.45 165.994C225.846 165.982 226.231 166.123 226.526 166.388C226.821 166.653 227.002 167.021 227.032 167.416C227.062 167.811 226.939 168.202 226.688 168.509L218.988 177.067C218.86 177.216 218.704 177.338 218.528 177.425C218.352 177.512 218.161 177.562 217.965 177.573Z" fill="#EB5757"/>
<path d="M219.318 203.5C219.11 203.49 218.905 203.44 218.716 203.351C218.528 203.262 218.358 203.137 218.218 202.983L215.325 199.815C215.184 199.678 215.072 199.513 214.995 199.332C214.919 199.151 214.879 198.956 214.879 198.759C214.879 198.562 214.919 198.367 214.995 198.186C215.072 198.005 215.184 197.84 215.325 197.703C215.627 197.442 216.02 197.312 216.418 197.341C216.816 197.37 217.187 197.555 217.448 197.857L219.197 199.771L225.797 192.423C226.075 192.141 226.451 191.977 226.847 191.965C227.243 191.953 227.628 192.094 227.923 192.359C228.218 192.624 228.399 192.992 228.429 193.387C228.459 193.782 228.336 194.174 228.085 194.48L220.385 203.038C220.25 203.187 220.085 203.305 219.901 203.384C219.717 203.464 219.518 203.503 219.318 203.5Z" fill="#EB5757"/>
<path d="M190.212 115.5H144.1C143.922 115.498 143.745 115.533 143.581 115.602C143.417 115.671 143.269 115.774 143.147 115.903C143.024 116.031 142.929 116.184 142.868 116.352C142.807 116.519 142.78 116.697 142.791 116.875C142.813 117.246 142.975 117.596 143.245 117.853C143.514 118.11 143.871 118.256 144.243 118.261H190.377C190.556 118.261 190.732 118.225 190.896 118.154C191.06 118.084 191.208 117.98 191.331 117.85C191.454 117.721 191.548 117.567 191.609 117.399C191.67 117.231 191.696 117.053 191.686 116.875C191.661 116.501 191.495 116.151 191.221 115.896C190.947 115.64 190.586 115.499 190.212 115.5Z" fill="#263238"/>
<path d="M166.243 124.663H144.562C144.384 124.661 144.207 124.696 144.043 124.765C143.879 124.835 143.731 124.937 143.609 125.066C143.486 125.195 143.391 125.348 143.33 125.515C143.269 125.682 143.242 125.86 143.253 126.038C143.278 126.409 143.441 126.757 143.709 127.014C143.978 127.27 144.333 127.417 144.705 127.424H166.386C166.565 127.426 166.743 127.391 166.907 127.321C167.072 127.251 167.221 127.148 167.344 127.017C167.467 126.887 167.561 126.733 167.622 126.565C167.682 126.396 167.707 126.217 167.695 126.038C167.673 125.667 167.51 125.319 167.241 125.064C166.971 124.809 166.614 124.665 166.243 124.663Z" fill="#263238"/>
<path d="M191.994 33H133.694C133.516 32.9996 133.34 33.0358 133.176 33.1065C133.013 33.1772 132.865 33.2807 132.744 33.4107C132.622 33.5408 132.528 33.6944 132.468 33.8622C132.409 34.03 132.384 34.2083 132.396 34.386C132.418 34.7567 132.581 35.105 132.85 35.3603C133.12 35.6156 133.477 35.7589 133.848 35.761H192.148C192.327 35.7645 192.504 35.7308 192.669 35.662C192.833 35.5933 192.982 35.491 193.105 35.3616C193.228 35.2323 193.323 35.0788 193.384 34.9108C193.444 34.7429 193.469 34.5641 193.457 34.386C193.432 34.0133 193.268 33.6637 192.997 33.4068C192.725 33.15 192.368 33.0047 191.994 33Z" fill="#263238"/>
<path d="M172.605 86.821C176.348 82.9785 176.098 76.6642 172.047 72.7175C167.995 68.7708 161.676 68.6864 157.933 72.5289C154.19 76.3714 154.44 82.6857 158.491 86.6324C162.543 90.5791 168.861 90.6635 172.605 86.821Z" fill="#EB5757"/>
<path d="M184.976 108.207H148.5C148.387 105.877 148.752 103.549 149.572 101.365C150.392 99.1806 151.65 97.1873 153.269 95.5072C154.887 93.827 156.832 92.4954 158.983 91.5941C161.135 90.6928 163.448 90.2409 165.781 90.2661C170.638 90.3207 175.299 92.1931 178.844 95.5141C182.389 98.8351 184.561 103.364 184.932 108.207H184.976Z" fill="#EB5757"/>
</svg>
