<svg width="578" height="447" viewBox="0 0 578 447" fill="none" xmlns="http://www.w3.org/2000/svg">
<path d="M521.857 214.069L513.248 252.803L506.259 284.226L500.689 309.288L493.705 340.712L470.883 443.372L188.083 312.651L167.295 303.04L140.983 290.876L120.188 281.265L95.1768 269.702L109.356 249.066L121.147 231.906L136.063 210.196L147.851 193.047L280.497 0L421.014 124.631L446.037 146.823L465.989 164.52L491.016 186.713L521.857 214.069Z" fill="#F2F2F2"/>
<path d="M110.792 328.026C91.8819 317.481 80.1095 303.083 75.8019 285.234C72.6035 271.982 73.5226 257.069 78.5333 240.91C82.2479 228.996 87.8172 217.742 95.0361 207.564C133.333 153.337 136.79 118.003 132.946 97.9093C128.731 75.8776 115.038 66.7277 114.9 66.6379L115.491 65.7285C115.632 65.8204 129.686 75.183 134.003 97.6617C136.491 110.621 135.32 125.398 130.523 141.581C124.553 161.723 112.912 184.133 95.9219 208.19C88.7688 218.275 83.2501 229.426 79.569 241.231C71.3508 267.734 70.1881 304.141 111.32 327.079L110.792 328.026Z" fill="#2F2E41"/>
<path d="M119.886 328.026C138.797 317.481 150.569 303.083 154.877 285.234C158.075 271.982 157.156 257.069 152.145 240.91C148.431 228.996 142.861 217.742 135.643 207.564C97.3453 153.337 93.8888 118.003 97.7329 97.9093C101.948 75.8776 115.641 66.7277 115.779 66.6379L115.188 65.7285C115.047 65.8204 100.992 75.183 96.6761 97.6617C94.1879 110.621 95.3586 125.398 100.155 141.581C106.126 161.723 117.767 184.133 134.757 208.19C141.91 218.275 147.429 229.426 151.11 241.231C159.328 267.734 160.491 304.141 119.358 327.079L119.886 328.026Z" fill="#2F2E41"/>
<path d="M532.051 282.47C513.14 271.924 501.368 257.527 497.06 239.678C493.862 226.425 494.781 211.512 499.792 195.353C503.506 183.439 509.076 172.186 516.294 162.007C554.592 107.78 558.048 72.446 554.204 52.3528C549.989 30.3211 536.296 21.1711 536.158 21.0814L536.749 20.172C536.89 20.2639 550.945 29.6265 555.261 52.1052C557.749 65.0642 556.578 79.841 551.782 96.0247C545.811 116.166 534.17 138.577 517.18 162.634C510.027 172.719 504.508 183.869 500.827 195.674C492.609 222.177 491.446 258.584 532.579 281.523L532.051 282.47Z" fill="#2F2E41"/>
<path d="M541.145 282.47C560.055 271.924 571.827 257.527 576.135 239.678C579.334 226.425 578.414 211.512 573.404 195.353C569.689 183.439 564.12 172.186 556.901 162.007C518.604 107.78 515.147 72.446 518.991 52.3528C523.206 30.3211 536.899 21.1711 537.037 21.0814L536.446 20.172C536.305 20.2639 522.251 29.6265 517.934 52.1052C515.446 65.0642 516.617 79.841 521.414 96.0247C527.384 116.166 539.025 138.577 556.015 162.634C563.168 172.719 568.687 183.869 572.368 195.674C580.586 222.177 581.749 258.584 540.617 281.523L541.145 282.47Z" fill="#2F2E41"/>
<path d="M253.631 162.673C239.422 138.657 211.312 137.538 211.312 137.538C211.312 137.538 183.921 134.034 166.349 170.61C149.971 204.702 127.367 237.619 162.71 245.6L169.094 225.723L173.048 247.08C178.08 247.442 183.128 247.528 188.17 247.338C226.019 246.116 262.065 247.696 260.904 234.109C259.361 216.048 267.302 185.781 253.631 162.673Z" fill="#2F2E41"/>
<path d="M195.312 212.936C200.207 223.77 203.295 236.683 205.138 251.027L244.444 248.569C235.408 235.76 232.407 221.057 235.846 204.335L195.312 212.936Z" fill="#FFB8B8"/>
<path opacity="0.2" d="M195.312 212.936C200.207 223.77 203.295 236.683 205.138 251.027L244.444 248.569C235.408 235.76 232.407 221.057 235.846 204.335L195.312 212.936Z" fill="black"/>
<path d="M12.9425 419.201C12.9425 419.201 -7.40084 430.102 2.92235 439.408C13.2455 448.715 26.882 427.089 26.882 427.089L12.9425 419.201Z" fill="#FFB8B8"/>
<path d="M261.642 387.415L261.324 402.306L260.646 434.483V434.489L260.448 443.807H130.356L135.643 414.439L135.649 414.417L140.383 388.132L142.495 376.36V376.354L249.36 361.61L261.642 387.415Z" fill="#2F2E41"/>
<path d="M261.641 387.417L261.321 402.309C223.514 401.338 164.911 392.209 140.381 388.129L142.494 376.358L249.358 361.613L261.641 387.417Z" fill="#3F3D56"/>
<path d="M214.351 223.381C231.31 223.381 245.058 209.628 245.058 192.663C245.058 175.697 231.31 161.944 214.351 161.944C197.391 161.944 183.643 175.697 183.643 192.663C183.643 209.628 197.391 223.381 214.351 223.381Z" fill="#FFB8B8"/>
<path d="M273.31 404.005C273.31 404.005 276.995 437.18 254.885 434.723L251.2 401.547L231.547 381.887L176.273 380.659L135.738 418.749C135.738 418.749 134.51 379.43 139.423 375.744C144.337 372.057 155.391 363.456 155.391 363.456V357.313L122.227 289.732C122.227 289.732 141.88 249.184 157.848 247.955L178.729 246.727C178.729 246.727 186.099 243.04 186.099 241.812C186.099 240.583 184.871 230.753 191.013 233.211C191.013 233.211 191.565 220.604 198.039 224.45C198.039 224.45 218.416 240.423 239.101 225.15C239.101 225.15 248.743 223.381 247.515 228.296C246.287 233.211 247.515 236.897 249.972 236.897C252.428 236.897 263.483 240.583 263.483 243.04C263.483 243.569 264.282 248.656 265.534 256.311V256.323C270.092 284.228 280.68 346.254 280.68 346.254C280.68 346.254 291.735 362.228 273.31 404.005Z" fill="#ED3237"/>
<path d="M130.825 283.589L122.227 289.733L43.6146 390.489L1.85181 423.665C1.85181 423.665 25.1898 419.978 20.2766 439.638L163.99 357.313L130.825 283.589Z" fill="#ED3237"/>
<path d="M265.534 256.311V256.323C263.901 265.932 210.666 263.929 203.296 263.929C195.926 263.929 189.784 262.7 182.414 257.785C175.044 252.87 178.729 246.727 178.729 246.727C178.729 246.727 185.005 241.946 185.005 240.717C185.005 239.488 183.776 229.658 189.918 232.116C189.918 232.116 190.471 219.509 196.944 223.355C196.944 223.355 218.416 240.423 239.101 225.15C239.101 225.15 248.743 223.381 247.515 228.296C246.287 233.211 247.515 236.897 249.972 236.897C252.428 236.897 263.483 240.583 263.483 243.041C263.483 243.569 264.282 248.656 265.534 256.311Z" fill="#3F3D56"/>
<path d="M259.184 210.479C259.184 210.479 249.357 189.591 239.531 199.42C229.704 209.25 250.586 223.995 250.586 223.995L259.184 210.479Z" fill="#FFB8B8"/>
<path d="M259.184 205.564C259.184 205.564 244.01 224.747 239.314 226.214C239.314 226.214 253.042 280.517 270.239 295.262L280.065 345.64C280.065 345.64 321.828 328.438 312.002 300.177C311.903 299.894 311.806 299.613 311.708 299.334C303.503 275.799 292.18 253.471 278.041 232.947L259.184 205.564Z" fill="#ED3237"/>
<path opacity="0.2" d="M251.075 262.458L281.294 345.639L270.239 295.261L251.075 262.458Z" fill="black"/>
<path d="M247.349 160.358L219.578 145.807L181.227 151.759L173.292 186.816L193.044 186.056L198.562 173.176V185.844L207.676 185.493L212.965 164.988L216.272 186.816L248.672 186.155L247.349 160.358Z" fill="#2F2E41"/>
<path d="M509.7 349.452L525.457 405.678C525.457 405.678 522.21 455.48 537.362 445.736C552.867 435.765 547.102 393.769 547.102 393.769L538.02 343.327L509.7 349.452Z" fill="#A0616A"/>
<path d="M518.12 191.727L531.132 204.743V266.761C531.132 266.761 538.786 278.246 537.255 281.309C535.724 284.371 534.193 284.371 535.724 286.668C537.255 288.965 538.786 290.497 537.255 292.028C535.724 293.559 535.724 297.388 537.255 298.919C538.786 300.45 541.847 302.747 539.551 305.044C537.255 307.341 534.193 305.81 537.255 314.232C540.316 322.654 545.674 324.951 544.143 328.014C542.613 331.077 542.613 338.733 542.613 338.733L509.7 343.327L502.812 256.808L518.12 191.727Z" fill="#D0CDE1"/>
<path d="M544.143 337.968L505.873 339.499L507.404 355.578L541.082 349.453L544.143 337.968Z" fill="#3F3D56"/>
<path d="M438.901 111.715L434.308 157.654L480.998 164.545L484.442 138.13L487.887 111.715H438.901Z" fill="#A0616A"/>
<path opacity="0.1" d="M438.901 111.467L434.308 157.407L480.998 164.298L484.442 137.882L487.887 111.467H438.901Z" fill="black"/>
<path d="M337.485 330.312L363.509 386.205C363.509 386.205 368.101 412.237 374.99 413.003C381.878 413.769 388.767 386.205 388.767 386.205L379.582 371.657L368.867 330.312H337.485Z" fill="#A0616A"/>
<path d="M515.625 444.35H368.5C369.665 425.905 370.399 414.533 370.399 414.533L372.353 411.456L381.827 396.564L388.592 385.931L390.951 382.219L391.826 380.845L401.092 379.153L496.687 361.704C498.269 368.786 500.506 375.706 503.37 382.372C504.021 383.856 504.722 385.34 505.472 386.807C507.875 391.499 510.808 395.945 514.295 399.219C515.088 399.964 515.663 401.951 516.035 405.006C516.955 412.491 516.692 426.408 515.625 444.35Z" fill="#2F2E41"/>
<path d="M464.542 126.646C484.832 126.646 501.281 110.192 501.281 89.8943C501.281 69.5969 484.832 53.1426 464.542 53.1426C444.251 53.1426 427.802 69.5969 427.802 89.8943C427.802 110.192 444.251 126.646 464.542 126.646Z" fill="#A0616A"/>
<path d="M382.644 164.929L377.286 161.866C377.286 161.866 353.559 177.945 345.905 213.931C338.251 249.917 332.893 259.105 332.893 259.105C332.893 259.105 325.239 260.636 330.597 265.996C335.954 271.356 335.955 270.59 331.362 273.653C326.77 276.715 323.708 270.59 326.77 276.715C329.831 282.84 333.658 281.309 330.597 285.138C327.535 288.966 322.177 288.966 325.239 292.028C328.3 295.091 322.177 301.982 326.004 305.045C329.831 308.107 331.362 308.873 331.362 314.233C331.339 317.361 331.857 320.469 332.893 323.421H372.694C372.694 323.421 365.04 308.873 367.336 305.81C369.632 302.748 370.398 299.685 368.867 298.154C367.336 296.622 362.744 299.685 367.336 295.857C371.928 292.028 373.459 294.325 371.928 289.731C370.398 285.138 367.336 287.434 370.398 285.138C373.459 282.841 375.755 283.606 374.225 281.309C372.694 279.012 369.632 279.012 372.694 277.481C375.755 275.95 378.052 277.481 377.286 273.653C376.521 269.824 375.755 271.356 377.286 269.824C378.817 268.293 394.89 216.228 394.89 214.697C394.89 213.165 382.644 164.929 382.644 164.929Z" fill="#D0CDE1"/>
<path d="M374.99 320.357L326.77 323.42L339.016 334.905L372.694 335.671L374.99 320.357Z" fill="#3F3D56"/>
<path d="M388.767 377.782L378.817 396.158C378.817 396.158 408.667 399.986 419.383 403.815C430.099 407.643 457.653 413.003 457.653 413.003L464.542 386.205L388.767 377.782Z" fill="#3F3D56"/>
<path d="M476.022 386.204L484.442 411.471L518.12 404.58L514.293 380.845L476.022 386.204Z" fill="#3F3D56"/>
<path d="M489.8 138.896C489.8 138.896 487.504 137.365 482.146 140.427C476.788 143.49 459.184 145.021 450.765 135.834C442.345 126.646 436.222 118.989 433.926 120.52C431.63 122.052 430.099 139.662 430.099 139.662L422.445 145.787L377.286 161.866L381.113 265.23L388.002 288.966C388.002 288.966 382.644 307.342 389.533 318.061C396.421 328.78 385.706 332.608 385.706 332.608C385.706 332.608 383.409 335.671 384.94 343.328C386.471 350.984 383.409 379.314 383.409 379.314C383.409 379.314 448.468 408.409 516.589 383.142L508.935 354.047L505.108 288.966C505.108 288.966 508.935 278.246 508.17 273.652C507.404 269.058 531.132 204.743 531.132 204.743C531.132 204.743 527.305 172.585 507.404 165.694C487.504 158.803 484.442 151.912 484.442 151.912C484.442 151.912 493.627 141.959 489.8 138.896Z" fill="#D0CDE1"/>
<path d="M427.548 94.6019C427.548 94.6019 423.733 88.8771 425.2 82.7121C426.077 79.2118 426.423 75.5997 426.227 71.9966C426.227 71.9966 429.309 62.0151 432.39 56.4371C435.472 50.8592 434.004 48.5106 443.689 46.7492C453.374 44.9877 449.412 32.364 474.944 46.0152C475.805 47.2184 477.004 48.1393 478.388 48.6618C479.772 49.1843 481.28 49.2849 482.721 48.951C488.004 47.9235 489.911 55.2628 489.911 55.2628C489.911 55.2628 493.433 53.2078 494.753 56.1436C496.074 59.0793 505.491 54.3816 505.491 74.1979C505.491 94.0142 494.775 111.715 494.775 111.715C494.775 111.715 495.561 78.3819 478.099 75.0057C460.637 71.6296 441.855 61.7949 437.306 74.4186C432.757 87.0423 427.548 94.6019 427.548 94.6019Z" fill="#2F2E41"/>
<path d="M495.158 102.528C497.06 102.528 498.602 100.471 498.602 97.9338C498.602 95.3966 497.06 93.3398 495.158 93.3398C493.255 93.3398 491.713 95.3966 491.713 97.9338C491.713 100.471 493.255 102.528 495.158 102.528Z" fill="#A0616A"/>
</svg>
