<svg width="593" height="449" viewBox="0 0 593 449" fill="none" xmlns="http://www.w3.org/2000/svg">
<g opacity="0.5">
<path opacity="0.5" d="M585.351 209.325H528.062C523.838 209.325 520.413 212.924 520.413 217.364V277.573C520.413 282.012 523.838 285.611 528.062 285.611H585.351C589.576 285.611 593 282.012 593 277.573V217.364C593 212.924 589.576 209.325 585.351 209.325Z" fill="#D0D2D5"/>
<path opacity="0.1" d="M546.415 231.249H566.999C566.999 231.249 584.333 247.189 566.999 263.699H546.415C546.415 263.699 529.08 248.897 546.415 231.249Z" fill="black"/>
<path opacity="0.5" d="M551.29 240.352H548.581V248.891H551.29V240.352Z" fill="#3F3D56"/>
<path opacity="0.5" d="M564.832 239.213H562.124V249.461H564.832V239.213Z" fill="#3F3D56"/>
<path opacity="0.5" d="M556.707 254.015C557.569 254.015 558.395 254.375 559.005 255.016C559.614 255.656 559.957 256.525 559.957 257.431V260.277H553.457V257.431C553.457 256.525 553.799 255.656 554.409 255.016C555.018 254.375 555.845 254.015 556.707 254.015Z" fill="#3F3D56"/>
</g>
<path d="M336.807 135.755C338.524 135.715 340.236 135.852 341.948 135.755C343.513 135.675 345.068 135.408 346.633 135.243C349.309 134.964 352.007 134.986 354.694 134.867C356.46 134.787 358.323 134.605 359.753 133.512C361.097 132.493 361.844 130.83 363.041 129.624C367.917 124.699 371.259 118.112 375.592 112.647C376.676 111.258 377.808 109.875 378.788 108.389C380.668 105.542 381.995 102.314 383.317 99.1263C383.838 97.9444 384.272 96.7225 384.617 95.4714C384.861 94.4694 384.985 93.4333 385.31 92.4541C385.982 90.4501 387.596 88.6967 387.791 86.5846L387.564 86.6188C389.535 83.9829 389.232 79.3887 390.207 76.0127C390.831 74.0076 391.585 72.0502 392.466 70.1547L396.09 61.86C396.713 60.4367 397.363 58.9679 398.441 57.8749C399.746 56.5484 401.566 55.888 402.877 54.5673C403.657 53.754 404.24 52.7566 404.578 51.6581L404.692 51.772C405.385 52.4836 405.927 53.3547 406.604 54.0891C408.061 55.6717 410.082 56.5769 411.566 58.1311C412.324 58.9224 412.947 59.8845 413.863 60.4595C414.33 60.7279 414.866 60.8354 415.395 60.767C415.923 60.6985 416.418 60.4576 416.81 60.0781C419.469 57.6187 423.434 57.391 426.311 55.222C427.107 54.6185 427.8 53.8841 428.548 53.2237C430.333 51.7291 432.272 50.4497 434.328 49.4094C435.534 49.4301 436.734 49.6098 437.898 49.9446C439.566 50.4285 441.197 51.2312 442.93 51.197C444.477 51.1168 445.96 50.5184 447.161 49.4891C448.043 48.7718 448.851 47.7812 448.981 46.6426C449.014 46.0582 448.913 45.474 448.687 44.939C448.461 44.404 448.116 43.9339 447.681 43.5684C447.561 43.4602 447.437 43.3635 447.312 43.2667C447.275 42.7558 447.141 42.2579 446.917 41.803C446.692 41.3481 446.383 40.9455 446.007 40.6194C445.129 39.8972 444.126 39.3599 443.054 39.0368C442.458 38.7906 441.83 38.6409 441.191 38.5928C440.195 38.6498 439.215 38.8906 438.298 39.3044C436.455 39.9283 434.554 40.3481 432.627 40.5568C432.286 40.591 431.592 40.517 431.002 40.5113L430.801 39.9078C428.548 41.0009 425.926 40.1014 423.456 40.1071C422.254 40.1071 421.056 40.3291 419.859 40.4088C418.533 40.4639 417.206 40.4335 415.883 40.3177L411.88 40.0502C410.171 39.9578 408.467 39.7677 406.777 39.4809C406.328 38.5187 405.878 37.5566 405.374 36.6344C404.526 35.0841 403.53 33.6287 402.401 32.2906C402.854 31.8801 403.332 31.4999 403.831 31.152L403.928 31.0894C404.053 31.0154 404.204 30.9357 404.372 30.856C405.935 31.6369 407.66 31.9896 409.387 31.8814C411.114 31.7732 412.787 31.2075 414.25 30.237C415.713 29.2665 416.918 27.9227 417.754 26.3308C418.59 24.7389 419.029 22.9506 419.031 21.1324C419.327 21.0124 419.617 20.8736 419.897 20.7168C420.06 20.6257 420.222 20.5289 420.379 20.4207L420.612 20.2556C420.76 20.1378 420.902 20.0104 421.035 19.8742C421.1 19.8059 421.165 19.7376 421.224 19.6636C421.343 19.5161 421.447 19.3558 421.533 19.1854C421.566 19.1171 421.598 19.0544 421.625 18.9861C421.652 18.9178 421.625 18.9349 421.652 18.9064C421.679 18.8779 421.69 18.8039 421.706 18.7584C421.723 18.7128 421.706 18.6901 421.734 18.6559L421.766 18.5193C421.769 18.4833 421.769 18.4471 421.766 18.4111C421.766 18.3656 421.766 18.32 421.766 18.2802V18.1606C421.763 18.1189 421.763 18.0771 421.766 18.0354C421.769 17.9937 421.769 17.9518 421.766 17.9101C421.766 17.8703 421.766 17.8247 421.766 17.7849C421.769 17.7432 421.769 17.7013 421.766 17.6596V17.5059C421.769 17.4623 421.769 17.4186 421.766 17.375C421.766 17.3351 421.766 17.2953 421.766 17.2554V17.1188V17.005C421.766 16.9537 421.766 16.9025 421.766 16.8569C421.769 16.8228 421.769 16.7886 421.766 16.7545C421.769 16.7014 421.769 16.6481 421.766 16.5951C421.766 16.5609 421.766 16.5324 421.766 16.504C421.766 16.4755 421.766 16.3901 421.728 16.3332V16.2535L421.679 16.0713V16.003C421.679 15.9404 421.641 15.8777 421.625 15.8151V15.7582L421.56 15.5532V15.5191C421.56 15.4223 421.501 15.3198 421.468 15.2231C421.062 13.9934 420.623 12.7694 420.157 11.5625C419.818 10.5525 419.308 9.61523 418.651 8.79567C417.693 7.72539 416.317 7.19025 415.168 6.3363C413.814 5.33434 412.801 3.91679 411.653 2.65294C410.504 1.3891 409.112 0.244809 407.46 0.0341689C406.148 -0.0462573 404.836 0.205599 403.636 0.768564C393.685 4.62841 385.538 12.2342 376.616 18.2688C373.144 20.62 369.254 22.8232 365.143 22.5215L368.772 28.5788C368.946 28.8748 369.124 29.1481 369.314 29.4555C369.504 29.7629 369.693 30.0248 369.894 30.3095C370.405 31.0472 371.052 31.6704 371.795 32.1426C371.982 32.2571 372.178 32.3561 372.38 32.4386C372.557 32.5086 372.738 32.5675 372.922 32.6151C374.216 32.9396 375.63 32.6664 376.941 32.3931C377.391 32.302 377.84 32.2052 378.284 32.0971L378.826 31.9377H378.913C378.913 31.9718 378.913 32.0003 378.913 32.0287C378.61 32.598 378.322 33.1161 378.068 33.6797C377.231 35.7198 376.584 37.8398 376.134 40.0103C375.11 44.28 374.081 48.6409 374.352 53.0245C374.444 54.5046 374.682 56.019 374.276 57.4422C374.081 58.1425 373.734 58.8598 373.918 59.5543C374.112 59.9554 374.278 60.3701 374.417 60.7954C374.504 61.4558 374.005 62.0251 373.648 62.5716C373.29 63.1181 373.106 63.9892 373.615 64.3706C373.1 64.5604 372.645 64.8985 372.303 65.3463C371.961 65.7942 371.746 66.3338 371.681 66.904C371.693 67.2391 371.63 67.5724 371.497 67.8775C371.345 68.0836 371.162 68.2624 370.955 68.4069C370.405 68.8919 370.045 69.5729 369.942 70.3197C368.897 70.3197 368.014 71.39 367.061 72.0276C366.226 72.4715 365.344 72.8079 364.433 73.0296C361.817 73.9063 359.558 75.711 357.516 77.6125C356.379 78.6543 355.23 79.8043 354.732 81.2958C354.569 81.7854 354.483 82.2978 354.342 82.7931C354.05 83.7521 353.627 84.6613 353.085 85.4916C352.046 87.1716 350.767 88.6732 349.293 89.9435C348.547 90.5748 347.89 91.3147 347.343 92.141C346.514 93.3991 344.83 93.7748 343.941 94.9874C343.622 95.5848 343.26 96.1557 342.858 96.6953C342.17 97.3785 341.13 97.4354 340.252 97.8339C338.199 98.7277 337.251 101.25 335.42 102.582C335.32 102.672 335.189 102.716 335.058 102.707C334.9 102.707 334.808 102.508 334.673 102.411C334.408 102.223 334.055 102.366 333.741 102.451C333.427 102.536 333.005 102.502 332.923 102.172C328.508 99.3597 324.17 96.3082 319.749 93.4959L317.734 92.215L306.955 85.3492C306.827 85.2654 306.68 85.2209 306.529 85.2209C306.379 85.2209 306.232 85.2654 306.104 85.3492L305.768 85.594C305.227 84.9906 304.625 84.4554 304.268 84.0114C304.122 83.8349 303.975 83.6584 303.824 83.4876C303.922 83.4914 304.02 83.4719 304.111 83.4307C304.232 83.3616 304.323 83.2466 304.367 83.1091C304.41 82.9716 304.402 82.822 304.344 82.6906C304.229 82.4312 304.058 82.2032 303.845 82.0245C303.374 81.5445 302.941 81.0247 302.551 80.4703C302.13 79.7759 301.653 79.1207 301.126 78.512C300.86 78.2073 300.531 77.9698 300.166 77.817C299.8 77.6642 299.406 77.6001 299.013 77.6295C298.577 77.7173 298.162 77.8932 297.789 78.1476C296.308 79.0522 294.942 80.1523 293.727 81.4211C293.673 81.4614 293.629 81.5143 293.598 81.5755C293.567 81.6368 293.55 81.7047 293.548 81.774C293.548 81.8879 293.656 81.9733 293.667 82.0815C293.67 82.1869 293.633 82.2893 293.564 82.3661C292.835 83.3172 291.97 84.1448 291.002 84.8198C289.626 85.9015 288.281 87.0249 286.966 88.19C286.143 88.8048 285.492 89.6404 285.081 90.6095C284.794 91.7338 284.912 92.9296 285.412 93.9684C286.311 96.1944 287.887 98.0389 289.447 99.8208C289.703 100.188 290.067 100.456 290.482 100.584C290.812 100.631 291.147 100.546 291.419 100.345C292.378 99.6842 292.535 98.3178 292.605 97.1223C292.632 96.553 292.665 96.0293 292.697 95.4827C292.695 95.3732 292.715 95.2644 292.757 95.1639C292.84 95.0398 292.954 94.9431 293.087 94.885L294.577 94.0595C294.534 93.9855 294.485 93.9115 294.436 93.8375C295.56 93.3944 296.783 93.3112 297.952 93.5984C298.743 93.8432 299.468 94.3384 300.227 94.6459C300.106 95.7083 300.295 96.7842 300.769 97.7315C303.547 98.0332 306.05 99.3312 308.536 100.641C310.541 101.685 312.49 102.842 314.376 104.108C315.907 105.155 317.406 106.25 318.872 107.392C320.952 109.009 322.962 110.723 324.95 112.454C326.242 113.652 327.632 114.728 329.104 115.67C333.015 117.976 338.259 118.055 341.85 115.18C346.379 111.554 352.142 109.67 357.018 106.533C358.466 105.681 359.789 104.613 360.945 103.362C360.934 103.51 360.913 103.656 360.88 103.8C360.587 105.218 359.423 106.242 358.984 107.677C358.643 108.816 358.767 110.131 358.106 111.093C357.603 111.827 356.66 112.351 356.633 113.256C356.633 113.507 356.704 113.757 356.704 114.008C356.676 114.325 356.588 114.633 356.443 114.913C355.902 116.194 355.295 117.537 354.185 118.329C353.751 118.642 353.199 118.926 353.101 119.467C353.095 119.624 353.056 119.778 352.988 119.917C352.803 120.185 352.397 120.042 352.105 120.156C351.698 120.316 351.633 120.868 351.471 121.295C351.322 121.649 351.071 121.946 350.753 122.142C350.435 122.338 350.067 122.424 349.699 122.388C346 121.915 342.365 123.674 338.638 123.572C337.354 123.532 336.076 123.395 334.787 123.384C330.832 123.35 326.959 124.523 323.151 125.661C322.727 126.449 322.465 127.322 322.382 128.223C321.081 128.574 319.723 128.629 318.401 128.382C318.071 128.314 317.738 128.267 317.404 128.24C317.5 127.983 317.529 127.705 317.491 127.432C315.935 127.95 314.439 128.651 313.032 129.521C312.106 130.09 311.126 130.887 311.039 132.009C311.026 132.441 311.085 132.873 311.212 133.284L311.716 135.294C311.778 135.666 311.933 136.014 312.166 136.301C312.334 136.472 312.556 136.575 312.707 136.757C312.855 136.972 312.955 137.219 313 137.48L313.422 139.222C313.58 139.802 313.692 140.394 313.758 140.992C313.807 141.562 313.758 142.086 313.796 142.632C313.853 143.533 313.978 144.428 314.17 145.308L314.771 148.462C314.906 149.343 315.144 150.204 315.481 151.023C315.735 151.593 316.077 152.082 316.283 152.652C316.445 153.09 316.521 153.557 316.716 153.972C317.067 154.648 317.619 155.183 318.287 155.498C318.52 155.643 318.781 155.728 319.051 155.749C319.82 155.749 320.372 154.997 320.73 154.28C321.442 152.976 321.828 151.503 321.851 149.999C321.851 149.395 321.737 148.798 321.689 148.194C321.559 146.486 322.024 144.824 322.024 143.122C322.042 142.893 321.984 142.666 321.861 142.477C321.738 142.288 321.556 142.15 321.347 142.086C321.396 140.639 321.391 139.108 322.117 137.873C322.476 137.298 322.923 136.788 323.438 136.364C323.639 137.036 323.861 137.702 324.11 138.351C328.232 137.087 332.49 135.869 336.807 135.755ZM424.881 48.3277C424.588 48.4416 424.29 48.5555 423.987 48.6579C421.463 49.5404 418.57 50.4 415.959 49.7965C415.168 49.5565 414.423 49.171 413.76 48.6579L413.57 48.5327C417.248 47.8552 421.089 48.0203 424.881 48.3277Z" fill="url(#paint0_linear_459_4706)"/>
<path d="M439.539 42.4698C440.451 42.059 441.425 41.8219 442.415 41.7695C443.051 41.8203 443.676 41.9719 444.268 42.2193C445.338 42.5475 446.339 43.0887 447.215 43.8133C447.648 44.181 447.992 44.6513 448.219 45.1856C448.446 45.72 448.549 46.3032 448.52 46.8875C448.396 48.0261 447.594 49.011 446.716 49.734C445.526 50.7622 444.052 51.3609 442.513 51.4419C440.79 51.4704 439.165 50.6563 437.502 50.1724C436.293 49.8128 435.043 49.6214 433.786 49.6031C433.154 49.6389 432.519 49.5969 431.896 49.4778C431.583 49.4159 431.289 49.2774 431.037 49.0737C430.784 48.8699 430.581 48.6066 430.444 48.3051C430.287 47.7478 430.287 47.1545 430.444 46.5972C430.569 45.8913 430.547 44.2175 431.143 43.7962C431.619 43.4547 433.31 43.7279 433.895 43.6767C435.811 43.4858 437.704 43.0812 439.539 42.4698Z" fill="#FBBEBE"/>
<path d="M400.868 31.0097C402.509 32.6963 403.921 34.6118 405.066 36.7027C406.973 40.1982 408.186 44.263 411.057 46.9501C411.82 47.6249 412.629 48.2396 413.478 48.7889C414.142 49.3017 414.886 49.6871 415.678 49.9275C418.256 50.5366 421.149 49.6884 423.662 48.7889C426.15 47.8504 428.565 46.7083 430.883 45.3731C430.899 46.473 431.19 47.549 431.728 48.4929C432.329 49.3867 433.559 49.9104 434.436 49.3468C432.214 50.4445 430.118 51.8064 428.191 53.4059C427.448 54.0663 426.76 54.795 425.97 55.3928C423.115 57.5504 419.166 57.7667 416.528 60.2147C416.137 60.5895 415.644 60.8266 415.119 60.8929C414.594 60.9592 414.062 60.8515 413.597 60.5848C412.682 60.0155 412.059 59.0363 411.306 58.2449C409.822 56.6851 407.807 55.7742 406.35 54.1858C405.672 53.4515 405.131 52.5804 404.437 51.8631C403.446 50.8384 402.157 50.1552 401.247 49.0166C400.57 48.1797 400.163 47.1607 399.53 46.2669C398.988 45.4927 398.349 44.8152 397.867 43.9897C396.686 42.0142 396.697 39.4353 397.374 37.2207C398.051 35.0062 399.606 32.9396 400.868 31.0097Z" fill="#F86D70"/>
<path opacity="0.1" d="M400.868 31.0097C402.509 32.6963 403.921 34.6118 405.066 36.7027C406.973 40.1982 408.186 44.263 411.057 46.9501C411.82 47.6249 412.629 48.2396 413.478 48.7889C414.142 49.3017 414.886 49.6871 415.678 49.9275C418.256 50.5366 421.149 49.6884 423.662 48.7889C426.15 47.8504 428.565 46.7083 430.883 45.3731C430.899 46.473 431.19 47.549 431.728 48.4929C432.329 49.3867 433.559 49.9104 434.436 49.3468C432.214 50.4445 430.118 51.8064 428.191 53.4059C427.448 54.0663 426.76 54.795 425.97 55.3928C423.115 57.5504 419.166 57.7667 416.528 60.2147C416.137 60.5895 415.644 60.8266 415.119 60.8929C414.594 60.9592 414.062 60.8515 413.597 60.5848C412.682 60.0155 412.059 59.0363 411.306 58.2449C409.822 56.6851 407.807 55.7742 406.35 54.1858C405.672 53.4515 405.131 52.5804 404.437 51.8631C403.446 50.8384 402.157 50.1552 401.247 49.0166C400.57 48.1797 400.163 47.1607 399.53 46.2669C398.988 45.4927 398.349 44.8152 397.867 43.9897C396.686 42.0142 396.697 39.4353 397.374 37.2207C398.051 35.0062 399.606 32.9396 400.868 31.0097Z" fill="black"/>
<path d="M304.593 83.5846C304.173 83.0058 303.655 82.5136 303.065 82.1329C302.169 81.715 301.169 81.6073 300.211 81.8255C297.795 82.2126 295.552 83.374 293.429 84.672C291.717 85.7024 290.016 86.8467 288.792 88.4692C288.388 88.9583 288.107 89.5453 287.974 90.1771C287.904 90.6984 287.947 91.2295 288.098 91.7313C288.207 92.2962 288.438 92.8272 288.773 93.2833C289.109 93.7394 289.54 94.1083 290.032 94.3614C291.164 94.8282 292.426 94.3329 293.564 93.8775C295.092 93.257 296.771 92.682 298.342 93.1716C299.506 93.5359 300.508 94.4639 301.738 94.498C303.184 94.5436 304.354 93.3139 305.275 92.1411C306.072 91.1164 307.816 89.2662 307.702 87.8259C307.588 86.3855 305.449 84.615 304.593 83.5846Z" fill="#FBBEBE"/>
<path d="M322.848 127.893C321.522 128.264 320.135 128.324 318.785 128.069C317.962 127.91 316.954 127.705 316.429 128.383C316.26 128.634 316.147 128.922 316.098 129.225C314.75 135.026 315.985 141.18 318.265 146.674C318.294 146.767 318.347 146.85 318.417 146.913C318.563 147.027 318.764 146.947 318.931 146.873C319.483 146.64 320 146.324 320.464 145.934C321.504 144.943 321.727 143.332 321.775 141.858C321.824 140.383 321.802 138.823 322.528 137.56C323.438 135.994 325.34 135.231 326.087 133.575C326.688 132.225 326.374 130.626 325.843 129.248C325.665 128.77 325.594 127.54 325.172 127.307C324.749 127.073 323.33 127.756 322.848 127.893Z" fill="#FBBEBE"/>
<path d="M304.436 83.0038C304.556 82.9338 304.646 82.8184 304.689 82.681C304.731 82.5436 304.722 82.3944 304.663 82.2637C304.547 82.0035 304.377 81.774 304.165 81.592C303.693 81.1127 303.261 80.5907 302.876 80.0321C302.45 79.3412 301.974 78.6864 301.451 78.0737C301.185 77.7695 300.858 77.5318 300.494 77.3781C300.129 77.2244 299.736 77.1586 299.344 77.1856C298.909 77.2675 298.494 77.4418 298.125 77.698C296.652 78.5955 295.295 79.6901 294.09 80.9544C293.997 81.0511 293.895 81.1707 293.916 81.3073C293.938 81.4439 294.025 81.5009 294.035 81.6147C294.039 81.7176 294.004 81.8177 293.938 81.8937C293.214 82.841 292.355 83.6648 291.392 84.336C290.027 85.4139 288.691 86.5335 287.383 87.6949C286.566 88.3063 285.92 89.1382 285.515 90.103C285.238 91.2272 285.359 92.4189 285.856 93.4562C286.76 95.6878 288.337 97.5323 289.891 99.3256C290.152 99.6913 290.516 99.9605 290.931 100.094C291.26 100.141 291.593 100.056 291.863 99.8551C292.811 99.2004 292.947 97.8341 293.028 96.6442L293.114 94.999C293.112 94.8913 293.133 94.7844 293.174 94.6858C293.256 94.5606 293.371 94.4635 293.504 94.4069L294.978 93.5871C294.527 92.817 293.886 92.1899 293.123 91.7728C292.36 91.3557 291.503 91.1642 290.644 91.2188C290.252 91.3169 289.839 91.2581 289.485 91.0537C289.314 90.8671 289.219 90.6181 289.219 90.3592C289.219 90.1002 289.314 89.8513 289.485 89.6646C289.844 89.3059 290.284 89.0492 290.764 88.9188C294.647 87.4216 298.158 85.0191 301.928 83.2259C302.341 83.0062 302.798 82.8949 303.26 82.9014C303.64 82.9298 304.084 83.1632 304.436 83.0038Z" fill="#F86D70"/>
<path d="M319.739 142.62C319.565 142.962 319.506 143.361 319.316 143.696C319.126 144.032 318.715 144.266 318.395 144.095C318.227 143.971 318.101 143.793 318.038 143.588C316.395 139.64 315.932 135.26 316.711 131.03C316.818 130.338 317.013 129.664 317.29 129.026C317.577 128.411 317.994 127.785 317.875 127.113C316.328 127.625 314.842 128.321 313.444 129.185C312.523 129.754 311.554 130.546 311.467 131.661C311.459 132.094 311.519 132.525 311.646 132.937L312.155 134.946C312.216 135.32 312.374 135.668 312.61 135.954C312.772 136.125 312.994 136.233 313.152 136.415C313.3 136.627 313.401 136.873 313.444 137.132L313.872 138.875C314.031 139.456 314.146 140.05 314.213 140.651C314.262 141.22 314.213 141.744 314.257 142.29C314.318 143.189 314.445 144.082 314.636 144.96L315.248 148.114C315.386 148.996 315.626 149.856 315.963 150.676C316.218 151.245 316.559 151.735 316.77 152.31C316.927 152.748 317.008 153.215 317.203 153.631C317.555 154.305 318.104 154.841 318.769 155.162C319.002 155.306 319.263 155.393 319.533 155.418C320.297 155.447 320.844 154.667 321.201 153.95C321.9 152.645 322.272 151.176 322.285 149.68C322.285 149.076 322.165 148.479 322.117 147.875C321.981 146.167 322.436 144.511 322.431 142.808C322.442 141.214 320.297 141.516 319.739 142.62Z" fill="#F86D70"/>
<path d="M399.215 43.4319C397.528 42.6157 396.044 41.3975 394.882 39.8738C394.284 39.0704 393.741 38.2239 393.257 37.3404C391.2 33.6913 389.433 29.8697 387.975 25.9146C390.283 26.4099 392.704 26.8596 394.974 26.1765C396.158 25.7973 397.261 25.1827 398.224 24.3661C399.458 23.2997 400.604 22.1245 401.648 20.8535C402.437 22.4431 403.342 23.9658 404.356 25.4079C404.936 26.2277 406.897 27.8957 406.75 29.0116C406.604 30.1274 404.437 30.6853 403.56 31.2148L403.468 31.2774C402.174 32.1371 401.044 33.2434 400.136 34.5395C398.435 37.0785 397.845 40.6196 399.215 43.4319Z" fill="#FBBEBE"/>
<path opacity="0.1" d="M403.603 31.1919C402.301 30.52 401.151 29.5625 400.23 28.3841C399.31 27.2056 398.641 25.8336 398.267 24.3603C399.502 23.2939 400.647 22.1187 401.691 20.8477C402.48 22.4373 403.386 23.96 404.399 25.4021C404.979 26.2219 406.94 27.8899 406.794 29.0058C406.647 30.1216 404.481 30.6624 403.603 31.1919Z" fill="black"/>
<path d="M408.478 32.0286C414.082 32.0286 418.624 27.2546 418.624 21.3656C418.624 15.4766 414.082 10.7026 408.478 10.7026C402.875 10.7026 398.333 15.4766 398.333 21.3656C398.333 27.2546 402.875 32.0286 408.478 32.0286Z" fill="#FBBEBE"/>
<path d="M386.285 87.7856C385.583 88.2281 384.784 88.4717 383.966 88.4927C383.147 88.5136 382.338 88.3112 381.616 87.9052C380.865 87.4184 380.186 86.818 379.601 86.1233C376.269 82.531 373.1 78.7224 370.874 74.2648C370.357 73.3242 370.021 72.2852 369.888 71.2077C369.826 70.6692 369.888 70.1228 370.07 69.6152C370.252 69.1076 370.548 68.6539 370.934 68.2929C371.141 68.1489 371.324 67.97 371.475 67.7634C371.606 67.4599 371.667 67.1284 371.654 66.7956C371.714 66.2277 371.926 65.6894 372.266 65.2431C372.605 64.7967 373.058 64.4606 373.572 64.2736C373.03 63.8865 373.247 63.0268 373.599 62.4746C373.951 61.9224 374.444 61.336 374.357 60.6984C374.219 60.2731 374.052 59.8585 373.859 59.4573C373.664 58.7628 374.016 58.0455 374.206 57.3509C374.601 55.9277 374.363 54.4134 374.265 52.9332C373.978 48.5496 374.991 44.2001 375.993 39.9361C376.436 37.7708 377.075 35.6549 377.9 33.6169C378.154 33.0476 378.442 32.4783 378.734 31.9716C379.757 30.2294 380.896 28.5648 382.141 26.9903C382.724 26.0639 383.525 25.311 384.465 24.8041C384.553 24.7641 384.644 24.7298 384.736 24.7017C385.411 24.5184 386.112 24.4625 386.805 24.5366C388.636 24.6561 390.559 25.1059 391.865 26.4608C393.17 27.8157 393.593 29.7172 394.183 31.5503C394.371 32.1639 394.599 32.7631 394.866 33.3436C395.727 35.1426 397.13 36.5772 398.511 37.972L400.012 39.492C400.765 40.2549 402.07 40.0613 402.78 40.8641C403.069 41.2413 403.284 41.6746 403.414 42.1393C404.215 44.1927 404.682 46.3732 404.795 48.5894C404.8 49.0823 404.773 49.575 404.714 50.0639C404.53 51.7797 403.808 53.3823 402.661 54.6183C401.361 55.9334 399.551 56.5824 398.257 57.9032C397.173 58.9962 396.545 60.4593 395.927 61.8882C394.736 64.6437 393.542 67.4028 392.347 70.1658C391.481 72.0564 390.738 74.0059 390.12 76.0011C388.994 79.9805 389.633 85.5938 386.285 87.7856Z" fill="#F86D70"/>
<path d="M355.003 134.696C352.327 134.81 349.645 134.776 346.98 135.043C345.425 135.203 343.876 135.47 342.316 135.539C340.615 135.618 338.909 135.476 337.203 135.51C332.907 135.607 328.671 136.808 324.538 138.049C323.371 135.054 322.762 131.852 322.745 128.616C322.734 128.402 322.734 128.187 322.745 127.973C322.82 127.056 323.081 126.167 323.509 125.365C327.301 124.227 331.147 123.088 335.085 123.145C336.368 123.145 337.641 123.304 338.92 123.344C342.63 123.464 346.238 121.716 349.922 122.206C350.287 122.244 350.654 122.159 350.97 121.963C351.287 121.768 351.536 121.472 351.682 121.118C351.839 120.697 351.904 120.145 352.31 119.98C352.603 119.866 353.004 120.008 353.188 119.746C353.254 119.606 353.292 119.453 353.302 119.297C353.41 118.727 353.957 118.471 354.385 118.158C355.468 117.372 356.081 116.029 356.622 114.742C356.765 114.464 356.851 114.158 356.877 113.843C356.877 113.592 356.801 113.342 356.806 113.085C356.806 112.186 357.765 111.668 358.264 110.933C358.919 109.966 358.805 108.656 359.125 107.518C359.558 106.083 360.712 105.064 360.999 103.652C361.032 103.508 361.053 103.361 361.064 103.214C359.915 104.459 358.599 105.522 357.159 106.368C352.348 109.482 346.596 111.343 342.105 114.947C338.541 117.794 333.319 117.708 329.419 115.391C327.948 114.445 326.559 113.365 325.269 112.163C323.287 110.455 321.282 108.708 319.208 107.079C317.763 105.941 316.266 104.842 314.717 103.783C312.841 102.479 310.899 101.284 308.899 100.202C306.418 98.8814 303.921 97.5721 301.158 97.2589C300.803 96.497 300.606 95.6646 300.58 94.8167C300.554 93.9688 300.7 93.1247 301.007 92.3402C301.638 90.7797 302.493 89.3302 303.542 88.042C304.327 86.8319 305.31 85.7776 306.445 84.9279C306.572 84.844 306.718 84.7994 306.868 84.7994C307.018 84.7994 307.164 84.844 307.29 84.9279L318.027 91.8563L320.036 93.1486C324.44 95.9951 328.774 99.0408 333.178 101.87C333.259 102.195 333.687 102.235 333.996 102.149C334.305 102.064 334.657 101.927 334.922 102.115C335.052 102.206 335.144 102.377 335.307 102.411C335.436 102.416 335.563 102.371 335.664 102.286C337.484 100.971 338.416 98.4431 340.458 97.5607C341.33 97.1849 342.365 97.128 343.047 96.4221C343.451 95.8839 343.813 95.3128 344.131 94.7142C345.014 93.5016 346.688 93.1372 347.506 91.8677C348.047 91.0455 348.699 90.3092 349.439 89.6816C350.915 88.4191 352.194 86.9229 353.231 85.2467C353.767 84.4192 354.185 83.514 354.472 82.5597C354.613 82.0644 354.699 81.552 354.856 81.0624C355.349 79.5708 356.481 78.4265 357.614 77.3904C359.667 75.5004 361.882 73.7071 364.482 72.836C365.389 72.6154 366.268 72.2809 367.099 71.8398C368.144 71.168 369.103 69.9212 370.3 70.2116C370.754 70.3595 371.163 70.6304 371.486 70.9972C372.955 72.498 374.304 74.1221 375.522 75.8533C377.454 78.4379 379.384 81.0244 381.313 83.6129C381.921 84.5436 382.691 85.3451 383.582 85.9754C384.875 86.6748 386.361 86.8763 387.78 86.5447C387.591 88.6568 385.993 90.3989 385.332 92.4028C385.012 93.3763 384.888 94.4125 384.649 95.4087C384.314 96.6588 383.884 97.879 383.366 99.0579C382.065 102.24 380.755 105.44 378.891 108.298C377.927 109.784 376.817 111.144 375.728 112.539C371.432 117.987 368.144 124.557 363.269 129.458C362.088 130.66 361.34 132.305 360.019 133.335C358.583 134.451 356.731 134.622 355.003 134.696Z" fill="#434175"/>
<path opacity="0.1" d="M375.414 62.4634C374.936 62.4879 374.471 62.6345 374.059 62.8904C375.051 62.5261 376.259 63.4996 377.174 63.0384C377.602 62.8221 377.537 62.7595 377.174 62.6285C376.627 62.435 375.966 62.6115 375.414 62.4634Z" fill="black"/>
<path d="M546.428 250.593L506.612 265.452L509.149 272.963L548.965 258.104L546.428 250.593Z" fill="#D0D2D5"/>
<path d="M519.931 281.027L556.174 267.501C557.122 267.147 558.164 267.204 559.072 267.658C559.98 268.112 560.68 268.927 561.016 269.923C561.353 270.919 561.299 272.015 560.867 272.969C560.435 273.923 559.659 274.658 558.712 275.012L522.469 288.538L519.931 281.027Z" fill="#D0D2D5"/>
<path d="M485.402 257.664L494.233 254.368C502.086 251.438 510.724 251.905 518.248 255.669C525.772 259.432 531.565 266.182 534.354 274.435L537.49 283.716C538.58 286.943 538.406 290.493 537.006 293.585C535.606 296.677 533.094 299.058 530.023 300.204L503.163 310.228C500.092 311.374 496.715 311.191 493.772 309.719C490.83 308.248 488.565 305.608 487.475 302.381L477.936 274.152C476.846 270.925 477.02 267.375 478.42 264.283C479.82 261.191 482.332 258.81 485.402 257.664Z" fill="#3F3D56"/>
<path opacity="0.1" d="M374.926 68.0196C374.559 67.8842 374.163 67.8586 373.783 67.9456C373.216 68.0089 372.688 68.2811 372.293 68.7141C372.398 68.7636 372.512 68.7892 372.627 68.7892C372.741 68.7892 372.855 68.7636 372.96 68.7141C373.314 68.6198 373.678 68.5777 374.043 68.5889C374.357 68.5889 375.294 68.9532 375.538 68.7938C375.896 68.549 375.17 68.1164 374.926 68.0196Z" fill="black"/>
<path opacity="0.1" d="M404.714 50.0642C403.898 49.7745 403.119 49.3806 402.395 48.8915C400.494 47.6219 398.896 45.897 397.016 44.599C396.067 43.9722 395.085 43.402 394.075 42.8911L387.732 39.4753C387.248 39.1861 386.731 38.9642 386.193 38.8149C385.159 38.5758 383.994 39.3045 382.943 39.1508C382.398 39.0456 381.881 38.8202 381.426 38.4895C380.97 38.1588 380.586 37.7303 380.3 37.2323C379.727 36.2373 379.324 35.1449 379.108 34.0043C378.946 33.3317 378.825 32.6491 378.745 31.9605C378.651 31.2455 378.638 30.5212 378.707 29.8029C378.815 28.3764 379.458 27.0536 380.495 26.1252C381.247 25.5639 382.103 25.1759 383.008 24.9866C383.579 24.835 384.16 24.7341 384.747 24.6849C385.08 24.6565 385.416 24.6565 385.749 24.6849C388.143 24.8842 390.169 26.5921 391.767 28.4708C392.607 29.4613 393.392 30.5259 394.194 31.5336C394.382 32.1471 394.61 32.7463 394.877 33.3269C395.738 35.1258 397.141 36.5605 398.522 37.9553L400.023 39.4753C400.776 40.2381 402.081 40.0446 402.791 40.8473C403.079 41.2245 403.295 41.6579 403.424 42.1225C404.224 44.182 404.687 46.3684 404.795 48.5898C404.8 49.0826 404.773 49.5753 404.714 50.0642Z" fill="black"/>
<path opacity="0.1" d="M355.382 122.923L322.74 127.973C322.815 127.057 323.075 126.168 323.503 125.365C327.295 124.227 331.141 123.088 335.079 123.145C336.363 123.145 337.636 123.305 338.914 123.344C342.625 123.464 346.233 121.716 349.916 122.206C350.281 122.244 350.649 122.159 350.965 121.964C351.281 121.768 351.53 121.472 351.677 121.118C351.834 120.697 351.899 120.145 352.305 119.98C352.598 119.866 352.998 120.008 353.183 119.746C353.248 119.606 353.287 119.453 353.296 119.297C353.405 118.727 353.952 118.471 354.38 118.158C355.463 117.373 356.075 116.029 356.617 114.742C356.759 114.464 356.846 114.158 356.871 113.843C356.871 113.592 356.796 113.342 356.801 113.086C356.801 112.186 357.76 111.668 358.258 110.934C358.914 109.966 358.8 108.657 359.119 107.518C359.553 106.083 360.707 105.064 360.994 103.652L361.135 103.459L366.692 101.182L355.382 122.923Z" fill="black"/>
<path opacity="0.1" d="M230.219 399.459C357.365 399.459 460.437 391.048 460.437 380.673C460.437 370.297 357.365 361.886 230.219 361.886C103.072 361.886 0 370.297 0 380.673C0 391.048 103.072 399.459 230.219 399.459Z" fill="#ED3237"/>
<path opacity="0.1" d="M433.743 449C516.014 449 582.708 439.883 582.708 428.636C582.708 417.39 516.014 408.272 433.743 408.272C351.472 408.272 284.778 417.39 284.778 428.636C284.778 439.883 351.472 449 433.743 449Z" fill="#ED3237"/>
<path d="M257.439 365.461L257.59 357.4C264.813 356.967 272.035 356.679 279.258 356.535C283.451 356.455 287.698 356.426 291.755 357.531C294.566 358.299 297.226 359.597 299.999 360.508C305.525 362.319 311.375 362.558 317.176 362.723C322.805 362.888 328.682 362.945 333.736 360.332C342.484 355.777 346.162 344.591 346.59 334.349C347.018 324.107 345.079 313.786 346.428 303.607" stroke="#3F3D56" stroke-width="12" stroke-miterlimit="10"/>
<path d="M277.243 381.237L180.719 379.939L181.001 377.337L185.67 334.417H270.434L276.674 377.337L277.151 380.588L277.243 381.237Z" fill="#D0D2D5"/>
<path opacity="0.1" d="M277.151 380.588H228.978L180.719 379.939L181.001 377.337H276.674L277.151 380.588Z" fill="black"/>
<path d="M292.714 377.986H164.631V381.236H292.714V377.986Z" fill="#D0D2D5"/>
<path d="M414.914 76.6391C414.923 75.5245 414.723 74.419 414.324 73.386C413.926 72.3529 413.338 71.4127 412.593 70.6193C411.848 69.8259 410.961 69.1949 409.984 68.7625C409.006 68.3301 407.957 68.1048 406.897 68.0996H49.2072C48.1469 68.1056 47.0981 68.3313 46.1209 68.764C45.1437 69.1967 44.2574 69.8277 43.5127 70.621C42.7679 71.4142 42.1794 72.3541 41.7809 73.3868C41.3824 74.4195 41.1816 75.5247 41.1902 76.6391V304.507H414.914V76.6391Z" fill="#3F3D56"/>
<path d="M41.1902 302.229V328.923C41.1902 331.158 42.0348 333.301 43.5383 334.881C45.0418 336.461 47.081 337.349 49.2072 337.349H406.897C409.023 337.349 411.062 336.461 412.566 334.881C414.069 333.301 414.914 331.158 414.914 328.923V302.229H41.1902Z" fill="#D0D2D5"/>
<path d="M401.301 82.4346H56.6609V287.274H401.301V82.4346Z" fill="#2F2E41"/>
<path d="M229.91 327.221C231.175 327.221 232.424 326.92 233.562 326.339C234.701 325.758 235.698 324.913 236.481 323.868C236.719 323.548 236.937 323.212 237.131 322.86L232.548 322.069L237.504 322.109C237.98 321.022 238.239 319.844 238.266 318.648C238.293 317.451 238.087 316.262 237.662 315.152L231.015 318.778L237.147 314.042C236.581 312.982 235.812 312.056 234.888 311.325C233.965 310.593 232.906 310.071 231.781 309.792C230.655 309.512 229.486 309.482 228.349 309.702C227.211 309.922 226.129 310.388 225.172 311.07C224.215 311.753 223.403 312.637 222.788 313.666C222.173 314.696 221.767 315.848 221.598 317.051C221.429 318.253 221.499 319.48 221.804 320.652C222.11 321.825 222.643 322.918 223.372 323.862C224.149 324.905 225.142 325.749 226.274 326.331C227.406 326.912 228.65 327.217 229.91 327.221Z" fill="#ED3237"/>
<path opacity="0.1" d="M238.263 337.344L276.772 377.986L270.862 337.344H238.263Z" fill="black"/>
<path d="M403.657 80.7665L424.339 51.9657C425.574 50.2578 426.847 48.4759 428.543 47.2462C433.418 43.7052 440.563 45.8002 444.642 50.3375C448.721 54.8748 450.432 61.1883 451.684 67.2912C454.598 81.3381 455.9 95.7014 455.562 110.074C455.389 117.64 454.744 125.286 452.453 132.464C448.975 143.384 441.928 152.578 436.603 162.637C428.028 178.845 424.437 200.461 435.292 215.087C438.829 219.852 443.645 223.495 446.911 228.471C450.6 234.09 452.036 240.961 453.412 247.634C455.465 257.71 457.523 267.849 457.902 278.148C459.126 311.446 441.061 344.716 413.164 360.554C393.798 371.553 370.37 374.741 353.529 389.656C347.571 394.911 342.435 402.636 343.898 410.641C345.09 417.136 350.517 422.072 356.476 424.219C362.435 426.365 368.897 426.188 375.181 425.813C390.273 424.906 405.292 422.956 420.141 419.977C432.724 417.45 445.286 415.269 456.255 408.312C457.355 407.701 458.294 406.816 458.991 405.733C459.701 404.487 459.82 402.978 459.917 401.526C460.215 397.251 460.497 392.816 459.061 388.802C457.388 384.111 453.569 380.559 451.738 375.936C449.907 371.314 450.237 365.991 451.424 361.135C452.886 355.134 455.546 349.544 458.222 344.027C460.827 338.653 463.471 333.296 466.537 328.201C475.171 313.877 486.969 302.013 498.643 290.314" stroke="#3F3D56" stroke-width="12" stroke-miterlimit="10"/>
<path d="M437.881 39.481C438.791 39.0649 439.766 38.8276 440.758 38.7808C441.393 38.8326 442.017 38.9822 442.61 39.2248C443.681 39.555 444.681 40.0981 445.557 40.8245C445.991 41.1917 446.335 41.6618 446.562 42.1963C446.789 42.7308 446.892 43.3143 446.863 43.8988C446.738 45.0373 445.936 46.0165 445.059 46.7452C443.869 47.7752 442.395 48.3741 440.855 48.4531C439.133 48.4531 437.508 47.6675 435.845 47.1779C434.635 46.8183 433.386 46.6269 432.129 46.6086C431.496 46.6426 430.861 46.5986 430.238 46.4777C429.926 46.4167 429.632 46.2793 429.38 46.0765C429.127 45.8738 428.924 45.6114 428.786 45.3106C428.638 44.7617 428.638 44.1801 428.786 43.6312C428.916 42.9253 428.895 41.2458 429.491 40.8245C429.967 40.4887 431.657 40.7619 432.242 40.7107C434.157 40.5065 436.047 40.0944 437.881 39.481Z" fill="#FBBEBE"/>
<path d="M430.368 40.0503C428.125 41.1319 425.493 40.2324 423.055 40.2267C421.858 40.2267 420.666 40.4374 419.475 40.5114C418.154 40.5608 416.832 40.5246 415.515 40.4032L411.55 40.1186C409.214 40.0371 406.892 39.7013 404.622 39.1166C402.682 36.7142 399.535 35.6553 397.195 33.6969C395.321 32.1256 393.977 29.9851 392.379 28.1007C390.781 26.2163 388.755 24.5141 386.367 24.3148C385.441 24.2663 384.515 24.37 383.62 24.6223C382.716 24.8077 381.861 25.1961 381.112 25.7609C380.598 26.2197 380.176 26.7809 379.869 27.412C379.562 28.0432 379.377 28.7319 379.325 29.4385C379.226 30.8525 379.36 32.2737 379.72 33.6399C379.936 34.7824 380.339 35.8766 380.912 36.8736C381.202 37.3696 381.587 37.7966 382.043 38.127C382.499 38.4573 383.016 38.6839 383.561 38.7921C384.606 38.9401 385.765 38.2228 386.811 38.4505C387.349 38.5998 387.866 38.8218 388.349 39.1109L394.698 42.5267C395.706 43.0389 396.686 43.6091 397.634 44.2346C399.519 45.5326 401.111 47.2576 403.013 48.5271C404.914 49.7966 407.314 50.5937 409.426 49.7625C415.927 47.2177 423.25 48.4019 430.146 49.0338C430.103 48.8971 430.384 48.7719 430.466 48.658C431.319 47.4278 431.705 45.9075 431.549 44.394C431.381 42.8967 430.839 41.4849 430.368 40.0503Z" fill="#F86D70"/>
<path d="M419.464 20.8704C420.139 20.5442 420.705 20.0127 421.089 19.3447C421.706 18.1434 421.327 16.6689 420.905 15.3596C420.482 14.0502 420.054 12.9059 419.583 11.699C419.246 10.6862 418.735 9.74667 418.077 8.92649C417.118 7.85052 415.748 7.30968 414.605 6.46143C413.251 5.45377 412.238 4.02483 411.095 2.76668C409.952 1.50853 408.554 0.341473 406.907 0.130833C405.639 0.0638597 404.373 0.31154 403.213 0.853842C393.322 4.67383 385.234 12.2398 376.378 18.2402C372.933 20.58 369.065 22.7604 365.002 22.4473L368.637 28.516C369.563 30.0702 370.603 31.7155 372.228 32.3816C373.664 32.9509 375.267 32.6662 376.773 32.3816C377.972 32.1991 379.139 31.8308 380.235 31.2885C382.401 30.0532 383.793 27.4856 386.123 26.5918C387.862 25.9257 389.801 26.3356 391.54 26.9732C393.278 27.6109 394.985 28.4762 396.816 28.7381C400.066 29.1992 403.316 27.6564 406.024 25.6639C407.65 24.4797 409.128 23.1191 410.9 22.2481C412.232 21.5214 413.745 21.2412 415.233 21.4454C416.875 21.6845 417.839 21.7642 419.464 20.8704Z" fill="#2F2E41"/>
<path opacity="0.1" d="M421.089 19.3447C421.696 18.1663 421.338 16.7203 420.926 15.4507C421.06 16.1781 420.965 16.9314 420.656 17.597C420.268 18.2617 419.703 18.7922 419.031 19.1227C417.406 20.0222 416.42 19.9425 414.751 19.6522C413.263 19.4517 411.751 19.7317 410.418 20.4549C408.657 21.3487 407.168 22.7321 405.542 23.8707C402.834 25.8632 399.584 27.4003 396.334 26.9392C394.497 26.683 392.802 25.8006 391.058 25.1744C389.313 24.5481 387.369 24.1269 385.641 24.7929C383.317 25.6867 381.941 28.26 379.758 29.4896C378.662 30.0311 377.495 30.3994 376.297 30.5827C374.785 30.8901 373.182 31.1918 371.752 30.5827C370.127 29.9223 369.087 28.2713 368.155 26.7172L365.582 22.419C365.376 22.419 365.165 22.419 364.959 22.419L368.594 28.4877C369.52 30.0419 370.56 31.6871 372.185 32.3532C373.621 32.9225 375.224 32.6379 376.73 32.3532C377.929 32.1708 379.095 31.8024 380.191 31.2602C382.358 30.0248 383.75 27.4572 386.08 26.5634C387.818 25.8974 389.758 26.3073 391.496 26.9449C393.235 27.5825 394.942 28.4478 396.772 28.7097C400.023 29.1708 403.273 27.628 405.981 25.6355C407.606 24.4514 409.085 23.0907 410.856 22.2197C412.189 21.493 413.701 21.2129 415.19 21.417C416.858 21.7016 417.844 21.7813 419.464 20.8875C420.141 20.5568 420.707 20.0191 421.089 19.3447Z" fill="black"/>
<path d="M449.094 408.762C449.414 408.238 449.813 407.773 450.275 407.385C452.642 405.039 453.742 401.589 454.327 398.207C454.912 394.826 455.08 391.376 456.017 388.068C456.524 386.371 457.161 384.72 457.924 383.132C458.466 381.914 459.143 379.523 460.14 378.675C460.333 378.497 460.569 378.377 460.822 378.328C461.288 377.28 461.955 376.345 462.783 375.584C464.332 374.109 466.223 372.936 467.257 371.029C467.54 370.367 467.891 369.739 468.303 369.156C469.002 368.342 470.107 368.018 470.751 367.158C471.591 366.053 471.401 364.477 471.293 363.065C471.185 361.653 471.293 359.973 472.452 359.239C473.145 358.789 474.039 358.829 474.76 358.436C475.843 357.867 476.271 356.427 476.249 355.146C476.228 353.865 475.849 352.618 475.751 351.343C475.448 347.267 478.004 343.213 477.013 339.262C476.639 337.765 475.789 336.461 475.155 335.072C474.938 334.606 474.757 334.123 474.613 333.626C472.925 334.331 471.151 334.781 469.343 334.964C472.328 327.928 471.569 319.747 472.961 312.192L472.783 311.93C471.373 309.985 470.575 307.627 470.497 305.184C470.497 302.338 471.748 299.736 472.311 296.986C472.788 294.641 472.772 292.198 473.395 289.898C473.831 288.47 474.406 287.092 475.112 285.788C475.789 284.467 476.499 283.175 477.241 281.9C477.934 279.486 478.629 277.072 479.326 274.658C480.301 271.242 481.303 267.827 483.199 264.901C483.893 263.825 484.104 261.655 485.171 261.006C486.037 260.532 487.021 260.351 487.988 260.488C489.494 259.6 490.815 258.319 491.005 256.566C491.024 256.183 490.987 255.799 490.897 255.427H490.713C488.324 255.194 487.121 252.985 485.881 251.055C483.871 247.918 484.64 243.683 485.881 240.125C486.188 239 486.745 237.968 487.506 237.113C489.245 235.405 491.996 235.781 494.239 234.955C494.966 234.621 495.709 234.327 496.465 234.073C497.955 233.703 499.515 234.221 500.88 234.938C502.245 235.656 503.518 236.601 504.948 237.17C506.378 237.739 508.144 238.189 508.496 239.732C508.596 240.252 508.553 240.791 508.372 241.286C508.043 242.273 507.467 243.149 506.703 243.819C507.312 245.139 507.642 246.582 507.669 248.049C507.696 249.515 507.42 250.97 506.86 252.314C506.301 253.658 505.47 254.858 504.427 255.832C503.383 256.806 502.151 257.53 500.815 257.955C500.403 258.644 500.019 259.356 499.667 260.079C499.038 261.354 498.507 262.857 498.719 264.223C499.112 264.657 499.474 265.122 499.802 265.612C501.357 267.889 502.24 270.565 503.052 273.229C504.149 276.63 505.025 280.105 505.674 283.63C506.996 286.579 508.61 289.403 509.569 292.506C511.285 292.51 512.994 292.271 514.65 291.794L519.222 290.701C520.809 290.325 522.472 289.915 523.718 288.811C524.379 288.242 524.893 287.485 525.565 286.915C526.237 286.346 527.585 285.691 528.322 286.158C528.457 286.244 528.582 286.345 528.696 286.46C529.362 285.037 533.625 290.861 530.711 291.436L530.901 292.005C531.285 293.183 532.103 294.618 531.897 295.848L511.551 303.186C510.247 303.742 508.862 304.063 507.456 304.137C506.908 304.132 506.362 304.055 505.831 303.909V305.002V305.042C505.777 312.551 506.915 320.014 507.126 327.518C507.164 328.884 507.126 330.364 506.302 331.434C505.382 332.607 503.746 332.835 502.321 332.573C501.981 332.515 501.645 332.438 501.313 332.34C500.832 334.227 500.484 336.149 500.273 338.09L498.925 348.2C498.749 349.241 498.678 350.298 498.713 351.354C498.87 353.734 500.068 355.874 500.934 358.078C501.801 360.281 502.316 362.917 501.173 364.972C500.82 365.609 500.328 366.156 500.008 366.816C499.602 367.837 499.417 368.939 499.466 370.044C499.383 373.118 499.304 376.189 499.228 379.255C499.465 379.219 499.706 379.272 499.91 379.404C501.037 380.32 500.913 384.715 500.994 386.076C501.08 388.353 500.994 390.676 501.113 392.976C501.259 396.085 501.746 399.166 502.565 402.158C502.76 403.13 503.187 404.033 503.805 404.783C504.438 405.36 505.192 405.771 506.004 405.984C508.705 406.872 511.529 407.276 514.357 407.18C515.5 407.14 516.692 407.026 517.754 407.481C518.815 407.937 519.671 409.189 519.287 410.328C518.956 411.284 517.954 411.74 517.05 412.098C514.982 412.861 512.987 413.825 511.091 414.979C510.359 415.503 509.588 415.962 508.783 416.351C508.015 416.642 507.22 416.849 506.411 416.966L496.812 418.674C494.846 419.032 492.478 419.243 491.227 417.535C490.55 416.613 490.453 415.36 490.485 414.193C490.539 411.916 490.973 409.599 490.685 407.322C490.476 405.973 490.14 404.65 489.683 403.371L486.802 394.422C485.837 391.421 484.862 388.398 484.488 385.256C484.353 384.117 484.364 382.825 485.193 382.113C485.402 381.933 485.646 381.801 485.908 381.726C485.94 378.982 486.282 376.233 486.135 373.488C486.097 372.805 486.032 372.117 485.978 371.433C485.472 371.932 485.021 372.49 484.635 373.096C483.714 374.616 483.373 376.631 481.959 377.65C480.756 378.515 478.974 378.47 478.129 379.722C477.858 380.203 477.653 380.723 477.522 381.265C477.028 382.606 476.293 383.833 475.356 384.88C475.029 386.129 474.581 387.338 474.018 388.49C473.22 390.254 472.425 392.019 471.634 393.784C470.784 395.674 469.928 397.564 468.926 399.352C468.166 400.486 467.555 401.723 467.111 403.029C466.347 405.842 467.588 408.927 469.565 411C471.542 413.072 474.137 414.262 476.694 415.372C476.966 415.466 477.216 415.621 477.425 415.827C477.645 416.104 477.761 416.457 477.75 416.818C477.75 418.133 476.726 419.26 475.545 419.664C474.338 420.005 473.073 420.054 471.845 419.807C464.923 418.924 458.021 417.148 451.9 413.613C450.985 413.154 450.172 412.496 449.517 411.683C449.208 411.278 449.007 410.795 448.933 410.282C448.858 409.769 448.914 409.245 449.094 408.762Z" fill="url(#paint1_linear_459_4706)"/>
<path d="M478.356 281.097C477.205 282.956 476.121 284.865 475.106 286.824C474.399 288.115 473.823 289.482 473.389 290.9C472.755 293.177 472.777 295.614 472.306 297.937C471.764 300.669 470.497 303.277 470.497 306.072C470.576 308.501 471.375 310.844 472.783 312.772C474.186 314.682 475.788 316.419 477.56 317.953C481.651 306.816 483.936 295.037 484.321 283.106C484.375 281.455 484.38 279.747 483.811 278.21C483.454 277.243 481.769 274.59 480.68 275.631C480.285 276.013 480.182 277.732 479.938 278.301C479.482 279.275 478.953 280.21 478.356 281.097Z" fill="#F86D70"/>
<path opacity="0.1" d="M478.356 281.097C477.205 282.956 476.121 284.865 475.106 286.824C474.399 288.115 473.823 289.482 473.389 290.9C472.755 293.177 472.777 295.614 472.306 297.937C471.764 300.669 470.497 303.277 470.497 306.072C470.576 308.501 471.375 310.844 472.783 312.772C474.186 314.682 475.788 316.419 477.56 317.953C481.651 306.816 483.936 295.037 484.321 283.106C484.375 281.455 484.38 279.747 483.811 278.21C483.454 277.243 481.769 274.59 480.68 275.631C480.285 276.013 480.182 277.732 479.938 278.301C479.482 279.275 478.953 280.21 478.356 281.097Z" fill="black"/>
<path d="M536.507 287.319C538.625 286.949 540.976 287.131 542.623 288.572C543.617 289.459 544.246 290.715 544.378 292.079C544.519 293.661 543.646 295.529 542.141 295.654C541.778 295.658 541.416 295.633 541.057 295.58C540.106 295.574 539.156 295.655 538.219 295.825C536.373 296.006 534.513 295.721 532.794 294.992C531.075 294.263 529.547 293.112 528.338 291.635C527.049 289.961 528.75 289.192 530.283 288.851C532.374 288.384 534.416 287.695 536.507 287.319Z" fill="#FBBEBE"/>
<path d="M500.279 338.738L498.935 348.769C498.761 349.802 498.692 350.852 498.729 351.9C498.887 354.263 500.078 356.386 500.945 358.573C501.812 360.759 502.332 363.372 501.189 365.404C500.837 366.042 500.338 366.577 500.024 367.232C499.619 368.246 499.434 369.343 499.482 370.442L499.114 384.675C494.932 384.972 490.736 384.947 486.558 384.601C486.393 384.615 486.229 384.571 486.092 384.476C485.982 384.328 485.927 384.144 485.935 383.958C485.751 380.627 486.303 377.291 486.124 373.961C486.059 372.742 485.891 371.53 485.875 370.306C485.805 365.347 488.139 360.491 487.435 355.584C487.213 354.349 486.924 353.129 486.569 351.929C484.342 343.389 484.813 334.412 485.301 325.599C485.296 325.457 485.334 325.318 485.409 325.2C485.493 325.117 485.596 325.058 485.707 325.029C488.078 324.284 490.584 324.149 493.014 324.636C495.445 325.122 497.728 326.216 499.672 327.825C500.262 328.326 501.752 328.81 502.142 329.402C502.684 330.239 501.969 331.064 501.66 331.952C500.97 334.156 500.507 336.431 500.279 338.738Z" fill="#3F3D56"/>
<path opacity="0.1" d="M500.279 338.738L498.935 348.769C498.761 349.802 498.692 350.852 498.729 351.9C498.887 354.263 500.078 356.386 500.945 358.573C501.812 360.759 502.332 363.372 501.189 365.404C500.837 366.042 500.338 366.577 500.024 367.232C499.619 368.246 499.434 369.343 499.482 370.442L499.114 384.675C494.932 384.972 490.736 384.947 486.558 384.601C486.393 384.615 486.229 384.571 486.092 384.476C485.982 384.328 485.927 384.144 485.935 383.958C485.751 380.627 486.303 377.291 486.124 373.961C486.059 372.742 485.891 371.53 485.875 370.306C485.805 365.347 488.139 360.491 487.435 355.584C487.213 354.349 486.924 353.129 486.569 351.929C484.342 343.389 484.813 334.412 485.301 325.599C485.296 325.457 485.334 325.318 485.409 325.2C485.493 325.117 485.596 325.058 485.707 325.029C488.078 324.284 490.584 324.149 493.014 324.636C495.445 325.122 497.728 326.216 499.672 327.825C500.262 328.326 501.752 328.81 502.142 329.402C502.684 330.239 501.969 331.064 501.66 331.952C500.97 334.156 500.507 336.431 500.279 338.738Z" fill="black"/>
<path d="M475.161 335.71C475.794 337.093 476.645 338.385 477.019 339.871C478.01 343.794 475.458 347.841 475.762 351.861C475.859 353.13 476.233 354.365 476.26 355.635C476.287 356.905 475.843 358.316 474.77 358.897C474.05 359.29 473.145 359.25 472.468 359.694C471.325 360.423 471.195 362.097 471.309 363.491C471.423 364.886 471.607 366.457 470.767 367.556C470.123 368.404 469.018 368.729 468.324 369.532C467.91 370.11 467.558 370.734 467.274 371.393C466.239 373.289 464.354 374.456 462.805 375.948C461.255 377.439 459.944 379.625 460.638 381.686C461.147 383.206 462.577 384.14 463.953 384.851C466.463 386.155 469.113 387.14 471.845 387.783C472.139 387.875 472.449 387.89 472.75 387.829C473.054 387.71 473.326 387.515 473.541 387.26C475.139 385.614 476.791 383.889 477.528 381.675C477.66 381.137 477.864 380.621 478.134 380.143C478.979 378.902 480.756 378.942 481.964 378.088C483.373 377.08 483.714 375.077 484.635 373.568C485.507 372.145 486.904 371.165 487.885 369.833C489.51 367.624 489.949 364.681 491.135 362.159C491.639 361.083 492.283 360.087 492.684 358.965C493.089 357.63 493.338 356.248 493.426 354.849C494.19 348.2 496.135 341.505 494.911 334.924C494.64 333.472 494.223 332.077 494.049 330.586C493.746 328.001 494.223 325.365 493.86 322.787C493.852 322.464 493.774 322.148 493.632 321.862C493.49 321.576 493.288 321.327 493.042 321.136C492.749 320.999 492.431 320.929 492.11 320.931C488.899 320.755 485.679 320.833 482.479 321.164C480.854 321.329 479.028 321.676 478.059 323.071C477.23 324.261 477.273 325.866 476.975 327.318C476.65 329.1 475.789 330.079 474.884 331.48C473.98 332.88 474.494 334.269 475.161 335.71Z" fill="#3F3D56"/>
<path d="M487.657 381.971C486.802 381.971 485.854 381.92 485.193 382.489C484.369 383.195 484.353 384.499 484.488 385.614C484.868 388.729 485.837 391.729 486.807 394.723L489.689 403.61C490.146 404.877 490.481 406.189 490.691 407.527C490.978 409.804 490.545 412.081 490.49 414.358C490.49 415.497 490.561 416.761 491.238 417.677C492.462 419.328 494.851 419.135 496.817 418.782L506.411 417.074C507.22 416.958 508.015 416.754 508.783 416.465C509.585 416.077 510.355 415.62 511.086 415.098C512.984 413.958 514.979 413.005 517.044 412.252C517.943 411.899 518.951 411.444 519.276 410.493C519.66 409.354 518.805 408.107 517.743 407.646C516.681 407.185 515.495 407.305 514.346 407.345C511.522 407.44 508.702 407.038 506.004 406.155C505.191 405.95 504.437 405.541 503.805 404.965C503.185 404.224 502.756 403.328 502.559 402.363C501.747 399.395 501.26 396.339 501.108 393.254C500.999 390.977 501.075 388.7 500.988 386.423C500.934 385.074 501.059 380.73 499.905 379.802C499.044 379.107 495.496 381.026 494.336 381.305C492.145 381.819 489.901 382.043 487.657 381.971Z" fill="#2F2E41"/>
<path d="M456.05 388.301C455.118 391.569 454.966 395.013 454.365 398.367C453.764 401.72 452.686 405.147 450.319 407.475C449.857 407.858 449.459 408.32 449.143 408.842C448.943 409.329 448.875 409.865 448.947 410.391C449.019 410.916 449.227 411.41 449.549 411.819C450.203 412.629 451.014 413.283 451.927 413.738C458.043 417.245 464.928 419.009 471.867 419.886C473.093 420.132 474.355 420.086 475.561 419.749C476.742 419.328 477.788 418.212 477.766 416.903C477.777 416.545 477.661 416.196 477.441 415.924C477.23 415.721 476.981 415.568 476.71 415.474C474.153 414.37 471.553 413.163 469.581 411.13C467.609 409.098 466.363 406.007 467.127 403.24C467.574 401.945 468.183 400.718 468.936 399.591C469.929 397.8 470.833 395.957 471.645 394.068L474.028 388.814C474.722 387.282 475.431 385.7 475.545 383.997C472.553 384.14 469.565 383.638 466.764 382.523C465.456 381.962 464.238 381.194 463.151 380.246C462.23 379.437 461.391 377.934 460.15 378.988C459.154 379.83 458.525 382.199 457.935 383.405C457.186 384.983 456.556 386.62 456.05 388.301Z" fill="#2F2E41"/>
<path d="M490.967 257.83C490.729 260.01 488.714 261.456 486.791 262.316L498.957 266.403C498.172 264.821 498.811 262.885 499.591 261.28C500.226 260.01 500.95 258.793 501.758 257.636C501.877 257.46 502.012 257.232 501.926 257.033C501.848 256.899 501.727 256.8 501.584 256.754C499.082 255.581 496.503 254.368 493.768 253.941C492.977 253.816 491.482 253.486 490.891 254.334C490.301 255.183 491.097 256.822 490.967 257.83Z" fill="#FBBEBE"/>
<path opacity="0.1" d="M490.967 257.83C490.729 260.01 488.714 261.456 486.791 262.316L498.957 266.403C498.172 264.821 498.811 262.885 499.591 261.28C500.226 260.01 500.95 258.793 501.758 257.636C501.877 257.46 502.012 257.232 501.926 257.033C501.848 256.899 501.727 256.8 501.584 256.754C499.082 255.581 496.503 254.368 493.768 253.941C492.977 253.816 491.482 253.486 490.891 254.334C490.301 255.183 491.097 256.822 490.967 257.83Z" fill="black"/>
<path d="M498.058 259.6C503.329 259.6 507.602 255.109 507.602 249.569C507.602 244.029 503.329 239.538 498.058 239.538C492.786 239.538 488.513 244.029 488.513 249.569C488.513 255.109 492.786 259.6 498.058 259.6Z" fill="#FBBEBE"/>
<path d="M506.302 332.1C505.381 333.239 503.751 333.489 502.326 333.239C498.995 332.669 496.265 330.091 493.009 329.163C489.012 328.024 484.775 329.487 481.005 331.275C477.235 333.062 473.476 335.231 469.348 335.573C473.08 326.828 470.946 316.302 474.51 307.484C475.388 305.332 476.607 303.248 476.802 300.92C477.046 298.022 475.67 295.227 475.458 292.34C475.263 289.773 476 287.217 476.699 284.774L479.315 275.751C480.29 272.392 481.292 268.971 483.183 266.073C483.876 265.008 484.093 262.856 485.155 262.207C487.473 260.807 490.989 262.577 493.502 262.674C496.016 262.771 498.307 264.65 499.775 266.773C501.33 269.016 502.213 271.686 503.025 274.328C504.323 278.26 505.291 282.304 505.918 286.414C505.999 287.029 506.069 287.644 506.123 288.264C506.665 294.111 505.874 299.992 505.831 305.861C505.831 305.861 505.831 305.861 505.831 305.907C505.782 313.353 506.914 320.76 507.131 328.206C507.164 329.59 507.131 331.075 506.302 332.1Z" fill="#F86D70"/>
<path opacity="0.1" d="M505.831 305.913C503.962 305.417 502.267 304.153 500.82 302.764C499.566 301.589 498.449 300.261 497.494 298.808C496.294 296.822 495.332 294.688 494.629 292.454C492.623 286.524 491.349 280.348 490.837 274.077C490.696 272.369 490.653 270.542 491.623 269.187C492.165 268.453 492.929 267.933 493.788 267.713C494.648 267.492 495.553 267.585 496.357 267.974C497.641 268.635 498.47 269.961 499.233 271.225C500.761 273.747 502.294 276.292 503.274 279.093C503.708 280.334 504.027 281.615 504.45 282.862C504.879 284.091 505.375 285.294 505.934 286.465C506.015 287.08 506.086 287.695 506.14 288.316C506.644 294.134 505.874 300.015 505.831 305.913Z" fill="black"/>
<path d="M491.644 268.083C490.68 269.432 490.723 271.282 490.859 272.973C491.37 279.242 492.645 285.416 494.651 291.344C495.349 293.58 496.312 295.714 497.516 297.698C498.47 299.152 499.586 300.48 500.842 301.654C502.684 303.425 504.926 305.002 507.424 305.025C508.829 304.952 510.213 304.635 511.519 304.085L531.838 296.832C532.044 295.608 531.226 294.191 530.841 293.018L529.758 289.636C529.449 288.708 529.086 287.701 528.284 287.194C527.483 286.687 526.199 287.382 525.527 287.946C524.855 288.509 524.341 289.249 523.685 289.824C522.429 290.917 520.776 291.322 519.189 291.697L514.623 292.779C512.966 293.251 511.258 293.488 509.542 293.485C508.269 289.403 505.847 285.805 504.477 281.752C504.054 280.511 503.729 279.23 503.296 277.989C502.315 275.188 500.782 272.643 499.26 270.121C498.497 268.851 497.668 267.525 496.384 266.87C495.58 266.481 494.674 266.389 493.813 266.609C492.953 266.829 492.188 267.349 491.644 268.083Z" fill="#F86D70"/>
<path d="M495.013 251.829C495.087 251.172 495.282 250.535 495.588 249.956C495.748 249.666 495.991 249.436 496.283 249.3C496.575 249.164 496.9 249.129 497.213 249.199C498.166 249.512 498.486 251.066 499.482 251.118C500.154 251.152 500.636 250.434 500.847 249.757C501.059 249.08 501.172 248.322 501.676 247.844C502.026 247.567 502.429 247.373 502.857 247.275C505.17 246.506 507.559 245.083 508.328 242.664C508.506 242.174 508.55 241.641 508.453 241.126C508.101 239.595 506.286 239.134 504.905 238.576C503.523 238.018 502.196 237.084 500.842 236.367C499.488 235.65 497.917 235.137 496.427 235.502C495.671 235.752 494.927 236.044 494.201 236.379C491.958 237.193 489.207 236.817 487.468 238.513C486.71 239.362 486.153 240.386 485.843 241.502C484.624 245.038 483.86 249.245 485.87 252.353C487.105 254.272 488.313 256.463 490.696 256.691C493.47 256.953 494.575 254.289 495.013 251.829Z" fill="#2F2E41"/>
<g opacity="0.1">
<path opacity="0.1" d="M499.25 248.55C499.461 247.878 499.575 247.116 500.073 246.637C500.425 246.364 500.827 246.17 501.254 246.068C503.572 245.3 505.956 243.882 506.73 241.457C506.907 240.966 506.948 240.434 506.849 239.92C506.796 239.676 506.699 239.446 506.562 239.242C507.445 239.641 508.214 240.182 508.431 241.127C508.528 241.641 508.485 242.174 508.307 242.664C507.537 245.083 505.148 246.506 502.835 247.275C502.407 247.373 502.005 247.567 501.655 247.844C501.151 248.322 501.037 249.085 500.826 249.757C500.615 250.429 500.132 251.152 499.461 251.118C498.789 251.084 498.464 250.44 498.036 249.899C498.627 249.82 499.049 249.171 499.25 248.55Z" fill="black"/>
<path opacity="0.1" d="M489.109 255.473C491.893 255.741 492.993 253.082 493.443 250.623C493.516 249.965 493.711 249.329 494.017 248.75C494.177 248.46 494.421 248.231 494.713 248.095C495.005 247.96 495.33 247.926 495.642 247.998C496.156 248.163 496.487 248.698 496.839 249.137C496.59 249.162 496.351 249.247 496.138 249.385C495.926 249.523 495.747 249.711 495.615 249.934C495.309 250.513 495.114 251.149 495.041 251.807C494.602 254.266 493.497 256.931 490.707 256.657C489.602 256.533 488.582 255.979 487.847 255.103C488.246 255.298 488.672 255.423 489.109 255.473Z" fill="black"/>
</g>
<path d="M92.51 370.209L102.878 363.799C101.473 361.286 99.6809 359.035 97.5748 357.138L78.0143 363.531L93.3658 354.058C89.571 351.873 85.3003 350.765 80.9741 350.842C76.6478 350.918 72.4151 352.178 68.6926 354.496C64.9701 356.814 61.8861 360.111 59.7441 364.062C57.6022 368.013 56.4761 372.482 56.4767 377.029C56.4767 391.49 67.6301 391.996 81.3945 391.996C95.1588 391.996 106.312 391.49 106.312 377.029C106.309 373.368 105.571 369.748 104.145 366.406L92.51 370.209Z" fill="#ED3237"/>
<path opacity="0.1" d="M95.148 384.271C94.0445 383.107 92.8114 382.089 91.4753 381.236C89.5902 379.921 87.6456 378.578 85.4246 378.134C83.4745 377.741 81.4649 378.071 79.466 377.957C76.017 377.735 72.7705 376.17 70.3602 373.568C68.9464 372.031 67.8305 370.152 66.1296 368.962C64.2933 367.698 61.964 367.425 59.7864 367.738C59.1549 367.836 58.5291 367.971 57.9121 368.142C56.9345 370.993 56.436 374 56.4387 377.029C56.4387 391.489 67.5922 391.996 81.3565 391.996C88.0356 391.996 94.0971 391.877 98.5715 390.1L97.8239 388.632C97.1109 387.065 96.2118 385.6 95.148 384.271Z" fill="black"/>
<path d="M316.326 406.821L302.572 398.321C304.436 394.985 306.816 391.999 309.614 389.486L335.556 397.963L315.226 385.404C320.258 382.506 325.921 381.036 331.658 381.137C337.395 381.239 343.008 382.908 347.945 385.982C352.881 389.055 356.971 393.426 359.812 398.666C362.653 403.905 364.147 409.831 364.146 415.861C364.146 435.041 349.353 435.707 331.103 435.707C312.854 435.707 298.06 435.041 298.06 415.861C298.055 411.008 299.02 406.207 300.893 401.771L316.326 406.821Z" fill="#ED3237"/>
<path opacity="0.1" d="M312.821 425.465C314.286 423.922 315.923 422.571 317.696 421.44C320.194 419.698 322.777 417.922 325.719 417.33C328.303 416.812 330.968 417.25 333.595 417.091C338.168 416.795 342.474 414.724 345.675 411.278C347.549 409.235 349.028 406.724 351.287 405.17C353.719 403.462 356.806 403.126 359.694 403.547C360.534 403.672 361.366 403.851 362.185 404.082C363.48 407.86 364.14 411.846 364.136 415.861C364.136 435.041 349.342 435.707 331.092 435.707C322.236 435.707 314.197 435.553 308.26 433.196L309.251 431.249C310.286 429.217 311.337 427.173 312.821 425.465Z" fill="black"/>
<defs>
<linearGradient id="paint0_linear_459_4706" x1="296.765" y1="118.675" x2="443.55" y2="35.8489" gradientUnits="userSpaceOnUse">
<stop stop-color="#808080" stop-opacity="0.25"/>
<stop offset="0.54" stop-color="#808080" stop-opacity="0.12"/>
<stop offset="1" stop-color="#808080" stop-opacity="0.1"/>
</linearGradient>
<linearGradient id="paint1_linear_459_4706" x1="-118321" y1="148077" x2="-115754" y2="87002.5" gradientUnits="userSpaceOnUse">
<stop stop-color="#808080" stop-opacity="0.25"/>
<stop offset="0.54" stop-color="#808080" stop-opacity="0.12"/>
<stop offset="1" stop-color="#808080" stop-opacity="0.1"/>
</linearGradient>
</defs>
</svg>
