<svg width="481" height="343" viewBox="0 0 481 343" fill="none" xmlns="http://www.w3.org/2000/svg">
<g clip-path="url(#clip0_459_4784)">
<path d="M439.206 308.559C443.425 316.017 439.847 341.206 439.847 341.206C439.847 341.206 416.422 331.288 412.204 323.833C410.183 320.252 409.666 316.016 410.767 312.054C411.868 308.092 414.497 304.73 418.076 302.705C421.654 300.681 425.89 300.161 429.852 301.258C433.814 302.356 437.179 304.981 439.206 308.559V308.559Z" fill="#F1F1F1"/>
<path d="M440.187 341.173L439.689 341.278C434.896 318.502 418.158 303.057 417.989 302.904L418.331 302.528C418.501 302.682 435.359 318.232 440.187 341.173Z" fill="white"/>
<path d="M477.537 317.051C471.812 327.436 439.538 341.506 439.538 341.506C439.538 341.506 434.217 306.699 439.938 296.316C442.687 291.33 447.305 287.64 452.774 286.058C458.244 284.476 464.117 285.132 469.103 287.882C474.089 290.631 477.779 295.249 479.36 300.719C480.942 306.189 480.286 312.064 477.537 317.051Z" fill="#F1F1F1"/>
<path d="M439.823 341.883L439.338 341.372C462.692 319.19 468.738 288.251 468.797 287.941L469.488 288.072C469.43 288.384 463.347 319.539 439.823 341.883Z" fill="white"/>
<path d="M113.084 238.408C109.391 238.396 105.713 237.92 102.138 236.992L101.434 236.797L100.78 236.469C77.1478 224.619 57.2106 208.966 41.5221 189.946C28.5354 174.109 18.4103 156.128 11.6022 136.81C3.46078 113.683 -0.45604 89.2799 0.0387187 64.766C0.048702 64.2515 0.057151 63.8542 0.057151 63.5805C0.057151 51.6641 6.67077 41.2083 16.9061 36.943C24.7397 33.6786 95.8652 4.46063 101.004 2.34956C110.682 -2.50044 121.007 1.54764 122.659 2.25555C126.365 3.771 192.117 30.6676 206.325 37.4343C220.969 44.4083 224.876 56.937 224.876 63.2403C224.876 91.7775 219.934 118.448 210.188 142.511C202.317 161.987 191.161 179.968 177.207 195.67C150.283 225.973 123.353 236.715 123.093 236.81C119.874 237.917 116.488 238.458 113.084 238.408ZM106.751 222.718C109.086 223.242 114.461 224.027 117.965 222.749C122.416 221.125 144.957 209.435 166.02 185.728C195.123 152.974 209.889 111.798 209.911 63.3456C209.859 62.3639 209.162 55.3627 199.891 50.9478C185.958 44.312 117.615 16.3631 116.927 16.0814L116.738 16.0013C115.306 15.4011 110.748 14.1367 107.606 15.7834L106.977 16.0767C106.215 16.3897 30.7142 47.4034 22.6621 50.7589C17.0293 53.1061 15.0224 58.9212 15.0224 63.5805C15.0224 63.921 15.0136 64.4163 15.0011 65.0564C14.3576 98.2094 22.0284 179.789 106.751 222.718Z" fill="#3F3D56"/>
<path d="M104.134 9.15416C104.134 9.15416 27.9468 40.4493 19.784 43.8509C11.6211 47.2526 7.53966 55.4165 7.53966 63.5805C7.53966 71.7444 1.41753 178.273 104.134 229.779C104.134 229.779 113.456 232.359 120.529 229.779C127.602 227.199 217.393 183.658 217.393 63.2403C217.393 63.2403 217.393 50.9944 203.108 44.1911C188.823 37.3878 119.758 9.15416 119.758 9.15416C119.758 9.15416 111.276 5.41236 104.134 9.15416Z" fill="#ED3237"/>
<path opacity="0.1" d="M112.296 33.646V200.594C112.296 200.594 35.4295 163.589 36.1097 66.3018L112.296 33.646Z" fill="black"/>
<path d="M113.299 153.634L88.813 122.146L103.053 111.07L114.647 125.979L153.813 84.627L166.911 97.0379L113.299 153.634Z" fill="white"/>
<path d="M480.413 343H256.67C256.514 343 256.365 342.938 256.255 342.828C256.145 342.718 256.083 342.568 256.083 342.413C256.083 342.257 256.145 342.107 256.255 341.997C256.365 341.887 256.514 341.825 256.67 341.825H480.413C480.568 341.825 480.718 341.887 480.828 341.997C480.938 342.107 481 342.257 481 342.413C481 342.568 480.938 342.718 480.828 342.828C480.718 342.938 480.568 343 480.413 343Z" fill="#CACACA"/>
<path d="M321.347 333.742L330.429 333.742L334.75 298.706L321.345 298.706L321.347 333.742Z" fill="#FFB8B8"/>
<path d="M319.03 330.776L336.917 330.775H336.917C339.94 330.776 342.839 331.977 344.977 334.114C347.115 336.252 348.316 339.152 348.316 342.175V342.546L319.031 342.547L319.03 330.776Z" fill="#2F2E41"/>
<path d="M351.884 333.742L360.966 333.742L365.287 298.706L351.883 298.706L351.884 333.742Z" fill="#FFB8B8"/>
<path d="M349.567 330.776L367.454 330.775H367.454C370.477 330.776 373.376 331.977 375.514 334.114C377.652 336.252 378.853 339.152 378.853 342.175V342.546L349.568 342.547L349.567 330.776Z" fill="#2F2E41"/>
<path d="M335.622 210.704L337.801 321.856L320.177 320.763L307.95 249.965L304.089 201.693L335.622 210.704Z" fill="#2F2E41"/>
<path d="M365.868 192.039L368.338 323.618L347.784 323.031L343.344 244.816L335.622 216.497L304.089 201.693L309.237 166.295L355.572 165.651L365.868 192.039Z" fill="#2F2E41"/>
<path d="M330.432 74.2572C339.136 74.2572 346.193 67.2 346.193 58.4944C346.193 49.7888 339.136 42.7315 330.432 42.7315C321.727 42.7315 314.671 49.7888 314.671 58.4944C314.671 67.2 321.727 74.2572 330.432 74.2572Z" fill="#FFB8B8"/>
<path d="M343.504 80.8975L345.919 84.5554L352.354 102.576L347.206 172.73L316.959 173.375L313.099 92.9219L321.187 82.8104L343.504 80.8975Z" fill="#CCCCCC"/>
<path d="M300.871 94.853L295.723 94.2094C295.723 94.2094 294.436 94.853 293.792 99.3583C293.149 103.864 285.426 143.768 285.426 143.768L295.723 192.683L307.306 177.236L300.228 150.204L307.306 123.172L300.871 94.853Z" fill="#2F2E41"/>
<path d="M366.512 94.2099H370.373L380.026 146.342L371.016 186.89L362.007 172.087L364.581 155.997L363.294 141.838L358.789 133.47L366.512 94.2099Z" fill="#2F2E41"/>
<path d="M339.745 58.4942L336.88 57.7777C336.88 57.7777 334.73 45.5973 329.716 47.0303C324.701 48.4633 311.806 49.8963 311.806 44.1643C311.806 38.4323 323.984 33.4169 331.148 34.1334C338.312 34.8499 347.462 37.2268 349.775 47.7468C353.482 64.6107 342.125 68.8703 342.125 68.8703L342.314 68.2563C342.839 66.5515 342.876 64.7338 342.422 63.0087C341.969 61.2836 341.041 59.7199 339.745 58.4942Z" fill="#2F2E41"/>
<path d="M296.366 94.2094L316.96 85.8424L321.786 82.3025L336.266 146.342L343.023 80.3716L369.729 94.2094L360.72 137.975L359.433 154.71L363.294 168.225C363.294 168.225 376.808 177.88 372.303 188.178C367.799 198.476 362.65 199.119 362.65 199.119C362.65 199.119 340.77 178.523 339.483 173.374C338.196 168.225 336.266 159.215 336.266 159.215C336.266 159.215 325.325 200.406 312.455 199.763C299.584 199.119 299.584 185.603 299.584 185.603L302.802 171.444L307.95 156.64L305.376 132.183L296.366 94.2094Z" fill="#2F2E41"/>
</g>
<defs>
<clipPath id="clip0_459_4784">
<rect width="481" height="343" fill="white"/>
</clipPath>
</defs>
</svg>
